<?xml version="1.0" encoding="UTF-8"?><svg id="Layer_1" xmlns="http://www.w3.org/2000/svg" viewBox="0 0 414.75 411.76"><defs><style>.cls-1{fill:#c02231;}.cls-2{fill:#c01f31;}.cls-3{fill:#f8f4f5;}.cls-4{fill:#f5f7f5;}.cls-5{fill:#f05b2b;}.cls-6{fill:#f5f6f5;}.cls-7{fill:#f5f8f5;}.cls-8{fill:#f25c2d;}.cls-9{fill:#f05929;}.cls-10{fill:#bf1f2e;}.cls-11{fill:#f5f8f4;}.cls-12{fill:#f5f6f4;}.cls-13{fill:#f4f7f5;}.cls-14{fill:#ed2227;}.cls-15{fill:#f05c2d;}.cls-16{fill:#f5f5f4;}.cls-17{fill:#f4f6f4;}.cls-18{fill:#ed1c24;}.cls-19{fill:#f2f6f0;}.cls-20{fill:#f4f6f5;}.cls-21{fill:#f5f7f4;}.cls-22{fill:#ed2028;}.cls-23{fill:#f1f4f0;}</style></defs><path class="cls-18" d="m413.31,376.26c-.71,1.15-1.28,2.43-2.16,3.43-4.23,4.8-8.56,9.51-12.83,14.28-4.85,5.42-9.66,10.87-14.51,16.29-.45.5-1.05.86-1.64,1.39-.23.13-.4.15-.77.02-4.87-1.19-9.53-2.25-14.2-3.28-9.09-2.01-18.19-3.99-27.29-6.01-6.94-1.54-13.86-3.16-20.8-4.71-8.97-2.01-17.94-4-26.91-6-6.46-1.44-12.91-2.91-19.37-4.34-8.43-1.87-16.87-3.72-25.31-5.6-6.46-1.44-12.91-2.91-19.37-4.36-8.97-2.01-17.94-4.01-26.91-6.01-7.06-1.57-14.12-3.15-21.17-4.72-10.05-2.23-20.1-4.44-30.15-6.69-7.59-1.7-15.17-3.48-22.76-5.17-10.23-2.28-20.47-4.5-30.7-6.76-7.06-1.56-14.11-3.16-21.17-4.73-8.49-1.89-16.99-3.76-25.48-5.64-5.98-1.32-11.98-2.58-17.95-3.97-5.65-1.31-11.26-2.76-16.88-4.29.26-.77.38-1.51.79-1.99,4.74-5.4,9.52-10.76,14.3-16.13,4.81-5.42,9.63-10.84,14.44-16.26,6.16-6.92,12.32-13.85,18.49-20.76,5.38-6.02,10.78-12.01,16.17-18.02,5.13-5.73,10.27-11.45,15.37-17.21,5.39-6.09,10.7-12.25,16.11-18.31,5.96-6.68,12.02-13.28,18.01-19.93,4.05-4.49,8.09-9,12.12-13.52,5.95-6.68,11.89-13.39,17.84-20.07,2.72-3.06,5.48-6.09,8.2-9.16,5.6-6.32,11.17-12.67,16.79-18.98,3.1-3.49,6.28-6.9,9.39-10.38,6.09-6.81,12.16-13.65,18.23-20.48,2.64-2.97,5.29-5.92,7.93-8.9,4.34-4.91,8.65-9.85,13.03-14.73,1.29-1.44,1.91-1.25,2.57.64.6,1.74,1.15,3.5,1.72,5.25,4.2,12.92,8.39,25.83,12.46,38.78-2.69,3.02-5.21,6.05-7.82,8.99-3.12,3.52-6.33,6.97-9.49,10.46-4.34,4.79-8.68,9.58-12.99,14.39-3.43,3.83-6.8,7.7-10.21,11.54-4.87,5.49-9.75,10.96-14.62,16.44-3.54,3.98-7.04,8-10.61,11.95-5.14,5.68-10.36,11.29-15.5,16.98-3.49,3.86-6.88,7.8-10.35,11.67-5.52,6.17-11.07,12.32-16.61,18.47-1.89,2.1-3.83,4.16-5.73,6.25-4.18,4.58-8.35,9.17-12.66,13.76-.66.42-1.27.78-1.72,1.28-4.09,4.63-8.11,9.33-12.22,13.94-4.49,5.04-9.06,10.01-13.57,15.04-.77.86-1.4,1.85-2.24,2.98.91.33,1.53.61,2.18.77,4.72,1.16,9.43,2.37,14.17,3.41,20.06,4.43,40.14,8.78,60.2,13.2,14.65,3.23,29.28,6.54,43.93,9.8,19.2,4.28,38.41,8.53,57.61,12.82,12.94,2.89,25.88,5.8,38.81,8.74,20.89,4.74,41.77,9.52,62.66,14.23,12.02,2.71,24.08,5.27,36.1,8.01,1.72.39,3.83-.02,5.05,1.87m-94.2-2.4c1.32-1.87,2.64-3.74,4.07-5.77-2.59-.51-2.89-.47-4.17,1.22-.75.98-1.43,1.3-2.69.93-2.27-.67-4.61-1.11-6.93-1.56-6.22-1.18-11.58,1.89-13.76,7.75-.54,1.46-.39,2.31,1.15,2.97,3.44,1.49,7,2.31,10.71,2.4,3.21.07,6.01-.87,8.05-3.65,1.05-1.43,2.28-2.71,3.58-4.29m14.81,8.85c3.05.54,4.59-1.43,5.88-3.73.93-1.65.67-2.8-1.05-3.56-4.3-1.91-8.83-2.79-13.49-2.01-4.3.72-6.11,4.49-8.14,7.79-.76,1.24.09,2.41,1.27,2.95,1.34.63,2.8,1.02,4.21,1.47,1.38.45,2.39-.01,3-1.25-1.05-2.03-4.48-.67-4.75-3.94,4.56-.75,8.55,1.45,13.07,2.28m26.81,11.24c3.1.69,6.19,1.45,9.31,2.03,2.3.43,4.62.07,6.31-1.6.92-.91,1.55-2.5,1.58-3.8.01-.6-1.69-1.29-2.66-1.86-.36-.21-.84-.18-1.26-.29-1.87-.47-3.74-.92-5.59-1.47-.38-.11-.92-.67-.89-.97.04-.39.52-.93.91-1.05.62-.19,1.33-.17,1.98-.08,1.17.16,2.32.53,3.49.64,1.17.1,2.08-.36,2.2-1.87-3.08-1.41-6.26-1.93-9.36-.43-1.21.58-2.16,1.98-2.9,3.21-.58.97-.1,2.04,1.08,2.4,1.48.46,3.01.76,4.5,1.2,1.67.49,3.33,1.05,5.18,1.64-1.59,2.38-3.44,1.97-5.19,1.59-2.73-.6-5.42-1.5-8.17-1.93-.84-.13-1.85.83-2.79,1.3.66.42,1.32.84,2.28,1.33m2.87-12.95c-3.73-.95-7.43-2.03-11.18-2.82-2.93-.61-6.05-1.19-8.59,1.08-1.77,1.58-3.47,3.32-4.8,5.28-1.82,2.68-1.48,3.75,1.57,4.69,3.92,1.21,7.95,2.09,11.97,2.91.93.19,2.03-.47,3.06-.73-.01-.22-.02-.44-.03-.65-4.16-2.83-9.71-1.69-14.14-4.75,1.04-1.33,2.1-2.43,2.86-3.71,1.47-2.5,3.55-2.58,5.98-1.96,3.08.79,6.18,1.45,9.27,2.19,1.58.38,2.99.28,4.06-1.53m-70.49-12.24c-2.08,2.78-4.15,5.56-6.3,8.44,1.89,1.04,3.14.38,4.14-.77,1.7-1.94,3.32-3.97,4.94-5.99.35-.43.61-.97.79-1.51.43-1.28.33-2.51-1.15-2.92-3.28-.92-6.56-1.93-9.91-2.44-1.74-.27-4.19-.19-5.33.85-2.97,2.73-5.39,6.07-8.01,9.18-.13.15-.12.43-.18.68,1.84.52,3.11-.04,4.17-1.49,1.35-1.83,2.85-3.55,4.26-5.33.98-1.24,2.19-1.93,3.76-1.61,2.86.58,5.72,1.23,8.56,1.89.18.04.27.49.26,1m-23.75,3.07c3.49-4.38,7.46-8.38,10.16-13.56-1.27,0-2.67.01-3.31.73-3.31,3.71-6.44,7.58-9.58,11.44-.55.67-.81,1.59-1.21,2.39.15.18.3.37.45.55,1.09-.46,2.18-.91,3.49-1.55Z"/><path class="cls-9" d="m413.44,376.24c-1.35-1.87-3.46-1.46-5.18-1.85-12.02-2.74-24.07-5.3-36.1-8.01-20.89-4.71-41.77-9.5-62.66-14.23-12.93-2.93-25.87-5.85-38.81-8.74-19.2-4.29-38.41-8.54-57.61-12.82-14.64-3.26-29.28-6.57-43.93-9.8-20.06-4.42-40.14-8.78-60.2-13.2-4.74-1.05-9.45-2.26-14.17-3.41-.65-.16-1.26-.44-2.18-.77.85-1.13,1.48-2.12,2.24-2.98,4.51-5.03,9.08-9.99,13.57-15.04,4.11-4.61,8.13-9.31,12.22-13.94.44-.5,1.05-.85,1.71-1.13.76.42,1.37.8,2.04.96,6.55,1.53,13.11,3.05,19.68,4.52,7.17,1.6,14.36,3.12,21.53,4.69,7.95,1.74,15.9,3.48,23.85,5.23,7.71,1.7,15.42,3.39,23.13,5.11,10.09,2.25,20.18,4.53,30.27,6.79,7.05,1.58,14.1,3.14,21.15,4.7,8.43,1.86,16.86,3.68,25.28,5.56,6.45,1.44,12.88,2.95,19.33,4.37.54.12,1.18-.22,1.88-.28,1.46.79,2.73,1.86,4.16,2.2,6.9,1.67,13.84,3.14,20.77,4.68,5.2,1.15,10.4,2.29,16.07,3.54-1.11-3.69-2.05-6.89-3.03-10.08-3.51-11.41-7.04-22.8-10.54-34.21-6.57-21.42-13.1-42.85-19.67-64.27-3.46-11.29-6.96-22.56-10.42-33.85-6.39-20.88-12.74-41.76-19.13-62.64-3.49-11.41-7.04-22.8-10.54-34.21-6.55-21.36-13.09-42.72-19.61-64.08-1.83-6.01-3.59-12.04-5.38-18.06.41-.02.82-.04,1.47.09.8.18,1.38.13,1.92.25,6.99,1.55,13.97,3.14,20.96,4.69,6.87,1.52,13.75,3,20.63,4.48,1.3.28,2.24.73,2.64,2.29.85,3.37,1.94,6.68,2.98,10.01,3.41,10.92,6.83,21.83,10.26,32.74,3.24,10.32,6.48,20.64,9.73,30.96,3.13,9.96,6.27,19.92,9.4,29.89,3.02,9.61,6.06,19.21,9.06,28.82,3.48,11.16,6.92,22.33,10.41,33.48,3.54,11.33,7.12,22.65,10.68,33.97,3.06,9.72,6.13,19.44,9.19,29.16,2.96,9.43,5.91,18.86,8.85,28.3,3.18,10.21,6.35,20.42,9.54,30.63,3.05,9.79,6.08,19.59,9.19,29.36,2.43,7.65,4.96,15.26,7.44,22.89,2.4,7.36,4.8,14.73,7.2,22.09.01.07.03.13.02.29-.41.35-.79.61-1.31.89M279.47,33.26c-.83-2.99-1.68-5.97-2.48-8.97-.43-1.63-1.44-2.19-3.06-2,0,.42-.08.76.01,1.04,1.45,4.65,2.74,9.36,4.44,13.92,1.33,3.58,4.28,4.91,7.99,4.66,1.05-.07,1.52-.43,1.85-1.44.72-2.24-.09-4.25-.65-6.33-.56-2.04-1.04-4.11-1.6-6.33,2.23-.24,3.82-.1,4.55,1.95.32.89.58,1.81.88,2.7.55,1.65,1.63,2.61,3.39,2.73-.02-3.45-2.07-7.94-4.73-9.56-1.32-.8-3-1.11-4.56-1.31-1.44-.19-2.46.66-2.23,2.28.33,2.31.82,4.59,1.24,6.88.3,1.63.61,3.26.93,4.93-2.52.15-3.44-.2-4.45-1.79-.6-.95-.98-2.04-1.52-3.37m30.12,70.48c-2.64-.45-5.26-1.06-7.91-1.31-1.81-.17-2.84.85-2.59,2.66.38,2.74,1.03,5.46,1.79,8.12,1.97,6.88,7.23,8.51,13.24,8.37,1.27-.03,1.95-.65,1.83-1.86-.21-2.13-.49-4.27-.95-6.35-.42-1.86-1.13-3.66-1.76-5.62h3.39c.3-1.75-.46-2.66-1.97-2.99-1.58-.34-3.18-.61-5.08-1.02m-12.39-36.45c-.44-1.32-.89-2.64-1.33-3.96-1.06-3.16-3.45-4.94-6.33-6.07-2.87-1.12-4.82.53-4.14,3.6.71,3.2,1.82,6.31,2.69,9.49.85,3.13,3,4.9,5.85,5.91,1.23.44,2.51.72,3.79.96,4.32.79,5.5-.31,5.04-4.74-.09-.85-.34-1.85-.88-2.45-.64-.72-1.66-1.09-2.79-1.78.28,2.29.48,3.94.68,5.59-.21.03-.42.06-.64.09-.62-2.12-1.25-4.24-1.95-6.65m8.67,24.35c.29,1.57.58,3.13.87,4.7-.27.06-.53.12-.8.18-.54-1.66-1.06-3.33-1.63-4.97-.95-2.74-1.75-5.55-2.98-8.16-1.23-2.6-3.55-3.82-6.44-3.75-2.25.05-2.8.39-2.52,2.64.39,3.12.91,6.29,1.94,9.24,2.21,6.32,6.67,8.94,13.27,8.15.67-.08,1.72-.7,1.82-1.23.42-2.13.52-4.39-.97-6.17-.5-.59-1.65-.61-2.57-.62m-9.43-39.65c.33-.27.64-.74.99-.77.71-.06,1.44.13,2.23.22.28-1.6-.19-2.51-1.59-2.89-1.44-.39-2.86-.69-3.7-2.26-.19-.36-1.41-.28-2.13-.19-.47.06-.92.77-1.32.72-1.97-.23-3.92-.67-5.9-.93-1.36-.18-2.75-.19-4.32-.28.63,2.12,2,2.76,3.46,3.1,1.57.36,3.2.72,4.8.71,3.01-.02,4.82,1.12,5.21,4.33.19,1.58,1.2,2.43,3.07,2.29-.26-1.28-.51-2.5-.8-4.04m12.95,74.89c3.99.79,7.98,1.58,11.97,2.37.54-2.04-.11-2.92-1.84-3.23-2.08-.37-4.13-.95-6.21-1.35-2.92-.55-5.85-1.02-8.88-1.54-.17,1.79.36,2.71,1.72,3.07.96.25,1.94.44,3.24.68Z"/><path class="cls-10" d="m253.05.94c1.93,6.05,3.68,12.08,5.52,18.08,6.52,21.37,13.06,42.73,19.61,64.08,3.5,11.41,7.05,22.8,10.54,34.21,6.39,20.87,12.74,41.76,19.13,62.64,3.45,11.29,6.96,22.56,10.42,33.85,6.56,21.42,13.1,42.85,19.67,64.27,3.5,11.41,7.03,22.81,10.54,34.21.98,3.18,1.92,6.38,3.03,10.08-5.67-1.25-10.87-2.39-16.07-3.54-6.93-1.54-13.87-3.01-20.77-4.68-1.44-.35-2.7-1.41-4.23-2.33-1.53-4.14-2.91-8.09-4.24-12.06-3.54-10.56-7.04-21.14-10.59-31.7-3.09-9.2-6.22-18.38-9.31-27.57-3.27-9.73-6.52-19.47-9.79-29.2-4.82-14.36-9.66-28.71-14.48-43.07-3.06-9.14-6.1-18.28-9.14-27.42-1.28-3.85-2.54-7.71-3.81-11.57-4.2-12.92-8.39-25.83-12.59-38.75-.57-1.75-1.12-3.51-1.72-5.25-.66-1.89-1.27-2.08-2.57-.64-4.37,4.88-8.68,9.82-13.03,14.73-2.63,2.97-5.29,5.93-7.93,8.9-6.08,6.83-12.14,13.67-18.23,20.48-3.11,3.48-6.29,6.89-9.39,10.38-5.61,6.31-11.18,12.66-16.79,18.98-2.72,3.07-5.48,6.1-8.2,9.16-5.95,6.69-11.88,13.39-17.84,20.07-4.03,4.52-8.07,9.03-12.12,13.52-6,6.65-12.05,13.25-18.01,19.93-5.41,6.06-10.72,12.22-16.11,18.31-5.1,5.76-10.24,11.48-15.37,17.21-5.38,6.01-10.79,12-16.17,18.02-6.17,6.91-12.33,13.83-18.49,20.76-4.82,5.42-9.63,10.84-14.44,16.26-4.77,5.37-9.56,10.73-14.3,16.13-.41.47-.53,1.22-.93,1.96-.68-.49-1.45-1.01-1.69-1.73-.91-2.65-1.65-5.37-2.45-8.06-1.96-6.65-3.89-13.31-5.89-19.94-1.55-5.12-3.19-10.22-4.78-15.33-.02-1.04-.04-2.08-.03-3.29,4.34-4.9,8.66-9.63,12.97-14.37,1.65-1.81,3.3-3.63,4.95-5.44,6.88-7.52,13.77-15.03,20.63-22.57,4.23-4.65,8.42-9.33,12.62-14.01,5.59-6.21,11.19-12.42,16.78-18.64,3.95-4.39,7.88-8.8,11.83-13.19,5.67-6.31,11.37-12.6,17.04-18.91,3.91-4.34,7.79-8.71,11.69-13.06,5.59-6.22,11.19-12.42,16.78-18.64,4.08-4.53,8.14-9.07,12.22-13.6,5.46-6.08,10.92-12.15,16.38-18.23,4.03-4.49,8.05-8.99,12.09-13.47,5.85-6.49,11.72-12.96,17.57-19.45,3.95-4.39,7.88-8.79,11.82-13.2,5.11-5.71,10.21-11.43,15.32-17.15,3.77-4.22,7.5-8.46,11.3-12.65,6.33-7,12.73-13.93,19.02-20.95,3.51-3.92,6.87-7.98,10.3-11.97.15-.18.43-.24.71-.47.34-.13.62-.14,1.03-.13M64.83,237.92c1.72,3.59,1.94,7.87,4.63,11.12,1.44-1.25,1.76-2.54.95-4.03-.79-1.46-.42-2.51.77-3.62,1.47-1.37,2.75-2.97,4.03-4.53,3.41-4.14,3.99-10.29,1.48-15.12-1.34-2.58-3.19-2.96-5.25-.93-1.57,1.55-2.96,3.29-4.49,4.89-3.35,3.49-4.55,7.37-2.13,12.22m27.23-30.81c-.38-.87-.73-1.76-1.15-2.6-1.31-2.6-1.99-2.98-4.17-1.06-2.57,2.26-4.8,4.96-6.98,7.64-2.05,2.52-2.13,5.44-.98,8.46,1.33,3.49,2.55,7.02,3.9,10.5.27.69.89,1.24,1.39,1.9,1.28-1.41,1.49-2.73.8-4.12-.57-1.14-.32-2.01.47-2.92,1.66-1.91,3.23-3.9,4.88-5.81,3-3.5,3.74-7.37,1.84-11.97m-41.77,48.71c.35.88.71,1.76,1.06,2.64.78,1.96,1.45,2.27,3.35,1.46.51-.22,1.06-.49,1.42-.9,2.11-2.43,4.26-4.82,6.21-7.38,1.86-2.43,2.08-5.25,1.13-8.14-.79-2.4-1.62-4.79-2.54-7.14-.26-.67-.87-1.21-1.31-1.81-.27.07-.54.14-.81.21,0,1.37-.24,2.81.06,4.11.37,1.58,1.29,3.02,1.81,4.57.43,1.3,1.14,2.84.82,4.01-1.14,4.06-3.94,6.88-7.6,9.34-1.52-3.57-2.9-6.82-4.32-10.16-1.72,1.29-1.82,2.65-1.26,4.15.6,1.6,1.25,3.18,1.98,5.04m-5.62,12.93c-1.34,1.42-2.61,2.91-4.03,4.24-.95.89-1.9.84-2.4-.64-.58-1.74-1.15-3.48-1.85-5.17-.43-1.05-1.08-2-1.62-3-.29.05-.57.09-.86.14-.16,1.1-.72,2.33-.41,3.26,1,2.99,2.22,5.92,3.57,8.77.83,1.75,1.85,1.95,3.29.66,1.83-1.63,3.52-3.44,5.14-5.28,4.84-5.48,4.59-14.18-.92-20.05-.28,1.35-.84,2.44-.64,3.36.4,1.83,1.04,3.66,1.88,5.33,1.5,3.01,1.44,5.71-1.15,8.38m-27.02,11.42c1.41,3.66,2.8,7.33,4.26,10.97.3.75.79,1.44,1.29,2.09.92,1.22,2.03,1.42,3.23.41.53-.45,1.05-.92,1.5-1.44,2.55-2.9,5.06-5.83,7.61-8.71,1.02-1.16,1.11-2.32.16-3.91-1.02.95-2.05,1.77-2.9,2.74-1.62,1.86-3.05,3.89-4.72,5.69-.93,1-2.19,1.69-3.38,2.58-1.9-4.84-3.01-9.55-5.59-13.61-.2,0-.41-.02-.61-.03-.29.97-.58,1.94-.85,3.22m78.16-79.24c-.98-2.61-1.95-5.22-2.93-7.83-2.14.75-2.65,2.17-1.59,4.08.57,1.04,1.07,2.13,1.47,3.25.82,2.32,1.47,4.7,2.36,6.99.45,1.17,1.26,2.19,1.91,3.27l.89-.18c.09-1.16.47-2.41.19-3.47-.53-2-1.44-3.89-2.3-6.11Z"/><path class="cls-12" d="m319.03,373.97c-1.22,1.46-2.45,2.75-3.5,4.17-2.03,2.78-4.84,3.72-8.05,3.65-3.71-.09-7.27-.91-10.71-2.4-1.54-.67-1.7-1.51-1.15-2.97,2.18-5.86,7.54-8.93,13.76-7.75,2.33.44,4.67.88,6.93,1.56,1.27.38,1.95.06,2.69-.93,1.28-1.68,1.58-1.73,4.17-1.22-1.43,2.03-2.75,3.9-4.15,5.89m-5.96-1.95c-1.52-.34-3.04-.66-4.56-1.01-4.5-1.05-7.1.15-9.21,4.35-.56,1.12-.76,2.14.97,2.52,1.94.43,3.82,1.14,5.75,1.6,1.81.43,3.72.45,5.16-.88,1.72-1.59,3.2-3.44,5-5.4-1.21-.49-2.01-.81-3.11-1.17Z"/><path class="cls-12" d="m333.75,382.69c-4.36-.81-8.35-3.01-12.91-2.26.27,3.27,3.7,1.91,4.75,3.94-.61,1.23-1.61,1.7-3,1.25-1.42-.46-2.87-.85-4.21-1.47-1.17-.55-2.03-1.72-1.27-2.95,2.03-3.3,3.84-7.07,8.14-7.79,4.66-.78,9.19.11,13.49,2.01,1.72.76,1.98,1.92,1.05,3.56-1.3,2.3-2.84,4.27-6.05,3.71m-1.44-3.03c.42.12.83.3,1.26.33,1.16.08,2.7.33,2.96-1.14.25-1.42-1.15-1.97-2.33-2.21-2.37-.48-4.75-.93-7.14-1.27-1.51-.22-2.82.22-3.44,1.97.14.11.27.29.44.34,2.64.66,5.29,1.31,8.26,1.99Z"/><path class="cls-16" d="m360.58,393.92c-.81-.46-1.47-.88-2.13-1.3.93-.46,1.94-1.43,2.79-1.3,2.76.43,5.44,1.33,8.17,1.93,1.75.39,3.6.79,5.19-1.59-1.85-.59-3.5-1.15-5.18-1.64-1.49-.44-3.02-.74-4.5-1.2-1.18-.36-1.66-1.43-1.08-2.4.74-1.23,1.69-2.63,2.9-3.21,3.1-1.49,6.29-.98,9.36.43-.12,1.51-1.03,1.97-2.2,1.87-1.17-.1-2.32-.48-3.49-.64-.65-.09-1.37-.11-1.98.08-.39.12-.87.65-.91,1.05-.03.3.51.86.89.97,1.84.55,3.72.99,5.59,1.47.42.11.91.08,1.26.29.97.57,2.68,1.25,2.66,1.86-.03,1.3-.66,2.89-1.58,3.8-1.69,1.67-4.01,2.04-6.31,1.6-3.12-.59-6.21-1.35-9.46-2.07Z"/><path class="cls-12" d="m363.55,381.14c-1.02,1.67-2.44,1.77-4.01,1.39-3.09-.74-6.2-1.4-9.27-2.19-2.43-.62-4.5-.54-5.98,1.96-.75,1.28-1.81,2.37-2.86,3.71,4.43,3.06,9.98,1.92,14.14,4.75.01.22.02.44.03.65-1.02.27-2.12.92-3.06.73-4.02-.81-8.05-1.69-11.97-2.91-3.05-.94-3.39-2.01-1.57-4.69,1.33-1.96,3.04-3.7,4.8-5.28,2.54-2.28,5.66-1.7,8.59-1.08,3.76.79,7.46,1.87,11.14,2.95Z"/><path class="cls-4" d="m293.17,368.64c-.06-.39-.15-.83-.33-.87-2.85-.67-5.7-1.32-8.56-1.89-1.56-.32-2.78.37-3.76,1.61-1.41,1.79-2.9,3.5-4.26,5.33-1.07,1.44-2.34,2.01-4.17,1.49.06-.25.05-.53.18-.68,2.62-3.11,5.04-6.45,8.01-9.18,1.14-1.04,3.59-1.12,5.33-.85,3.35.51,6.63,1.53,9.91,2.44,1.48.41,1.57,1.64,1.15,2.92-.18.53-.44,1.07-.79,1.51-1.62,2.02-3.23,4.05-4.94,5.99-1,1.14-2.25,1.8-4.14.77,2.15-2.88,4.23-5.66,6.37-8.57Z"/><path class="cls-6" d="m269.24,371.93c-1.2.55-2.29,1-3.38,1.46-.15-.18-.3-.37-.45-.55.39-.8.66-1.71,1.21-2.39,3.14-3.86,6.27-7.73,9.58-11.44.64-.72,2.04-.74,3.31-.73-2.69,5.18-6.66,9.19-10.26,13.65Z"/><path class="cls-21" d="m279.5,33.41c.51,1.18.89,2.27,1.49,3.22,1.01,1.59,1.93,1.94,4.45,1.79-.32-1.68-.63-3.3-.93-4.93-.43-2.29-.92-4.57-1.24-6.88-.23-1.63.79-2.47,2.23-2.28,1.56.2,3.24.51,4.56,1.31,2.66,1.62,4.71,6.11,4.73,9.56-1.76-.13-2.84-1.08-3.39-2.73-.3-.9-.56-1.81-.88-2.7-.73-2.05-2.32-2.19-4.55-1.95.56,2.23,1.05,4.29,1.6,6.33.56,2.08,1.37,4.09.65,6.33-.33,1.01-.8,1.37-1.85,1.44-3.72.25-6.66-1.08-7.99-4.66-1.7-4.55-2.99-9.27-4.44-13.92-.09-.28-.01-.62-.01-1.04,1.62-.19,2.63.36,3.06,2,.8,3,1.65,5.98,2.51,9.12Z"/><path class="cls-7" d="m309.74,103.8c1.74.35,3.34.63,4.92.97,1.51.32,2.27,1.24,1.97,2.99h-3.39c.63,1.97,1.34,3.76,1.76,5.62.47,2.08.74,4.22.95,6.35.12,1.21-.56,1.83-1.83,1.86-6.01.15-11.28-1.49-13.24-8.37-.76-2.66-1.41-5.38-1.79-8.12-.25-1.8.78-2.83,2.59-2.66,2.65.25,5.28.86,8.06,1.36m.15,2.98c-1.75-.44-3.47-1-5.25-1.27-2.13-.33-2.95.48-2.61,2.71.26,1.73.81,3.45,1.44,5.09,1.62,4.2,3.24,5.17,7.64,5.23,1.69.02,2.29-.78,1.92-2.16-.86-3.16-1.94-6.26-3.14-9.58Z"/><path class="cls-11" d="m297.25,67.45c.67,2.27,1.29,4.39,1.91,6.5.21-.03.42-.06.64-.09-.2-1.65-.4-3.31-.68-5.59,1.13.69,2.15,1.06,2.79,1.78.53.6.79,1.6.88,2.45.47,4.43-.72,5.53-5.04,4.74-1.28-.24-2.57-.52-3.79-.96-2.85-1.01-5-2.78-5.85-5.91-.86-3.17-1.98-6.28-2.69-9.49-.68-3.08,1.26-4.73,4.14-3.6,2.88,1.12,5.27,2.9,6.33,6.07.44,1.32.89,2.64,1.37,4.1m-2.75-.4c-.52-1.49-.94-3.02-1.57-4.47-.9-2.07-2.36-2.67-5-1.9.84,3.07,1.61,6.16,2.55,9.2,1,3.25,2.34,4.02,5.79,3.64-.1-.55-.16-1.12-.32-1.65-.45-1.51-.93-3.02-1.46-4.82Z"/><path class="cls-21" d="m305.9,91.52c.89.15,2.03.17,2.53.76,1.49,1.78,1.39,4.04.97,6.17-.1.53-1.15,1.15-1.82,1.23-6.6.79-11.06-1.83-13.27-8.15-1.03-2.95-1.55-6.12-1.94-9.24-.28-2.25.27-2.58,2.52-2.64,2.89-.07,5.21,1.15,6.44,3.75,1.23,2.6,2.02,5.42,2.98,8.16.57,1.65,1.09,3.32,1.63,4.97.27-.06.53-.12.8-.18-.29-1.57-.58-3.13-.83-4.83m-5.28-3.93c-1.17-4.04-2.13-4.94-5.4-4.89,0,.75-.15,1.54.03,2.25.64,2.58,1.34,5.14,2.13,7.68.88,2.85,2.22,3.66,5.68,3.45-.78-2.78-1.55-5.49-2.43-8.48Z"/><path class="cls-7" d="m296.46,52.17c.27,1.38.52,2.6.77,3.88-1.87.14-2.88-.71-3.07-2.29-.39-3.21-2.21-4.35-5.21-4.33-1.6.01-3.22-.34-4.8-.71-1.47-.34-2.83-.97-3.46-3.1,1.58.1,2.96.1,4.32.28,1.97.26,3.92.7,5.9.93.41.05.86-.66,1.32-.72.72-.09,1.94-.17,2.13.19.84,1.57,2.26,1.87,3.7,2.26,1.4.38,1.87,1.29,1.59,2.89-.79-.09-1.52-.27-2.23-.22-.35.03-.66.5-.96.93Z"/><path class="cls-19" d="m309.22,126.88c-1.13-.23-2.11-.42-3.08-.67-1.35-.36-1.89-1.28-1.72-3.07,3.02.52,5.96.99,8.88,1.54,2.08.4,4.13.98,6.21,1.35,1.73.31,2.38,1.19,1.84,3.23-3.99-.79-7.98-1.58-12.13-2.38Z"/><path class="cls-17" d="m64.76,237.79c-2.34-4.72-1.14-8.6,2.21-12.09,1.53-1.6,2.91-3.34,4.49-4.89,2.06-2.02,3.91-1.65,5.25.93,2.52,4.83,1.94,10.98-1.48,15.12-1.29,1.56-2.57,3.15-4.03,4.53-1.19,1.12-1.56,2.16-.77,3.62.8,1.49.49,2.78-.95,4.03-2.7-3.25-2.91-7.53-4.7-11.26m9.65-3.83c2.72-2.85,1.96-5.86.42-8.92-1.04-2.08-1.96-2.28-3.57-.58-1.08,1.14-1.85,2.62-3.02,3.61-3.51,2.98-2.31,8.14.64,11.92.33-.29.69-.54.98-.86,1.47-1.64,2.93-3.3,4.55-5.17Z"/><path class="cls-20" d="m92.12,207.25c1.84,4.46,1.11,8.33-1.9,11.83-1.65,1.92-3.22,3.91-4.88,5.81-.79.91-1.04,1.78-.47,2.92.69,1.39.48,2.71-.8,4.12-.49-.66-1.12-1.21-1.39-1.9-1.35-3.48-2.57-7.01-3.9-10.5-1.15-3.02-1.07-5.94.98-8.46,2.18-2.68,4.41-5.37,6.98-7.64,2.18-1.92,2.86-1.53,4.17,1.06.43.85.77,1.73,1.21,2.74m-3.09,9.43c2.57-4.25,2.29-7.37-1.25-10.9-1.7,1.8-3.49,3.53-5.1,5.42-3.06,3.61-2.55,8.65,1.11,11.78,1.43-1.67,2.87-3.33,4.3-5.01.28-.33.52-.71.93-1.3Z"/><path class="cls-13" d="m50.24,255.69c-.68-1.72-1.33-3.3-1.93-4.9-.56-1.5-.46-2.86,1.26-4.15,1.42,3.34,2.8,6.59,4.32,10.16,3.66-2.46,6.46-5.28,7.6-9.34.33-1.17-.39-2.71-.82-4.01-.51-1.56-1.44-2.99-1.81-4.57-.3-1.3-.06-2.73-.06-4.11.27-.07.54-.14.81-.21.45.6,1.05,1.14,1.31,1.81.91,2.35,1.75,4.74,2.54,7.14.95,2.89.72,5.71-1.13,8.14-1.95,2.55-4.1,4.95-6.21,7.38-.35.41-.91.68-1.42.9-1.9.81-2.57.5-3.35-1.46-.35-.88-.71-1.76-1.11-2.77Z"/><path class="cls-20" d="m44.76,268.66c2.5-2.57,2.56-5.27,1.06-8.28-.83-1.68-1.48-3.5-1.88-5.33-.2-.92.36-2.01.64-3.36,5.51,5.87,5.76,14.57.92,20.05-1.63,1.84-3.32,3.65-5.14,5.28-1.44,1.29-2.46,1.09-3.29-.66-1.35-2.85-2.56-5.78-3.57-8.77-.31-.93.25-2.17.41-3.26.29-.05.57-.09.86-.14.55,1,1.2,1.95,1.62,3,.69,1.69,1.26,3.44,1.85,5.17.5,1.48,1.45,1.53,2.4.64,1.42-1.33,2.69-2.82,4.12-4.34Z"/><path class="cls-3" d="m17.64,280.02c.28-1.13.57-2.1.86-3.07.2,0,.41.02.61.03,2.57,4.06,3.69,8.77,5.59,13.61,1.19-.89,2.45-1.57,3.38-2.58,1.67-1.8,3.11-3.83,4.72-5.69.85-.98,1.88-1.79,2.9-2.74.95,1.59.86,2.76-.16,3.91-2.56,2.89-5.07,5.82-7.61,8.71-.46.52-.97.99-1.5,1.44-1.2,1.02-2.31.81-3.23-.41-.49-.65-.99-1.34-1.29-2.09-1.45-3.64-2.84-7.31-4.27-11.12Z"/><path class="cls-23" d="m95.87,201.08c.81,2.07,1.72,3.97,2.24,5.97.28,1.06-.11,2.31-.19,3.47l-.89.18c-.65-1.09-1.46-2.11-1.91-3.27-.89-2.29-1.53-4.67-2.36-6.99-.4-1.12-.9-2.21-1.47-3.25-1.06-1.91-.55-3.33,1.59-4.08.98,2.61,1.95,5.22,2.98,7.97Z"/><path class="cls-22" d="m313.22,372.05c.95.34,1.75.66,2.96,1.15-1.8,1.97-3.28,3.82-5,5.4-1.44,1.33-3.35,1.31-5.16.88-1.93-.46-3.81-1.17-5.75-1.6-1.72-.38-1.53-1.39-.97-2.52,2.11-4.2,4.71-5.4,9.21-4.35,1.51.35,3.04.68,4.71,1.03Z"/><path class="cls-14" d="m332.16,379.65c-2.81-.67-5.45-1.31-8.1-1.97-.16-.04-.3-.22-.44-.34.62-1.75,1.93-2.18,3.44-1.97,2.39.34,4.77.79,7.14,1.27,1.19.24,2.59.8,2.33,2.21-.26,1.47-1.8,1.22-2.96,1.14-.42-.03-.84-.22-1.42-.35Z"/><path class="cls-5" d="m310,106.88c1.1,3.22,2.18,6.32,3.03,9.48.38,1.39-.23,2.19-1.92,2.16-4.4-.06-6.03-1.03-7.64-5.23-.63-1.64-1.18-3.35-1.44-5.09-.34-2.23.48-3.04,2.61-2.71,1.77.28,3.5.84,5.35,1.38Z"/><path class="cls-15" d="m294.52,67.2c.5,1.66.99,3.16,1.43,4.67.16.53.22,1.1.32,1.65-3.45.38-4.79-.39-5.79-3.64-.94-3.04-1.71-6.14-2.55-9.2,2.63-.77,4.1-.17,5,1.9.63,1.44,1.05,2.97,1.6,4.62Z"/><path class="cls-8" d="m300.68,87.73c.82,2.85,1.59,5.57,2.37,8.34-3.46.21-4.8-.6-5.68-3.45-.79-2.53-1.48-5.1-2.13-7.68-.18-.71-.03-1.5-.03-2.25,3.27-.05,4.24.85,5.46,5.03Z"/><path class="cls-1" d="m74.33,234.08c-1.54,1.76-3,3.42-4.47,5.06-.29.32-.65.58-.98.86-2.95-3.78-4.15-8.94-.64-11.92,1.18-1,1.94-2.48,3.02-3.61,1.61-1.7,2.52-1.5,3.57.58,1.54,3.06,2.3,6.07-.5,9.03Z"/><path class="cls-2" d="m88.96,216.8c-.34.47-.57.85-.86,1.18-1.43,1.68-2.86,3.34-4.3,5.01-3.67-3.13-4.18-8.17-1.11-11.78,1.6-1.89,3.4-3.62,5.1-5.42,3.54,3.53,3.82,6.64,1.17,11.01Z"/></svg>