<svg id="eQeIz5bsO4g1" xmlns="http://www.w3.org/2000/svg" xmlns:xlink="http://www.w3.org/1999/xlink" viewBox="0 0 900 350" shape-rendering="geometricPrecision" text-rendering="geometricPrecision" opacity="0.55">
<style><![CDATA[
#eQeIz5bsO4g2_to {animation: eQeIz5bsO4g2_to__to 6000ms linear infinite normal forwards}@keyframes eQeIz5bsO4g2_to__to { 0% {transform: translate(450px,175.5px);animation-timing-function: cubic-bezier(0.42,0,0.58,1)} 50% {transform: translate(450px,186.786086px);animation-timing-function: cubic-bezier(0.42,0,0.58,1)} 100% {transform: translate(450px,175.5px)}} #eQeIz5bsO4g3_to {animation: eQeIz5bsO4g3_to__to 6000ms linear infinite normal forwards}@keyframes eQeIz5bsO4g3_to__to { 0% {transform: translate(450px,229.5px);animation-timing-function: cubic-bezier(0.42,0,0.58,1)} 50% {transform: translate(450px,222.286086px);animation-timing-function: cubic-bezier(0.42,0,0.58,1)} 100% {transform: translate(450px,229.5px)}} #eQeIz5bsO4g4_to {animation: eQeIz5bsO4g4_to__to 6000ms linear infinite normal forwards}@keyframes eQeIz5bsO4g4_to__to { 0% {transform: translate(450px,281px);animation-timing-function: cubic-bezier(0.42,0,0.58,1)} 50% {transform: translate(450px,292.286086px);animation-timing-function: cubic-bezier(0.42,0,0.58,1)} 100% {transform: translate(450px,281px)}}
]]></style>
<g id="eQeIz5bsO4g2_to" transform="translate(450,175.5)"><path d="M0,0h129v11h128v122h129v-40h128v23h129v-12h128v-57h129v304h-900L0,0Z" transform="translate(-450,-175.5)" fill="#7278b6"/></g><g id="eQeIz5bsO4g3_to" transform="translate(450,229.5)"><path d="M0,113h129v66h128v-71h129v57h128v3h129v22h128v3h129v158h-900v-238Z" transform="translate(-450,-229.5)" fill="#8187c4"/></g><g id="eQeIz5bsO4g4_to" transform="translate(450,281)"><path d="M0,248h129v-33h128v-4h129v71h128v-67h129v65h128v-5h129v-30v106h-900v-103Z" transform="translate(-450,-281)" fill="#9096d3"/></g></svg>
