<?xml version="1.0" encoding="UTF-8"?><svg id="Layer_1" xmlns="http://www.w3.org/2000/svg" viewBox="0 0 969.93 506"><defs><style>.cls-1{fill:#fff;}</style></defs><g><path class="cls-1" d="m76.43,372.81v11.82h-16.05v48.76h-14.76v-48.76h-16.05v-11.82s46.86,0,46.86,0Z"/><path class="cls-1" d="m83.72,396.2c1.87-3.74,4.42-6.62,7.64-8.63s6.82-3.02,10.79-3.02c3.39,0,6.37.69,8.93,2.07s4.53,3.19,5.91,5.44v-6.82h14.76v48.16h-14.76v-6.82c-1.44,2.24-3.44,4.06-6,5.44s-5.54,2.07-8.93,2.07c-3.91,0-7.48-1.02-10.7-3.06s-5.77-4.95-7.64-8.72-2.8-8.13-2.8-13.08.93-9.29,2.8-13.03h0Zm30.21,4.4c-2.04-2.13-4.53-3.19-7.47-3.19s-5.42,1.05-7.47,3.15c-2.04,2.1-3.06,4.99-3.06,8.67s1.02,6.6,3.06,8.76,4.53,3.24,7.47,3.24,5.42-1.06,7.47-3.19c2.04-2.13,3.06-5.03,3.06-8.72s-1.02-6.59-3.06-8.72Z"/><path class="cls-1" d="m218.17,390.16c3.54,3.62,5.31,8.66,5.31,15.1v28.13h-14.67v-26.15c0-3.11-.82-5.51-2.46-7.21-1.64-1.7-3.9-2.55-6.77-2.55s-5.14.85-6.77,2.55c-1.64,1.7-2.46,4.1-2.46,7.21v26.15h-14.67v-26.15c0-3.11-.82-5.51-2.46-7.21-1.64-1.7-3.9-2.55-6.77-2.55s-5.13.85-6.77,2.55c-1.64,1.7-2.46,4.1-2.46,7.21v26.15h-14.76v-48.16h14.76v6.04c1.5-2.01,3.45-3.61,5.87-4.79,2.42-1.18,5.15-1.77,8.2-1.77,3.62,0,6.86.78,9.71,2.33s5.08,3.77,6.69,6.65c1.67-2.65,3.94-4.8,6.82-6.47s6.01-2.5,9.41-2.5c5.98,0,10.74,1.81,14.28,5.44h-.03,0Z"/><path class="cls-1" d="m254.55,386.62c2.53-1.38,5.49-2.07,8.89-2.07,3.97,0,7.56,1.01,10.79,3.02,3.22,2.01,5.77,4.89,7.64,8.63,1.87,3.74,2.8,8.08,2.8,13.03s-.94,9.31-2.8,13.08c-1.87,3.77-4.42,6.67-7.64,8.72-3.22,2.04-6.82,3.06-10.79,3.06-3.34,0-6.29-.69-8.85-2.07s-4.56-3.16-6-5.35v29.69h-14.76v-71.11h14.76v6.82c1.44-2.24,3.42-4.06,5.96-5.44h0Zm12.04,13.92c-2.04-2.1-4.56-3.15-7.55-3.15s-5.42,1.07-7.46,3.19c-2.04,2.13-3.06,5.04-3.06,8.72s1.02,6.59,3.06,8.72,4.53,3.19,7.46,3.19,5.44-1.08,7.51-3.24,3.11-5.08,3.11-8.76-1.02-6.57-3.06-8.67h-.01Z"/><path class="cls-1" d="m337.57,412.86h-33.4c.23,2.99,1.19,5.28,2.89,6.86s3.78,2.37,6.26,2.37c3.68,0,6.24-1.55,7.68-4.66h15.71c-.81,3.17-2.26,6.01-4.36,8.54-2.1,2.53-4.73,4.52-7.9,5.96-3.16,1.44-6.7,2.16-10.61,2.16-4.72,0-8.92-1.01-12.6-3.02-3.68-2.01-6.56-4.89-8.63-8.63s-3.11-8.11-3.11-13.12,1.02-9.38,3.06-13.12,4.9-6.62,8.59-8.63c3.68-2.01,7.91-3.02,12.69-3.02s8.8.98,12.43,2.93c3.62,1.96,6.46,4.75,8.5,8.37s3.06,7.85,3.06,12.69c0,1.38-.09,2.82-.26,4.32h0Zm-14.84-8.2c0-2.53-.86-4.54-2.59-6.04s-3.88-2.24-6.47-2.24-4.56.72-6.26,2.16-2.75,3.48-3.15,6.13h18.47Z"/><path class="cls-1" d="m366.83,387.01c2.59-1.52,5.47-2.29,8.63-2.29v15.62h-4.06c-3.68,0-6.44.79-8.29,2.37-1.84,1.58-2.76,4.36-2.76,8.33v22.35h-14.76v-48.16h14.76v8.03c1.73-2.65,3.88-4.73,6.47-6.26h.01Z"/><path class="cls-1" d="m427.67,412.86h-33.4c.23,2.99,1.19,5.28,2.89,6.86s3.78,2.37,6.26,2.37c3.68,0,6.24-1.55,7.68-4.66h15.71c-.81,3.17-2.26,6.01-4.36,8.54-2.1,2.53-4.73,4.52-7.9,5.96-3.17,1.44-6.7,2.16-10.62,2.16-4.72,0-8.92-1.01-12.6-3.02-3.68-2.01-6.56-4.89-8.63-8.63s-3.11-8.11-3.11-13.12,1.02-9.38,3.06-13.12,4.9-6.62,8.59-8.63c3.68-2.01,7.91-3.02,12.69-3.02s8.8.98,12.43,2.93c3.62,1.96,6.46,4.75,8.5,8.37s3.06,7.85,3.06,12.69c0,1.38-.09,2.82-.26,4.32h0Zm-14.84-8.2c0-2.53-.86-4.54-2.59-6.04s-3.88-2.24-6.47-2.24-4.56.72-6.26,2.16-2.75,3.48-3.15,6.13h18.47Z"/><path class="cls-1" d="m480.83,412.86h-33.4c.23,2.99,1.19,5.28,2.89,6.86s3.78,2.37,6.26,2.37c3.68,0,6.24-1.55,7.68-4.66h15.71c-.81,3.17-2.26,6.01-4.36,8.54s-4.73,4.52-7.9,5.96c-3.17,1.44-6.7,2.16-10.62,2.16-4.72,0-8.92-1.01-12.6-3.02-3.68-2.01-6.56-4.89-8.63-8.63s-3.11-8.11-3.11-13.12,1.02-9.38,3.06-13.12,4.9-6.62,8.59-8.63c3.68-2.01,7.91-3.02,12.69-3.02s8.8.98,12.43,2.93c3.62,1.96,6.46,4.75,8.5,8.37s3.06,7.85,3.06,12.69c0,1.38-.09,2.82-.26,4.32h0Zm-14.84-8.2c0-2.53-.86-4.54-2.59-6.04s-3.88-2.24-6.47-2.24-4.56.72-6.26,2.16-2.75,3.48-3.15,6.13h18.47Z"/><path class="cls-1" d="m531.71,390.2c3.37,3.65,5.05,8.67,5.05,15.06v28.13h-14.67v-26.15c0-3.22-.83-5.72-2.5-7.51-1.67-1.78-3.91-2.67-6.73-2.67s-5.06.89-6.73,2.67-2.5,4.29-2.5,7.51v26.15h-14.76v-48.16h14.76v6.39c1.5-2.13,3.51-3.81,6.04-5.05,2.53-1.24,5.38-1.86,8.54-1.86,5.64,0,10.14,1.83,13.51,5.48h-.01Z"/><path class="cls-1" d="m614.51,385.24l-30.21,71.03h-15.88l11.05-24.51-19.59-46.52h16.48l11.13,30.12,11.05-30.12h15.97Z"/><path class="cls-1" d="m634.62,369.53v63.86h-14.76v-63.86h14.76Z"/><path class="cls-1" d="m646.4,377.95c-1.64-1.52-2.46-3.41-2.46-5.65s.82-4.21,2.46-5.74,3.75-2.29,6.34-2.29,4.62.76,6.26,2.29,2.46,3.44,2.46,5.74-.82,4.13-2.46,5.65c-1.64,1.53-3.73,2.29-6.26,2.29s-4.7-.76-6.34-2.29Zm13.68,7.29v48.16h-14.76v-48.16h14.76Z"/><path class="cls-1" d="m679.97,431.07c-3.77-2.01-6.73-4.89-8.89-8.63-2.16-3.74-3.24-8.11-3.24-13.12s1.09-9.31,3.28-13.08,5.18-6.66,8.97-8.67c3.8-2.01,8.05-3.02,12.77-3.02s8.98,1.01,12.77,3.02c3.8,2.01,6.79,4.91,8.98,8.67,2.19,3.77,3.28,8.13,3.28,13.08s-1.11,9.31-3.32,13.07c-2.22,3.77-5.24,6.66-9.06,8.67-3.83,2.01-8.1,3.02-12.82,3.02s-8.96-1.01-12.73-3.02h0Zm19.94-12.84c1.99-2.07,2.98-5.03,2.98-8.89s-.96-6.82-2.89-8.89-4.3-3.11-7.12-3.11-5.26,1.02-7.16,3.06c-1.9,2.04-2.85,5.02-2.85,8.93s.93,6.82,2.81,8.89c1.87,2.07,4.21,3.11,7.03,3.11s5.22-1.04,7.21-3.11h-.01Z"/><path class="cls-1" d="m746.47,386.62c2.53-1.38,5.49-2.07,8.89-2.07,3.97,0,7.57,1.01,10.79,3.02,3.22,2.01,5.77,4.89,7.64,8.63s2.8,8.08,2.8,13.03-.94,9.31-2.8,13.08c-1.87,3.77-4.42,6.67-7.64,8.72-3.22,2.04-6.82,3.06-10.79,3.06-3.34,0-6.29-.69-8.85-2.07s-4.56-3.16-6-5.35v29.69h-14.76v-71.11h14.76v6.82c1.44-2.24,3.42-4.06,5.96-5.44h0Zm12.04,13.92c-2.04-2.1-4.56-3.15-7.55-3.15s-5.42,1.07-7.46,3.19c-2.04,2.13-3.06,5.04-3.06,8.72s1.02,6.59,3.06,8.72,4.53,3.19,7.46,3.19,5.44-1.08,7.51-3.24,3.11-5.08,3.11-8.76-1.02-6.57-3.06-8.67h-.01Z"/><path class="cls-1" d="m785.43,377.95c-1.64-1.52-2.46-3.41-2.46-5.65s.82-4.21,2.46-5.74,3.75-2.29,6.34-2.29,4.62.76,6.26,2.29,2.46,3.44,2.46,5.74-.82,4.13-2.46,5.65c-1.64,1.53-3.73,2.29-6.26,2.29s-4.7-.76-6.34-2.29Zm13.68,7.29v48.16h-14.76v-48.16h14.76Z"/><path class="cls-1" d="m818.18,431.93c-3.28-1.44-5.87-3.41-7.77-5.91s-2.96-5.31-3.19-8.41h14.58c.17,1.67.95,3.02,2.33,4.06s3.08,1.55,5.09,1.55c1.84,0,3.26-.36,4.27-1.08s1.51-1.65,1.51-2.8c0-1.38-.72-2.4-2.16-3.06s-3.77-1.39-6.99-2.2c-3.45-.8-6.33-1.65-8.63-2.55-2.3-.89-4.29-2.3-5.95-4.23-1.67-1.93-2.5-4.53-2.5-7.81,0-2.76.76-5.28,2.29-7.55,1.52-2.27,3.77-4.07,6.73-5.39,2.96-1.32,6.49-1.98,10.57-1.98,6.04,0,10.8,1.5,14.28,4.49,3.48,2.99,5.48,6.96,6,11.91h-13.64c-.23-1.67-.96-2.99-2.2-3.97s-2.86-1.47-4.88-1.47c-1.73,0-3.05.33-3.97.99s-1.38,1.57-1.38,2.72c0,1.38.73,2.42,2.2,3.11s3.75,1.38,6.86,2.07c3.57.92,6.47,1.83,8.72,2.72,2.24.89,4.21,2.33,5.91,4.32,1.7,1.99,2.57,4.65,2.63,7.98,0,2.82-.79,5.34-2.37,7.55-1.58,2.22-3.86,3.96-6.82,5.22s-6.4,1.9-10.31,1.9c-4.2,0-7.94-.72-11.22-2.16v-.02h0Z"/><path class="cls-1" d="m884.81,420.88v12.51h-7.51c-5.35,0-9.52-1.31-12.51-3.93s-4.49-6.89-4.49-12.82v-19.16h-5.87v-12.25h5.87v-11.74h14.76v11.74h9.67v12.25h-9.67v19.33c0,1.44.35,2.47,1.04,3.11.69.63,1.84.95,3.45.95h5.26Z"/><path class="cls-1" d="m902.2,431.07c-3.77-2.01-6.73-4.89-8.89-8.63-2.16-3.74-3.24-8.11-3.24-13.12s1.09-9.31,3.28-13.08,5.18-6.66,8.97-8.67c3.8-2.01,8.05-3.02,12.77-3.02s8.98,1.01,12.77,3.02c3.8,2.01,6.79,4.91,8.98,8.67,2.19,3.77,3.28,8.13,3.28,13.08s-1.11,9.31-3.32,13.07c-2.22,3.77-5.24,6.66-9.06,8.67-3.83,2.01-8.1,3.02-12.82,3.02s-8.96-1.01-12.73-3.02h0Zm19.94-12.84c1.99-2.07,2.98-5.03,2.98-8.89s-.96-6.82-2.89-8.89-4.3-3.11-7.12-3.11-5.26,1.02-7.16,3.06c-1.9,2.04-2.85,5.02-2.85,8.93s.93,6.82,2.81,8.89c1.87,2.07,4.21,3.11,7.03,3.11s5.22-1.04,7.21-3.11h-.01Z"/></g><g><path class="cls-1" d="m20.64,470.08v5.2h-7.07v21.46h-6.5v-21.46H0v-5.2h20.64Z"/><path class="cls-1" d="m24.38,472.34c-.72-.67-1.08-1.5-1.08-2.49s.36-1.86,1.08-2.53,1.65-1.01,2.79-1.01,2.03.34,2.75,1.01,1.08,1.51,1.08,2.53-.36,1.82-1.08,2.49-1.64,1.01-2.75,1.01-2.07-.34-2.79-1.01Zm6.02,3.21v21.2h-6.5v-21.2h6.5Z"/><path class="cls-1" d="m54.98,487.7h-14.7c.1,1.32.53,2.32,1.27,3.02.75.7,1.67,1.04,2.75,1.04,1.62,0,2.75-.68,3.38-2.05h6.91c-.35,1.39-.99,2.65-1.92,3.76-.92,1.11-2.08,1.99-3.48,2.62-1.39.63-2.95.95-4.67.95-2.08,0-3.93-.44-5.55-1.33-1.62-.89-2.89-2.15-3.8-3.8s-1.37-3.57-1.37-5.77.45-4.13,1.35-5.77c.9-1.65,2.16-2.91,3.78-3.8,1.62-.89,3.48-1.33,5.58-1.33s3.88.43,5.47,1.29c1.6.86,2.84,2.09,3.74,3.68.9,1.6,1.35,3.46,1.35,5.58,0,.61-.04,1.24-.11,1.9h.02,0Zm-6.53-3.59c0-1.11-.38-2-1.14-2.66s-1.71-.99-2.85-.99-2.01.32-2.75.95c-.75.63-1.21,1.53-1.39,2.7h8.13,0Z"/><path class="cls-1" d="m70.33,491.23v5.51h-3.3c-2.36,0-4.19-.58-5.51-1.73-1.32-1.15-1.98-3.03-1.98-5.64v-8.43h-2.58v-5.39h2.58v-5.17h6.5v5.17h4.25v5.39h-4.25v8.51c0,.63.15,1.09.46,1.37.3.28.81.42,1.52.42h2.32-.01,0Z"/><path class="cls-1" d="m77.98,495.72c-1.66-.89-2.96-2.15-3.91-3.8s-1.42-3.57-1.42-5.77.48-4.1,1.44-5.76,2.28-2.93,3.95-3.82,3.55-1.33,5.62-1.33,3.95.44,5.62,1.33c1.67.89,2.99,2.16,3.95,3.82s1.44,3.58,1.44,5.76-.49,4.1-1.46,5.75c-.98,1.66-2.3,2.93-3.99,3.82-1.68.89-3.56,1.33-5.64,1.33s-3.94-.44-5.6-1.33h0Zm8.78-5.66c.87-.91,1.31-2.22,1.31-3.91s-.42-3-1.27-3.91-1.89-1.37-3.13-1.37-2.32.45-3.15,1.35-1.25,2.21-1.25,3.93.41,3,1.23,3.91,1.85,1.37,3.1,1.37,2.3-.46,3.17-1.37h-.01Z"/><path class="cls-1" d="m104.63,499.48c0,2.61-.66,4.49-1.98,5.64-1.32,1.15-3.15,1.73-5.51,1.73h-2.55v-5.51h1.56c.71,0,1.22-.14,1.52-.42s.46-.73.46-1.37v-24.01h6.5v23.93h0Zm-6.06-27.12c-.72-.67-1.08-1.5-1.08-2.49s.36-1.86,1.08-2.53,1.65-1.01,2.79-1.01,2.03.34,2.75,1.01,1.08,1.51,1.08,2.53-.36,1.82-1.08,2.49-1.64,1.01-2.75,1.01-2.07-.34-2.79-1.01Z"/><path class="cls-1" d="m129.17,487.7h-14.7c.1,1.32.53,2.32,1.27,3.02.75.7,1.67,1.04,2.75,1.04,1.62,0,2.75-.68,3.38-2.05h6.91c-.35,1.39-.99,2.65-1.92,3.76-.92,1.11-2.08,1.99-3.48,2.62-1.39.63-2.95.95-4.67.95-2.08,0-3.93-.44-5.55-1.33-1.62-.89-2.89-2.15-3.8-3.8s-1.37-3.57-1.37-5.77.45-4.13,1.35-5.77c.9-1.65,2.16-2.91,3.78-3.8,1.62-.89,3.48-1.33,5.58-1.33s3.88.43,5.47,1.29c1.6.86,2.84,2.09,3.74,3.68.9,1.6,1.35,3.46,1.35,5.58,0,.61-.04,1.24-.11,1.9h.02Zm-6.53-3.59c0-1.11-.38-2-1.14-2.66s-1.71-.99-2.85-.99-2.01.32-2.75.95c-.75.63-1.21,1.53-1.39,2.7h8.13Z"/><path class="cls-1" d="m151.57,477.73c1.48,1.61,2.22,3.82,2.22,6.63v12.38h-6.46v-11.51c0-1.42-.37-2.52-1.1-3.3s-1.72-1.18-2.96-1.18-2.23.39-2.96,1.18c-.73.79-1.1,1.89-1.1,3.3v11.51h-6.5v-21.2h6.5v2.81c.66-.94,1.54-1.68,2.66-2.22s2.37-.82,3.76-.82c2.48,0,4.46.8,5.94,2.41h0Z"/><path class="cls-1" d="m171.26,496.74l-6.46-8.89v8.89h-6.5v-28.11h6.5v15.54l6.42-8.62h8.02l-8.81,10.64,8.89,10.56h-8.06Z"/><path class="cls-1" d="m181.73,480.37c.82-1.65,1.94-2.91,3.36-3.8,1.42-.89,3-1.33,4.75-1.33,1.49,0,2.8.3,3.93.91,1.13.61,1.99,1.41,2.6,2.39v-3h6.5v21.2h-6.5v-3c-.63.99-1.51,1.79-2.64,2.39-1.13.61-2.44.91-3.93.91-1.72,0-3.29-.45-4.71-1.35-1.42-.9-2.54-2.18-3.36-3.84s-1.23-3.58-1.23-5.75.41-4.09,1.23-5.74h0Zm4.92-7.96c-.53-.53-.8-1.19-.8-1.98s.27-1.45.8-1.99c.53-.54,1.19-.82,1.98-.82s1.48.27,2.01.8.8,1.2.8,2.01-.27,1.44-.82,1.98c-.54.53-1.21.8-1.99.8s-1.44-.27-1.98-.8h0Zm8.38,9.92c-.9-.94-1.99-1.41-3.29-1.41s-2.39.46-3.29,1.39c-.9.92-1.35,2.2-1.35,3.82s.45,2.91,1.35,3.86c.9.95,1.99,1.42,3.29,1.42s2.39-.47,3.29-1.41,1.35-2.22,1.35-3.84-.45-2.9-1.35-3.84h0Zm-.78-9.9c-.53-.53-.8-1.19-.8-1.98s.27-1.45.8-1.99c.53-.54,1.19-.82,1.98-.82s1.48.27,2.01.8.8,1.2.8,2.01-.27,1.44-.82,1.98c-.54.53-1.21.8-1.99.8s-1.44-.27-1.98-.8h0Z"/><path class="cls-1" d="m211.26,496.1c-1.44-.63-2.58-1.5-3.42-2.6s-1.3-2.34-1.41-3.7h6.42c.08.74.42,1.33,1.03,1.79.61.46,1.35.68,2.24.68.81,0,1.44-.16,1.88-.47.44-.32.66-.73.66-1.24,0-.61-.32-1.06-.95-1.35s-1.66-.61-3.08-.97c-1.52-.35-2.79-.73-3.8-1.12-1.01-.39-1.89-1.01-2.62-1.86-.73-.85-1.1-2-1.1-3.44,0-1.22.34-2.32,1.01-3.32s1.66-1.79,2.96-2.37,2.85-.87,4.65-.87c2.66,0,4.75.66,6.29,1.97,1.53,1.32,2.41,3.06,2.64,5.24h-6c-.1-.73-.42-1.32-.97-1.75-.54-.43-1.26-.65-2.15-.65-.76,0-1.34.15-1.75.44s-.61.69-.61,1.2c0,.61.32,1.06.97,1.37s1.65.61,3.02.91c1.57.41,2.85.8,3.84,1.2s1.85,1.03,2.6,1.9,1.13,2.04,1.16,3.51c0,1.24-.35,2.35-1.04,3.32-.7.98-1.7,1.74-3,2.3s-2.82.84-4.54.84c-1.85,0-3.49-.32-4.94-.95h0Z"/><path class="cls-1" d="m229.25,472.34c-.72-.67-1.08-1.5-1.08-2.49s.36-1.86,1.08-2.53,1.65-1.01,2.79-1.01,2.03.34,2.75,1.01,1.08,1.51,1.08,2.53-.36,1.82-1.08,2.49-1.64,1.01-2.75,1.01-2.07-.34-2.79-1.01Zm6.02,3.21v21.2h-6.5v-21.2h6.5Z"/><path class="cls-1" d="m251.8,491.23v5.51h-3.3c-2.36,0-4.19-.58-5.51-1.73-1.32-1.15-1.98-3.03-1.98-5.64v-8.43h-2.58v-5.39h2.58v-5.17h6.5v5.17h4.25v5.39h-4.25v8.51c0,.63.15,1.09.46,1.37.3.28.81.42,1.52.42h2.32-.01Z"/><path class="cls-1" d="m267.22,491.23v5.51h-3.3c-2.36,0-4.19-.58-5.51-1.73-1.32-1.15-1.98-3.03-1.98-5.64v-8.43h-2.58v-5.39h2.58v-5.17h6.5v5.17h4.25v5.39h-4.25v8.51c0,.63.15,1.09.46,1.37.3.28.81.42,1.52.42h2.32,0Z"/><path class="cls-1" d="m290.7,487.7h-14.7c.1,1.32.53,2.32,1.27,3.02.75.7,1.67,1.04,2.75,1.04,1.62,0,2.75-.68,3.38-2.05h6.91c-.35,1.39-.99,2.65-1.92,3.76-.92,1.11-2.08,1.99-3.48,2.62-1.39.63-2.95.95-4.67.95-2.08,0-3.93-.44-5.55-1.33-1.62-.89-2.89-2.15-3.8-3.8s-1.37-3.57-1.37-5.77.45-4.13,1.35-5.77c.9-1.65,2.16-2.91,3.78-3.8,1.62-.89,3.48-1.33,5.58-1.33s3.88.43,5.47,1.29c1.6.86,2.84,2.09,3.74,3.68.9,1.6,1.35,3.46,1.35,5.58,0,.61-.04,1.24-.11,1.9h.02Zm-6.53-3.59c0-1.11-.38-2-1.14-2.66s-1.71-.99-2.85-.99-2.01.32-2.75.95c-.75.63-1.21,1.53-1.39,2.7h8.13Z"/><path class="cls-1" d="m300.73,468.63v28.11h-6.5v-28.11h6.5Z"/><path class="cls-1" d="m327.09,475.55l-13.3,31.26h-6.99l4.86-10.79-8.62-20.48h7.26l4.9,13.26,4.86-13.26h7.03Z"/><path class="cls-1" d="m341.26,491.23v5.51h-3.3c-2.36,0-4.19-.58-5.51-1.73-1.32-1.15-1.98-3.03-1.98-5.64v-8.43h-2.58v-5.39h2.58v-5.17h6.5v5.17h4.25v5.39h-4.25v8.51c0,.63.15,1.09.46,1.37.3.28.81.42,1.52.42h2.32,0Z"/><path class="cls-1" d="m345.34,472.34c-.72-.67-1.08-1.5-1.08-2.49s.36-1.86,1.08-2.53,1.65-1.01,2.79-1.01,2.03.34,2.75,1.01,1.08,1.51,1.08,2.53-.36,1.82-1.08,2.49-1.64,1.01-2.75,1.01-2.07-.34-2.79-1.01Zm6.02,3.21v21.2h-6.5v-21.2h6.5Z"/><path class="cls-1" d="m375.94,487.7h-14.7c.1,1.32.53,2.32,1.27,3.02.75.7,1.67,1.04,2.75,1.04,1.62,0,2.75-.68,3.38-2.05h6.91c-.35,1.39-.99,2.65-1.92,3.76-.92,1.11-2.08,1.99-3.48,2.62-1.39.63-2.95.95-4.67.95-2.08,0-3.93-.44-5.55-1.33-1.62-.89-2.89-2.15-3.8-3.8s-1.37-3.57-1.37-5.77.45-4.13,1.35-5.77c.9-1.65,2.16-2.91,3.78-3.8,1.62-.89,3.48-1.33,5.58-1.33s3.88.43,5.47,1.29c1.6.86,2.84,2.09,3.74,3.68.9,1.6,1.35,3.46,1.35,5.58,0,.61-.04,1.24-.11,1.9h.02Zm-6.53-3.59c0-1.11-.38-2-1.14-2.66s-1.71-.99-2.85-.99-2.01.32-2.75.95c-.75.63-1.21,1.53-1.39,2.7h8.13Z"/><path class="cls-1" d="m379.42,480.37c.82-1.65,1.94-2.91,3.36-3.8,1.42-.89,3-1.33,4.75-1.33,1.39,0,2.67.29,3.82.87s2.06,1.37,2.72,2.36v-9.84h6.5v28.11h-6.5v-3.04c-.61,1.01-1.48,1.82-2.6,2.43-1.13.61-2.44.91-3.93.91-1.75,0-3.33-.45-4.75-1.35s-2.54-2.18-3.36-3.84c-.82-1.66-1.23-3.58-1.23-5.75s.41-4.09,1.23-5.74h-.01Zm13.3,1.96c-.9-.94-1.99-1.41-3.29-1.41s-2.39.46-3.29,1.39c-.9.92-1.35,2.2-1.35,3.82s.45,2.91,1.35,3.86c.9.95,1.99,1.42,3.29,1.42s2.39-.47,3.29-1.41,1.35-2.22,1.35-3.84-.45-2.9-1.35-3.84h0Z"/><path class="cls-1" d="m425.14,487.7h-14.7c.1,1.32.53,2.32,1.27,3.02.75.7,1.67,1.04,2.75,1.04,1.62,0,2.75-.68,3.38-2.05h6.91c-.35,1.39-.99,2.65-1.92,3.76-.92,1.11-2.08,1.99-3.48,2.62-1.39.63-2.95.95-4.67.95-2.08,0-3.93-.44-5.55-1.33-1.62-.89-2.89-2.15-3.8-3.8s-1.37-3.57-1.37-5.77.45-4.13,1.35-5.77c.9-1.65,2.16-2.91,3.78-3.8,1.62-.89,3.48-1.33,5.58-1.33s3.88.43,5.47,1.29c1.6.86,2.84,2.09,3.74,3.68.9,1.6,1.35,3.46,1.35,5.58,0,.61-.04,1.24-.11,1.9h.02Zm-6.53-3.59c0-1.11-.38-2-1.14-2.66s-1.71-.99-2.85-.99-2.01.32-2.75.95c-.75.63-1.21,1.53-1.39,2.7h8.13Z"/><path class="cls-1" d="m435.66,490.74l-4.22,10.9h-4.14l2.2-10.9h6.16Z"/><path class="cls-1" d="m477.82,470.08v26.67h-6.5v-15.99l-5.96,15.99h-5.24l-6-16.03v16.03h-6.5v-26.67h7.67l7.48,18.46,7.41-18.46h7.64,0Z"/><path class="cls-1" d="m482.44,480.37c.82-1.65,1.94-2.91,3.36-3.8,1.42-.89,3-1.33,4.75-1.33,1.49,0,2.8.3,3.93.91,1.13.61,1.99,1.41,2.6,2.39v-3h6.5v21.2h-6.5v-3c-.63.99-1.51,1.79-2.64,2.39-1.13.61-2.44.91-3.93.91-1.72,0-3.29-.45-4.71-1.35-1.42-.9-2.54-2.18-3.36-3.84s-1.24-3.58-1.24-5.75.41-4.09,1.24-5.74h0Zm13.3,1.96c-.9-.94-2-1.41-3.29-1.41s-2.39.46-3.29,1.39c-.9.92-1.35,2.2-1.35,3.82s.45,2.91,1.35,3.86c.9.95,1.99,1.42,3.29,1.42s2.39-.47,3.29-1.41,1.35-2.22,1.35-3.84-.45-2.9-1.35-3.84h0Z"/><path class="cls-1" d="m520.11,491.23v5.51h-3.3c-2.36,0-4.19-.58-5.51-1.73-1.32-1.15-1.98-3.03-1.98-5.64v-8.43h-2.58v-5.39h2.58v-5.17h6.5v5.17h4.25v5.39h-4.25v8.51c0,.63.15,1.09.46,1.37.3.28.81.42,1.52.42h2.32-.01Z"/><path class="cls-1" d="m543.58,487.7h-14.7c.1,1.32.53,2.32,1.27,3.02.75.7,1.67,1.04,2.75,1.04,1.62,0,2.75-.68,3.38-2.05h6.91c-.35,1.39-.99,2.65-1.92,3.76-.92,1.11-2.08,1.99-3.48,2.62-1.39.63-2.95.95-4.67.95-2.08,0-3.93-.44-5.55-1.33s-2.89-2.15-3.8-3.8-1.37-3.57-1.37-5.77.45-4.13,1.35-5.77c.9-1.65,2.16-2.91,3.78-3.8,1.62-.89,3.48-1.33,5.58-1.33s3.88.43,5.47,1.29c1.6.86,2.84,2.09,3.74,3.68.9,1.6,1.35,3.46,1.35,5.58,0,.61-.04,1.24-.11,1.9h.02,0Zm-6.53-3.59c0-1.11-.38-2-1.14-2.66s-1.71-.99-2.85-.99-2.01.32-2.75.95c-.75.63-1.21,1.53-1.39,2.7h8.13Z"/><path class="cls-1" d="m580.45,477.71c1.56,1.6,2.34,3.81,2.34,6.65v12.38h-6.46v-11.51c0-1.37-.36-2.42-1.08-3.17-.72-.75-1.72-1.12-2.98-1.12s-2.26.37-2.98,1.12-1.08,1.8-1.08,3.17v11.51h-6.46v-11.51c0-1.37-.36-2.42-1.08-3.17s-1.72-1.12-2.98-1.12-2.26.37-2.98,1.12-1.08,1.8-1.08,3.17v11.51h-6.5v-21.2h6.5v2.66c.66-.89,1.52-1.59,2.58-2.11s2.27-.78,3.61-.78c1.6,0,3.02.34,4.27,1.03,1.25.68,2.23,1.66,2.94,2.92.73-1.17,1.73-2.11,3-2.85,1.27-.73,2.65-1.1,4.14-1.1,2.63,0,4.73.8,6.29,2.39h-.01Z"/><path class="cls-1" d="m587.29,480.37c.82-1.65,1.94-2.91,3.36-3.8,1.42-.89,3-1.33,4.75-1.33,1.49,0,2.8.3,3.93.91,1.13.61,1.99,1.41,2.6,2.39v-3h6.5v21.2h-6.5v-3c-.63.99-1.51,1.79-2.64,2.39-1.13.61-2.44.91-3.93.91-1.72,0-3.29-.45-4.71-1.35-1.42-.9-2.54-2.18-3.36-3.84s-1.23-3.58-1.23-5.75.41-4.09,1.23-5.74h0Zm13.3,1.96c-.9-.94-1.99-1.41-3.29-1.41s-2.39.46-3.29,1.39c-.9.92-1.35,2.2-1.35,3.82s.45,2.91,1.35,3.86c.9.95,1.99,1.42,3.29,1.42s2.39-.47,3.29-1.41c.9-.94,1.35-2.22,1.35-3.84s-.45-2.9-1.35-3.84h0Z"/><path class="cls-1" d="m624.95,491.23v5.51h-3.31c-2.35,0-4.19-.58-5.51-1.73-1.32-1.15-1.98-3.03-1.98-5.64v-8.43h-2.58v-5.39h2.58v-5.17h6.5v5.17h4.25v5.39h-4.25v8.51c0,.63.15,1.09.46,1.37s.81.42,1.52.42h2.32,0Z"/><path class="cls-1" d="m629.04,472.34c-.72-.67-1.08-1.5-1.08-2.49s.36-1.86,1.08-2.53,1.65-1.01,2.79-1.01,2.03.34,2.75,1.01,1.08,1.51,1.08,2.53-.36,1.82-1.08,2.49c-.72.67-1.64,1.01-2.75,1.01s-2.07-.34-2.79-1.01Zm6.02,3.21v21.2h-6.5v-21.2h6.5Z"/><path class="cls-1" d="m640.24,472.34c-.72-.67-1.08-1.5-1.08-2.49s.36-1.86,1.08-2.53,1.65-1.01,2.79-1.01,2.03.34,2.75,1.01,1.08,1.51,1.08,2.53-.36,1.82-1.08,2.49c-.72.67-1.64,1.01-2.75,1.01s-2.07-.34-2.79-1.01Zm6.02,3.21v21.2h-6.5v-21.2h6.5Z"/><path class="cls-1" d="m663.93,496.74l-6.46-8.89v8.89h-6.5v-28.11h6.5v15.54l6.42-8.62h8.02l-8.81,10.64,8.89,10.56h-8.06Z"/><path class="cls-1" d="m687.4,496.74l-6.46-8.89v8.89h-6.5v-28.11h6.5v15.54l6.42-8.62h8.02l-8.81,10.64,8.89,10.56h-8.06Z"/><path class="cls-1" d="m697.87,480.37c.82-1.65,1.94-2.91,3.36-3.8,1.42-.89,3-1.33,4.75-1.33,1.49,0,2.8.3,3.93.91,1.13.61,1.99,1.41,2.6,2.39v-3h6.5v21.2h-6.5v-3c-.63.99-1.51,1.79-2.64,2.39-1.13.61-2.44.91-3.93.91-1.72,0-3.29-.45-4.71-1.35-1.42-.9-2.54-2.18-3.36-3.84s-1.23-3.58-1.23-5.75.41-4.09,1.23-5.74h0Zm13.3,1.96c-.9-.94-1.99-1.41-3.29-1.41s-2.39.46-3.29,1.39c-.9.92-1.35,2.2-1.35,3.82s.45,2.91,1.35,3.86c.9.95,1.99,1.42,3.29,1.42s2.39-.47,3.29-1.41c.9-.94,1.35-2.22,1.35-3.84s-.45-2.9-1.35-3.84h0Z"/><path class="cls-1" d="m730.71,490.74l-4.22,10.9h-4.14l2.2-10.9h6.16Z"/><path class="cls-1" d="m761.86,470.08v5.2h-7.07v21.46h-6.5v-21.46h-7.07v-5.2h20.64Z"/><path class="cls-1" d="m765.6,472.34c-.72-.67-1.08-1.5-1.08-2.49s.36-1.86,1.08-2.53,1.65-1.01,2.79-1.01,2.03.34,2.75,1.01,1.08,1.51,1.08,2.53-.36,1.82-1.08,2.49c-.72.67-1.64,1.01-2.75,1.01s-2.07-.34-2.79-1.01Zm6.02,3.21v21.2h-6.5v-21.2h6.5Z"/><path class="cls-1" d="m782.83,468.63v28.11h-6.5v-28.11h6.5Z"/><path class="cls-1" d="m787.48,480.37c.82-1.65,1.94-2.91,3.36-3.8,1.42-.89,3-1.33,4.75-1.33,1.49,0,2.8.3,3.93.91,1.13.61,1.99,1.41,2.6,2.39v-3h6.5v21.2h-6.5v-3c-.63.99-1.51,1.79-2.64,2.39-1.13.61-2.44.91-3.93.91-1.72,0-3.29-.45-4.71-1.35-1.42-.9-2.54-2.18-3.36-3.84s-1.23-3.58-1.23-5.75.41-4.09,1.23-5.74h0Zm13.3,1.96c-.9-.94-1.99-1.41-3.29-1.41s-2.39.46-3.29,1.39c-.9.92-1.35,2.2-1.35,3.82s.45,2.91,1.35,3.86c.9.95,1.99,1.42,3.29,1.42s2.39-.47,3.29-1.41c.9-.94,1.35-2.22,1.35-3.84s-.45-2.9-1.35-3.84h0Z"/><path class="cls-1" d="m817.02,496.1c-1.44-.63-2.58-1.5-3.42-2.6s-1.3-2.34-1.41-3.7h6.42c.08.74.42,1.33,1.03,1.79.61.46,1.35.68,2.24.68.81,0,1.44-.16,1.88-.47.44-.32.67-.73.67-1.24,0-.61-.32-1.06-.95-1.35s-1.66-.61-3.08-.97c-1.52-.35-2.79-.73-3.8-1.12s-1.89-1.01-2.62-1.86-1.1-2-1.1-3.44c0-1.22.33-2.32,1.01-3.32.67-1,1.66-1.79,2.96-2.37,1.3-.58,2.86-.87,4.65-.87,2.66,0,4.75.66,6.29,1.97,1.53,1.32,2.41,3.06,2.64,5.24h-6c-.1-.73-.42-1.32-.97-1.75-.54-.43-1.26-.65-2.15-.65-.76,0-1.34.15-1.75.44s-.61.69-.61,1.2c0,.61.32,1.06.97,1.37s1.65.61,3.02.91c1.57.41,2.85.8,3.84,1.2.99.39,1.86,1.03,2.6,1.9s1.13,2.04,1.16,3.51c0,1.24-.35,2.35-1.04,3.32-.7.98-1.7,1.74-3,2.3s-2.82.84-4.54.84c-1.85,0-3.5-.32-4.94-.95h0Z"/><path class="cls-1" d="m846.35,491.23v5.51h-3.31c-2.35,0-4.19-.58-5.51-1.73-1.32-1.15-1.98-3.03-1.98-5.64v-8.43h-2.58v-5.39h2.58v-5.17h6.5v5.17h4.25v5.39h-4.25v8.51c0,.63.15,1.09.46,1.37s.81.42,1.52.42h2.32,0Z"/><path class="cls-1" d="m854,495.72c-1.66-.89-2.96-2.15-3.91-3.8-.95-1.65-1.42-3.57-1.42-5.77s.48-4.1,1.44-5.76,2.28-2.93,3.95-3.82,3.54-1.33,5.62-1.33,3.95.44,5.62,1.33c1.67.89,2.99,2.16,3.95,3.82s1.44,3.58,1.44,5.76-.49,4.1-1.46,5.75c-.98,1.66-2.31,2.93-3.99,3.82s-3.56,1.33-5.64,1.33-3.94-.44-5.6-1.33h0Zm8.78-5.66c.87-.91,1.31-2.22,1.31-3.91s-.42-3-1.27-3.91c-.85-.91-1.89-1.37-3.13-1.37s-2.32.45-3.15,1.35c-.84.9-1.25,2.21-1.25,3.93s.41,3,1.23,3.91,1.85,1.37,3.1,1.37,2.3-.46,3.17-1.37h0Z"/><path class="cls-1" d="m885.97,491.23v5.51h-3.31c-2.35,0-4.19-.58-5.51-1.73-1.32-1.15-1.98-3.03-1.98-5.64v-8.43h-2.58v-5.39h2.58v-5.17h6.5v5.17h4.25v5.39h-4.25v8.51c0,.63.15,1.09.46,1.37s.81.42,1.52.42h2.32,0Z"/><path class="cls-1" d="m890.05,472.34c-.72-.67-1.08-1.5-1.08-2.49s.36-1.86,1.08-2.53,1.65-1.01,2.79-1.01,2.03.34,2.75,1.01,1.08,1.51,1.08,2.53-.36,1.82-1.08,2.49c-.72.67-1.64,1.01-2.75,1.01s-2.07-.34-2.79-1.01Zm6.02,3.21v21.2h-6.5v-21.2h6.5Z"/><path class="cls-1" d="m920.65,487.7h-14.7c.1,1.32.53,2.32,1.27,3.02.75.7,1.67,1.04,2.75,1.04,1.62,0,2.75-.68,3.38-2.05h6.91c-.36,1.39-1,2.65-1.92,3.76-.92,1.11-2.08,1.99-3.48,2.62-1.39.63-2.95.95-4.67.95-2.08,0-3.93-.44-5.55-1.33-1.62-.89-2.89-2.15-3.8-3.8s-1.37-3.57-1.37-5.77.45-4.13,1.35-5.77c.9-1.65,2.16-2.91,3.78-3.8,1.62-.89,3.48-1.33,5.58-1.33s3.88.43,5.47,1.29c1.59.86,2.84,2.09,3.74,3.68.9,1.6,1.35,3.46,1.35,5.58,0,.61-.04,1.24-.11,1.9h.02,0Zm-6.53-3.59c0-1.11-.38-2-1.14-2.66s-1.71-.99-2.85-.99-2.01.32-2.75.95c-.75.63-1.21,1.53-1.39,2.7h8.13Z"/><path class="cls-1" d="m924.12,480.37c.82-1.65,1.94-2.91,3.36-3.8,1.42-.89,3-1.33,4.75-1.33,1.39,0,2.67.29,3.82.87s2.06,1.37,2.72,2.36v-9.84h6.5v28.11h-6.5v-3.04c-.61,1.01-1.48,1.82-2.6,2.43-1.13.61-2.44.91-3.93.91-1.75,0-3.33-.45-4.75-1.35s-2.54-2.18-3.36-3.84-1.23-3.58-1.23-5.75.41-4.09,1.23-5.74h-.01Zm13.3,1.96c-.9-.94-1.99-1.41-3.29-1.41s-2.39.46-3.29,1.39c-.9.92-1.35,2.2-1.35,3.82s.45,2.91,1.35,3.86c.9.95,1.99,1.42,3.29,1.42s2.39-.47,3.29-1.41c.9-.94,1.35-2.22,1.35-3.84s-.45-2.9-1.35-3.84h0Z"/><path class="cls-1" d="m969.84,487.7h-14.7c.1,1.32.53,2.32,1.27,3.02.75.7,1.67,1.04,2.75,1.04,1.62,0,2.75-.68,3.38-2.05h6.91c-.36,1.39-1,2.65-1.92,3.76-.92,1.11-2.08,1.99-3.48,2.62-1.39.63-2.95.95-4.67.95-2.08,0-3.93-.44-5.55-1.33-1.62-.89-2.89-2.15-3.8-3.8s-1.37-3.57-1.37-5.77.45-4.13,1.35-5.77c.9-1.65,2.16-2.91,3.78-3.8,1.62-.89,3.48-1.33,5.58-1.33s3.88.43,5.47,1.29c1.59.86,2.84,2.09,3.74,3.68.9,1.6,1.35,3.46,1.35,5.58,0,.61-.04,1.24-.11,1.9h.02,0Zm-6.53-3.59c0-1.11-.38-2-1.14-2.66s-1.71-.99-2.85-.99-2.01.32-2.75.95c-.75.63-1.21,1.53-1.39,2.7h8.13Z"/></g><g><path class="cls-1" d="m133.26,217.51c13.5,18.66,30.98,32.34,50.21,43.94,37.42,22.59,78.33,36.28,120.53,46.5,13.46,3.27,27.08,5.9,41.17,8.94v-14.59c23.21,10.15,45.73,19.99,69.37,30.31-23.56,5.88-45.87,11.45-69.07,17.23,0-5.39-.19-10.25.06-15.09.18-3.4-.88-4.66-4.4-5.22-41.62-6.63-82.49-16.31-122.06-31.02-32.56-12.11-63.7-26.95-90.96-48.93-14.2-11.45-26.61-24.52-35.12-40.87-12.99-24.97-12.45-49.71,1.86-73.99,11.42-19.39,27.9-33.86,46.25-46.32,32.14-21.82,67.66-36.41,104.49-48,45.37-14.26,91.82-23.38,139.04-28.73,9.19-1.04,18.39-2.02,28.02-3.07v9.99c-9.71,1.19-19.6,2.23-29.42,3.63-61.71,8.75-121.83,23.13-177.99,51.13-23.71,11.82-45.79,26.08-63.82,45.86-10.68,11.73-18.94,24.88-22.13,40.66-4.06,20.01,1.16,38.09,12.07,54.85.56.85,1.15,1.67,1.9,2.76h0Z"/><path class="cls-1" d="m777.5,287.77c-64.02,27.9-131.18,41.34-200.17,48.58v-10.4c7.92-1.07,15.91-2.06,23.88-3.25,55.44-8.26,109.44-21.6,160.07-46.38,26.18-12.81,50.52-28.37,69.53-50.97,14.38-17.09,23.06-36.35,20.78-59.31-1.81-18.15-10.28-33.26-22.05-46.68-18.48-21.06-41.69-35.66-66.56-47.81-38.31-18.72-78.89-30.49-120.53-38.94-5.19-1.05-10.41-2-16.09-3.07v17.72c-23.02-10.06-45.41-19.85-67.8-29.63,0-.31.02-.63.03-.93,22.2-5.56,44.4-11.12,67.49-16.89,0,4.03.15,8-.05,11.95-.15,2.96.65,4.19,3.88,4.7,34.14,5.48,67.79,13.09,100.7,23.84,37.15,12.14,72.82,27.37,104.51,50.74,15.37,11.34,29.04,24.43,38.92,40.96,16.55,27.66,16.27,55.36-.56,82.8-12.3,20.06-29.57,35.28-49.28,47.5-14.96,9.28-30.91,16.95-46.72,25.48l.02-.02Z"/><path class="cls-1" d="m545.72,276.64h-21.42v-127.81c.25-.19.48-.51.7-.51,17.6.47,35.54-1.07,52.71,1.9,28.84,4.98,44.09,37.65,31.69,64.24-6.8,14.58-18.97,21.26-34.63,21.99-6.61.3-13.25.05-20.42.05v40.12h-8.63m32.14-64.02c5.1-14.39,4.82-28.64-1.68-42.5-3.81-8.12-12.8-12.1-21.72-10.19v63.62c9.88.94,18.07-1.2,23.4-10.92h0Z"/><path class="cls-1" d="m647.39,276.64h-14.67v-128.48c2.78,0,5.49-.04,8.2,0,13.59.24,27.31-.55,40.75.97,30.75,3.47,48.99,36.72,36.19,64.93-6.99,15.41-19.8,21.97-36.13,22.5-6.2.2-12.42.03-19.17.03v40.05h-15.17m21.92-52.91c8.76-.77,15.24-4.98,17.83-13.45,4.05-13.26,3.68-26.55-2.12-39.33-3.95-8.69-12.55-12.83-22.29-11.07v63.88c2.1,0,3.95,0,6.58-.03h0Z"/><path class="cls-1" d="m227.67,112.56v-9.22h36.51v113.8h49.28v19.16h-85.79v-123.74h0Z"/><path class="cls-1" d="m401.22,194.18c-.17,6.21-.03,12.02-.57,17.76-1.16,12.17-9.42,21.72-21.14,24.64-9.29,2.31-18.66,2.23-27.88-.3-14.53-3.98-23.15-13.98-23.59-29.04-.57-19.66-.18-39.33-.18-59,0-.4.23-.8.44-1.46h29.77c.07,1.51.2,3.03.2,4.55.02,16.05-.03,32.11.04,48.16.02,3.16.17,6.38.79,9.48,1.75,8.79,8.16,12.93,16.94,11.17,4.18-.84,7.24-3.32,8.22-7.44,1.16-4.89,2.32-9.9,2.42-14.89.32-15.32.15-30.66.16-45.99v-5.01h14.39v47.36h0Z"/><path class="cls-1" d="m469.38,220.4c8.02-.43,11.51-3.03,12.95-10.57,1.05-5.5,1.57-11.17,1.65-16.77.22-15.31.08-30.63.08-46.24h14.03c.08,1.3.23,2.68.23,4.06.02,17.79.11,35.58-.07,53.37-.04,4.43-.42,9.03-1.67,13.25-3.34,11.36-11.44,17.77-22.95,19.78-9.24,1.61-18.48,1.34-27.41-1.77-13.17-4.59-20.56-14.14-20.98-27.92-.59-19.8-.2-39.63-.21-59.44,0-.39.26-.78.48-1.39h29.95v4.7c0,15.91-.05,31.82.04,47.73.02,3.45.19,6.97.89,10.33,1.45,7.04,5.36,10.22,12.98,10.88h.02Z"/><path class="cls-1" d="m749.07,236.61h-8.16v-89.83h29.62v89.83h-21.46,0Z"/><path class="cls-1" d="m737.34,111.58c1.05-11.19,8.7-17.28,20-16.29,9.22.82,15.76,8.27,15.11,17.27-.59,8.3-7.53,15.44-15.89,16.36-8.04.89-16.41-5.01-18.57-13.15-.33-1.25-.43-2.56-.64-4.19h0Z"/></g></svg>