<?xml version="1.0" encoding="UTF-8"?><svg id="Layer_1" xmlns="http://www.w3.org/2000/svg" viewBox="0 0 969.93 506"><defs><style>.cls-1{fill:#fff;}</style></defs><g><path class="cls-1" d="m334.85,349.24v-18.82c-16.03-3.26-30.94-6.39-45.89-9.31-25.36-4.97-50.08-12.22-74.43-20.78-19.51-6.86-38.54-14.92-56.76-24.74-15.13-8.15-29.63-17.32-42.81-28.37-13.83-11.6-25.72-24.95-33.59-41.39-2.42-5.05-3.79-10.59-5.69-15.89-.22-.61-.73-1.12-1.4-1.42-.29-10.06-.29-20.38-.29-31.1.57-.82,1.53-1.14,1.65-1.66,3.54-14.63,11.25-26.86,20.95-38.17,16.16-18.85,36.35-32.23,57.81-44.1,22.26-12.31,45.69-21.73,69.74-29.89,23.82-8.08,48.03-14.52,72.62-19.62,12.75-2.64,25.48-5.47,38.32-7.62,11.28-1.89,22.7-3,34.07-4.39,10.99-1.34,21.98-2.59,33.3-3.92.13,1.63.27,2.72.28,3.8.06,7.38,0,7.01-7.2,7.92-13.55,1.7-27.08,3.7-40.56,5.9-12.73,2.08-25.46,4.27-38.07,6.98-13.09,2.81-26.23,5.66-38.99,9.64-19.15,5.97-38.26,12.24-56.86,19.7-14.02,5.62-27.47,12.86-40.71,20.22-10.23,5.7-20.23,12.07-29.43,19.3-13.14,10.32-24.88,22.19-33.07,37.08-6.05,11-9.82,22.63-9.49,35.28.41,15.75,6.27,29.73,15.14,42.43,7.99,11.46,18.17,20.78,29.13,29.48,15.97,12.69,33.6,22.47,51.94,30.94,24.02,11.09,48.96,19.8,74.66,26.21,12.6,3.14,25.21,6.2,37.87,9.1,5.49,1.26,11.09,2.01,16.96,3.05v-14.39c23.76,10.37,47.01,20.53,71.13,31.06-7.67,2-14.39,3.8-21.13,5.49-14.99,3.76-29.99,7.47-45,11.18-.68.17-1.41.13-2.53.53-.84.33-1.26.32-1.69.32l.02-.03h0Z"/><path class="cls-1" d="m874.01,187.5c-.57.81-1.54,1.14-1.65,1.65-2.93,13.48-9.43,25.15-17.87,35.89-15.11,19.22-34.45,33.17-55.37,45.36-19.6,11.42-40.03,20.93-61.47,28.19-16.55,5.6-33.15,11.19-49.99,15.79-15.74,4.3-31.78,7.55-47.78,10.79-13.2,2.67-26.51,4.84-39.82,6.86-8.17,1.24-16.44,1.78-24.66,2.67-3.03.33-6.05.73-9.33,1.12v-10.86c19.34-3.07,38.73-5.36,57.76-9.37,20.89-4.4,41.57-9.96,62.13-15.76,24.59-6.93,48.19-16.58,70.81-28.5,15.23-8.03,29.7-17.21,42.92-28.33,12.48-10.5,23.48-22.27,31.2-36.7,4.1-7.65,6.78-15.9,8-24.64,3.1-22.24-4.99-40.78-18.21-57.89-13.23-17.12-30.32-29.56-48.58-40.52-24.23-14.54-50.14-25.51-77.14-33.57-20.46-6.11-41.3-10.98-62.01-16.24-5.49-1.39-11.12-2.2-17.11-3.36v17.94c-24.01-10.46-47.24-20.59-71.4-31.12,20.56-5.18,39.98-10.08,59.39-14.99,1.56-.4,3.09-.93,4.37-1.7,1.77-.3,3.81-.3,6.22.1.38,5.24.38,10.08.38,14.85,11.27,2.11,22.29,3.73,33.08,6.29,22.27,5.3,44.62,10.41,66.56,16.89,27.12,8.02,53.32,18.57,78.12,32.39,20.52,11.44,39.86,24.31,55.74,41.96,11.32,12.58,20.48,26.2,24.08,43.04.11.51,1.08.84,1.65,1.25v30.5l-.02.02h0Z"/><path class="cls-1" d="m512.64,254.86v-107.09c1.41-.07,2.64-.2,3.88-.2,13.45,0,26.9-.29,40.34.05,22.66.58,42.23,16.25,45.2,40.21,1.48,11.92-.48,22.73-7.08,32.5-6.75,9.99-16.7,14.97-28.65,15.57-7.41.37-14.84.07-22.62.07v40.09h-31.08v-21.2m38.58-95.26h-7.68v58.71c0,4.87,1.11,5.7,5.86,4.44.66-.18,1.32-.41,2-.5,7.6-1.02,12.55-5.31,15.34-12.31,3.94-9.91,3.24-20.13,1.39-30.21-1.72-9.35-6.14-17.08-16.91-20.14h0Z"/><path class="cls-1" d="m636.24,276.32h-15.2v-128.56c1.12-.06,2.35-.19,3.57-.19,13.3,0,26.6-.1,39.89.02,12.16.1,23.01,4.47,31.73,12.58,8.68,8.07,13.15,18.46,14,30.69.79,11.3-1.6,21.45-7.99,30.5-5.22,7.4-12.61,12.48-21.64,13.59-9.39,1.16-18.94,1.02-28.77,1.46v39.91h-15.6m35.71-108.08c-5.15-6.6-11.68-9.73-20.26-8.33v57.61c0,.71.06,1.43-.01,2.14-.27,2.61.88,3.69,3.47,3.45,9.52-.88,17.26-3.94,20.46-15.25,3.75-13.26,2.7-26.45-3.65-39.62h0Z"/><path class="cls-1" d="m218.22,102.24h35.9v113.86h48.83v19.65h-85.59c0-44.01,0-88.01.21-132.5.41-.61.56-.78.64-1.01h.01Z"/><path class="cls-1" d="m467.02,235.98c-15.5,3.6-30.12,2.96-42.96-6.78-6.48-4.92-9.81-12.45-9.98-20.39-.46-20.84-.16-41.69-.16-62.75h30.9v4.18c0,17.3-.09,34.6.05,51.91.04,5.63,1.06,11.39,5.97,14.85,7.67,5.41,18.79,2.93,20.52-9.36.71-5.01.86-10.13.9-15.2.11-15.41.04-30.82.04-46.41h15.44v18.01c0,13.44-.12,26.88.04,40.32.1,8.95-1.8,17.38-7.94,23.88-3.25,3.43-8.25,5.21-12.82,7.73h0Z"/><path class="cls-1" d="m390.75,210.75c-1.52,6.11-2.96,11.7-6.97,16.53-4.31,5.19-9.69,8.33-15.93,9.41-10.68,1.85-21.32,1.84-31.8-2.3-10.25-4.05-16.65-11.35-18.03-21.84-1.33-10.08-.93-20.4-1.05-30.61-.14-11.85-.03-23.7-.03-35.83h30.7c.06,1.07.19,2.29.19,3.52.01,16.58-.09,33.17.08,49.75.04,3.56.89,7.14,1.62,10.66,1.48,7.13,10.35,12.45,18.45,7.85,2.31-1.31,4.37-4.01,5.32-6.54,1.29-3.43,1.88-7.29,1.92-10.98.18-18.05.08-36.1.08-54.34h15.45v64.71h0Z"/><path class="cls-1" d="m728.22,235.13c-.05-29.21-.09-58.43.08-88.12.41-.62.54-.8.63-1.02h30.64v89.98c-9.96,0-19.9,0-30.33-.22-.62-.41-.8-.54-1.02-.62h0Z"/><path class="cls-1" d="m736.27,127.68c-10.47-4.27-13.09-16.82-9.17-24.29,3.12-5.93,12.05-10.29,19.56-8.49,6.85,1.64,12.13,4.45,13.79,11.22,1.72,7.02.21,13.78-5.76,18.65-5.38,4.39-11.57,4.99-18.43,2.91,0,0,.01,0,.01,0Z"/><path class="cls-1" d="m728.7,145.95c.14.26,0,.44-.33.66-.07-.18.02-.44.33-.66Z"/><path class="cls-1" d="m728.18,235.36c.26-.15.44,0,.66.32-.18.07-.44,0-.66-.32Z"/><path class="cls-1" d="m217.99,102.18c.15.28,0,.46-.35.67-.06-.19.03-.46.35-.67Z"/></g><g><path class="cls-1" d="m76.43,372.81v11.82h-16.05v48.76h-14.76v-48.76h-16.05v-11.82h46.86Z"/><path class="cls-1" d="m83.72,396.2c1.87-3.74,4.42-6.62,7.64-8.63s6.82-3.02,10.79-3.02c3.39,0,6.37.69,8.93,2.07,2.56,1.38,4.53,3.19,5.91,5.44v-6.82h14.76v48.16h-14.76v-6.82c-1.44,2.24-3.44,4.06-6,5.44s-5.54,2.07-8.93,2.07c-3.91,0-7.48-1.02-10.7-3.06s-5.77-4.95-7.64-8.72-2.8-8.13-2.8-13.08.93-9.29,2.8-13.03h0Zm30.21,4.4c-2.04-2.13-4.53-3.19-7.47-3.19s-5.42,1.05-7.47,3.15c-2.04,2.1-3.06,4.99-3.06,8.67s1.02,6.6,3.06,8.76,4.53,3.24,7.47,3.24,5.42-1.06,7.47-3.19c2.04-2.13,3.06-5.03,3.06-8.72s-1.02-6.59-3.06-8.72Z"/><path class="cls-1" d="m218.17,390.16c3.54,3.62,5.31,8.66,5.31,15.1v28.13h-14.67v-26.15c0-3.11-.82-5.51-2.46-7.21-1.64-1.7-3.9-2.55-6.77-2.55s-5.14.85-6.77,2.55c-1.64,1.7-2.46,4.1-2.46,7.21v26.15h-14.67v-26.15c0-3.11-.82-5.51-2.46-7.21-1.64-1.7-3.9-2.55-6.77-2.55s-5.13.85-6.77,2.55c-1.64,1.7-2.46,4.1-2.46,7.21v26.15h-14.76v-48.16h14.76v6.04c1.5-2.01,3.45-3.61,5.87-4.79,2.42-1.18,5.15-1.77,8.2-1.77,3.62,0,6.86.78,9.71,2.33s5.08,3.77,6.69,6.65c1.67-2.65,3.94-4.8,6.82-6.47s6.01-2.5,9.41-2.5c5.98,0,10.74,1.81,14.28,5.44h-.03Z"/><path class="cls-1" d="m254.55,386.62c2.53-1.38,5.49-2.07,8.89-2.07,3.97,0,7.56,1.01,10.79,3.02,3.22,2.01,5.77,4.89,7.64,8.63,1.87,3.74,2.8,8.08,2.8,13.03s-.94,9.31-2.8,13.08c-1.87,3.77-4.42,6.67-7.64,8.72-3.22,2.04-6.82,3.06-10.79,3.06-3.34,0-6.29-.69-8.85-2.07s-4.56-3.16-6-5.35v29.69h-14.76v-71.11h14.76v6.82c1.44-2.24,3.42-4.06,5.96-5.44h0Zm12.04,13.93c-2.04-2.1-4.56-3.15-7.55-3.15s-5.42,1.07-7.46,3.19c-2.04,2.13-3.06,5.04-3.06,8.72s1.02,6.59,3.06,8.72,4.53,3.19,7.46,3.19,5.44-1.08,7.51-3.24,3.11-5.08,3.11-8.76-1.02-6.57-3.06-8.67h-.01Z"/><path class="cls-1" d="m337.57,412.86h-33.4c.23,2.99,1.19,5.28,2.89,6.86s3.78,2.37,6.26,2.37c3.68,0,6.24-1.55,7.68-4.66h15.71c-.81,3.17-2.26,6.01-4.36,8.54-2.1,2.53-4.73,4.52-7.9,5.96-3.16,1.44-6.7,2.16-10.61,2.16-4.72,0-8.92-1.01-12.6-3.02-3.68-2.01-6.56-4.89-8.63-8.63s-3.11-8.11-3.11-13.12,1.02-9.38,3.06-13.12,4.9-6.62,8.59-8.63c3.68-2.01,7.91-3.02,12.69-3.02s8.8.98,12.43,2.93c3.62,1.96,6.46,4.75,8.5,8.37s3.06,7.85,3.06,12.69c0,1.38-.09,2.82-.26,4.32h0Zm-14.84-8.2c0-2.53-.86-4.54-2.59-6.04s-3.88-2.24-6.47-2.24-4.56.72-6.26,2.16-2.75,3.48-3.15,6.13h18.47Z"/><path class="cls-1" d="m366.83,387.01c2.59-1.52,5.47-2.29,8.63-2.29v15.62h-4.06c-3.68,0-6.44.79-8.29,2.37-1.84,1.58-2.76,4.36-2.76,8.33v22.35h-14.76v-48.16h14.76v8.03c1.73-2.65,3.88-4.73,6.47-6.26h.01Z"/><path class="cls-1" d="m427.67,412.86h-33.4c.23,2.99,1.19,5.28,2.89,6.86s3.78,2.37,6.26,2.37c3.68,0,6.24-1.55,7.68-4.66h15.71c-.81,3.17-2.26,6.01-4.36,8.54-2.1,2.53-4.73,4.52-7.9,5.96-3.17,1.44-6.7,2.16-10.62,2.16-4.72,0-8.92-1.01-12.6-3.02-3.68-2.01-6.56-4.89-8.63-8.63s-3.11-8.11-3.11-13.12,1.02-9.38,3.06-13.12,4.9-6.62,8.59-8.63c3.68-2.01,7.91-3.02,12.69-3.02s8.8.98,12.43,2.93c3.62,1.96,6.46,4.75,8.5,8.37s3.06,7.85,3.06,12.69c0,1.38-.09,2.82-.26,4.32h0Zm-14.84-8.2c0-2.53-.86-4.54-2.59-6.04s-3.88-2.24-6.47-2.24-4.56.72-6.26,2.16-2.75,3.48-3.15,6.13h18.47Z"/><path class="cls-1" d="m480.83,412.86h-33.4c.23,2.99,1.19,5.28,2.89,6.86s3.78,2.37,6.26,2.37c3.68,0,6.24-1.55,7.68-4.66h15.71c-.81,3.17-2.26,6.01-4.36,8.54s-4.73,4.52-7.9,5.96c-3.17,1.44-6.7,2.16-10.62,2.16-4.72,0-8.92-1.01-12.6-3.02-3.68-2.01-6.56-4.89-8.63-8.63s-3.11-8.11-3.11-13.12,1.02-9.38,3.06-13.12,4.9-6.62,8.59-8.63c3.68-2.01,7.91-3.02,12.69-3.02s8.8.98,12.43,2.93c3.62,1.96,6.46,4.75,8.5,8.37s3.06,7.85,3.06,12.69c0,1.38-.09,2.82-.26,4.32h0Zm-14.84-8.2c0-2.53-.86-4.54-2.59-6.04-1.73-1.5-3.88-2.24-6.47-2.24s-4.56.72-6.26,2.16-2.75,3.48-3.15,6.13h18.47Z"/><path class="cls-1" d="m531.71,390.2c3.37,3.65,5.05,8.67,5.05,15.06v28.13h-14.67v-26.15c0-3.22-.83-5.72-2.5-7.51-1.67-1.78-3.91-2.67-6.73-2.67s-5.06.89-6.73,2.67-2.5,4.29-2.5,7.51v26.15h-14.76v-48.16h14.76v6.39c1.5-2.13,3.51-3.81,6.04-5.05,2.53-1.24,5.38-1.86,8.54-1.86,5.64,0,10.14,1.83,13.51,5.48h-.01Z"/><path class="cls-1" d="m614.51,385.24l-30.21,71.03h-15.88l11.05-24.51-19.59-46.52h16.48l11.13,30.12,11.05-30.12h15.97Z"/><path class="cls-1" d="m634.62,369.53v63.86h-14.76v-63.86h14.76Z"/><path class="cls-1" d="m646.4,377.95c-1.64-1.52-2.46-3.41-2.46-5.65s.82-4.21,2.46-5.74,3.75-2.29,6.34-2.29,4.62.76,6.26,2.29,2.46,3.44,2.46,5.74-.82,4.13-2.46,5.65c-1.64,1.53-3.73,2.29-6.26,2.29s-4.7-.76-6.34-2.29Zm13.68,7.29v48.16h-14.76v-48.16h14.76Z"/><path class="cls-1" d="m679.97,431.07c-3.77-2.01-6.73-4.89-8.89-8.63-2.16-3.74-3.24-8.11-3.24-13.12s1.09-9.31,3.28-13.08,5.18-6.66,8.97-8.67c3.8-2.01,8.05-3.02,12.77-3.02s8.98,1.01,12.77,3.02c3.8,2.01,6.79,4.91,8.98,8.67,2.19,3.77,3.28,8.13,3.28,13.08s-1.11,9.31-3.32,13.07c-2.22,3.77-5.24,6.66-9.06,8.67-3.83,2.01-8.1,3.02-12.82,3.02s-8.96-1.01-12.73-3.02h0Zm19.94-12.85c1.99-2.07,2.98-5.03,2.98-8.89s-.96-6.82-2.89-8.89-4.3-3.11-7.12-3.11-5.26,1.02-7.16,3.06c-1.9,2.04-2.85,5.02-2.85,8.93s.93,6.82,2.81,8.89c1.87,2.07,4.21,3.11,7.03,3.11s5.22-1.04,7.21-3.11h-.01Z"/><path class="cls-1" d="m746.47,386.62c2.53-1.38,5.49-2.07,8.89-2.07,3.97,0,7.57,1.01,10.79,3.02,3.22,2.01,5.77,4.89,7.64,8.63s2.8,8.08,2.8,13.03-.94,9.31-2.8,13.08c-1.87,3.77-4.42,6.67-7.64,8.72-3.22,2.04-6.82,3.06-10.79,3.06-3.34,0-6.29-.69-8.85-2.07s-4.56-3.16-6-5.35v29.69h-14.76v-71.11h14.76v6.82c1.44-2.24,3.42-4.06,5.96-5.44h0Zm12.04,13.93c-2.04-2.1-4.56-3.15-7.55-3.15s-5.42,1.07-7.46,3.19c-2.04,2.13-3.06,5.04-3.06,8.72s1.02,6.59,3.06,8.72,4.53,3.19,7.46,3.19,5.44-1.08,7.51-3.24,3.11-5.08,3.11-8.76-1.02-6.57-3.06-8.67h-.01Z"/><path class="cls-1" d="m785.43,377.95c-1.64-1.52-2.46-3.41-2.46-5.65s.82-4.21,2.46-5.74,3.75-2.29,6.34-2.29,4.62.76,6.26,2.29,2.46,3.44,2.46,5.74-.82,4.13-2.46,5.65c-1.64,1.53-3.73,2.29-6.26,2.29s-4.7-.76-6.34-2.29Zm13.68,7.29v48.16h-14.76v-48.16h14.76Z"/><path class="cls-1" d="m818.18,431.93c-3.28-1.44-5.87-3.41-7.77-5.91s-2.96-5.31-3.19-8.41h14.58c.17,1.67.95,3.02,2.33,4.06s3.08,1.55,5.09,1.55c1.84,0,3.26-.36,4.27-1.08s1.51-1.65,1.51-2.8c0-1.38-.72-2.4-2.16-3.06s-3.77-1.39-6.99-2.2c-3.45-.8-6.33-1.65-8.63-2.55-2.3-.89-4.29-2.3-5.95-4.23-1.67-1.93-2.5-4.53-2.5-7.81,0-2.76.76-5.28,2.29-7.55,1.52-2.27,3.77-4.07,6.73-5.39,2.96-1.32,6.49-1.98,10.57-1.98,6.04,0,10.8,1.5,14.28,4.49,3.48,2.99,5.48,6.96,6,11.91h-13.64c-.23-1.67-.96-2.99-2.2-3.97s-2.86-1.47-4.88-1.47c-1.73,0-3.05.33-3.97.99s-1.38,1.57-1.38,2.72c0,1.38.73,2.42,2.2,3.11s3.75,1.38,6.86,2.07c3.57.92,6.47,1.83,8.72,2.72,2.24.89,4.21,2.33,5.91,4.32,1.7,1.99,2.57,4.65,2.63,7.98,0,2.82-.79,5.34-2.37,7.55-1.58,2.22-3.86,3.96-6.82,5.22s-6.4,1.9-10.31,1.9c-4.2,0-7.94-.72-11.22-2.16v-.02Z"/><path class="cls-1" d="m884.81,420.88v12.51h-7.51c-5.35,0-9.52-1.31-12.51-3.93s-4.49-6.89-4.49-12.82v-19.16h-5.87v-12.25h5.87v-11.74h14.76v11.74h9.67v12.25h-9.67v19.33c0,1.44.35,2.47,1.04,3.11.69.63,1.84.95,3.45.95h5.26Z"/><path class="cls-1" d="m902.2,431.07c-3.77-2.01-6.73-4.89-8.89-8.63-2.16-3.74-3.24-8.11-3.24-13.12s1.09-9.31,3.28-13.08,5.18-6.66,8.97-8.67c3.8-2.01,8.05-3.02,12.77-3.02s8.98,1.01,12.77,3.02c3.8,2.01,6.79,4.91,8.98,8.67,2.19,3.77,3.28,8.13,3.28,13.08s-1.11,9.31-3.32,13.07c-2.22,3.77-5.24,6.66-9.06,8.67-3.83,2.01-8.1,3.02-12.82,3.02s-8.96-1.01-12.73-3.02h0Zm19.94-12.85c1.99-2.07,2.98-5.03,2.98-8.89s-.96-6.82-2.89-8.89-4.3-3.11-7.12-3.11-5.26,1.02-7.16,3.06c-1.9,2.04-2.85,5.02-2.85,8.93s.93,6.82,2.81,8.89c1.87,2.07,4.21,3.11,7.03,3.11s5.22-1.04,7.21-3.11h-.01Z"/></g><g><path class="cls-1" d="m20.64,470.08v5.2h-7.07v21.46h-6.5v-21.46H0v-5.2h20.64Z"/><path class="cls-1" d="m24.38,472.34c-.72-.67-1.08-1.5-1.08-2.49s.36-1.86,1.08-2.53,1.65-1.01,2.79-1.01,2.03.34,2.75,1.01,1.08,1.51,1.08,2.53-.36,1.82-1.08,2.49-1.64,1.01-2.75,1.01-2.07-.34-2.79-1.01Zm6.02,3.21v21.2h-6.5v-21.2h6.5Z"/><path class="cls-1" d="m54.98,487.7h-14.7c.1,1.32.53,2.32,1.27,3.02.75.7,1.67,1.04,2.75,1.04,1.62,0,2.75-.68,3.38-2.05h6.91c-.35,1.39-.99,2.65-1.92,3.76-.92,1.11-2.08,1.99-3.48,2.62-1.39.63-2.95.95-4.67.95-2.08,0-3.93-.44-5.55-1.33-1.62-.89-2.89-2.15-3.8-3.8s-1.37-3.57-1.37-5.77.45-4.13,1.35-5.77c.9-1.65,2.16-2.91,3.78-3.8,1.62-.89,3.48-1.33,5.58-1.33s3.88.43,5.47,1.29c1.6.86,2.84,2.09,3.74,3.68.9,1.6,1.35,3.46,1.35,5.58,0,.61-.04,1.24-.11,1.9h.02Zm-6.53-3.6c0-1.11-.38-2-1.14-2.66s-1.71-.99-2.85-.99-2.01.32-2.75.95c-.75.63-1.21,1.53-1.39,2.7h8.13Z"/><path class="cls-1" d="m70.33,491.23v5.51h-3.3c-2.36,0-4.19-.58-5.51-1.73-1.32-1.15-1.98-3.03-1.98-5.64v-8.43h-2.58v-5.39h2.58v-5.17h6.5v5.17h4.25v5.39h-4.25v8.51c0,.63.15,1.09.46,1.37.3.28.81.42,1.52.42h2.32-.01Z"/><path class="cls-1" d="m77.98,495.72c-1.66-.89-2.96-2.15-3.91-3.8s-1.42-3.57-1.42-5.77.48-4.1,1.44-5.76,2.28-2.93,3.95-3.82,3.55-1.33,5.62-1.33,3.95.44,5.62,1.33c1.67.89,2.99,2.16,3.95,3.82.96,1.66,1.44,3.58,1.44,5.76s-.49,4.1-1.46,5.75c-.98,1.66-2.3,2.93-3.99,3.82-1.68.89-3.56,1.33-5.64,1.33s-3.94-.44-5.6-1.33h0Zm8.78-5.66c.87-.91,1.31-2.22,1.31-3.91s-.42-3-1.27-3.91-1.89-1.37-3.13-1.37-2.32.45-3.15,1.35-1.25,2.21-1.25,3.93.41,3,1.23,3.91c.82.91,1.85,1.37,3.1,1.37s2.3-.46,3.17-1.37h0Z"/><path class="cls-1" d="m104.63,499.48c0,2.61-.66,4.49-1.98,5.64-1.32,1.15-3.15,1.73-5.51,1.73h-2.55v-5.51h1.56c.71,0,1.22-.14,1.52-.42s.46-.73.46-1.37v-24.01h6.5v23.93h0Zm-6.06-27.13c-.72-.67-1.08-1.5-1.08-2.49s.36-1.86,1.08-2.53,1.65-1.01,2.79-1.01,2.03.34,2.75,1.01,1.08,1.51,1.08,2.53-.36,1.82-1.08,2.49-1.64,1.01-2.75,1.01-2.07-.34-2.79-1.01Z"/><path class="cls-1" d="m129.17,487.7h-14.7c.1,1.32.53,2.32,1.27,3.02.75.7,1.67,1.04,2.75,1.04,1.62,0,2.75-.68,3.38-2.05h6.91c-.35,1.39-.99,2.65-1.92,3.76-.92,1.11-2.08,1.99-3.48,2.62-1.39.63-2.95.95-4.67.95-2.08,0-3.93-.44-5.55-1.33-1.62-.89-2.89-2.15-3.8-3.8s-1.37-3.57-1.37-5.77.45-4.13,1.35-5.77c.9-1.65,2.16-2.91,3.78-3.8,1.62-.89,3.48-1.33,5.58-1.33s3.88.43,5.47,1.29c1.6.86,2.84,2.09,3.74,3.68.9,1.6,1.35,3.46,1.35,5.58,0,.61-.04,1.24-.11,1.9h.02Zm-6.53-3.6c0-1.11-.38-2-1.14-2.66s-1.71-.99-2.85-.99-2.01.32-2.75.95c-.75.63-1.21,1.53-1.39,2.7h8.13Z"/><path class="cls-1" d="m151.57,477.73c1.48,1.61,2.22,3.82,2.22,6.63v12.38h-6.46v-11.51c0-1.42-.37-2.52-1.1-3.3s-1.72-1.18-2.96-1.18-2.23.39-2.96,1.18c-.73.79-1.1,1.89-1.1,3.3v11.51h-6.5v-21.2h6.5v2.81c.66-.94,1.54-1.68,2.66-2.22s2.37-.82,3.76-.82c2.48,0,4.46.8,5.94,2.41h0Z"/><path class="cls-1" d="m171.26,496.74l-6.46-8.89v8.89h-6.5v-28.11h6.5v15.54l6.42-8.62h8.02l-8.81,10.64,8.89,10.56h-8.06Z"/><path class="cls-1" d="m181.73,480.37c.82-1.65,1.94-2.91,3.36-3.8,1.42-.89,3-1.33,4.75-1.33,1.49,0,2.8.3,3.93.91,1.13.61,1.99,1.41,2.6,2.39v-3h6.5v21.2h-6.5v-3c-.63.99-1.51,1.79-2.64,2.39-1.13.61-2.44.91-3.93.91-1.72,0-3.29-.45-4.71-1.35-1.42-.9-2.54-2.18-3.36-3.84-.82-1.66-1.23-3.58-1.23-5.75s.41-4.09,1.23-5.74h0Zm4.92-7.97c-.53-.53-.8-1.19-.8-1.98s.27-1.45.8-1.99c.53-.54,1.19-.82,1.98-.82s1.48.27,2.01.8.8,1.2.8,2.01-.27,1.44-.82,1.98c-.54.53-1.21.8-1.99.8s-1.44-.27-1.98-.8Zm8.38,9.92c-.9-.94-1.99-1.41-3.29-1.41s-2.39.46-3.29,1.39c-.9.92-1.35,2.2-1.35,3.82s.45,2.91,1.35,3.86c.9.95,1.99,1.42,3.29,1.42s2.39-.47,3.29-1.41,1.35-2.22,1.35-3.84-.45-2.9-1.35-3.84h0Zm-.78-9.91c-.53-.53-.8-1.19-.8-1.98s.27-1.45.8-1.99c.53-.54,1.19-.82,1.98-.82s1.48.27,2.01.8.8,1.2.8,2.01-.27,1.44-.82,1.98c-.54.53-1.21.8-1.99.8s-1.44-.27-1.98-.8Z"/><path class="cls-1" d="m211.26,496.1c-1.44-.63-2.58-1.5-3.42-2.6-.84-1.1-1.3-2.34-1.41-3.7h6.42c.08.74.42,1.33,1.03,1.79.61.46,1.35.68,2.24.68.81,0,1.44-.16,1.88-.47.44-.32.66-.73.66-1.24,0-.61-.32-1.06-.95-1.35s-1.66-.61-3.08-.97c-1.52-.35-2.79-.73-3.8-1.12-1.01-.39-1.89-1.01-2.62-1.86-.73-.85-1.1-2-1.1-3.44,0-1.22.34-2.32,1.01-3.32s1.66-1.79,2.96-2.37,2.85-.87,4.65-.87c2.66,0,4.75.66,6.29,1.97,1.53,1.32,2.41,3.06,2.64,5.24h-6c-.1-.73-.42-1.32-.97-1.75-.54-.43-1.26-.65-2.15-.65-.76,0-1.34.15-1.75.44s-.61.69-.61,1.2c0,.61.32,1.06.97,1.37s1.65.61,3.02.91c1.57.41,2.85.8,3.84,1.2s1.85,1.03,2.6,1.9,1.13,2.04,1.16,3.51c0,1.24-.35,2.35-1.04,3.32-.7.98-1.7,1.74-3,2.3s-2.82.84-4.54.84c-1.85,0-3.49-.32-4.94-.95h0Z"/><path class="cls-1" d="m229.25,472.34c-.72-.67-1.08-1.5-1.08-2.49s.36-1.86,1.08-2.53,1.65-1.01,2.79-1.01,2.03.34,2.75,1.01,1.08,1.51,1.08,2.53-.36,1.82-1.08,2.49-1.64,1.01-2.75,1.01-2.07-.34-2.79-1.01Zm6.02,3.21v21.2h-6.5v-21.2h6.5Z"/><path class="cls-1" d="m251.8,491.23v5.51h-3.3c-2.36,0-4.19-.58-5.51-1.73-1.32-1.15-1.98-3.03-1.98-5.64v-8.43h-2.58v-5.39h2.58v-5.17h6.5v5.17h4.25v5.39h-4.25v8.51c0,.63.15,1.09.46,1.37.3.28.81.42,1.52.42h2.32,0Z"/><path class="cls-1" d="m267.22,491.23v5.51h-3.3c-2.36,0-4.19-.58-5.51-1.73-1.32-1.15-1.98-3.03-1.98-5.64v-8.43h-2.58v-5.39h2.58v-5.17h6.5v5.17h4.25v5.39h-4.25v8.51c0,.63.15,1.09.46,1.37.3.28.81.42,1.52.42h2.32,0Z"/><path class="cls-1" d="m290.7,487.7h-14.7c.1,1.32.53,2.32,1.27,3.02.75.7,1.67,1.04,2.75,1.04,1.62,0,2.75-.68,3.38-2.05h6.91c-.35,1.39-.99,2.65-1.92,3.76-.92,1.11-2.08,1.99-3.48,2.62-1.39.63-2.95.95-4.67.95-2.08,0-3.93-.44-5.55-1.33-1.62-.89-2.89-2.15-3.8-3.8s-1.37-3.57-1.37-5.77.45-4.13,1.35-5.77c.9-1.65,2.16-2.91,3.78-3.8,1.62-.89,3.48-1.33,5.58-1.33s3.88.43,5.47,1.29c1.6.86,2.84,2.09,3.74,3.68.9,1.6,1.35,3.46,1.35,5.58,0,.61-.04,1.24-.11,1.9h.02Zm-6.53-3.6c0-1.11-.38-2-1.14-2.66s-1.71-.99-2.85-.99-2.01.32-2.75.95c-.75.63-1.21,1.53-1.39,2.7h8.13Z"/><path class="cls-1" d="m300.73,468.63v28.11h-6.5v-28.11h6.5Z"/><path class="cls-1" d="m327.09,475.55l-13.3,31.26h-6.99l4.86-10.79-8.62-20.48h7.26l4.9,13.26,4.86-13.26h7.03Z"/><path class="cls-1" d="m341.26,491.23v5.51h-3.3c-2.36,0-4.19-.58-5.51-1.73-1.32-1.15-1.98-3.03-1.98-5.64v-8.43h-2.58v-5.39h2.58v-5.17h6.5v5.17h4.25v5.39h-4.25v8.51c0,.63.15,1.09.46,1.37.3.28.81.42,1.52.42h2.32,0Z"/><path class="cls-1" d="m345.34,472.34c-.72-.67-1.08-1.5-1.08-2.49s.36-1.86,1.08-2.53,1.65-1.01,2.79-1.01,2.03.34,2.75,1.01,1.08,1.51,1.08,2.53-.36,1.82-1.08,2.49-1.64,1.01-2.75,1.01-2.07-.34-2.79-1.01Zm6.02,3.21v21.2h-6.5v-21.2h6.5Z"/><path class="cls-1" d="m375.94,487.7h-14.7c.1,1.32.53,2.32,1.27,3.02.75.7,1.67,1.04,2.75,1.04,1.62,0,2.75-.68,3.38-2.05h6.91c-.35,1.39-.99,2.65-1.92,3.76-.92,1.11-2.08,1.99-3.48,2.62-1.39.63-2.95.95-4.67.95-2.08,0-3.93-.44-5.55-1.33-1.62-.89-2.89-2.15-3.8-3.8s-1.37-3.57-1.37-5.77.45-4.13,1.35-5.77c.9-1.65,2.16-2.91,3.78-3.8,1.62-.89,3.48-1.33,5.58-1.33s3.88.43,5.47,1.29c1.6.86,2.84,2.09,3.74,3.68.9,1.6,1.35,3.46,1.35,5.58,0,.61-.04,1.24-.11,1.9h.02Zm-6.53-3.6c0-1.11-.38-2-1.14-2.66s-1.71-.99-2.85-.99-2.01.32-2.75.95c-.75.63-1.21,1.53-1.39,2.7h8.13Z"/><path class="cls-1" d="m379.42,480.37c.82-1.65,1.94-2.91,3.36-3.8,1.42-.89,3-1.33,4.75-1.33,1.39,0,2.67.29,3.82.87s2.06,1.37,2.72,2.36v-9.84h6.5v28.11h-6.5v-3.04c-.61,1.01-1.48,1.82-2.6,2.43-1.13.61-2.44.91-3.93.91-1.75,0-3.33-.45-4.75-1.35s-2.54-2.18-3.36-3.84c-.82-1.66-1.23-3.58-1.23-5.75s.41-4.09,1.23-5.74h-.01Zm13.3,1.95c-.9-.94-1.99-1.41-3.29-1.41s-2.39.46-3.29,1.39c-.9.92-1.35,2.2-1.35,3.82s.45,2.91,1.35,3.86c.9.95,1.99,1.42,3.29,1.42s2.39-.47,3.29-1.41,1.35-2.22,1.35-3.84-.45-2.9-1.35-3.84h0Z"/><path class="cls-1" d="m425.14,487.7h-14.7c.1,1.32.53,2.32,1.27,3.02.75.7,1.67,1.04,2.75,1.04,1.62,0,2.75-.68,3.38-2.05h6.91c-.35,1.39-.99,2.65-1.92,3.76-.92,1.11-2.08,1.99-3.48,2.62-1.39.63-2.95.95-4.67.95-2.08,0-3.93-.44-5.55-1.33-1.62-.89-2.89-2.15-3.8-3.8s-1.37-3.57-1.37-5.77.45-4.13,1.35-5.77c.9-1.65,2.16-2.91,3.78-3.8,1.62-.89,3.48-1.33,5.58-1.33s3.88.43,5.47,1.29c1.6.86,2.84,2.09,3.74,3.68.9,1.6,1.35,3.46,1.35,5.58,0,.61-.04,1.24-.11,1.9h.02Zm-6.53-3.6c0-1.11-.38-2-1.14-2.66s-1.71-.99-2.85-.99-2.01.32-2.75.95c-.75.63-1.21,1.53-1.39,2.7h8.13Z"/><path class="cls-1" d="m435.66,490.74l-4.22,10.9h-4.14l2.2-10.9h6.16Z"/><path class="cls-1" d="m477.82,470.08v26.67h-6.5v-15.99l-5.96,15.99h-5.24l-6-16.03v16.03h-6.5v-26.67h7.67l7.48,18.46,7.41-18.46h7.64Z"/><path class="cls-1" d="m482.44,480.37c.82-1.65,1.94-2.91,3.36-3.8,1.42-.89,3-1.33,4.75-1.33,1.49,0,2.8.3,3.93.91,1.13.61,1.99,1.41,2.6,2.39v-3h6.5v21.2h-6.5v-3c-.63.99-1.51,1.79-2.64,2.39-1.13.61-2.44.91-3.93.91-1.72,0-3.29-.45-4.71-1.35-1.42-.9-2.54-2.18-3.36-3.84s-1.24-3.58-1.24-5.75.41-4.09,1.24-5.74h0Zm13.3,1.95c-.9-.94-2-1.41-3.29-1.41s-2.39.46-3.29,1.39c-.9.92-1.35,2.2-1.35,3.82s.45,2.91,1.35,3.86c.9.95,1.99,1.42,3.29,1.42s2.39-.47,3.29-1.41c.9-.94,1.35-2.22,1.35-3.84s-.45-2.9-1.35-3.84h0Z"/><path class="cls-1" d="m520.11,491.23v5.51h-3.3c-2.36,0-4.19-.58-5.51-1.73-1.32-1.15-1.98-3.03-1.98-5.64v-8.43h-2.58v-5.39h2.58v-5.17h6.5v5.17h4.25v5.39h-4.25v8.51c0,.63.15,1.09.46,1.37.3.28.81.42,1.52.42h2.32-.01Z"/><path class="cls-1" d="m543.58,487.7h-14.7c.1,1.32.53,2.32,1.27,3.02.75.7,1.67,1.04,2.75,1.04,1.62,0,2.75-.68,3.38-2.05h6.91c-.35,1.39-.99,2.65-1.92,3.76-.92,1.11-2.08,1.99-3.48,2.62-1.39.63-2.95.95-4.67.95-2.08,0-3.93-.44-5.55-1.33s-2.89-2.15-3.8-3.8-1.37-3.57-1.37-5.77.45-4.13,1.35-5.77c.9-1.65,2.16-2.91,3.78-3.8,1.62-.89,3.48-1.33,5.58-1.33s3.88.43,5.47,1.29c1.6.86,2.84,2.09,3.74,3.68.9,1.6,1.35,3.46,1.35,5.58,0,.61-.04,1.24-.11,1.9h.02Zm-6.53-3.6c0-1.11-.38-2-1.14-2.66s-1.71-.99-2.85-.99-2.01.32-2.75.95c-.75.63-1.21,1.53-1.39,2.7h8.13Z"/><path class="cls-1" d="m580.45,477.71c1.56,1.6,2.34,3.81,2.34,6.65v12.38h-6.46v-11.51c0-1.37-.36-2.42-1.08-3.17-.72-.75-1.72-1.12-2.98-1.12s-2.26.37-2.98,1.12-1.08,1.8-1.08,3.17v11.51h-6.46v-11.51c0-1.37-.36-2.42-1.08-3.17s-1.72-1.12-2.98-1.12-2.26.37-2.98,1.12-1.08,1.8-1.08,3.17v11.51h-6.5v-21.2h6.5v2.66c.66-.89,1.52-1.59,2.58-2.11s2.27-.78,3.61-.78c1.6,0,3.02.34,4.27,1.03,1.25.68,2.23,1.66,2.94,2.92.73-1.17,1.73-2.11,3-2.85,1.27-.73,2.65-1.1,4.14-1.1,2.63,0,4.73.8,6.29,2.39h-.01Z"/><path class="cls-1" d="m587.29,480.37c.82-1.65,1.94-2.91,3.36-3.8,1.42-.89,3-1.33,4.75-1.33,1.49,0,2.8.3,3.93.91,1.13.61,1.99,1.41,2.6,2.39v-3h6.5v21.2h-6.5v-3c-.63.99-1.51,1.79-2.64,2.39-1.13.61-2.44.91-3.93.91-1.72,0-3.29-.45-4.71-1.35-1.42-.9-2.54-2.18-3.36-3.84s-1.23-3.58-1.23-5.75.41-4.09,1.23-5.74h0Zm13.3,1.95c-.9-.94-1.99-1.41-3.29-1.41s-2.39.46-3.29,1.39c-.9.92-1.35,2.2-1.35,3.82s.45,2.91,1.35,3.86c.9.95,1.99,1.42,3.29,1.42s2.39-.47,3.29-1.41c.9-.94,1.35-2.22,1.35-3.84s-.45-2.9-1.35-3.84h0Z"/><path class="cls-1" d="m624.95,491.23v5.51h-3.31c-2.35,0-4.19-.58-5.51-1.73-1.32-1.15-1.98-3.03-1.98-5.64v-8.43h-2.58v-5.39h2.58v-5.17h6.5v5.17h4.25v5.39h-4.25v8.51c0,.63.15,1.09.46,1.37s.81.42,1.52.42h2.32,0Z"/><path class="cls-1" d="m629.04,472.34c-.72-.67-1.08-1.5-1.08-2.49s.36-1.86,1.08-2.53,1.65-1.01,2.79-1.01,2.03.34,2.75,1.01,1.08,1.51,1.08,2.53-.36,1.82-1.08,2.49c-.72.67-1.64,1.01-2.75,1.01s-2.07-.34-2.79-1.01Zm6.02,3.21v21.2h-6.5v-21.2h6.5Z"/><path class="cls-1" d="m640.24,472.34c-.72-.67-1.08-1.5-1.08-2.49s.36-1.86,1.08-2.53,1.65-1.01,2.79-1.01,2.03.34,2.75,1.01,1.08,1.51,1.08,2.53-.36,1.82-1.08,2.49c-.72.67-1.64,1.01-2.75,1.01s-2.07-.34-2.79-1.01Zm6.02,3.21v21.2h-6.5v-21.2h6.5Z"/><path class="cls-1" d="m663.93,496.74l-6.46-8.89v8.89h-6.5v-28.11h6.5v15.54l6.42-8.62h8.02l-8.81,10.64,8.89,10.56h-8.06Z"/><path class="cls-1" d="m687.4,496.74l-6.46-8.89v8.89h-6.5v-28.11h6.5v15.54l6.42-8.62h8.02l-8.81,10.64,8.89,10.56h-8.06Z"/><path class="cls-1" d="m697.87,480.37c.82-1.65,1.94-2.91,3.36-3.8,1.42-.89,3-1.33,4.75-1.33,1.49,0,2.8.3,3.93.91,1.13.61,1.99,1.41,2.6,2.39v-3h6.5v21.2h-6.5v-3c-.63.99-1.51,1.79-2.64,2.39-1.13.61-2.44.91-3.93.91-1.72,0-3.29-.45-4.71-1.35-1.42-.9-2.54-2.18-3.36-3.84s-1.23-3.58-1.23-5.75.41-4.09,1.23-5.74h0Zm13.3,1.95c-.9-.94-1.99-1.41-3.29-1.41s-2.39.46-3.29,1.39c-.9.92-1.35,2.2-1.35,3.82s.45,2.91,1.35,3.86c.9.95,1.99,1.42,3.29,1.42s2.39-.47,3.29-1.41c.9-.94,1.35-2.22,1.35-3.84s-.45-2.9-1.35-3.84h0Z"/><path class="cls-1" d="m730.71,490.74l-4.22,10.9h-4.14l2.2-10.9h6.16Z"/><path class="cls-1" d="m761.86,470.08v5.2h-7.07v21.46h-6.5v-21.46h-7.07v-5.2h20.64Z"/><path class="cls-1" d="m765.6,472.34c-.72-.67-1.08-1.5-1.08-2.49s.36-1.86,1.08-2.53,1.65-1.01,2.79-1.01,2.03.34,2.75,1.01,1.08,1.51,1.08,2.53-.36,1.82-1.08,2.49c-.72.67-1.64,1.01-2.75,1.01s-2.07-.34-2.79-1.01Zm6.02,3.21v21.2h-6.5v-21.2h6.5Z"/><path class="cls-1" d="m782.83,468.63v28.11h-6.5v-28.11h6.5Z"/><path class="cls-1" d="m787.48,480.37c.82-1.65,1.94-2.91,3.36-3.8,1.42-.89,3-1.33,4.75-1.33,1.49,0,2.8.3,3.93.91,1.13.61,1.99,1.41,2.6,2.39v-3h6.5v21.2h-6.5v-3c-.63.99-1.51,1.79-2.64,2.39-1.13.61-2.44.91-3.93.91-1.72,0-3.29-.45-4.71-1.35-1.42-.9-2.54-2.18-3.36-3.84s-1.23-3.58-1.23-5.75.41-4.09,1.23-5.74h0Zm13.3,1.95c-.9-.94-1.99-1.41-3.29-1.41s-2.39.46-3.29,1.39c-.9.92-1.35,2.2-1.35,3.82s.45,2.91,1.35,3.86c.9.95,1.99,1.42,3.29,1.42s2.39-.47,3.29-1.41c.9-.94,1.35-2.22,1.35-3.84s-.45-2.9-1.35-3.84h0Z"/><path class="cls-1" d="m817.02,496.1c-1.44-.63-2.58-1.5-3.42-2.6s-1.3-2.34-1.41-3.7h6.42c.08.74.42,1.33,1.03,1.79.61.46,1.35.68,2.24.68.81,0,1.44-.16,1.88-.47.44-.32.67-.73.67-1.24,0-.61-.32-1.06-.95-1.35s-1.66-.61-3.08-.97c-1.52-.35-2.79-.73-3.8-1.12s-1.89-1.01-2.62-1.86-1.1-2-1.1-3.44c0-1.22.33-2.32,1.01-3.32.67-1,1.66-1.79,2.96-2.37,1.3-.58,2.86-.87,4.65-.87,2.66,0,4.75.66,6.29,1.97,1.53,1.32,2.41,3.06,2.64,5.24h-6c-.1-.73-.42-1.32-.97-1.75-.54-.43-1.26-.65-2.15-.65-.76,0-1.34.15-1.75.44s-.61.69-.61,1.2c0,.61.32,1.06.97,1.37s1.65.61,3.02.91c1.57.41,2.85.8,3.84,1.2.99.39,1.86,1.03,2.6,1.9s1.13,2.04,1.16,3.51c0,1.24-.35,2.35-1.04,3.32-.7.98-1.7,1.74-3,2.3s-2.82.84-4.54.84c-1.85,0-3.5-.32-4.94-.95h0Z"/><path class="cls-1" d="m846.35,491.23v5.51h-3.31c-2.35,0-4.19-.58-5.51-1.73-1.32-1.15-1.98-3.03-1.98-5.64v-8.43h-2.58v-5.39h2.58v-5.17h6.5v5.17h4.25v5.39h-4.25v8.51c0,.63.15,1.09.46,1.37s.81.42,1.52.42h2.32,0Z"/><path class="cls-1" d="m854,495.72c-1.66-.89-2.96-2.15-3.91-3.8-.95-1.65-1.42-3.57-1.42-5.77s.48-4.1,1.44-5.76,2.28-2.93,3.95-3.82,3.54-1.33,5.62-1.33,3.95.44,5.62,1.33c1.67.89,2.99,2.16,3.95,3.82s1.44,3.58,1.44,5.76-.49,4.1-1.46,5.75c-.98,1.66-2.31,2.93-3.99,3.82s-3.56,1.33-5.64,1.33-3.94-.44-5.6-1.33h0Zm8.78-5.66c.87-.91,1.31-2.22,1.31-3.91s-.42-3-1.27-3.91c-.85-.91-1.89-1.37-3.13-1.37s-2.32.45-3.15,1.35c-.84.9-1.25,2.21-1.25,3.93s.41,3,1.23,3.91,1.85,1.37,3.1,1.37,2.3-.46,3.17-1.37h0Z"/><path class="cls-1" d="m885.97,491.23v5.51h-3.31c-2.35,0-4.19-.58-5.51-1.73-1.32-1.15-1.98-3.03-1.98-5.64v-8.43h-2.58v-5.39h2.58v-5.17h6.5v5.17h4.25v5.39h-4.25v8.51c0,.63.15,1.09.46,1.37s.81.42,1.52.42h2.32,0Z"/><path class="cls-1" d="m890.05,472.34c-.72-.67-1.08-1.5-1.08-2.49s.36-1.86,1.08-2.53,1.65-1.01,2.79-1.01,2.03.34,2.75,1.01,1.08,1.51,1.08,2.53-.36,1.82-1.08,2.49c-.72.67-1.64,1.01-2.75,1.01s-2.07-.34-2.79-1.01Zm6.02,3.21v21.2h-6.5v-21.2h6.5Z"/><path class="cls-1" d="m920.65,487.7h-14.7c.1,1.32.53,2.32,1.27,3.02.75.7,1.67,1.04,2.75,1.04,1.62,0,2.75-.68,3.38-2.05h6.91c-.36,1.39-1,2.65-1.92,3.76-.92,1.11-2.08,1.99-3.48,2.62-1.39.63-2.95.95-4.67.95-2.08,0-3.93-.44-5.55-1.33-1.62-.89-2.89-2.15-3.8-3.8s-1.37-3.57-1.37-5.77.45-4.13,1.35-5.77c.9-1.65,2.16-2.91,3.78-3.8,1.62-.89,3.48-1.33,5.58-1.33s3.88.43,5.47,1.29c1.59.86,2.84,2.09,3.74,3.68.9,1.6,1.35,3.46,1.35,5.58,0,.61-.04,1.24-.11,1.9h.02Zm-6.53-3.6c0-1.11-.38-2-1.14-2.66s-1.71-.99-2.85-.99-2.01.32-2.75.95c-.75.63-1.21,1.53-1.39,2.7h8.13Z"/><path class="cls-1" d="m924.12,480.37c.82-1.65,1.94-2.91,3.36-3.8,1.42-.89,3-1.33,4.75-1.33,1.39,0,2.67.29,3.82.87s2.06,1.37,2.72,2.36v-9.84h6.5v28.11h-6.5v-3.04c-.61,1.01-1.48,1.82-2.6,2.43-1.13.61-2.44.91-3.93.91-1.75,0-3.33-.45-4.75-1.35s-2.54-2.18-3.36-3.84-1.23-3.58-1.23-5.75.41-4.09,1.23-5.74h-.01Zm13.3,1.95c-.9-.94-1.99-1.41-3.29-1.41s-2.39.46-3.29,1.39c-.9.92-1.35,2.2-1.35,3.82s.45,2.91,1.35,3.86c.9.95,1.99,1.42,3.29,1.42s2.39-.47,3.29-1.41c.9-.94,1.35-2.22,1.35-3.84s-.45-2.9-1.35-3.84h0Z"/><path class="cls-1" d="m969.84,487.7h-14.7c.1,1.32.53,2.32,1.27,3.02.75.7,1.67,1.04,2.75,1.04,1.62,0,2.75-.68,3.38-2.05h6.91c-.36,1.39-1,2.65-1.92,3.76-.92,1.11-2.08,1.99-3.48,2.62-1.39.63-2.95.95-4.67.95-2.08,0-3.93-.44-5.55-1.33-1.62-.89-2.89-2.15-3.8-3.8s-1.37-3.57-1.37-5.77.45-4.13,1.35-5.77c.9-1.65,2.16-2.91,3.78-3.8,1.62-.89,3.48-1.33,5.58-1.33s3.88.43,5.47,1.29c1.59.86,2.84,2.09,3.74,3.68.9,1.6,1.35,3.46,1.35,5.58,0,.61-.04,1.24-.11,1.9h.02Zm-6.53-3.6c0-1.11-.38-2-1.14-2.66s-1.71-.99-2.85-.99-2.01.32-2.75.95c-.75.63-1.21,1.53-1.39,2.7h8.13Z"/></g></svg>