<?xml version="1.0" encoding="UTF-8"?><svg id="Layer_1" xmlns="http://www.w3.org/2000/svg" viewBox="0 0 1076.31 506"><defs><style>.cls-1{fill:#fff;}</style></defs><g><path class="cls-1" d="m148.83,372.62v12h-16.29v49.49h-14.98v-49.49h-16.29v-12h47.56,0Z"/><path class="cls-1" d="m156.23,396.36c1.9-3.79,4.48-6.71,7.75-8.76,3.27-2.04,6.92-3.07,10.95-3.07,3.44,0,6.47.7,9.07,2.1s4.6,3.24,6,5.52v-6.92h14.98v48.88h-14.98v-6.92c-1.46,2.28-3.49,4.12-6.09,5.52-2.6,1.4-5.62,2.1-9.07,2.1-3.97,0-7.59-1.04-10.86-3.11-3.27-2.07-5.85-5.02-7.75-8.85-1.9-3.82-2.85-8.25-2.85-13.27s.95-9.43,2.85-13.23h0Zm30.66,4.48c-2.07-2.16-4.6-3.24-7.58-3.24s-5.5,1.07-7.58,3.2c-2.07,2.13-3.11,5.07-3.11,8.8s1.04,6.7,3.11,8.89,4.6,3.28,7.58,3.28,5.5-1.08,7.58-3.24c2.07-2.16,3.11-5.11,3.11-8.85s-1.04-6.69-3.11-8.85h0Z"/><path class="cls-1" d="m292.7,390.23c3.59,3.68,5.39,8.79,5.39,15.33v28.55h-14.89v-26.54c0-3.15-.83-5.59-2.5-7.31-1.66-1.72-3.96-2.58-6.88-2.58s-5.21.86-6.88,2.58c-1.66,1.72-2.5,4.16-2.5,7.31v26.54h-14.89v-26.54c0-3.15-.83-5.59-2.5-7.31-1.66-1.72-3.96-2.58-6.88-2.58s-5.21.86-6.88,2.58c-1.66,1.72-2.5,4.16-2.5,7.31v26.54h-14.98v-48.88h14.98v6.13c1.52-2.04,3.5-3.66,5.96-4.86,2.45-1.2,5.23-1.79,8.32-1.79,3.68,0,6.96.79,9.85,2.36,2.89,1.58,5.15,3.83,6.79,6.75,1.69-2.69,4-4.88,6.92-6.57s6.1-2.54,9.55-2.54c6.07,0,10.91,1.84,14.5,5.52h.02Z"/><path class="cls-1" d="m329.61,386.64c2.57-1.4,5.58-2.1,9.02-2.1,4.03,0,7.68,1.02,10.95,3.07,3.27,2.04,5.85,4.96,7.75,8.76,1.9,3.8,2.85,8.21,2.85,13.23s-.95,9.45-2.85,13.27c-1.9,3.83-4.48,6.78-7.75,8.85s-6.92,3.11-10.95,3.11c-3.39,0-6.38-.7-8.98-2.1s-4.63-3.21-6.09-5.43v30.13h-14.98v-72.18h14.98v6.92c1.46-2.28,3.47-4.12,6.04-5.52h.01Zm12.22,14.14c-2.07-2.13-4.63-3.2-7.66-3.2s-5.5,1.08-7.58,3.24c-2.07,2.16-3.11,5.11-3.11,8.85s1.04,6.69,3.11,8.85c2.07,2.16,4.6,3.24,7.58,3.24s5.52-1.09,7.62-3.28,3.15-5.15,3.15-8.89-1.04-6.67-3.11-8.8h0Z"/><path class="cls-1" d="m413.88,413.26h-33.9c.23,3.04,1.21,5.36,2.93,6.96,1.72,1.61,3.84,2.41,6.35,2.41,3.74,0,6.34-1.58,7.8-4.73h15.94c-.82,3.21-2.29,6.1-4.42,8.67s-4.8,4.58-8.01,6.04c-3.21,1.46-6.8,2.19-10.77,2.19-4.79,0-9.05-1.02-12.79-3.07-3.74-2.04-6.66-4.96-8.76-8.76-2.1-3.79-3.15-8.23-3.15-13.31s1.04-9.52,3.11-13.31c2.07-3.79,4.98-6.71,8.72-8.76,3.74-2.04,8.03-3.07,12.88-3.07s8.93.99,12.61,2.98c3.68,1.99,6.55,4.82,8.63,8.5,2.07,3.68,3.11,7.97,3.11,12.88,0,1.4-.09,2.86-.26,4.38h-.02Zm-15.07-8.32c0-2.57-.88-4.61-2.63-6.13-1.75-1.52-3.94-2.28-6.57-2.28s-4.63.73-6.35,2.19-2.79,3.53-3.2,6.22h18.75Z"/><path class="cls-1" d="m443.57,387.03c2.63-1.55,5.55-2.32,8.76-2.32v15.85h-4.12c-3.74,0-6.54.8-8.41,2.41-1.87,1.61-2.8,4.42-2.8,8.45v22.69h-14.98v-48.88h14.98v8.15c1.75-2.68,3.94-4.8,6.57-6.35h0Z"/><path class="cls-1" d="m505.32,413.26h-33.9c.23,3.04,1.21,5.36,2.93,6.96,1.72,1.61,3.84,2.41,6.35,2.41,3.74,0,6.34-1.58,7.8-4.73h15.94c-.82,3.21-2.29,6.1-4.42,8.67s-4.8,4.58-8.01,6.04c-3.21,1.46-6.8,2.19-10.77,2.19-4.79,0-9.05-1.02-12.79-3.07-3.74-2.04-6.66-4.96-8.76-8.76-2.1-3.79-3.15-8.23-3.15-13.31s1.04-9.52,3.11-13.31c2.07-3.79,4.98-6.71,8.72-8.76,3.74-2.04,8.03-3.07,12.88-3.07s8.93.99,12.61,2.98c3.68,1.99,6.55,4.82,8.63,8.5,2.07,3.68,3.11,7.97,3.11,12.88,0,1.4-.09,2.86-.26,4.38h-.02Zm-15.07-8.32c0-2.57-.88-4.61-2.63-6.13-1.75-1.52-3.94-2.28-6.57-2.28s-4.63.73-6.35,2.19-2.79,3.53-3.2,6.22h18.75Z"/><path class="cls-1" d="m546.75,372.62v36.79c0,3.68.9,6.51,2.72,8.5,1.81,1.99,4.47,2.98,7.97,2.98s6.19-.99,8.06-2.98c1.87-1.98,2.8-4.82,2.8-8.5v-36.79h14.98v36.7c0,5.49-1.17,10.13-3.5,13.93-2.34,3.8-5.47,6.66-9.42,8.58s-8.34,2.89-13.18,2.89-9.18-.95-13.01-2.85-6.85-4.76-9.07-8.58c-2.22-3.82-3.33-8.48-3.33-13.97v-36.7h14.98Z"/><path class="cls-1" d="m637.28,390.27c3.42,3.71,5.12,8.8,5.12,15.29v28.55h-14.89v-26.54c0-3.27-.85-5.81-2.54-7.62s-3.97-2.71-6.83-2.71-5.14.91-6.83,2.71c-1.69,1.81-2.54,4.35-2.54,7.62v26.54h-14.98v-48.88h14.98v6.48c1.52-2.16,3.56-3.87,6.13-5.12s5.46-1.88,8.67-1.88c5.72,0,10.29,1.85,13.71,5.56Z"/><path class="cls-1" d="m653.92,377.83c-1.66-1.55-2.5-3.46-2.5-5.74s.83-4.28,2.5-5.83c1.66-1.55,3.81-2.32,6.44-2.32s4.69.77,6.35,2.32c1.67,1.55,2.5,3.49,2.5,5.83s-.83,4.19-2.5,5.74c-1.66,1.55-3.78,2.32-6.35,2.32s-4.77-.77-6.44-2.32Zm13.88,7.4v48.88h-14.98v-48.88h14.98Z"/><path class="cls-1" d="m700.65,420.1l10.6-34.86h15.94l-17.34,48.88h-18.48l-17.34-48.88h16.03l10.6,34.86h0Z"/><path class="cls-1" d="m779.31,413.26h-33.9c.23,3.04,1.21,5.36,2.93,6.96,1.72,1.61,3.84,2.41,6.35,2.41,3.74,0,6.33-1.58,7.8-4.73h15.94c-.82,3.21-2.29,6.1-4.42,8.67s-4.8,4.58-8.01,6.04c-3.21,1.46-6.8,2.19-10.77,2.19-4.79,0-9.05-1.02-12.79-3.07-3.74-2.04-6.66-4.96-8.76-8.76-2.1-3.79-3.15-8.23-3.15-13.31s1.04-9.52,3.11-13.31,4.98-6.71,8.71-8.76c3.74-2.04,8.03-3.07,12.88-3.07s8.93.99,12.61,2.98c3.68,1.99,6.55,4.82,8.63,8.5,2.07,3.68,3.11,7.97,3.11,12.88,0,1.4-.09,2.86-.26,4.38h0Zm-15.07-8.32c0-2.57-.88-4.61-2.63-6.13-1.75-1.52-3.94-2.28-6.57-2.28s-4.63.73-6.35,2.19-2.79,3.53-3.2,6.22h18.75Z"/><path class="cls-1" d="m809,387.03c2.63-1.55,5.55-2.32,8.76-2.32v15.85h-4.12c-3.74,0-6.54.8-8.41,2.41-1.87,1.61-2.8,4.42-2.8,8.45v22.69h-14.98v-48.88h14.98v8.15c1.75-2.68,3.94-4.8,6.57-6.35h0Z"/><path class="cls-1" d="m833.44,432.62c-3.33-1.46-5.96-3.46-7.88-6s-3.01-5.39-3.24-8.54h14.8c.18,1.69.96,3.07,2.37,4.12,1.4,1.05,3.12,1.58,5.17,1.58,1.87,0,3.31-.36,4.34-1.09,1.02-.73,1.53-1.68,1.53-2.85,0-1.4-.73-2.44-2.19-3.11-1.46-.67-3.83-1.42-7.09-2.23-3.5-.82-6.42-1.68-8.76-2.58-2.34-.91-4.35-2.33-6.04-4.29-1.69-1.96-2.54-4.6-2.54-7.93,0-2.8.77-5.36,2.32-7.66,1.55-2.31,3.82-4.13,6.83-5.47s6.58-2.01,10.73-2.01c6.13,0,10.96,1.52,14.5,4.55,3.53,3.04,5.56,7.07,6.09,12.09h-13.84c-.23-1.69-.98-3.04-2.23-4.03-1.26-.99-2.91-1.49-4.95-1.49-1.75,0-3.1.34-4.03,1.01-.93.67-1.4,1.59-1.4,2.76,0,1.4.74,2.45,2.23,3.15,1.49.7,3.81,1.4,6.96,2.1,3.62.93,6.57,1.85,8.85,2.76,2.28.91,4.28,2.37,6,4.38s2.61,4.72,2.67,8.1c0,2.86-.8,5.42-2.41,7.66-1.61,2.25-3.91,4.02-6.92,5.3s-6.5,1.93-10.47,1.93c-4.26,0-8.06-.73-11.39-2.19v-.02Z"/><path class="cls-1" d="m874.91,377.83c-1.66-1.55-2.5-3.46-2.5-5.74s.83-4.28,2.5-5.83c1.66-1.55,3.81-2.32,6.44-2.32s4.69.77,6.35,2.32c1.67,1.55,2.5,3.49,2.5,5.83s-.83,4.19-2.5,5.74c-1.66,1.55-3.78,2.32-6.35,2.32s-4.77-.77-6.44-2.32Zm13.88,7.4v48.88h-14.98v-48.88h14.98Z"/><path class="cls-1" d="m926.9,421.41v12.7h-7.62c-5.43,0-9.67-1.33-12.7-3.99-3.04-2.66-4.55-6.99-4.55-13.01v-19.45h-5.96v-12.44h5.96v-11.91h14.98v11.91h9.81v12.44h-9.81v19.62c0,1.46.35,2.51,1.05,3.15.7.64,1.87.96,3.5.96h5.34v.02Z"/><path class="cls-1" d="m985.14,385.23l-30.66,72.09h-16.12l11.21-24.88-19.88-47.21h16.73l11.3,30.57,11.21-30.57h16.21,0Z"/></g><g><path class="cls-1" d="m1.62,477.08c1.08-1.96,2.59-3.48,4.52-4.57s4.12-1.64,6.57-1.64c3,0,5.57.79,7.7,2.38,2.14,1.58,3.56,3.74,4.28,6.48h-6.77c-.5-1.06-1.22-1.86-2.14-2.41-.92-.55-1.97-.83-3.15-.83-1.9,0-3.43.66-4.61,1.98-1.18,1.32-1.76,3.08-1.76,5.29s.59,3.97,1.76,5.29c1.18,1.32,2.71,1.98,4.61,1.98,1.18,0,2.23-.28,3.15-.83s1.64-1.36,2.14-2.41h6.77c-.72,2.74-2.15,4.89-4.28,6.46-2.14,1.57-4.7,2.36-7.7,2.36-2.45,0-4.64-.54-6.57-1.64-1.93-1.09-3.44-2.61-4.52-4.55-1.08-1.95-1.62-4.17-1.62-6.67s.54-4.72,1.62-6.68h0Z"/><path class="cls-1" d="m32.31,495.45c-1.57-.84-2.81-2.04-3.71-3.6s-1.35-3.38-1.35-5.47.46-3.88,1.37-5.45c.91-1.57,2.16-2.78,3.74-3.62s3.36-1.26,5.33-1.26,3.74.42,5.33,1.26c1.58.84,2.83,2.05,3.74,3.62s1.37,3.39,1.37,5.45-.46,3.88-1.39,5.45-2.18,2.78-3.78,3.62-3.38,1.26-5.35,1.26-3.74-.42-5.31-1.26h0Zm8.32-5.36c.83-.86,1.24-2.1,1.24-3.71s-.4-2.84-1.21-3.71-1.79-1.3-2.97-1.3-2.2.43-2.99,1.28-1.19,2.09-1.19,3.73.39,2.84,1.17,3.71c.78.86,1.76,1.3,2.93,1.3s2.18-.43,3.01-1.3h.01Z"/><path class="cls-1" d="m83,478.39c1.48,1.51,2.21,3.61,2.21,6.3v11.74h-6.12v-10.91c0-1.3-.34-2.3-1.03-3.01-.68-.71-1.63-1.06-2.83-1.06s-2.14.35-2.83,1.06c-.68.71-1.03,1.71-1.03,3.01v10.91h-6.12v-10.91c0-1.3-.34-2.3-1.03-3.01-.68-.71-1.63-1.06-2.83-1.06s-2.14.35-2.83,1.06c-.68.71-1.03,1.71-1.03,3.01v10.91h-6.16v-20.09h6.16v2.52c.62-.84,1.44-1.51,2.45-2,1.01-.49,2.15-.74,3.42-.74,1.51,0,2.86.32,4.05.97s2.12,1.57,2.79,2.77c.7-1.1,1.64-2,2.84-2.7s2.51-1.04,3.92-1.04c2.5,0,4.48.76,5.96,2.27h.04Z"/><path class="cls-1" d="m98.17,476.91c1.06-.58,2.29-.86,3.71-.86,1.66,0,3.16.42,4.5,1.26s2.41,2.04,3.19,3.6,1.17,3.37,1.17,5.44-.39,3.88-1.17,5.45-1.84,2.78-3.19,3.64c-1.34.85-2.84,1.28-4.5,1.28-1.39,0-2.62-.29-3.69-.86-1.07-.58-1.9-1.32-2.5-2.23v12.38h-6.16v-29.66h6.16v2.84c.6-.94,1.43-1.69,2.48-2.27h0Zm5.02,5.8c-.85-.88-1.9-1.31-3.15-1.31s-2.26.44-3.11,1.33-1.28,2.1-1.28,3.64.43,2.75,1.28,3.64,1.89,1.33,3.11,1.33,2.27-.45,3.13-1.35,1.3-2.12,1.3-3.65-.43-2.74-1.28-3.62h0Z"/><path class="cls-1" d="m133.81,476.34v20.09h-6.16v-2.74c-.62.89-1.47,1.6-2.54,2.14s-2.25.81-3.55.81c-1.54,0-2.89-.34-4.07-1.03-1.18-.68-2.09-1.67-2.74-2.97s-.97-2.82-.97-4.57v-11.74h6.12v10.91c0,1.34.35,2.39,1.04,3.13s1.63,1.12,2.81,1.12,2.15-.37,2.84-1.12,1.04-1.79,1.04-3.13v-10.91h6.18Z"/><path class="cls-1" d="m149.44,491.21v5.22h-3.13c-2.23,0-3.97-.55-5.22-1.64s-1.87-2.87-1.87-5.35v-7.99h-2.45v-5.11h2.45v-4.9h6.16v4.9h4.03v5.11h-4.03v8.06c0,.6.14,1.03.43,1.3.29.26.77.4,1.44.4h2.2,0Z"/><path class="cls-1" d="m171.68,487.86h-13.93c.1,1.25.5,2.2,1.21,2.86.71.66,1.58.99,2.61.99,1.54,0,2.6-.65,3.2-1.94h6.55c-.34,1.32-.94,2.51-1.82,3.56s-1.97,1.88-3.29,2.48c-1.32.6-2.8.9-4.43.9-1.97,0-3.72-.42-5.26-1.26s-2.74-2.04-3.6-3.6-1.3-3.38-1.3-5.47.43-3.91,1.28-5.47,2.05-2.76,3.58-3.6c1.54-.84,3.3-1.26,5.29-1.26s3.67.41,5.18,1.22c1.51.82,2.69,1.98,3.55,3.49.85,1.51,1.28,3.28,1.28,5.29,0,.58-.04,1.18-.11,1.8h0Zm-6.19-3.41c0-1.06-.36-1.9-1.08-2.52s-1.62-.94-2.7-.94-1.9.3-2.61.9-1.15,1.45-1.31,2.56h7.7Z"/><path class="cls-1" d="m183.89,477.08c1.08-.64,2.28-.95,3.6-.95v6.52h-1.69c-1.54,0-2.69.33-3.46.99s-1.15,1.82-1.15,3.47v9.32h-6.16v-20.09h6.16v3.35c.72-1.1,1.62-1.97,2.7-2.61Z"/><path class="cls-1" d="m202.25,495.78c-1.46-.6-2.63-1.49-3.51-2.66-.88-1.18-1.34-2.59-1.39-4.25h6.55c.1.94.42,1.65.97,2.14.55.49,1.27.74,2.16.74s1.63-.21,2.16-.63.79-1,.79-1.75c0-.62-.21-1.14-.63-1.55-.42-.41-.94-.74-1.55-1.01-.61-.26-1.48-.56-2.61-.9-1.63-.5-2.96-1.01-4-1.51-1.03-.5-1.92-1.25-2.66-2.23s-1.12-2.27-1.12-3.85c0-2.35.85-4.19,2.56-5.53,1.7-1.33,3.92-2,6.66-2s5.03.67,6.73,2,2.62,3.19,2.74,5.56h-6.66c-.05-.82-.35-1.46-.9-1.93-.55-.47-1.26-.7-2.12-.7-.74,0-1.34.2-1.8.59-.46.4-.68.97-.68,1.71,0,.82.38,1.45,1.15,1.91s1.97.95,3.6,1.48c1.63.55,2.96,1.08,3.98,1.58,1.02.5,1.9,1.24,2.65,2.2.74.96,1.12,2.2,1.12,3.71s-.37,2.75-1.1,3.92c-.73,1.18-1.79,2.11-3.19,2.81-1.39.7-3.04,1.04-4.93,1.04s-3.5-.3-4.97-.9h0Z"/><path class="cls-1" d="m220.26,480.91c.85-1.56,2.04-2.76,3.56-3.6s3.27-1.26,5.24-1.26c2.52,0,4.63.66,6.32,1.98s2.8,3.18,3.33,5.58h-6.55c-.55-1.54-1.62-2.3-3.2-2.3-1.13,0-2.03.44-2.7,1.31s-1.01,2.13-1.01,3.76.34,2.89,1.01,3.76c.67.88,1.57,1.31,2.7,1.31,1.58,0,2.65-.77,3.2-2.3h6.55c-.53,2.35-1.64,4.2-3.35,5.54s-3.8,2.02-6.3,2.02c-1.97,0-3.71-.42-5.24-1.26-1.52-.84-2.71-2.04-3.56-3.6-.85-1.56-1.28-3.38-1.28-5.47s.43-3.91,1.28-5.47Z"/><path class="cls-1" d="m242.44,473.3c-.68-.64-1.03-1.42-1.03-2.36s.34-1.76,1.03-2.39c.68-.64,1.57-.95,2.65-.95s1.93.32,2.61.95c.68.64,1.03,1.43,1.03,2.39s-.34,1.72-1.03,2.36c-.68.64-1.55.95-2.61.95s-1.96-.32-2.65-.95Zm5.71,3.04v20.09h-6.16v-20.09h6.16Z"/><path class="cls-1" d="m271.44,487.86h-13.93c.1,1.25.5,2.2,1.21,2.86.71.66,1.58.99,2.61.99,1.54,0,2.6-.65,3.2-1.94h6.55c-.34,1.32-.94,2.51-1.82,3.56s-1.97,1.88-3.29,2.48-2.8.9-4.43.9c-1.97,0-3.72-.42-5.26-1.26s-2.74-2.04-3.6-3.6-1.3-3.38-1.3-5.47.43-3.91,1.28-5.47,2.05-2.76,3.58-3.6c1.54-.84,3.3-1.26,5.29-1.26s3.67.41,5.18,1.22c1.51.82,2.69,1.98,3.55,3.49.85,1.51,1.28,3.28,1.28,5.29,0,.58-.04,1.18-.11,1.8h.01Zm-6.19-3.41c0-1.06-.36-1.9-1.08-2.52s-1.62-.94-2.7-.94-1.9.3-2.61.9-1.15,1.45-1.31,2.56h7.7,0Z"/><path class="cls-1" d="m292.66,478.41c1.4,1.52,2.11,3.62,2.11,6.28v11.74h-6.12v-10.91c0-1.34-.35-2.39-1.04-3.13-.7-.74-1.63-1.12-2.81-1.12s-2.11.37-2.81,1.12c-.7.74-1.04,1.79-1.04,3.13v10.91h-6.16v-20.09h6.16v2.66c.62-.89,1.46-1.59,2.52-2.11s2.24-.77,3.56-.77c2.35,0,4.23.76,5.63,2.29h0Z"/><path class="cls-1" d="m299.1,480.91c.85-1.56,2.04-2.76,3.56-3.6s3.27-1.26,5.24-1.26c2.52,0,4.63.66,6.32,1.98s2.8,3.18,3.33,5.58h-6.55c-.55-1.54-1.62-2.3-3.2-2.3-1.13,0-2.03.44-2.7,1.31s-1.01,2.13-1.01,3.76.34,2.89,1.01,3.76c.67.88,1.57,1.31,2.7,1.31,1.58,0,2.65-.77,3.2-2.3h6.55c-.53,2.35-1.64,4.2-3.35,5.54s-3.8,2.02-6.3,2.02c-1.97,0-3.71-.42-5.24-1.26-1.52-.84-2.71-2.04-3.56-3.6s-1.28-3.38-1.28-5.47.43-3.91,1.28-5.47Z"/><path class="cls-1" d="m339.66,487.86h-13.93c.1,1.25.5,2.2,1.21,2.86.71.66,1.58.99,2.61.99,1.54,0,2.6-.65,3.2-1.94h6.55c-.34,1.32-.94,2.51-1.82,3.56s-1.97,1.88-3.29,2.48-2.8.9-4.43.9c-1.97,0-3.72-.42-5.26-1.26s-2.74-2.04-3.6-3.6c-.86-1.56-1.3-3.38-1.3-5.47s.43-3.91,1.28-5.47,2.05-2.76,3.58-3.6c1.54-.84,3.3-1.26,5.29-1.26s3.67.41,5.18,1.22c1.51.82,2.69,1.98,3.55,3.49.85,1.51,1.28,3.28,1.28,5.29,0,.58-.04,1.18-.11,1.8h.01Zm-6.19-3.41c0-1.06-.36-1.9-1.08-2.52s-1.62-.94-2.7-.94-1.9.3-2.61.9-1.15,1.45-1.31,2.56h7.7,0Z"/><path class="cls-1" d="m349.63,490.74l-4,10.33h-3.92l2.09-10.33h5.83Z"/><path class="cls-1" d="m389.59,471.15v25.27h-6.16v-15.16l-5.65,15.16h-4.97l-5.69-15.19v15.19h-6.16v-25.27h7.27l7.09,17.5,7.02-17.5h7.25Z"/><path class="cls-1" d="m393.96,480.91c.78-1.56,1.84-2.76,3.19-3.6,1.34-.84,2.84-1.26,4.5-1.26,1.42,0,2.66.29,3.73.86,1.07.58,1.89,1.33,2.47,2.27v-2.84h6.16v20.09h-6.16v-2.84c-.6.94-1.43,1.69-2.5,2.27s-2.31.86-3.73.86c-1.63,0-3.12-.43-4.46-1.28s-2.41-2.06-3.19-3.64c-.78-1.57-1.17-3.39-1.17-5.45s.39-3.88,1.17-5.44h-.01Zm12.6,1.84c-.85-.89-1.89-1.33-3.11-1.33s-2.26.44-3.11,1.31c-.85.88-1.28,2.08-1.28,3.62s.43,2.75,1.28,3.65,1.89,1.35,3.11,1.35,2.26-.44,3.11-1.33c.85-.89,1.28-2.1,1.28-3.64s-.43-2.75-1.28-3.64h0Z"/><path class="cls-1" d="m429.66,491.21v5.22h-3.13c-2.23,0-3.97-.55-5.22-1.64s-1.87-2.87-1.87-5.35v-7.99h-2.45v-5.11h2.45v-4.9h6.16v4.9h4.03v5.11h-4.03v8.06c0,.6.14,1.03.43,1.3.29.26.77.4,1.44.4h2.2-.01Z"/><path class="cls-1" d="m450.97,478.41c1.39,1.52,2.09,3.62,2.09,6.28v11.74h-6.12v-10.91c0-1.34-.35-2.39-1.04-3.13-.7-.74-1.63-1.12-2.81-1.12s-2.11.37-2.81,1.12c-.7.74-1.04,1.79-1.04,3.13v10.91h-6.16v-26.64h6.16v9.25c.62-.89,1.48-1.6,2.56-2.12,1.08-.53,2.29-.79,3.64-.79,2.3,0,4.15.76,5.54,2.29h-.01Z"/><path class="cls-1" d="m476.17,487.86h-13.93c.1,1.25.5,2.2,1.21,2.86.71.66,1.58.99,2.61.99,1.54,0,2.6-.65,3.2-1.94h6.55c-.34,1.32-.94,2.51-1.82,3.56s-1.97,1.88-3.29,2.48-2.8.9-4.43.9c-1.97,0-3.72-.42-5.26-1.26s-2.74-2.04-3.6-3.6c-.86-1.56-1.3-3.38-1.3-5.47s.43-3.91,1.28-5.47,2.05-2.76,3.58-3.6c1.54-.84,3.3-1.26,5.29-1.26s3.67.41,5.18,1.22c1.51.82,2.69,1.98,3.55,3.49.85,1.51,1.28,3.28,1.28,5.29,0,.58-.04,1.18-.11,1.8h.01Zm-6.19-3.41c0-1.06-.36-1.9-1.08-2.52s-1.62-.94-2.7-.94-1.9.3-2.61.9-1.15,1.45-1.31,2.56h7.7,0Z"/><path class="cls-1" d="m511.11,478.39c1.48,1.51,2.21,3.61,2.21,6.3v11.74h-6.12v-10.91c0-1.3-.34-2.3-1.03-3.01-.68-.71-1.63-1.06-2.83-1.06s-2.14.35-2.83,1.06c-.68.71-1.03,1.71-1.03,3.01v10.91h-6.12v-10.91c0-1.3-.34-2.3-1.03-3.01-.68-.71-1.63-1.06-2.83-1.06s-2.14.35-2.83,1.06c-.68.71-1.03,1.71-1.03,3.01v10.91h-6.16v-20.09h6.16v2.52c.62-.84,1.44-1.51,2.45-2s2.15-.74,3.42-.74c1.51,0,2.86.32,4.05.97s2.12,1.57,2.79,2.77c.7-1.1,1.64-2,2.84-2.7,1.2-.7,2.51-1.04,3.92-1.04,2.5,0,4.48.76,5.96,2.27h.04Z"/><path class="cls-1" d="m517.58,480.91c.78-1.56,1.84-2.76,3.19-3.6,1.34-.84,2.84-1.26,4.5-1.26,1.42,0,2.66.29,3.72.86s1.89,1.33,2.47,2.27v-2.84h6.16v20.09h-6.16v-2.84c-.6.94-1.43,1.69-2.5,2.27s-2.31.86-3.73.86c-1.63,0-3.12-.43-4.46-1.28-1.35-.85-2.41-2.06-3.19-3.64-.78-1.57-1.17-3.39-1.17-5.45s.39-3.88,1.17-5.44h0Zm12.6,1.84c-.85-.89-1.89-1.33-3.12-1.33s-2.26.44-3.11,1.31c-.85.88-1.28,2.08-1.28,3.62s.43,2.75,1.28,3.65c.85.9,1.89,1.35,3.11,1.35s2.26-.44,3.12-1.33c.85-.89,1.28-2.1,1.28-3.64s-.43-2.75-1.28-3.64h0Z"/><path class="cls-1" d="m553.28,491.21v5.22h-3.13c-2.23,0-3.97-.55-5.22-1.64-1.25-1.09-1.87-2.87-1.87-5.35v-7.99h-2.45v-5.11h2.45v-4.9h6.16v4.9h4.03v5.11h-4.03v8.06c0,.6.14,1.03.43,1.3.29.26.77.4,1.44.4h2.2-.01Z"/><path class="cls-1" d="m557.15,473.3c-.68-.64-1.03-1.42-1.03-2.36s.34-1.76,1.03-2.39c.68-.64,1.57-.95,2.65-.95s1.93.32,2.61.95c.68.64,1.03,1.43,1.03,2.39s-.34,1.72-1.03,2.36c-.68.64-1.55.95-2.61.95s-1.96-.32-2.65-.95Zm5.71,3.04v20.09h-6.16v-20.09h6.16Z"/><path class="cls-1" d="m567.37,480.91c.85-1.56,2.04-2.76,3.56-3.6s3.27-1.26,5.24-1.26c2.52,0,4.63.66,6.32,1.98s2.8,3.18,3.33,5.58h-6.55c-.55-1.54-1.62-2.3-3.2-2.3-1.13,0-2.03.44-2.7,1.31-.67.88-1.01,2.13-1.01,3.76s.33,2.89,1.01,3.76c.67.88,1.57,1.31,2.7,1.31,1.58,0,2.65-.77,3.2-2.3h6.55c-.53,2.35-1.64,4.2-3.35,5.54-1.7,1.34-3.8,2.02-6.3,2.02-1.97,0-3.71-.42-5.24-1.26s-2.71-2.04-3.56-3.6-1.28-3.38-1.28-5.47.43-3.91,1.28-5.47h0Z"/><path class="cls-1" d="m592.59,495.81c-1.37-.6-2.45-1.42-3.24-2.47s-1.24-2.21-1.33-3.51h6.08c.07.7.4,1.26.97,1.69.58.43,1.28.65,2.12.65.77,0,1.36-.15,1.78-.45.42-.3.63-.69.63-1.17,0-.58-.3-1-.9-1.28-.6-.28-1.57-.58-2.92-.92-1.44-.34-2.64-.69-3.6-1.06-.96-.37-1.79-.96-2.48-1.76-.7-.8-1.04-1.89-1.04-3.26,0-1.15.32-2.2.95-3.15.64-.95,1.57-1.7,2.81-2.25s2.71-.83,4.41-.83c2.52,0,4.51.62,5.96,1.87s2.29,2.9,2.5,4.97h-5.69c-.1-.7-.4-1.25-.92-1.66-.52-.41-1.19-.61-2.03-.61-.72,0-1.27.14-1.66.41-.38.28-.58.65-.58,1.13,0,.58.31,1.01.92,1.3.61.29,1.57.58,2.86.86,1.49.38,2.7.76,3.64,1.13s1.76.97,2.47,1.8c.71.83,1.07,1.94,1.1,3.33,0,1.18-.33,2.23-.99,3.15s-1.61,1.65-2.84,2.18c-1.24.53-2.67.79-4.3.79-1.75,0-3.31-.3-4.68-.9v.02Z"/><path class="cls-1" d="m615.81,490.74l-4,10.33h-3.92l2.09-10.33h5.83,0Z"/><path class="cls-1" d="m631.32,495.78c-1.46-.6-2.63-1.49-3.51-2.66-.88-1.18-1.34-2.59-1.39-4.25h6.55c.09.94.42,1.65.97,2.14.55.49,1.27.74,2.16.74s1.63-.21,2.16-.63c.53-.42.79-1,.79-1.75,0-.62-.21-1.14-.63-1.55s-.94-.74-1.55-1.01c-.61-.26-1.48-.56-2.61-.9-1.63-.5-2.96-1.01-4-1.51-1.03-.5-1.92-1.25-2.66-2.23s-1.12-2.27-1.12-3.85c0-2.35.85-4.19,2.56-5.53s3.92-2,6.66-2,5.03.67,6.73,2c1.7,1.33,2.62,3.19,2.74,5.56h-6.66c-.05-.82-.35-1.46-.9-1.93-.55-.47-1.26-.7-2.12-.7-.74,0-1.34.2-1.8.59-.46.4-.68.97-.68,1.71,0,.82.38,1.45,1.15,1.91s1.97.95,3.6,1.48c1.63.55,2.96,1.08,3.98,1.58,1.02.5,1.9,1.24,2.65,2.2s1.12,2.2,1.12,3.71-.37,2.75-1.1,3.92c-.73,1.18-1.79,2.11-3.19,2.81s-3.04,1.04-4.93,1.04-3.5-.3-4.97-.9h0Z"/><path class="cls-1" d="m660.48,491.21v5.22h-3.13c-2.23,0-3.97-.55-5.22-1.64-1.25-1.09-1.87-2.87-1.87-5.35v-7.99h-2.45v-5.11h2.45v-4.9h6.16v4.9h4.03v5.11h-4.03v8.06c0,.6.14,1.03.43,1.3.29.26.77.4,1.44.4h2.2-.01Z"/><path class="cls-1" d="m663.85,480.91c.78-1.56,1.84-2.76,3.19-3.6,1.34-.84,2.84-1.26,4.5-1.26,1.42,0,2.66.29,3.73.86,1.07.58,1.89,1.33,2.47,2.27v-2.84h6.16v20.09h-6.16v-2.84c-.6.94-1.43,1.69-2.5,2.27s-2.31.86-3.73.86c-1.63,0-3.12-.43-4.46-1.28s-2.41-2.06-3.19-3.64c-.78-1.57-1.17-3.39-1.17-5.45s.39-3.88,1.17-5.44h0Zm12.6,1.84c-.85-.89-1.89-1.33-3.11-1.33s-2.26.44-3.11,1.31c-.85.88-1.28,2.08-1.28,3.62s.43,2.75,1.28,3.65c.85.9,1.89,1.35,3.11,1.35s2.26-.44,3.11-1.33c.85-.89,1.28-2.1,1.28-3.64s-.43-2.75-1.28-3.64h0Z"/><path class="cls-1" d="m699.54,491.21v5.22h-3.13c-2.23,0-3.97-.55-5.22-1.64-1.25-1.09-1.87-2.87-1.87-5.35v-7.99h-2.45v-5.11h2.45v-4.9h6.16v4.9h4.03v5.11h-4.03v8.06c0,.6.14,1.03.43,1.3.29.26.77.4,1.44.4h2.2-.01Z"/><path class="cls-1" d="m703.41,473.3c-.68-.64-1.03-1.42-1.03-2.36s.34-1.76,1.03-2.39c.68-.64,1.57-.95,2.65-.95s1.93.32,2.61.95c.68.64,1.03,1.43,1.03,2.39s-.34,1.72-1.03,2.36c-.68.64-1.55.95-2.61.95s-1.96-.32-2.65-.95Zm5.71,3.04v20.09h-6.16v-20.09h6.16Z"/><path class="cls-1" d="m717.07,495.81c-1.37-.6-2.45-1.42-3.24-2.47s-1.24-2.21-1.33-3.51h6.08c.07.7.4,1.26.97,1.69.58.43,1.28.65,2.12.65.77,0,1.36-.15,1.78-.45.42-.3.63-.69.63-1.17,0-.58-.3-1-.9-1.28-.6-.28-1.57-.58-2.92-.92-1.44-.34-2.64-.69-3.6-1.06-.96-.37-1.79-.96-2.48-1.76-.7-.8-1.04-1.89-1.04-3.26,0-1.15.32-2.2.95-3.15.64-.95,1.57-1.7,2.81-2.25s2.71-.83,4.41-.83c2.52,0,4.51.62,5.96,1.87s2.29,2.9,2.5,4.97h-5.69c-.1-.7-.4-1.25-.92-1.66-.52-.41-1.19-.61-2.03-.61-.72,0-1.27.14-1.66.41-.38.28-.58.65-.58,1.13,0,.58.31,1.01.92,1.3.61.29,1.57.58,2.86.86,1.49.38,2.7.76,3.64,1.13s1.76.97,2.47,1.8c.71.83,1.07,1.94,1.1,3.33,0,1.18-.33,2.23-.99,3.15s-1.61,1.65-2.84,2.18c-1.24.53-2.67.79-4.3.79-1.75,0-3.31-.3-4.68-.9v.02Z"/><path class="cls-1" d="m744.87,491.21v5.22h-3.13c-2.23,0-3.97-.55-5.22-1.64-1.25-1.09-1.87-2.87-1.87-5.35v-7.99h-2.45v-5.11h2.45v-4.9h6.16v4.9h4.03v5.11h-4.03v8.06c0,.6.14,1.03.43,1.3.29.26.77.4,1.44.4h2.2-.01Z"/><path class="cls-1" d="m748.74,473.3c-.68-.64-1.03-1.42-1.03-2.36s.34-1.76,1.03-2.39c.68-.64,1.57-.95,2.65-.95s1.93.32,2.61.95c.68.64,1.03,1.43,1.03,2.39s-.34,1.72-1.03,2.36c-.68.64-1.55.95-2.61.95s-1.96-.32-2.65-.95Zm5.71,3.04v20.09h-6.16v-20.09h6.16Z"/><path class="cls-1" d="m758.96,480.91c.85-1.56,2.04-2.76,3.56-3.6s3.27-1.26,5.24-1.26c2.52,0,4.63.66,6.32,1.98s2.8,3.18,3.33,5.58h-6.55c-.55-1.54-1.62-2.3-3.2-2.3-1.13,0-2.03.44-2.7,1.31-.67.88-1.01,2.13-1.01,3.76s.33,2.89,1.01,3.76c.67.88,1.57,1.31,2.7,1.31,1.58,0,2.65-.77,3.2-2.3h6.55c-.53,2.35-1.64,4.2-3.35,5.54-1.7,1.34-3.8,2.02-6.3,2.02-1.97,0-3.71-.42-5.24-1.26s-2.71-2.04-3.56-3.6-1.28-3.38-1.28-5.47.43-3.91,1.28-5.47h0Z"/><path class="cls-1" d="m780.63,480.91c.78-1.56,1.84-2.76,3.19-3.6,1.34-.84,2.84-1.26,4.5-1.26,1.42,0,2.66.29,3.73.86,1.07.58,1.89,1.33,2.47,2.27v-2.84h6.16v20.09h-6.16v-2.84c-.6.94-1.43,1.69-2.5,2.27s-2.31.86-3.73.86c-1.63,0-3.12-.43-4.46-1.28s-2.41-2.06-3.19-3.64c-.78-1.57-1.17-3.39-1.17-5.45s.39-3.88,1.17-5.44h0Zm12.6,1.84c-.85-.89-1.89-1.33-3.11-1.33s-2.26.44-3.11,1.31c-.85.88-1.28,2.08-1.28,3.62s.43,2.75,1.28,3.65c.85.9,1.89,1.35,3.11,1.35s2.26-.44,3.11-1.33c.85-.89,1.28-2.1,1.28-3.64s-.43-2.75-1.28-3.64h0Z"/><path class="cls-1" d="m811.29,469.79v26.64h-6.16v-26.64h6.16Z"/><path class="cls-1" d="m839.83,472.74c1.99,1.06,3.53,2.54,4.63,4.45,1.09,1.91,1.64,4.11,1.64,6.61s-.55,4.67-1.64,6.59-2.64,3.41-4.64,4.46c-2,1.06-4.33,1.58-6.97,1.58h-9.47v-25.27h9.47c2.66,0,4.99.53,6.98,1.58h0Zm-1.94,16.45c1.3-1.27,1.94-3.07,1.94-5.4s-.65-4.14-1.94-5.44c-1.3-1.3-3.11-1.94-5.44-1.94h-2.92v14.69h2.92c2.33,0,4.14-.64,5.44-1.91Z"/><path class="cls-1" d="m849.5,480.91c.78-1.56,1.84-2.76,3.19-3.6,1.34-.84,2.84-1.26,4.5-1.26,1.42,0,2.66.29,3.73.86,1.07.58,1.89,1.33,2.47,2.27v-2.84h6.16v20.09h-6.16v-2.84c-.6.94-1.43,1.69-2.5,2.27s-2.31.86-3.73.86c-1.63,0-3.12-.43-4.46-1.28s-2.41-2.06-3.19-3.64c-.78-1.57-1.17-3.39-1.17-5.45s.39-3.88,1.17-5.44h0Zm12.6,1.84c-.85-.89-1.89-1.33-3.11-1.33s-2.26.44-3.11,1.31c-.85.88-1.28,2.08-1.28,3.62s.43,2.75,1.28,3.65c.85.9,1.89,1.35,3.11,1.35s2.26-.44,3.11-1.33c.85-.89,1.28-2.1,1.28-3.64s-.43-2.75-1.28-3.64h0Z"/><path class="cls-1" d="m885.19,491.21v5.22h-3.13c-2.23,0-3.97-.55-5.22-1.64-1.25-1.09-1.87-2.87-1.87-5.35v-7.99h-2.45v-5.11h2.45v-4.9h6.16v4.9h4.03v5.11h-4.03v8.06c0,.6.14,1.03.43,1.3.29.26.77.4,1.44.4h2.2-.01Z"/><path class="cls-1" d="m888.56,480.91c.78-1.56,1.84-2.76,3.19-3.6,1.34-.84,2.84-1.26,4.5-1.26,1.42,0,2.66.29,3.73.86,1.07.58,1.89,1.33,2.47,2.27v-2.84h6.16v20.09h-6.16v-2.84c-.6.94-1.43,1.69-2.5,2.27s-2.31.86-3.73.86c-1.63,0-3.12-.43-4.46-1.28s-2.41-2.06-3.19-3.64c-.78-1.57-1.17-3.39-1.17-5.45s.39-3.88,1.17-5.44h0Zm12.6,1.84c-.85-.89-1.89-1.33-3.11-1.33s-2.26.44-3.11,1.31c-.85.88-1.28,2.08-1.28,3.62s.43,2.75,1.28,3.65c.85.9,1.89,1.35,3.11,1.35s2.26-.44,3.11-1.33c.85-.89,1.28-2.1,1.28-3.64s-.43-2.75-1.28-3.64h0Z"/><path class="cls-1" d="m936.42,491.96h-9.43l-1.51,4.46h-6.44l9.14-25.27h7.13l9.14,25.27h-6.52l-1.51-4.46Zm-1.58-4.75l-3.13-9.25-3.1,9.25h6.23Z"/><path class="cls-1" d="m965.09,478.41c1.4,1.52,2.11,3.62,2.11,6.28v11.74h-6.12v-10.91c0-1.34-.35-2.39-1.04-3.13-.7-.74-1.63-1.12-2.81-1.12s-2.11.37-2.81,1.12c-.7.74-1.04,1.79-1.04,3.13v10.91h-6.16v-20.09h6.16v2.66c.62-.89,1.46-1.59,2.52-2.11s2.24-.77,3.56-.77c2.35,0,4.23.76,5.63,2.29h0Z"/><path class="cls-1" d="m971.43,480.91c.78-1.56,1.84-2.76,3.19-3.6,1.34-.84,2.84-1.26,4.5-1.26,1.42,0,2.66.29,3.73.86,1.07.58,1.89,1.33,2.47,2.27v-2.84h6.16v20.09h-6.16v-2.84c-.6.94-1.43,1.69-2.5,2.27s-2.31.86-3.73.86c-1.63,0-3.12-.43-4.46-1.28s-2.41-2.06-3.19-3.64c-.78-1.57-1.17-3.39-1.17-5.45s.39-3.88,1.17-5.44h0Zm12.6,1.84c-.85-.89-1.89-1.33-3.11-1.33s-2.26.44-3.11,1.31c-.85.88-1.28,2.08-1.28,3.62s.43,2.75,1.28,3.65c.85.9,1.89,1.35,3.11,1.35s2.26-.44,3.11-1.33c.85-.89,1.28-2.1,1.28-3.64s-.43-2.75-1.28-3.64h0Z"/><path class="cls-1" d="m1002.08,469.79v26.64h-6.16v-26.64h6.16Z"/><path class="cls-1" d="m1027.07,476.34l-12.6,29.63h-6.62l4.61-10.22-8.17-19.4h6.88l4.64,12.56,4.61-12.56h6.66-.01Z"/><path class="cls-1" d="m1032.79,495.81c-1.37-.6-2.45-1.42-3.24-2.47s-1.24-2.21-1.33-3.51h6.08c.07.7.4,1.26.97,1.69.58.43,1.28.65,2.12.65.77,0,1.36-.15,1.78-.45.42-.3.63-.69.63-1.17,0-.58-.3-1-.9-1.28s-1.57-.58-2.92-.92c-1.44-.34-2.64-.69-3.6-1.06s-1.79-.96-2.48-1.76c-.7-.8-1.04-1.89-1.04-3.26,0-1.15.32-2.2.95-3.15.64-.95,1.57-1.7,2.81-2.25,1.24-.55,2.71-.83,4.41-.83,2.52,0,4.51.62,5.96,1.87s2.29,2.9,2.5,4.97h-5.69c-.1-.7-.4-1.25-.92-1.66s-1.19-.61-2.03-.61c-.72,0-1.27.14-1.66.41-.38.28-.58.65-.58,1.13,0,.58.31,1.01.92,1.3.61.29,1.57.58,2.86.86,1.49.38,2.7.76,3.64,1.13.94.37,1.76.97,2.47,1.8s1.07,1.94,1.1,3.33c0,1.18-.33,2.23-.99,3.15s-1.61,1.65-2.84,2.18c-1.24.53-2.67.79-4.3.79-1.75,0-3.31-.3-4.68-.9v.02Z"/><path class="cls-1" d="m1049.84,473.3c-.68-.64-1.03-1.42-1.03-2.36s.34-1.76,1.03-2.39c.68-.64,1.57-.95,2.65-.95s1.93.32,2.61.95c.68.64,1.03,1.43,1.03,2.39s-.34,1.72-1.03,2.36c-.68.64-1.55.95-2.61.95s-1.96-.32-2.65-.95Zm5.71,3.04v20.09h-6.16v-20.09h6.16Z"/><path class="cls-1" d="m1063.5,495.81c-1.37-.6-2.45-1.42-3.24-2.47s-1.24-2.21-1.33-3.51h6.08c.07.7.4,1.26.97,1.69.58.43,1.28.65,2.12.65.77,0,1.36-.15,1.78-.45.42-.3.63-.69.63-1.17,0-.58-.3-1-.9-1.28s-1.57-.58-2.92-.92c-1.44-.34-2.64-.69-3.6-1.06s-1.79-.96-2.48-1.76c-.7-.8-1.04-1.89-1.04-3.26,0-1.15.32-2.2.95-3.15.64-.95,1.57-1.7,2.81-2.25,1.24-.55,2.71-.83,4.41-.83,2.52,0,4.51.62,5.96,1.87s2.29,2.9,2.5,4.97h-5.69c-.1-.7-.4-1.25-.92-1.66s-1.19-.61-2.03-.61c-.72,0-1.27.14-1.66.41-.38.28-.58.65-.58,1.13,0,.58.31,1.01.92,1.3.61.29,1.57.58,2.86.86,1.49.38,2.7.76,3.64,1.13.94.37,1.76.97,2.47,1.8s1.07,1.94,1.1,3.33c0,1.18-.33,2.23-.99,3.15s-1.61,1.65-2.84,2.18c-1.24.53-2.67.79-4.3.79-1.75,0-3.31-.3-4.68-.9v.02Z"/></g><g><path class="cls-1" d="m186.15,218.12c13.5,18.66,30.98,32.34,50.21,43.94,37.42,22.59,78.33,36.28,120.53,46.5,13.46,3.27,27.08,5.9,41.17,8.94v-14.59c23.21,10.15,45.73,19.99,69.37,30.31-23.56,5.88-45.87,11.45-69.07,17.23,0-5.39-.19-10.25.06-15.09.18-3.4-.88-4.66-4.4-5.22-41.62-6.63-82.49-16.31-122.06-31.02-32.56-12.11-63.7-26.95-90.96-48.93-14.2-11.45-26.61-24.52-35.12-40.87-12.99-24.97-12.45-49.71,1.86-73.99,11.42-19.39,27.9-33.86,46.25-46.32,32.14-21.82,67.66-36.41,104.49-48,45.37-14.26,91.82-23.38,139.04-28.73,9.19-1.04,18.39-2.02,28.02-3.07v9.99c-9.71,1.19-19.6,2.23-29.42,3.63-61.71,8.75-121.83,23.13-177.99,51.13-23.71,11.82-45.79,26.08-63.82,45.86-10.68,11.73-18.94,24.88-22.13,40.66-4.06,20.01,1.16,38.09,12.07,54.85.56.85,1.15,1.67,1.9,2.76h0Z"/><path class="cls-1" d="m830.39,288.38c-64.02,27.9-131.18,41.34-200.17,48.58v-10.4c7.92-1.07,15.91-2.06,23.88-3.25,55.44-8.26,109.44-21.6,160.07-46.38,26.18-12.81,50.52-28.37,69.53-50.97,14.38-17.09,23.06-36.35,20.78-59.31-1.81-18.15-10.28-33.26-22.05-46.68-18.48-21.06-41.69-35.66-66.56-47.81-38.31-18.72-78.89-30.49-120.53-38.94-5.19-1.05-10.41-2-16.09-3.07v17.72c-23.02-10.06-45.41-19.85-67.8-29.63,0-.31.02-.63.03-.93,22.2-5.56,44.4-11.12,67.49-16.89,0,4.03.15,8-.05,11.95-.15,2.96.65,4.19,3.88,4.7,34.14,5.48,67.79,13.09,100.7,23.84,37.15,12.14,72.82,27.37,104.51,50.74,15.37,11.34,29.04,24.43,38.92,40.96,16.55,27.66,16.27,55.36-.56,82.8-12.3,20.06-29.57,35.28-49.28,47.5-14.96,9.28-30.91,16.95-46.72,25.48l.02-.02Z"/><path class="cls-1" d="m598.62,277.25h-21.42v-127.81c.25-.19.48-.51.7-.51,17.6.47,35.54-1.07,52.71,1.9,28.84,4.98,44.09,37.65,31.69,64.24-6.8,14.58-18.97,21.26-34.63,21.99-6.61.3-13.25.05-20.42.05v40.12h-8.63m32.14-64.02c5.1-14.39,4.82-28.64-1.68-42.5-3.81-8.12-12.8-12.1-21.72-10.19v63.62c9.88.94,18.07-1.2,23.4-10.92h0Z"/><path class="cls-1" d="m700.29,277.25h-14.67v-128.48c2.78,0,5.49-.04,8.2,0,13.59.24,27.31-.55,40.75.97,30.75,3.47,48.99,36.72,36.19,64.93-6.99,15.41-19.8,21.97-36.13,22.5-6.2.2-12.42.03-19.17.03v40.05h-15.17m21.92-52.91c8.76-.77,15.24-4.98,17.83-13.45,4.05-13.26,3.68-26.55-2.12-39.33-3.95-8.69-12.55-12.83-22.29-11.07v63.88c2.1,0,3.95,0,6.58-.03h0Z"/><path class="cls-1" d="m280.57,113.17v-9.22h36.51v113.8h49.28v19.16h-85.79v-123.74h0Z"/><path class="cls-1" d="m454.11,194.79c-.17,6.21-.03,12.02-.57,17.76-1.16,12.17-9.42,21.72-21.14,24.64-9.29,2.31-18.66,2.23-27.88-.3-14.53-3.98-23.15-13.98-23.59-29.04-.57-19.66-.18-39.33-.18-59,0-.4.23-.8.44-1.46h29.77c.07,1.51.2,3.03.2,4.55.02,16.05-.03,32.11.04,48.16.02,3.16.17,6.38.79,9.48,1.75,8.79,8.16,12.93,16.94,11.17,4.18-.84,7.24-3.32,8.22-7.44,1.16-4.89,2.32-9.9,2.42-14.89.32-15.32.15-30.66.16-45.99v-5.01h14.39v47.36h0Z"/><path class="cls-1" d="m522.27,221.01c8.02-.43,11.51-3.03,12.95-10.57,1.05-5.5,1.57-11.17,1.65-16.77.22-15.31.08-30.63.08-46.24h14.03c.08,1.3.23,2.68.23,4.06.02,17.79.11,35.58-.07,53.37-.04,4.43-.42,9.03-1.67,13.25-3.34,11.36-11.44,17.77-22.95,19.78-9.24,1.61-18.48,1.34-27.41-1.77-13.17-4.59-20.56-14.14-20.98-27.92-.59-19.8-.2-39.63-.21-59.44,0-.39.26-.78.48-1.39h29.95v4.7c0,15.91-.05,31.82.04,47.73.02,3.45.19,6.97.89,10.33,1.45,7.04,5.36,10.22,12.98,10.88h.02Z"/><path class="cls-1" d="m801.96,237.22h-8.16v-89.83h29.62v89.83h-21.46,0Z"/><path class="cls-1" d="m790.23,112.19c1.05-11.19,8.7-17.28,20-16.29,9.22.82,15.76,8.27,15.11,17.27-.59,8.3-7.53,15.44-15.89,16.36-8.04.89-16.41-5.01-18.57-13.15-.33-1.25-.43-2.56-.64-4.19h0Z"/></g></svg>