<?xml version="1.0" encoding="UTF-8"?><svg id="Layer_1" xmlns="http://www.w3.org/2000/svg" viewBox="0 0 800 356.98"><defs><style>.cls-1{fill:#fff;}</style></defs><path class="cls-1" d="m260.84,349.23v-18.82c-16.03-3.26-30.94-6.39-45.89-9.31-25.36-4.97-50.08-12.22-74.43-20.78-19.51-6.86-38.54-14.92-56.76-24.74-15.13-8.15-29.63-17.32-42.81-28.37-13.83-11.6-25.72-24.95-33.59-41.39-2.42-5.05-3.79-10.59-5.69-15.89-.22-.61-.73-1.12-1.4-1.42C-.02,178.45-.02,168.13-.02,157.41c.57-.82,1.53-1.14,1.65-1.66,3.54-14.63,11.25-26.86,20.95-38.17,16.16-18.85,36.35-32.23,57.81-44.1,22.26-12.31,45.69-21.73,69.74-29.89,23.82-8.08,48.03-14.52,72.62-19.62,12.75-2.64,25.48-5.47,38.32-7.62,11.28-1.89,22.7-3,34.07-4.39,10.99-1.34,21.98-2.59,33.3-3.92.13,1.63.27,2.72.28,3.8.06,7.38,0,7.01-7.2,7.92-13.55,1.7-27.08,3.7-40.56,5.9-12.73,2.08-25.46,4.27-38.07,6.98-13.09,2.81-26.23,5.66-38.99,9.64-19.15,5.97-38.26,12.24-56.86,19.7-14.02,5.62-27.47,12.86-40.71,20.22-10.23,5.7-20.23,12.07-29.43,19.3-13.14,10.32-24.88,22.19-33.07,37.08-6.05,11-9.82,22.63-9.49,35.28.41,15.75,6.27,29.73,15.14,42.43,7.99,11.46,18.17,20.78,29.13,29.48,15.97,12.69,33.6,22.47,51.94,30.94,24.02,11.09,48.96,19.8,74.66,26.21,12.6,3.14,25.21,6.2,37.87,9.1,5.49,1.26,11.09,2.01,16.96,3.05v-14.39c23.76,10.37,47.01,20.53,71.13,31.06-7.67,2-14.39,3.8-21.13,5.49-14.99,3.76-29.99,7.47-45,11.18-.68.17-1.41.13-2.53.53-.84.33-1.26.32-1.69.32l.02-.03Z"/><path class="cls-1" d="m800,187.49c-.57.81-1.54,1.14-1.65,1.65-2.93,13.48-9.43,25.15-17.87,35.89-15.11,19.22-34.45,33.17-55.37,45.36-19.6,11.42-40.03,20.93-61.47,28.19-16.55,5.6-33.15,11.19-49.99,15.79-15.74,4.3-31.78,7.55-47.78,10.79-13.2,2.67-26.51,4.84-39.82,6.86-8.17,1.24-16.44,1.78-24.66,2.67-3.03.33-6.05.73-9.33,1.12v-10.86c19.34-3.07,38.73-5.36,57.76-9.37,20.89-4.4,41.57-9.96,62.13-15.76,24.59-6.93,48.19-16.58,70.81-28.5,15.23-8.03,29.7-17.21,42.92-28.33,12.48-10.5,23.48-22.27,31.2-36.7,4.1-7.65,6.78-15.9,8-24.64,3.1-22.24-4.99-40.78-18.21-57.89-13.23-17.12-30.32-29.56-48.58-40.52-24.23-14.54-50.14-25.51-77.14-33.57-20.46-6.11-41.3-10.98-62.01-16.24-5.49-1.39-11.12-2.2-17.11-3.36v17.94c-24.01-10.46-47.24-20.59-71.4-31.12,20.56-5.18,39.98-10.08,59.39-14.99,1.56-.4,3.09-.93,4.37-1.7,1.77-.3,3.81-.3,6.22.1.38,5.24.38,10.08.38,14.85,11.27,2.11,22.29,3.73,33.08,6.29,22.27,5.3,44.62,10.41,66.56,16.89,27.12,8.02,53.32,18.57,78.12,32.39,20.52,11.44,39.86,24.31,55.74,41.96,11.32,12.58,20.48,26.2,24.08,43.04.11.51,1.08.84,1.65,1.25v30.5l-.02.02Z"/><path class="cls-1" d="m438.63,254.85v-107.09c1.41-.07,2.64-.2,3.88-.2,13.45,0,26.9-.29,40.34.05,22.66.58,42.23,16.25,45.2,40.21,1.48,11.92-.48,22.73-7.08,32.5-6.75,9.99-16.7,14.97-28.65,15.57-7.41.37-14.84.07-22.62.07v40.09h-31.08v-21.2m38.58-95.26h-7.68v58.71c0,4.87,1.11,5.7,5.86,4.44.66-.18,1.32-.41,2-.5,7.6-1.02,12.55-5.31,15.34-12.31,3.94-9.91,3.24-20.13,1.39-30.21-1.72-9.35-6.14-17.08-16.91-20.14h0Z"/><path class="cls-1" d="m562.23,276.31h-15.2v-128.56c1.12-.06,2.35-.19,3.57-.19,13.3,0,26.6-.1,39.89.02,12.16.1,23.01,4.47,31.73,12.58,8.68,8.07,13.15,18.46,14,30.69.79,11.3-1.6,21.45-7.99,30.5-5.22,7.4-12.61,12.48-21.64,13.59-9.39,1.16-18.94,1.02-28.77,1.46v39.91h-15.6m35.71-108.08c-5.15-6.6-11.68-9.73-20.26-8.33v57.61c0,.71.06,1.43-.01,2.14-.27,2.61.88,3.69,3.47,3.45,9.52-.88,17.26-3.94,20.46-15.25,3.75-13.26,2.7-26.45-3.65-39.62h0Z"/><path class="cls-1" d="m144.21,102.23h35.9v113.86h48.83v19.65h-85.59c0-44.01,0-88.01.21-132.5.41-.61.56-.78.64-1.01h0Z"/><path class="cls-1" d="m393.01,235.97c-15.5,3.6-30.12,2.96-42.96-6.78-6.48-4.92-9.81-12.45-9.98-20.39-.46-20.84-.16-41.69-.16-62.75h30.9v4.18c0,17.3-.09,34.6.05,51.91.04,5.63,1.06,11.39,5.97,14.85,7.67,5.41,18.79,2.93,20.52-9.36.71-5.01.86-10.13.9-15.2.11-15.41.04-30.82.04-46.41h15.44v18.01c0,13.44-.12,26.88.04,40.32.1,8.95-1.8,17.38-7.94,23.88-3.25,3.43-8.25,5.21-12.82,7.73h0Z"/><path class="cls-1" d="m316.74,210.74c-1.52,6.11-2.96,11.7-6.97,16.53-4.31,5.19-9.69,8.33-15.93,9.41-10.68,1.85-21.32,1.84-31.8-2.3-10.25-4.05-16.65-11.35-18.03-21.84-1.33-10.08-.93-20.4-1.05-30.61-.14-11.85-.03-23.7-.03-35.83h30.7c.06,1.07.19,2.29.19,3.52.01,16.58-.09,33.17.08,49.75.04,3.56.89,7.14,1.62,10.66,1.48,7.13,10.35,12.45,18.45,7.85,2.31-1.31,4.37-4.01,5.32-6.54,1.29-3.43,1.88-7.29,1.92-10.98.18-18.05.08-36.1.08-54.34h15.45v64.71h0Z"/><path class="cls-1" d="m654.21,235.12c-.05-29.21-.09-58.43.08-88.12.41-.62.54-.8.63-1.02h30.64v89.98c-9.96,0-19.9,0-30.33-.22-.62-.41-.8-.54-1.02-.62Z"/><path class="cls-1" d="m662.26,127.67c-10.47-4.27-13.09-16.82-9.17-24.29,3.12-5.93,12.05-10.29,19.56-8.49,6.85,1.64,12.13,4.45,13.79,11.22,1.72,7.02.21,13.78-5.76,18.65-5.38,4.39-11.57,4.99-18.43,2.91h.01Z"/><path class="cls-1" d="m654.69,145.94c.14.26,0,.44-.33.66-.07-.18.02-.44.33-.66Z"/><path class="cls-1" d="m654.17,235.35c.26-.15.44,0,.66.32-.18.07-.44,0-.66-.32Z"/><path class="cls-1" d="m143.98,102.17c.15.28,0,.46-.35.67-.06-.19.03-.46.35-.67Z"/></svg>