<?xml version="1.0" encoding="UTF-8"?><svg id="Layer_1" xmlns="http://www.w3.org/2000/svg" viewBox="0 0 1076.31 506"><defs><style>.cls-1{fill:#fff;}</style></defs><g><path class="cls-1" d="m402.99,349.24v-18.82c-16.03-3.26-30.94-6.39-45.89-9.31-25.36-4.97-50.08-12.22-74.43-20.78-19.51-6.86-38.54-14.92-56.76-24.74-15.13-8.15-29.63-17.32-42.81-28.37-13.83-11.6-25.72-24.95-33.59-41.39-2.42-5.05-3.79-10.59-5.69-15.89-.22-.61-.73-1.12-1.4-1.42-.29-10.06-.29-20.38-.29-31.1.57-.82,1.53-1.14,1.65-1.66,3.54-14.63,11.25-26.86,20.95-38.17,16.16-18.85,36.35-32.23,57.81-44.1,22.26-12.31,45.69-21.73,69.74-29.89,23.82-8.08,48.03-14.52,72.62-19.62,12.75-2.64,25.48-5.47,38.32-7.62,11.28-1.89,22.7-3,34.07-4.39,10.99-1.34,21.98-2.59,33.3-3.92.13,1.63.27,2.72.28,3.8.06,7.38,0,7.01-7.2,7.92-13.55,1.7-27.08,3.7-40.56,5.9-12.73,2.08-25.46,4.27-38.07,6.98-13.09,2.81-26.23,5.66-38.99,9.64-19.15,5.97-38.26,12.24-56.86,19.7-14.02,5.62-27.47,12.86-40.71,20.22-10.23,5.7-20.23,12.07-29.43,19.3-13.14,10.32-24.88,22.19-33.07,37.08-6.05,11-9.82,22.63-9.49,35.28.41,15.75,6.27,29.73,15.14,42.43,7.99,11.46,18.17,20.78,29.13,29.48,15.97,12.69,33.6,22.47,51.94,30.94,24.02,11.09,48.96,19.8,74.66,26.21,12.6,3.14,25.21,6.2,37.87,9.1,5.49,1.26,11.09,2.01,16.96,3.05v-14.39c23.76,10.37,47.01,20.53,71.13,31.06-7.67,2-14.39,3.8-21.13,5.49-14.99,3.76-29.99,7.47-45,11.18-.68.17-1.41.13-2.53.53-.84.33-1.26.32-1.69.32l.02-.03h0Z"/><path class="cls-1" d="m942.15,187.5c-.57.81-1.54,1.14-1.65,1.65-2.93,13.48-9.43,25.15-17.87,35.89-15.11,19.22-34.45,33.17-55.37,45.36-19.6,11.42-40.03,20.93-61.47,28.19-16.55,5.6-33.15,11.19-49.99,15.79-15.74,4.3-31.78,7.55-47.78,10.79-13.2,2.67-26.51,4.84-39.82,6.86-8.17,1.24-16.44,1.78-24.66,2.67-3.03.33-6.05.73-9.33,1.12v-10.86c19.34-3.07,38.73-5.36,57.76-9.37,20.89-4.4,41.57-9.96,62.13-15.76,24.59-6.93,48.19-16.58,70.81-28.5,15.23-8.03,29.7-17.21,42.92-28.33,12.48-10.5,23.48-22.27,31.2-36.7,4.1-7.65,6.78-15.9,8-24.64,3.1-22.24-4.99-40.78-18.21-57.89-13.23-17.12-30.32-29.56-48.58-40.52-24.23-14.54-50.14-25.51-77.14-33.57-20.46-6.11-41.3-10.98-62.01-16.24-5.49-1.39-11.12-2.2-17.11-3.36v17.94c-24.01-10.46-47.24-20.59-71.4-31.12,20.56-5.18,39.98-10.08,59.39-14.99,1.56-.4,3.09-.93,4.37-1.7,1.77-.3,3.81-.3,6.22.1.38,5.24.38,10.08.38,14.85,11.27,2.11,22.29,3.73,33.08,6.29,22.27,5.3,44.62,10.41,66.56,16.89,27.12,8.02,53.32,18.57,78.12,32.39,20.52,11.44,39.86,24.31,55.74,41.96,11.32,12.58,20.48,26.2,24.08,43.04.11.51,1.08.84,1.65,1.25v30.5l-.02.02h0Z"/><path class="cls-1" d="m580.78,254.86v-107.09c1.41-.07,2.64-.2,3.88-.2,13.45,0,26.9-.29,40.34.05,22.66.58,42.23,16.25,45.2,40.21,1.48,11.92-.48,22.73-7.08,32.5-6.75,9.99-16.7,14.97-28.65,15.57-7.41.37-14.84.07-22.62.07v40.09h-31.08v-21.2m38.58-95.26h-7.68v58.71c0,4.87,1.11,5.7,5.86,4.44.66-.18,1.32-.41,2-.5,7.6-1.02,12.55-5.31,15.34-12.31,3.94-9.91,3.24-20.13,1.39-30.21-1.72-9.35-6.14-17.08-16.91-20.14h0Z"/><path class="cls-1" d="m704.38,276.32h-15.2v-128.56c1.12-.06,2.35-.19,3.57-.19,13.3,0,26.6-.1,39.89.02,12.16.1,23.01,4.47,31.73,12.58,8.68,8.07,13.15,18.46,14,30.69.79,11.3-1.6,21.45-7.99,30.5-5.22,7.4-12.61,12.48-21.64,13.59-9.39,1.16-18.94,1.02-28.77,1.46v39.91h-15.6m35.71-108.08c-5.15-6.6-11.68-9.73-20.26-8.33v57.61c0,.71.06,1.43-.01,2.14-.27,2.61.88,3.69,3.47,3.45,9.52-.88,17.26-3.94,20.46-15.25,3.75-13.26,2.7-26.45-3.65-39.62h0Z"/><path class="cls-1" d="m286.36,102.24h35.9v113.86h48.83v19.65h-85.59c0-44.01,0-88.01.21-132.5.41-.61.56-.78.64-1.01h.01Z"/><path class="cls-1" d="m535.16,235.98c-15.5,3.6-30.12,2.96-42.96-6.78-6.48-4.92-9.81-12.45-9.98-20.39-.46-20.84-.16-41.69-.16-62.75h30.9v4.18c0,17.3-.09,34.6.05,51.91.04,5.63,1.06,11.39,5.97,14.85,7.67,5.41,18.79,2.93,20.52-9.36.71-5.01.86-10.13.9-15.2.11-15.41.04-30.82.04-46.41h15.44v18.01c0,13.44-.12,26.88.04,40.32.1,8.95-1.8,17.38-7.94,23.88-3.25,3.43-8.25,5.21-12.82,7.73h0Z"/><path class="cls-1" d="m458.89,210.75c-1.52,6.11-2.96,11.7-6.97,16.53-4.31,5.19-9.69,8.33-15.93,9.41-10.68,1.85-21.32,1.84-31.8-2.3-10.25-4.05-16.65-11.35-18.03-21.84-1.33-10.08-.93-20.4-1.05-30.61-.14-11.85-.03-23.7-.03-35.83h30.7c.06,1.07.19,2.29.19,3.52.01,16.58-.09,33.17.08,49.75.04,3.56.89,7.14,1.62,10.66,1.48,7.13,10.35,12.45,18.45,7.85,2.31-1.31,4.37-4.01,5.32-6.54,1.29-3.43,1.88-7.29,1.92-10.98.18-18.05.08-36.1.08-54.34h15.45v64.71h0Z"/><path class="cls-1" d="m796.36,235.13c-.05-29.21-.09-58.43.08-88.12.41-.62.54-.8.63-1.02h30.64v89.98c-9.96,0-19.9,0-30.33-.22-.62-.41-.8-.54-1.02-.62h0Z"/><path class="cls-1" d="m804.41,127.68c-10.47-4.27-13.09-16.82-9.17-24.29,3.12-5.93,12.05-10.29,19.56-8.49,6.85,1.64,12.13,4.45,13.79,11.22,1.72,7.02.21,13.78-5.76,18.65-5.38,4.39-11.57,4.99-18.43,2.91,0,0,.01,0,.01,0Z"/><path class="cls-1" d="m796.84,145.95c.14.26,0,.44-.33.66-.07-.18.02-.44.33-.66Z"/><path class="cls-1" d="m796.32,235.36c.26-.15.44,0,.66.32-.18.07-.44,0-.66-.32Z"/><path class="cls-1" d="m286.13,102.18c.15.28,0,.46-.35.67-.06-.19.03-.46.35-.67Z"/></g><g><path class="cls-1" d="m148.83,372.62v12h-16.29v49.49h-14.98v-49.49h-16.29v-12h47.56Z"/><path class="cls-1" d="m156.23,396.36c1.9-3.79,4.48-6.71,7.75-8.76,3.27-2.04,6.92-3.07,10.95-3.07,3.44,0,6.47.7,9.07,2.1,2.6,1.4,4.6,3.24,6,5.52v-6.92h14.98v48.88h-14.98v-6.92c-1.46,2.28-3.49,4.12-6.09,5.52-2.6,1.4-5.62,2.1-9.07,2.1-3.97,0-7.59-1.04-10.86-3.11-3.27-2.07-5.85-5.02-7.75-8.85-1.9-3.82-2.85-8.25-2.85-13.27s.95-9.43,2.85-13.23Zm30.66,4.47c-2.07-2.16-4.6-3.24-7.58-3.24s-5.5,1.07-7.58,3.2c-2.07,2.13-3.11,5.07-3.11,8.8s1.04,6.7,3.11,8.89c2.07,2.19,4.6,3.28,7.58,3.28s5.5-1.08,7.58-3.24c2.07-2.16,3.11-5.11,3.11-8.85s-1.04-6.69-3.11-8.85Z"/><path class="cls-1" d="m292.7,390.23c3.59,3.68,5.39,8.79,5.39,15.33v28.55h-14.89v-26.54c0-3.15-.83-5.59-2.5-7.31-1.66-1.72-3.96-2.58-6.88-2.58s-5.21.86-6.88,2.58c-1.66,1.72-2.5,4.16-2.5,7.31v26.54h-14.89v-26.54c0-3.15-.83-5.59-2.5-7.31-1.66-1.72-3.96-2.58-6.88-2.58s-5.21.86-6.88,2.58c-1.66,1.72-2.5,4.16-2.5,7.31v26.54h-14.98v-48.88h14.98v6.13c1.52-2.04,3.5-3.66,5.96-4.86,2.45-1.2,5.23-1.79,8.32-1.79,3.68,0,6.96.79,9.85,2.36,2.89,1.58,5.15,3.83,6.79,6.75,1.69-2.69,4-4.88,6.92-6.57,2.92-1.69,6.1-2.54,9.55-2.54,6.07,0,10.91,1.84,14.5,5.52Z"/><path class="cls-1" d="m329.61,386.64c2.57-1.4,5.58-2.1,9.02-2.1,4.03,0,7.68,1.02,10.95,3.07,3.27,2.04,5.85,4.96,7.75,8.76,1.9,3.8,2.85,8.21,2.85,13.23s-.95,9.45-2.85,13.27c-1.9,3.83-4.48,6.78-7.75,8.85-3.27,2.07-6.92,3.11-10.95,3.11-3.39,0-6.38-.7-8.98-2.1-2.6-1.4-4.63-3.21-6.09-5.43v30.13h-14.98v-72.18h14.98v6.92c1.46-2.28,3.47-4.12,6.04-5.52Zm12.22,14.15c-2.07-2.13-4.63-3.2-7.66-3.2s-5.5,1.08-7.58,3.24c-2.07,2.16-3.11,5.11-3.11,8.85s1.04,6.69,3.11,8.85c2.07,2.16,4.6,3.24,7.58,3.24s5.52-1.09,7.62-3.28c2.1-2.19,3.15-5.15,3.15-8.89s-1.04-6.67-3.11-8.8Z"/><path class="cls-1" d="m413.88,413.26h-33.9c.23,3.04,1.21,5.36,2.93,6.96,1.72,1.61,3.84,2.41,6.35,2.41,3.74,0,6.34-1.58,7.8-4.73h15.94c-.82,3.21-2.29,6.1-4.42,8.67-2.13,2.57-4.8,4.58-8.01,6.04-3.21,1.46-6.8,2.19-10.77,2.19-4.79,0-9.05-1.02-12.79-3.07-3.74-2.04-6.66-4.96-8.76-8.76-2.1-3.79-3.15-8.23-3.15-13.31s1.04-9.52,3.11-13.31c2.07-3.79,4.98-6.71,8.72-8.76,3.74-2.04,8.03-3.07,12.88-3.07s8.93.99,12.61,2.98c3.68,1.99,6.55,4.82,8.63,8.5,2.07,3.68,3.11,7.97,3.11,12.88,0,1.4-.09,2.86-.26,4.38Zm-15.07-8.32c0-2.57-.88-4.61-2.63-6.13-1.75-1.52-3.94-2.28-6.57-2.28s-4.63.73-6.35,2.19c-1.72,1.46-2.79,3.53-3.2,6.22h18.74Z"/><path class="cls-1" d="m443.57,387.03c2.63-1.55,5.55-2.32,8.76-2.32v15.85h-4.12c-3.74,0-6.54.8-8.41,2.41-1.87,1.61-2.8,4.42-2.8,8.45v22.69h-14.98v-48.88h14.98v8.15c1.75-2.68,3.94-4.8,6.57-6.35Z"/><path class="cls-1" d="m505.32,413.26h-33.9c.23,3.04,1.21,5.36,2.93,6.96,1.72,1.61,3.84,2.41,6.35,2.41,3.74,0,6.34-1.58,7.8-4.73h15.94c-.82,3.21-2.29,6.1-4.42,8.67-2.13,2.57-4.8,4.58-8.01,6.04-3.21,1.46-6.8,2.19-10.77,2.19-4.79,0-9.05-1.02-12.79-3.07-3.74-2.04-6.66-4.96-8.76-8.76-2.1-3.79-3.15-8.23-3.15-13.31s1.04-9.52,3.11-13.31c2.07-3.79,4.98-6.71,8.72-8.76,3.74-2.04,8.03-3.07,12.88-3.07s8.93.99,12.61,2.98c3.68,1.99,6.55,4.82,8.63,8.5,2.07,3.68,3.11,7.97,3.11,12.88,0,1.4-.09,2.86-.26,4.38Zm-15.07-8.32c0-2.57-.88-4.61-2.63-6.13-1.75-1.52-3.94-2.28-6.57-2.28s-4.63.73-6.35,2.19c-1.72,1.46-2.79,3.53-3.2,6.22h18.74Z"/><path class="cls-1" d="m546.75,372.62v36.79c0,3.68.9,6.51,2.72,8.5,1.81,1.99,4.47,2.98,7.97,2.98s6.19-.99,8.06-2.98c1.87-1.98,2.8-4.82,2.8-8.5v-36.79h14.98v36.7c0,5.49-1.17,10.13-3.5,13.93-2.34,3.8-5.47,6.66-9.42,8.58s-8.34,2.89-13.18,2.89-9.18-.95-13.01-2.85c-3.83-1.9-6.85-4.76-9.07-8.58-2.22-3.82-3.33-8.48-3.33-13.97v-36.7h14.98Z"/><path class="cls-1" d="m637.28,390.27c3.42,3.71,5.12,8.8,5.12,15.29v28.55h-14.89v-26.54c0-3.27-.85-5.81-2.54-7.62-1.69-1.81-3.97-2.71-6.83-2.71s-5.14.91-6.83,2.71c-1.69,1.81-2.54,4.35-2.54,7.62v26.54h-14.98v-48.88h14.98v6.48c1.52-2.16,3.56-3.87,6.13-5.12,2.57-1.25,5.46-1.88,8.67-1.88,5.72,0,10.29,1.85,13.71,5.56Z"/><path class="cls-1" d="m653.92,377.83c-1.66-1.55-2.5-3.46-2.5-5.74s.83-4.28,2.5-5.83c1.66-1.55,3.81-2.32,6.44-2.32s4.69.77,6.35,2.32c1.67,1.55,2.5,3.49,2.5,5.83s-.83,4.19-2.5,5.74c-1.66,1.55-3.78,2.32-6.35,2.32s-4.77-.77-6.44-2.32Zm13.88,7.4v48.88h-14.98v-48.88h14.98Z"/><path class="cls-1" d="m700.65,420.1l10.6-34.86h15.94l-17.34,48.88h-18.48l-17.34-48.88h16.03l10.6,34.86Z"/><path class="cls-1" d="m779.31,413.26h-33.9c.23,3.04,1.21,5.36,2.93,6.96,1.72,1.61,3.84,2.41,6.35,2.41,3.74,0,6.33-1.58,7.8-4.73h15.94c-.82,3.21-2.29,6.1-4.42,8.67-2.13,2.57-4.8,4.58-8.01,6.04-3.21,1.46-6.8,2.19-10.77,2.19-4.79,0-9.05-1.02-12.79-3.07-3.74-2.04-6.66-4.96-8.76-8.76-2.1-3.79-3.15-8.23-3.15-13.31s1.04-9.52,3.11-13.31c2.07-3.79,4.98-6.71,8.71-8.76,3.74-2.04,8.03-3.07,12.88-3.07s8.93.99,12.61,2.98c3.68,1.99,6.55,4.82,8.63,8.5,2.07,3.68,3.11,7.97,3.11,12.88,0,1.4-.09,2.86-.26,4.38Zm-15.07-8.32c0-2.57-.88-4.61-2.63-6.13-1.75-1.52-3.94-2.28-6.57-2.28s-4.63.73-6.35,2.19c-1.72,1.46-2.79,3.53-3.2,6.22h18.75Z"/><path class="cls-1" d="m809,387.03c2.63-1.55,5.55-2.32,8.76-2.32v15.85h-4.12c-3.74,0-6.54.8-8.41,2.41-1.87,1.61-2.8,4.42-2.8,8.45v22.69h-14.98v-48.88h14.98v8.15c1.75-2.68,3.94-4.8,6.57-6.35Z"/><path class="cls-1" d="m833.44,432.62c-3.33-1.46-5.96-3.46-7.88-6s-3.01-5.39-3.24-8.54h14.8c.18,1.69.96,3.07,2.37,4.12,1.4,1.05,3.12,1.58,5.17,1.58,1.87,0,3.31-.36,4.34-1.09,1.02-.73,1.53-1.68,1.53-2.85,0-1.4-.73-2.44-2.19-3.11-1.46-.67-3.83-1.42-7.09-2.23-3.5-.82-6.42-1.68-8.76-2.58-2.34-.91-4.35-2.33-6.04-4.29-1.69-1.96-2.54-4.6-2.54-7.93,0-2.8.77-5.36,2.32-7.66,1.55-2.31,3.82-4.13,6.83-5.47,3.01-1.34,6.58-2.01,10.73-2.01,6.13,0,10.96,1.52,14.5,4.55,3.53,3.04,5.56,7.07,6.09,12.09h-13.84c-.23-1.69-.98-3.04-2.23-4.03-1.26-.99-2.91-1.49-4.95-1.49-1.75,0-3.1.34-4.03,1.01-.93.67-1.4,1.59-1.4,2.76,0,1.4.74,2.45,2.23,3.15,1.49.7,3.81,1.4,6.96,2.1,3.62.93,6.57,1.85,8.85,2.76,2.28.91,4.28,2.37,6,4.38,1.72,2.01,2.61,4.72,2.67,8.1,0,2.86-.8,5.42-2.41,7.66-1.61,2.25-3.91,4.02-6.92,5.3-3.01,1.28-6.5,1.93-10.47,1.93-4.26,0-8.06-.73-11.39-2.19Z"/><path class="cls-1" d="m874.91,377.83c-1.66-1.55-2.5-3.46-2.5-5.74s.83-4.28,2.5-5.83c1.66-1.55,3.81-2.32,6.44-2.32s4.69.77,6.35,2.32c1.67,1.55,2.5,3.49,2.5,5.83s-.83,4.19-2.5,5.74c-1.66,1.55-3.78,2.32-6.35,2.32s-4.77-.77-6.44-2.32Zm13.88,7.4v48.88h-14.98v-48.88h14.98Z"/><path class="cls-1" d="m926.9,421.41v12.7h-7.62c-5.43,0-9.67-1.33-12.7-3.99-3.04-2.66-4.55-6.99-4.55-13.01v-19.45h-5.96v-12.44h5.96v-11.91h14.98v11.91h9.81v12.44h-9.81v19.62c0,1.46.35,2.51,1.05,3.15.7.64,1.87.96,3.5.96h5.34Z"/><path class="cls-1" d="m985.14,385.23l-30.66,72.09h-16.12l11.21-24.88-19.88-47.21h16.73l11.3,30.57,11.21-30.57h16.21Z"/></g><g><path class="cls-1" d="m1.62,477.08c1.08-1.96,2.59-3.48,4.52-4.57,1.93-1.09,4.12-1.64,6.57-1.64,3,0,5.57.79,7.7,2.38,2.14,1.58,3.56,3.74,4.28,6.48h-6.77c-.5-1.06-1.22-1.86-2.14-2.41-.92-.55-1.97-.83-3.15-.83-1.9,0-3.43.66-4.61,1.98-1.18,1.32-1.76,3.08-1.76,5.29s.59,3.97,1.76,5.29c1.18,1.32,2.71,1.98,4.61,1.98,1.18,0,2.23-.28,3.15-.83.92-.55,1.64-1.36,2.14-2.41h6.77c-.72,2.74-2.15,4.89-4.28,6.46-2.14,1.57-4.7,2.36-7.7,2.36-2.45,0-4.64-.54-6.57-1.64-1.93-1.09-3.44-2.61-4.52-4.55C.54,488.47,0,486.25,0,483.75s.54-4.72,1.62-6.68Z"/><path class="cls-1" d="m32.31,495.45c-1.57-.84-2.81-2.04-3.71-3.6-.9-1.56-1.35-3.38-1.35-5.47s.46-3.88,1.37-5.45c.91-1.57,2.16-2.78,3.74-3.62,1.58-.84,3.36-1.26,5.33-1.26s3.74.42,5.33,1.26c1.58.84,2.83,2.05,3.74,3.62.91,1.57,1.37,3.39,1.37,5.45s-.46,3.88-1.39,5.45-2.18,2.78-3.78,3.62c-1.6.84-3.38,1.26-5.35,1.26s-3.74-.42-5.31-1.26Zm8.32-5.36c.83-.86,1.24-2.1,1.24-3.71s-.4-2.84-1.21-3.71-1.79-1.3-2.97-1.3-2.2.43-2.99,1.28-1.19,2.09-1.19,3.73.39,2.84,1.17,3.71c.78.86,1.76,1.3,2.93,1.3s2.18-.43,3.01-1.3Z"/><path class="cls-1" d="m83,478.39c1.48,1.51,2.21,3.61,2.21,6.3v11.74h-6.12v-10.91c0-1.3-.34-2.3-1.03-3.01-.68-.71-1.63-1.06-2.83-1.06s-2.14.35-2.83,1.06c-.68.71-1.03,1.71-1.03,3.01v10.91h-6.12v-10.91c0-1.3-.34-2.3-1.03-3.01-.68-.71-1.63-1.06-2.83-1.06s-2.14.35-2.83,1.06c-.68.71-1.03,1.71-1.03,3.01v10.91h-6.16v-20.09h6.16v2.52c.62-.84,1.44-1.51,2.45-2,1.01-.49,2.15-.74,3.42-.74,1.51,0,2.86.32,4.05.97,1.19.65,2.12,1.57,2.79,2.77.7-1.1,1.64-2,2.84-2.7,1.2-.7,2.51-1.04,3.92-1.04,2.5,0,4.48.76,5.96,2.27Z"/><path class="cls-1" d="m98.17,476.91c1.06-.58,2.29-.86,3.71-.86,1.66,0,3.16.42,4.5,1.26,1.34.84,2.41,2.04,3.19,3.6.78,1.56,1.17,3.37,1.17,5.44s-.39,3.88-1.17,5.45c-.78,1.57-1.84,2.78-3.19,3.64-1.34.85-2.84,1.28-4.5,1.28-1.39,0-2.62-.29-3.69-.86-1.07-.58-1.9-1.32-2.5-2.23v12.38h-6.16v-29.66h6.16v2.84c.6-.94,1.43-1.69,2.48-2.27Zm5.02,5.81c-.85-.88-1.9-1.31-3.15-1.31s-2.26.44-3.11,1.33-1.28,2.1-1.28,3.64.43,2.75,1.28,3.64c.85.89,1.89,1.33,3.11,1.33s2.27-.45,3.13-1.35c.86-.9,1.3-2.12,1.3-3.65s-.43-2.74-1.28-3.62Z"/><path class="cls-1" d="m133.81,476.34v20.09h-6.16v-2.74c-.62.89-1.47,1.6-2.54,2.14-1.07.54-2.25.81-3.55.81-1.54,0-2.89-.34-4.07-1.03-1.18-.68-2.09-1.67-2.74-2.97-.65-1.3-.97-2.82-.97-4.57v-11.74h6.12v10.91c0,1.34.35,2.39,1.04,3.13s1.63,1.12,2.81,1.12,2.15-.37,2.84-1.12,1.04-1.79,1.04-3.13v-10.91h6.16Z"/><path class="cls-1" d="m149.44,491.21v5.22h-3.13c-2.23,0-3.97-.55-5.22-1.64s-1.87-2.87-1.87-5.35v-7.99h-2.45v-5.11h2.45v-4.9h6.16v4.9h4.03v5.11h-4.03v8.06c0,.6.14,1.03.43,1.3.29.26.77.4,1.44.4h2.2Z"/><path class="cls-1" d="m171.68,487.86h-13.93c.1,1.25.5,2.2,1.21,2.86.71.66,1.58.99,2.61.99,1.54,0,2.6-.65,3.2-1.94h6.55c-.34,1.32-.94,2.51-1.82,3.56s-1.97,1.88-3.29,2.48c-1.32.6-2.8.9-4.43.9-1.97,0-3.72-.42-5.26-1.26s-2.74-2.04-3.6-3.6c-.86-1.56-1.3-3.38-1.3-5.47s.43-3.91,1.28-5.47c.85-1.56,2.05-2.76,3.58-3.6,1.54-.84,3.3-1.26,5.29-1.26s3.67.41,5.18,1.22c1.51.82,2.69,1.98,3.55,3.49.85,1.51,1.28,3.28,1.28,5.29,0,.58-.04,1.18-.11,1.8Zm-6.19-3.42c0-1.06-.36-1.9-1.08-2.52-.72-.62-1.62-.94-2.7-.94s-1.9.3-2.61.9c-.71.6-1.15,1.45-1.31,2.56h7.7Z"/><path class="cls-1" d="m183.89,477.08c1.08-.64,2.28-.95,3.6-.95v6.52h-1.69c-1.54,0-2.69.33-3.46.99-.77.66-1.15,1.82-1.15,3.47v9.32h-6.16v-20.09h6.16v3.35c.72-1.1,1.62-1.97,2.7-2.61Z"/><path class="cls-1" d="m202.25,495.78c-1.46-.6-2.63-1.49-3.51-2.66-.88-1.18-1.34-2.59-1.39-4.25h6.55c.1.94.42,1.65.97,2.14.55.49,1.27.74,2.16.74s1.63-.21,2.16-.63c.53-.42.79-1,.79-1.75,0-.62-.21-1.14-.63-1.55-.42-.41-.94-.74-1.55-1.01-.61-.26-1.48-.56-2.61-.9-1.63-.5-2.96-1.01-4-1.51-1.03-.5-1.92-1.25-2.66-2.23-.74-.98-1.12-2.27-1.12-3.85,0-2.35.85-4.19,2.56-5.53,1.7-1.33,3.92-2,6.66-2s5.03.67,6.73,2,2.62,3.19,2.74,5.56h-6.66c-.05-.82-.35-1.46-.9-1.93-.55-.47-1.26-.7-2.12-.7-.74,0-1.34.2-1.8.59-.46.4-.68.97-.68,1.71,0,.82.38,1.45,1.15,1.91s1.97.95,3.6,1.48c1.63.55,2.96,1.08,3.98,1.58,1.02.5,1.9,1.24,2.65,2.2.74.96,1.12,2.2,1.12,3.71s-.37,2.75-1.1,3.92c-.73,1.18-1.79,2.11-3.19,2.81-1.39.7-3.04,1.04-4.93,1.04s-3.5-.3-4.97-.9Z"/><path class="cls-1" d="m220.26,480.91c.85-1.56,2.04-2.76,3.56-3.6,1.52-.84,3.27-1.26,5.24-1.26,2.52,0,4.63.66,6.32,1.98s2.8,3.18,3.33,5.58h-6.55c-.55-1.54-1.62-2.3-3.2-2.3-1.13,0-2.03.44-2.7,1.31s-1.01,2.13-1.01,3.76.34,2.89,1.01,3.76c.67.88,1.57,1.31,2.7,1.31,1.58,0,2.65-.77,3.2-2.3h6.55c-.53,2.35-1.64,4.2-3.35,5.54-1.71,1.34-3.8,2.02-6.3,2.02-1.97,0-3.71-.42-5.24-1.26-1.52-.84-2.71-2.04-3.56-3.6-.85-1.56-1.28-3.38-1.28-5.47s.43-3.91,1.28-5.47Z"/><path class="cls-1" d="m242.44,473.3c-.68-.64-1.03-1.42-1.03-2.36s.34-1.76,1.03-2.39c.68-.64,1.57-.95,2.65-.95s1.93.32,2.61.95c.68.64,1.03,1.43,1.03,2.39s-.34,1.72-1.03,2.36c-.68.64-1.55.95-2.61.95s-1.96-.32-2.65-.95Zm5.71,3.04v20.09h-6.16v-20.09h6.16Z"/><path class="cls-1" d="m271.44,487.86h-13.93c.1,1.25.5,2.2,1.21,2.86.71.66,1.58.99,2.61.99,1.54,0,2.6-.65,3.2-1.94h6.55c-.34,1.32-.94,2.51-1.82,3.56s-1.97,1.88-3.29,2.48c-1.32.6-2.8.9-4.43.9-1.97,0-3.72-.42-5.26-1.26s-2.74-2.04-3.6-3.6c-.86-1.56-1.3-3.38-1.3-5.47s.43-3.91,1.28-5.47c.85-1.56,2.05-2.76,3.58-3.6,1.54-.84,3.3-1.26,5.29-1.26s3.67.41,5.18,1.22c1.51.82,2.69,1.98,3.55,3.49.85,1.51,1.28,3.28,1.28,5.29,0,.58-.04,1.18-.11,1.8Zm-6.19-3.42c0-1.06-.36-1.9-1.08-2.52-.72-.62-1.62-.94-2.7-.94s-1.9.3-2.61.9c-.71.6-1.15,1.45-1.31,2.56h7.7Z"/><path class="cls-1" d="m292.66,478.41c1.4,1.52,2.11,3.62,2.11,6.28v11.74h-6.12v-10.91c0-1.34-.35-2.39-1.04-3.13-.7-.74-1.63-1.12-2.81-1.12s-2.11.37-2.81,1.12c-.7.74-1.04,1.79-1.04,3.13v10.91h-6.16v-20.09h6.16v2.66c.62-.89,1.46-1.59,2.52-2.11,1.06-.52,2.24-.77,3.56-.77,2.35,0,4.23.76,5.63,2.29Z"/><path class="cls-1" d="m299.1,480.91c.85-1.56,2.04-2.76,3.56-3.6,1.52-.84,3.27-1.26,5.24-1.26,2.52,0,4.63.66,6.32,1.98s2.8,3.18,3.33,5.58h-6.55c-.55-1.54-1.62-2.3-3.2-2.3-1.13,0-2.03.44-2.7,1.31s-1.01,2.13-1.01,3.76.34,2.89,1.01,3.76c.67.88,1.57,1.31,2.7,1.31,1.58,0,2.65-.77,3.2-2.3h6.55c-.53,2.35-1.64,4.2-3.35,5.54-1.71,1.34-3.8,2.02-6.3,2.02-1.97,0-3.71-.42-5.24-1.26-1.52-.84-2.71-2.04-3.56-3.6-.85-1.56-1.28-3.38-1.28-5.47s.43-3.91,1.28-5.47Z"/><path class="cls-1" d="m339.66,487.86h-13.93c.1,1.25.5,2.2,1.21,2.86.71.66,1.58.99,2.61.99,1.54,0,2.6-.65,3.2-1.94h6.55c-.34,1.32-.94,2.51-1.82,3.56s-1.97,1.88-3.29,2.48c-1.32.6-2.8.9-4.43.9-1.97,0-3.72-.42-5.26-1.26s-2.74-2.04-3.6-3.6c-.86-1.56-1.3-3.38-1.3-5.47s.43-3.91,1.28-5.47c.85-1.56,2.05-2.76,3.58-3.6,1.54-.84,3.3-1.26,5.29-1.26s3.67.41,5.18,1.22c1.51.82,2.69,1.98,3.55,3.49.85,1.51,1.28,3.28,1.28,5.29,0,.58-.04,1.18-.11,1.8Zm-6.19-3.42c0-1.06-.36-1.9-1.08-2.52-.72-.62-1.62-.94-2.7-.94s-1.9.3-2.61.9c-.71.6-1.15,1.45-1.31,2.56h7.7Z"/><path class="cls-1" d="m349.63,490.74l-4,10.33h-3.92l2.09-10.33h5.83Z"/><path class="cls-1" d="m389.59,471.15v25.27h-6.16v-15.16l-5.65,15.16h-4.97l-5.69-15.19v15.19h-6.16v-25.27h7.27l7.09,17.5,7.02-17.5h7.24Z"/><path class="cls-1" d="m393.96,480.91c.78-1.56,1.84-2.76,3.19-3.6,1.34-.84,2.84-1.26,4.5-1.26,1.42,0,2.66.29,3.73.86,1.07.58,1.89,1.33,2.47,2.27v-2.84h6.16v20.09h-6.16v-2.84c-.6.94-1.43,1.69-2.5,2.27-1.07.58-2.31.86-3.73.86-1.63,0-3.12-.43-4.46-1.28-1.34-.85-2.41-2.06-3.19-3.64-.78-1.57-1.17-3.39-1.17-5.45s.39-3.88,1.17-5.44Zm12.6,1.84c-.85-.89-1.89-1.33-3.11-1.33s-2.26.44-3.11,1.31c-.85.88-1.28,2.08-1.28,3.62s.43,2.75,1.28,3.65c.85.9,1.89,1.35,3.11,1.35s2.26-.44,3.11-1.33c.85-.89,1.28-2.1,1.28-3.64s-.43-2.75-1.28-3.64Z"/><path class="cls-1" d="m429.66,491.21v5.22h-3.13c-2.23,0-3.97-.55-5.22-1.64s-1.87-2.87-1.87-5.35v-7.99h-2.45v-5.11h2.45v-4.9h6.16v4.9h4.03v5.11h-4.03v8.06c0,.6.14,1.03.43,1.3.29.26.77.4,1.44.4h2.2Z"/><path class="cls-1" d="m450.97,478.41c1.39,1.52,2.09,3.62,2.09,6.28v11.74h-6.12v-10.91c0-1.34-.35-2.39-1.04-3.13-.7-.74-1.63-1.12-2.81-1.12s-2.11.37-2.81,1.12c-.7.74-1.04,1.79-1.04,3.13v10.91h-6.16v-26.64h6.16v9.25c.62-.89,1.48-1.6,2.56-2.12,1.08-.53,2.29-.79,3.64-.79,2.3,0,4.15.76,5.54,2.29Z"/><path class="cls-1" d="m476.17,487.86h-13.93c.1,1.25.5,2.2,1.21,2.86.71.66,1.58.99,2.61.99,1.54,0,2.6-.65,3.2-1.94h6.55c-.34,1.32-.94,2.51-1.82,3.56s-1.97,1.88-3.29,2.48c-1.32.6-2.8.9-4.43.9-1.97,0-3.72-.42-5.26-1.26s-2.74-2.04-3.6-3.6c-.86-1.56-1.3-3.38-1.3-5.47s.43-3.91,1.28-5.47c.85-1.56,2.05-2.76,3.58-3.6,1.54-.84,3.3-1.26,5.29-1.26s3.67.41,5.18,1.22c1.51.82,2.69,1.98,3.55,3.49.85,1.51,1.28,3.28,1.28,5.29,0,.58-.04,1.18-.11,1.8Zm-6.19-3.42c0-1.06-.36-1.9-1.08-2.52-.72-.62-1.62-.94-2.7-.94s-1.9.3-2.61.9c-.71.6-1.15,1.45-1.31,2.56h7.7Z"/><path class="cls-1" d="m511.11,478.39c1.48,1.51,2.21,3.61,2.21,6.3v11.74h-6.12v-10.91c0-1.3-.34-2.3-1.03-3.01-.68-.71-1.63-1.06-2.83-1.06s-2.14.35-2.83,1.06c-.68.71-1.03,1.71-1.03,3.01v10.91h-6.12v-10.91c0-1.3-.34-2.3-1.03-3.01-.68-.71-1.63-1.06-2.83-1.06s-2.14.35-2.83,1.06c-.68.71-1.03,1.71-1.03,3.01v10.91h-6.16v-20.09h6.16v2.52c.62-.84,1.44-1.51,2.45-2,1.01-.49,2.15-.74,3.42-.74,1.51,0,2.86.32,4.05.97,1.19.65,2.12,1.57,2.79,2.77.7-1.1,1.64-2,2.84-2.7,1.2-.7,2.51-1.04,3.92-1.04,2.5,0,4.48.76,5.96,2.27Z"/><path class="cls-1" d="m517.58,480.91c.78-1.56,1.84-2.76,3.19-3.6,1.34-.84,2.84-1.26,4.5-1.26,1.42,0,2.66.29,3.72.86s1.89,1.33,2.47,2.27v-2.84h6.16v20.09h-6.16v-2.84c-.6.94-1.43,1.69-2.5,2.27s-2.31.86-3.73.86c-1.63,0-3.12-.43-4.46-1.28-1.35-.85-2.41-2.06-3.19-3.64-.78-1.57-1.17-3.39-1.17-5.45s.39-3.88,1.17-5.44Zm12.6,1.84c-.85-.89-1.89-1.33-3.12-1.33s-2.26.44-3.11,1.31c-.85.88-1.28,2.08-1.28,3.62s.43,2.75,1.28,3.65c.85.9,1.89,1.35,3.11,1.35s2.26-.44,3.12-1.33c.85-.89,1.28-2.1,1.28-3.64s-.43-2.75-1.28-3.64Z"/><path class="cls-1" d="m553.28,491.21v5.22h-3.13c-2.23,0-3.97-.55-5.22-1.64-1.25-1.09-1.87-2.87-1.87-5.35v-7.99h-2.45v-5.11h2.45v-4.9h6.16v4.9h4.03v5.11h-4.03v8.06c0,.6.14,1.03.43,1.3.29.26.77.4,1.44.4h2.2Z"/><path class="cls-1" d="m557.15,473.3c-.68-.64-1.03-1.42-1.03-2.36s.34-1.76,1.03-2.39c.68-.64,1.57-.95,2.65-.95s1.93.32,2.61.95c.68.64,1.03,1.43,1.03,2.39s-.34,1.72-1.03,2.36c-.68.64-1.55.95-2.61.95s-1.96-.32-2.65-.95Zm5.71,3.04v20.09h-6.16v-20.09h6.16Z"/><path class="cls-1" d="m567.37,480.91c.85-1.56,2.04-2.76,3.56-3.6,1.52-.84,3.27-1.26,5.24-1.26,2.52,0,4.63.66,6.32,1.98,1.69,1.32,2.8,3.18,3.33,5.58h-6.55c-.55-1.54-1.62-2.3-3.2-2.3-1.13,0-2.03.44-2.7,1.31-.67.88-1.01,2.13-1.01,3.76s.33,2.89,1.01,3.76c.67.88,1.57,1.31,2.7,1.31,1.58,0,2.65-.77,3.2-2.3h6.55c-.53,2.35-1.64,4.2-3.35,5.54-1.7,1.34-3.8,2.02-6.3,2.02-1.97,0-3.71-.42-5.24-1.26s-2.71-2.04-3.56-3.6c-.85-1.56-1.28-3.38-1.28-5.47s.43-3.91,1.28-5.47Z"/><path class="cls-1" d="m592.59,495.81c-1.37-.6-2.45-1.42-3.24-2.47s-1.24-2.21-1.33-3.51h6.08c.07.7.4,1.26.97,1.69.58.43,1.28.65,2.12.65.77,0,1.36-.15,1.78-.45.42-.3.63-.69.63-1.17,0-.58-.3-1-.9-1.28-.6-.28-1.57-.58-2.92-.92-1.44-.34-2.64-.69-3.6-1.06-.96-.37-1.79-.96-2.48-1.76-.7-.8-1.04-1.89-1.04-3.26,0-1.15.32-2.2.95-3.15.64-.95,1.57-1.7,2.81-2.25,1.24-.55,2.71-.83,4.41-.83,2.52,0,4.51.62,5.96,1.87,1.45,1.25,2.29,2.9,2.5,4.97h-5.69c-.1-.7-.4-1.25-.92-1.66-.52-.41-1.19-.61-2.03-.61-.72,0-1.27.14-1.66.41-.38.28-.58.65-.58,1.13,0,.58.31,1.01.92,1.3.61.29,1.57.58,2.86.86,1.49.38,2.7.76,3.64,1.13.94.37,1.76.97,2.47,1.8.71.83,1.07,1.94,1.1,3.33,0,1.18-.33,2.23-.99,3.15s-1.61,1.65-2.84,2.18c-1.24.53-2.67.79-4.3.79-1.75,0-3.31-.3-4.68-.9Z"/><path class="cls-1" d="m615.81,490.74l-4,10.33h-3.92l2.09-10.33h5.83Z"/><path class="cls-1" d="m631.32,495.78c-1.46-.6-2.63-1.49-3.51-2.66-.88-1.18-1.34-2.59-1.39-4.25h6.55c.09.94.42,1.65.97,2.14.55.49,1.27.74,2.16.74s1.63-.21,2.16-.63c.53-.42.79-1,.79-1.75,0-.62-.21-1.14-.63-1.55s-.94-.74-1.55-1.01c-.61-.26-1.48-.56-2.61-.9-1.63-.5-2.96-1.01-4-1.51-1.03-.5-1.92-1.25-2.66-2.23-.74-.98-1.12-2.27-1.12-3.85,0-2.35.85-4.19,2.56-5.53s3.92-2,6.66-2,5.03.67,6.73,2c1.7,1.33,2.62,3.19,2.74,5.56h-6.66c-.05-.82-.35-1.46-.9-1.93-.55-.47-1.26-.7-2.12-.7-.74,0-1.34.2-1.8.59-.46.4-.68.97-.68,1.71,0,.82.38,1.45,1.15,1.91.77.46,1.97.95,3.6,1.48,1.63.55,2.96,1.08,3.98,1.58,1.02.5,1.9,1.24,2.65,2.2s1.12,2.2,1.12,3.71-.37,2.75-1.1,3.92c-.73,1.18-1.79,2.11-3.19,2.81s-3.04,1.04-4.93,1.04-3.5-.3-4.97-.9Z"/><path class="cls-1" d="m660.48,491.21v5.22h-3.13c-2.23,0-3.97-.55-5.22-1.64-1.25-1.09-1.87-2.87-1.87-5.35v-7.99h-2.45v-5.11h2.45v-4.9h6.16v4.9h4.03v5.11h-4.03v8.06c0,.6.14,1.03.43,1.3.29.26.77.4,1.44.4h2.2Z"/><path class="cls-1" d="m663.85,480.91c.78-1.56,1.84-2.76,3.19-3.6,1.34-.84,2.84-1.26,4.5-1.26,1.42,0,2.66.29,3.73.86,1.07.58,1.89,1.33,2.47,2.27v-2.84h6.16v20.09h-6.16v-2.84c-.6.94-1.43,1.69-2.5,2.27s-2.31.86-3.73.86c-1.63,0-3.12-.43-4.46-1.28-1.34-.85-2.41-2.06-3.19-3.64-.78-1.57-1.17-3.39-1.17-5.45s.39-3.88,1.17-5.44Zm12.6,1.84c-.85-.89-1.89-1.33-3.11-1.33s-2.26.44-3.11,1.31c-.85.88-1.28,2.08-1.28,3.62s.43,2.75,1.28,3.65c.85.9,1.89,1.35,3.11,1.35s2.26-.44,3.11-1.33c.85-.89,1.28-2.1,1.28-3.64s-.43-2.75-1.28-3.64Z"/><path class="cls-1" d="m699.54,491.21v5.22h-3.13c-2.23,0-3.97-.55-5.22-1.64-1.25-1.09-1.87-2.87-1.87-5.35v-7.99h-2.45v-5.11h2.45v-4.9h6.16v4.9h4.03v5.11h-4.03v8.06c0,.6.14,1.03.43,1.3.29.26.77.4,1.44.4h2.2Z"/><path class="cls-1" d="m703.41,473.3c-.68-.64-1.03-1.42-1.03-2.36s.34-1.76,1.03-2.39c.68-.64,1.57-.95,2.65-.95s1.93.32,2.61.95c.68.64,1.03,1.43,1.03,2.39s-.34,1.72-1.03,2.36c-.68.64-1.55.95-2.61.95s-1.96-.32-2.65-.95Zm5.71,3.04v20.09h-6.16v-20.09h6.16Z"/><path class="cls-1" d="m717.07,495.81c-1.37-.6-2.45-1.42-3.24-2.47s-1.24-2.21-1.33-3.51h6.08c.07.7.4,1.26.97,1.69.58.43,1.28.65,2.12.65.77,0,1.36-.15,1.78-.45.42-.3.63-.69.63-1.17,0-.58-.3-1-.9-1.28-.6-.28-1.57-.58-2.92-.92-1.44-.34-2.64-.69-3.6-1.06-.96-.37-1.79-.96-2.48-1.76-.7-.8-1.04-1.89-1.04-3.26,0-1.15.32-2.2.95-3.15.64-.95,1.57-1.7,2.81-2.25,1.24-.55,2.71-.83,4.41-.83,2.52,0,4.51.62,5.96,1.87,1.45,1.25,2.29,2.9,2.5,4.97h-5.69c-.1-.7-.4-1.25-.92-1.66-.52-.41-1.19-.61-2.03-.61-.72,0-1.27.14-1.66.41-.38.28-.58.65-.58,1.13,0,.58.31,1.01.92,1.3.61.29,1.57.58,2.86.86,1.49.38,2.7.76,3.64,1.13.94.37,1.76.97,2.47,1.8.71.83,1.07,1.94,1.1,3.33,0,1.18-.33,2.23-.99,3.15s-1.61,1.65-2.84,2.18c-1.24.53-2.67.79-4.3.79-1.75,0-3.31-.3-4.68-.9Z"/><path class="cls-1" d="m744.87,491.21v5.22h-3.13c-2.23,0-3.97-.55-5.22-1.64-1.25-1.09-1.87-2.87-1.87-5.35v-7.99h-2.45v-5.11h2.45v-4.9h6.16v4.9h4.03v5.11h-4.03v8.06c0,.6.14,1.03.43,1.3.29.26.77.4,1.44.4h2.2Z"/><path class="cls-1" d="m748.74,473.3c-.68-.64-1.03-1.42-1.03-2.36s.34-1.76,1.03-2.39c.68-.64,1.57-.95,2.65-.95s1.93.32,2.61.95c.68.64,1.03,1.43,1.03,2.39s-.34,1.72-1.03,2.36c-.68.64-1.55.95-2.61.95s-1.96-.32-2.65-.95Zm5.71,3.04v20.09h-6.16v-20.09h6.16Z"/><path class="cls-1" d="m758.96,480.91c.85-1.56,2.04-2.76,3.56-3.6,1.52-.84,3.27-1.26,5.24-1.26,2.52,0,4.63.66,6.32,1.98,1.69,1.32,2.8,3.18,3.33,5.58h-6.55c-.55-1.54-1.62-2.3-3.2-2.3-1.13,0-2.03.44-2.7,1.31-.67.88-1.01,2.13-1.01,3.76s.33,2.89,1.01,3.76c.67.88,1.57,1.31,2.7,1.31,1.58,0,2.65-.77,3.2-2.3h6.55c-.53,2.35-1.64,4.2-3.35,5.54-1.7,1.34-3.8,2.02-6.3,2.02-1.97,0-3.71-.42-5.24-1.26s-2.71-2.04-3.56-3.6c-.85-1.56-1.28-3.38-1.28-5.47s.43-3.91,1.28-5.47Z"/><path class="cls-1" d="m780.63,480.91c.78-1.56,1.84-2.76,3.19-3.6,1.34-.84,2.84-1.26,4.5-1.26,1.42,0,2.66.29,3.73.86,1.07.58,1.89,1.33,2.47,2.27v-2.84h6.16v20.09h-6.16v-2.84c-.6.94-1.43,1.69-2.5,2.27s-2.31.86-3.73.86c-1.63,0-3.12-.43-4.46-1.28-1.34-.85-2.41-2.06-3.19-3.64-.78-1.57-1.17-3.39-1.17-5.45s.39-3.88,1.17-5.44Zm12.6,1.84c-.85-.89-1.89-1.33-3.11-1.33s-2.26.44-3.11,1.31c-.85.88-1.28,2.08-1.28,3.62s.43,2.75,1.28,3.65c.85.9,1.89,1.35,3.11,1.35s2.26-.44,3.11-1.33c.85-.89,1.28-2.1,1.28-3.64s-.43-2.75-1.28-3.64Z"/><path class="cls-1" d="m811.29,469.79v26.64h-6.16v-26.64h6.16Z"/><path class="cls-1" d="m839.83,472.74c1.99,1.06,3.53,2.54,4.63,4.45,1.09,1.91,1.64,4.11,1.64,6.61s-.55,4.67-1.64,6.59-2.64,3.41-4.64,4.46c-2,1.06-4.33,1.58-6.97,1.58h-9.47v-25.27h9.47c2.66,0,4.99.53,6.98,1.58Zm-1.94,16.45c1.3-1.27,1.94-3.07,1.94-5.4s-.65-4.14-1.94-5.44c-1.3-1.3-3.11-1.94-5.44-1.94h-2.92v14.69h2.92c2.33,0,4.14-.64,5.44-1.91Z"/><path class="cls-1" d="m849.5,480.91c.78-1.56,1.84-2.76,3.19-3.6,1.34-.84,2.84-1.26,4.5-1.26,1.42,0,2.66.29,3.73.86,1.07.58,1.89,1.33,2.47,2.27v-2.84h6.16v20.09h-6.16v-2.84c-.6.94-1.43,1.69-2.5,2.27s-2.31.86-3.73.86c-1.63,0-3.12-.43-4.46-1.28-1.34-.85-2.41-2.06-3.19-3.64-.78-1.57-1.17-3.39-1.17-5.45s.39-3.88,1.17-5.44Zm12.6,1.84c-.85-.89-1.89-1.33-3.11-1.33s-2.26.44-3.11,1.31c-.85.88-1.28,2.08-1.28,3.62s.43,2.75,1.28,3.65c.85.9,1.89,1.35,3.11,1.35s2.26-.44,3.11-1.33c.85-.89,1.28-2.1,1.28-3.64s-.43-2.75-1.28-3.64Z"/><path class="cls-1" d="m885.19,491.21v5.22h-3.13c-2.23,0-3.97-.55-5.22-1.64-1.25-1.09-1.87-2.87-1.87-5.35v-7.99h-2.45v-5.11h2.45v-4.9h6.16v4.9h4.03v5.11h-4.03v8.06c0,.6.14,1.03.43,1.3.29.26.77.4,1.44.4h2.2Z"/><path class="cls-1" d="m888.56,480.91c.78-1.56,1.84-2.76,3.19-3.6,1.34-.84,2.84-1.26,4.5-1.26,1.42,0,2.66.29,3.73.86,1.07.58,1.89,1.33,2.47,2.27v-2.84h6.16v20.09h-6.16v-2.84c-.6.94-1.43,1.69-2.5,2.27s-2.31.86-3.73.86c-1.63,0-3.12-.43-4.46-1.28-1.34-.85-2.41-2.06-3.19-3.64-.78-1.57-1.17-3.39-1.17-5.45s.39-3.88,1.17-5.44Zm12.6,1.84c-.85-.89-1.89-1.33-3.11-1.33s-2.26.44-3.11,1.31c-.85.88-1.28,2.08-1.28,3.62s.43,2.75,1.28,3.65c.85.9,1.89,1.35,3.11,1.35s2.26-.44,3.11-1.33c.85-.89,1.28-2.1,1.28-3.64s-.43-2.75-1.28-3.64Z"/><path class="cls-1" d="m936.42,491.96h-9.43l-1.51,4.46h-6.44l9.14-25.27h7.13l9.14,25.27h-6.52l-1.51-4.46Zm-1.58-4.75l-3.13-9.25-3.1,9.25h6.23Z"/><path class="cls-1" d="m965.09,478.41c1.4,1.52,2.11,3.62,2.11,6.28v11.74h-6.12v-10.91c0-1.34-.35-2.39-1.04-3.13-.7-.74-1.63-1.12-2.81-1.12s-2.11.37-2.81,1.12c-.7.74-1.04,1.79-1.04,3.13v10.91h-6.16v-20.09h6.16v2.66c.62-.89,1.46-1.59,2.52-2.11,1.06-.52,2.24-.77,3.56-.77,2.35,0,4.23.76,5.63,2.29Z"/><path class="cls-1" d="m971.43,480.91c.78-1.56,1.84-2.76,3.19-3.6,1.34-.84,2.84-1.26,4.5-1.26,1.42,0,2.66.29,3.73.86,1.07.58,1.89,1.33,2.47,2.27v-2.84h6.16v20.09h-6.16v-2.84c-.6.94-1.43,1.69-2.5,2.27s-2.31.86-3.73.86c-1.63,0-3.12-.43-4.46-1.28-1.34-.85-2.41-2.06-3.19-3.64-.78-1.57-1.17-3.39-1.17-5.45s.39-3.88,1.17-5.44Zm12.6,1.84c-.85-.89-1.89-1.33-3.11-1.33s-2.26.44-3.11,1.31c-.85.88-1.28,2.08-1.28,3.62s.43,2.75,1.28,3.65c.85.9,1.89,1.35,3.11,1.35s2.26-.44,3.11-1.33c.85-.89,1.28-2.1,1.28-3.64s-.43-2.75-1.28-3.64Z"/><path class="cls-1" d="m1002.08,469.79v26.64h-6.16v-26.64h6.16Z"/><path class="cls-1" d="m1027.07,476.34l-12.6,29.63h-6.62l4.61-10.22-8.17-19.4h6.88l4.64,12.56,4.61-12.56h6.66Z"/><path class="cls-1" d="m1032.79,495.81c-1.37-.6-2.45-1.42-3.24-2.47s-1.24-2.21-1.33-3.51h6.08c.07.7.4,1.26.97,1.69.58.43,1.28.65,2.12.65.77,0,1.36-.15,1.78-.45.42-.3.63-.69.63-1.17,0-.58-.3-1-.9-1.28-.6-.28-1.57-.58-2.92-.92-1.44-.34-2.64-.69-3.6-1.06-.96-.37-1.79-.96-2.48-1.76-.7-.8-1.04-1.89-1.04-3.26,0-1.15.32-2.2.95-3.15.64-.95,1.57-1.7,2.81-2.25,1.24-.55,2.71-.83,4.41-.83,2.52,0,4.51.62,5.96,1.87,1.45,1.25,2.29,2.9,2.5,4.97h-5.69c-.1-.7-.4-1.25-.92-1.66-.52-.41-1.19-.61-2.03-.61-.72,0-1.27.14-1.66.41-.38.28-.58.65-.58,1.13,0,.58.31,1.01.92,1.3.61.29,1.57.58,2.86.86,1.49.38,2.7.76,3.64,1.13.94.37,1.76.97,2.47,1.8.71.83,1.07,1.94,1.1,3.33,0,1.18-.33,2.23-.99,3.15s-1.61,1.65-2.84,2.18c-1.24.53-2.67.79-4.3.79-1.75,0-3.31-.3-4.68-.9Z"/><path class="cls-1" d="m1049.84,473.3c-.68-.64-1.03-1.42-1.03-2.36s.34-1.76,1.03-2.39c.68-.64,1.57-.95,2.65-.95s1.93.32,2.61.95c.68.64,1.03,1.43,1.03,2.39s-.34,1.72-1.03,2.36c-.68.64-1.55.95-2.61.95s-1.96-.32-2.65-.95Zm5.71,3.04v20.09h-6.16v-20.09h6.16Z"/><path class="cls-1" d="m1063.5,495.81c-1.37-.6-2.45-1.42-3.24-2.47s-1.24-2.21-1.33-3.51h6.08c.07.7.4,1.26.97,1.69.58.43,1.28.65,2.12.65.77,0,1.36-.15,1.78-.45.42-.3.63-.69.63-1.17,0-.58-.3-1-.9-1.28-.6-.28-1.57-.58-2.92-.92-1.44-.34-2.64-.69-3.6-1.06-.96-.37-1.79-.96-2.48-1.76-.7-.8-1.04-1.89-1.04-3.26,0-1.15.32-2.2.95-3.15.64-.95,1.57-1.7,2.81-2.25,1.24-.55,2.71-.83,4.41-.83,2.52,0,4.51.62,5.96,1.87,1.45,1.25,2.29,2.9,2.5,4.97h-5.69c-.1-.7-.4-1.25-.92-1.66-.52-.41-1.19-.61-2.03-.61-.72,0-1.27.14-1.66.41-.38.28-.58.65-.58,1.13,0,.58.31,1.01.92,1.3.61.29,1.57.58,2.86.86,1.49.38,2.7.76,3.64,1.13.94.37,1.76.97,2.47,1.8.71.83,1.07,1.94,1.1,3.33,0,1.18-.33,2.23-.99,3.15s-1.61,1.65-2.84,2.18c-1.24.53-2.67.79-4.3.79-1.75,0-3.31-.3-4.68-.9Z"/></g></svg>