<?xml version="1.0" encoding="UTF-8"?><svg id="Layer_1" xmlns="http://www.w3.org/2000/svg" viewBox="0 0 1452 539.26"><defs><style>.cls-1{fill:#fff;}</style></defs><path class="cls-1" d="m579.84,352.16v-18.82c-16.03-3.26-30.94-6.39-45.89-9.31-25.36-4.97-50.08-12.22-74.43-20.78-19.51-6.86-38.54-14.92-56.76-24.74-15.13-8.15-29.63-17.32-42.81-28.37-13.83-11.6-25.72-24.95-33.59-41.39-2.42-5.05-3.79-10.59-5.69-15.89-.22-.61-.73-1.12-1.4-1.42-.29-10.06-.29-20.38-.29-31.1.57-.82,1.53-1.14,1.65-1.66,3.54-14.63,11.25-26.86,20.95-38.17,16.16-18.85,36.35-32.23,57.81-44.1,22.26-12.31,45.69-21.73,69.74-29.89,23.82-8.08,48.03-14.52,72.62-19.62,12.75-2.64,25.48-5.47,38.32-7.62,11.28-1.89,22.7-3,34.07-4.39,10.99-1.34,21.98-2.59,33.3-3.92.13,1.63.27,2.72.28,3.8.06,7.38,0,7.01-7.2,7.92-13.55,1.7-27.08,3.7-40.56,5.9-12.73,2.08-25.46,4.27-38.07,6.98-13.09,2.81-26.23,5.66-38.99,9.64-19.15,5.97-38.26,12.24-56.86,19.7-14.02,5.62-27.47,12.86-40.71,20.22-10.23,5.7-20.23,12.07-29.43,19.3-13.14,10.32-24.88,22.19-33.07,37.08-6.05,11-9.82,22.63-9.49,35.28.41,15.75,6.27,29.73,15.14,42.43,7.99,11.46,18.17,20.78,29.13,29.48,15.97,12.69,33.6,22.47,51.94,30.94,24.02,11.09,48.96,19.8,74.66,26.21,12.6,3.14,25.21,6.2,37.87,9.1,5.49,1.26,11.09,2.01,16.96,3.05v-14.39c23.76,10.37,47.01,20.53,71.13,31.06-7.67,2-14.39,3.8-21.13,5.49-14.99,3.76-29.99,7.47-45,11.18-.68.17-1.41.13-2.53.53-.84.33-1.26.32-1.69.32l.02-.03h0Z"/><path class="cls-1" d="m1119,190.42c-.57.81-1.54,1.14-1.65,1.65-2.93,13.48-9.43,25.15-17.87,35.89-15.11,19.22-34.45,33.17-55.37,45.36-19.6,11.42-40.03,20.93-61.47,28.19-16.55,5.6-33.15,11.19-49.99,15.79-15.74,4.3-31.78,7.55-47.78,10.79-13.2,2.67-26.51,4.84-39.82,6.86-8.17,1.24-16.44,1.78-24.66,2.67-3.03.33-6.05.73-9.33,1.12v-10.86c19.34-3.07,38.73-5.36,57.76-9.37,20.89-4.4,41.57-9.96,62.13-15.76,24.59-6.93,48.19-16.58,70.81-28.5,15.23-8.03,29.7-17.21,42.92-28.33,12.48-10.5,23.48-22.27,31.2-36.7,4.1-7.65,6.78-15.9,8-24.64,3.1-22.24-4.99-40.78-18.21-57.89-13.23-17.12-30.32-29.56-48.58-40.52-24.23-14.54-50.14-25.51-77.14-33.57-20.46-6.11-41.3-10.98-62.01-16.24-5.49-1.39-11.12-2.2-17.11-3.36v17.94c-24.01-10.46-47.24-20.59-71.4-31.12,20.56-5.18,39.98-10.08,59.39-14.99,1.56-.4,3.09-.93,4.37-1.7,1.77-.3,3.81-.3,6.22.1.38,5.24.38,10.08.38,14.85,11.27,2.11,22.29,3.73,33.08,6.29,22.27,5.3,44.62,10.41,66.56,16.89,27.12,8.02,53.32,18.57,78.12,32.39,20.52,11.44,39.86,24.31,55.74,41.96,11.32,12.58,20.48,26.2,24.08,43.04.11.51,1.08.84,1.65,1.25v30.5l-.02.02h0Z"/><path class="cls-1" d="m757.63,257.78v-107.09c1.41-.07,2.64-.2,3.88-.2,13.45,0,26.9-.29,40.34.05,22.66.58,42.23,16.25,45.2,40.21,1.48,11.92-.48,22.73-7.08,32.5-6.75,9.99-16.7,14.97-28.65,15.57-7.41.37-14.84.07-22.62.07v40.09h-31.08v-21.2m38.58-95.26h-7.68v58.71c0,4.87,1.11,5.7,5.86,4.44.66-.18,1.32-.41,2-.5,7.6-1.02,12.55-5.31,15.34-12.31,3.94-9.91,3.24-20.13,1.39-30.21-1.72-9.35-6.14-17.08-16.91-20.14h0Z"/><path class="cls-1" d="m881.23,279.24h-15.2v-128.56c1.12-.06,2.35-.19,3.57-.19,13.3,0,26.6-.1,39.89.02,12.16.1,23.01,4.47,31.73,12.58,8.68,8.07,13.15,18.46,14,30.69.79,11.3-1.6,21.45-7.99,30.5-5.22,7.4-12.61,12.48-21.64,13.59-9.39,1.16-18.94,1.02-28.77,1.46v39.91h-15.6m35.71-108.08c-5.15-6.6-11.68-9.73-20.26-8.33v57.61c0,.71.06,1.43-.01,2.14-.27,2.61.88,3.69,3.47,3.45,9.52-.88,17.26-3.94,20.46-15.25,3.75-13.26,2.7-26.45-3.65-39.62h0Z"/><path class="cls-1" d="m463.21,105.16h35.9v113.86h48.83v19.65h-85.59c0-44.01,0-88.01.21-132.5.41-.61.56-.78.64-1.01h0Z"/><path class="cls-1" d="m712.01,238.9c-15.5,3.6-30.12,2.96-42.96-6.78-6.48-4.92-9.81-12.45-9.98-20.39-.46-20.84-.16-41.69-.16-62.75h30.9v4.18c0,17.3-.09,34.6.05,51.91.04,5.63,1.06,11.39,5.97,14.85,7.67,5.41,18.79,2.93,20.52-9.36.71-5.01.86-10.13.9-15.2.11-15.41.04-30.82.04-46.41h15.44v18.01c0,13.44-.12,26.88.04,40.32.1,8.95-1.8,17.38-7.94,23.88-3.25,3.43-8.25,5.21-12.82,7.73h0Z"/><path class="cls-1" d="m635.74,213.67c-1.52,6.11-2.96,11.7-6.97,16.53-4.31,5.19-9.69,8.33-15.93,9.41-10.68,1.85-21.32,1.84-31.8-2.3-10.25-4.05-16.65-11.35-18.03-21.84-1.33-10.08-.93-20.4-1.05-30.61-.14-11.85-.03-23.7-.03-35.83h30.7c.06,1.07.19,2.29.19,3.52.01,16.58-.09,33.17.08,49.75.04,3.56.89,7.14,1.62,10.66,1.48,7.13,10.35,12.45,18.45,7.85,2.31-1.31,4.37-4.01,5.32-6.54,1.29-3.43,1.88-7.29,1.92-10.98.18-18.05.08-36.1.08-54.34h15.45v64.71h0Z"/><path class="cls-1" d="m973.21,238.05c-.05-29.21-.09-58.43.08-88.12.41-.62.54-.8.63-1.02h30.64v89.98c-9.96,0-19.9,0-30.33-.22-.62-.41-.8-.54-1.02-.62Z"/><path class="cls-1" d="m981.26,130.6c-10.47-4.27-13.09-16.82-9.17-24.29,3.12-5.93,12.05-10.29,19.56-8.49,6.85,1.64,12.13,4.45,13.79,11.22,1.72,7.02.21,13.78-5.76,18.65-5.38,4.39-11.57,4.99-18.43,2.91,0,0,.01,0,.01,0Z"/><path class="cls-1" d="m973.69,148.87c.14.26,0,.44-.33.66-.07-.18.02-.44.33-.66Z"/><path class="cls-1" d="m973.17,238.28c.26-.15.44,0,.66.32-.18.07-.44,0-.66-.32Z"/><path class="cls-1" d="m462.98,105.1c.15.28,0,.46-.35.67-.06-.19.03-.46.35-.67Z"/><g><path class="cls-1" d="m255.4,403.82v-11.22h46v11.22h-16.56v51.34h-12.7v-51.34h-16.74Z"/><path class="cls-1" d="m302.6,455.15l14.08-62.56h24.1l14.08,62.56h-12.7l-2.48-11.32h-21.9l-2.48,11.32h-12.7Zm23.92-52.07l-6.35,29.72h17.11l-6.35-29.72h-4.42Z"/><path class="cls-1" d="m365.06,455.15v-62.56h21.62l11.04,45.63,11.04-45.63h21.62v62.56h-12.7v-48.39h-1.38l-12.24,45.63h-12.7l-12.24-45.63h-1.38v48.39h-12.7Z"/><path class="cls-1" d="m468.84,436.94h-10.3v18.22h-12.7v-62.56h23c14.84,0,22.26,7.24,22.26,21.71,0,7.3-1.89,12.9-5.66,16.79-3.77,3.9-9.31,5.84-16.61,5.84Zm-10.3-10.86h10.21c6.32,0,9.48-3.92,9.48-11.78,0-3.86-.77-6.64-2.3-8.33-1.53-1.69-3.93-2.53-7.18-2.53h-10.21v22.63Z"/><path class="cls-1" d="m501.87,455.15v-62.56h40.48v11.04h-27.78v14.63h22.26v10.86h-22.26v15h27.78v11.04h-40.48Z"/><path class="cls-1" d="m567.37,434.18v20.98h-12.7v-62.56h24.29c14.72,0,22.08,6.87,22.08,20.61,0,8.16-3.07,14.17-9.2,18.03l8.93,23.92h-13.89l-7.27-20.98h-12.24Zm18.49-13.62c1.47-1.84,2.21-4.26,2.21-7.27s-.78-5.4-2.35-7.18c-1.56-1.78-3.82-2.67-6.76-2.67h-11.59v19.87h11.78c3,0,5.24-.92,6.72-2.76Z"/><path class="cls-1" d="m613.55,455.15v-62.56h40.48v11.04h-27.78v14.63h22.26v10.86h-22.26v15h27.78v11.04h-40.48Z"/><path class="cls-1" d="m700.58,434.27c0,7.3,3.71,10.95,11.13,10.95s11.13-3.65,11.13-10.95v-41.68h12.7v41.4c0,7.67-1.98,13.29-5.93,16.88-3.96,3.59-9.92,5.38-17.89,5.38s-13.94-1.79-17.89-5.38-5.93-9.21-5.93-16.88v-41.4h12.7v41.68Z"/><path class="cls-1" d="m750.44,455.15v-62.56h21.44l15.09,51.52h.92v-51.52h12.7v62.56h-20.88l-15.64-51.52h-.92v51.52h-12.7Z"/><path class="cls-1" d="m816.04,455.15v-62.56h12.7v62.56h-12.7Z"/><path class="cls-1" d="m878.05,392.59h13.34l-14.54,62.56h-23.46l-14.54-62.56h13.34l10.86,51.52h4.14l10.86-51.52Z"/><path class="cls-1" d="m901.51,455.15v-62.56h40.48v11.04h-27.78v14.63h22.26v10.86h-22.26v15h27.78v11.04h-40.48Z"/><path class="cls-1" d="m967.01,434.18v20.98h-12.7v-62.56h24.29c14.72,0,22.08,6.87,22.08,20.61,0,8.16-3.07,14.17-9.2,18.03l8.92,23.92h-13.89l-7.27-20.98h-12.24Zm18.49-13.62c1.47-1.84,2.21-4.26,2.21-7.27s-.78-5.4-2.35-7.18c-1.56-1.78-3.82-2.67-6.76-2.67h-11.59v19.87h11.78c3,0,5.24-.92,6.72-2.76Z"/><path class="cls-1" d="m1032.42,402.53c-6.69,0-10.03,2.21-10.03,6.62,0,1.96.83,3.47,2.48,4.51,1.66,1.04,5.53,2.55,11.64,4.51,6.1,1.96,10.38,4.19,12.83,6.67,2.45,2.48,3.68,6.3,3.68,11.45,0,6.56-1.99,11.53-5.98,14.9-3.99,3.37-9.2,5.06-15.64,5.06-4.78,0-10.64-.74-17.57-2.21l-3.31-.64,1.29-9.84c8.22,1.1,14.5,1.66,18.86,1.66,6.5,0,9.75-2.7,9.75-8.1,0-1.96-.75-3.5-2.25-4.6-1.5-1.1-4.49-2.3-8.97-3.59-7.12-2.02-12.13-4.43-15.04-7.22-2.91-2.79-4.37-6.67-4.37-11.64,0-6.26,1.9-10.92,5.7-13.98,3.8-3.07,9.02-4.6,15.64-4.6,4.54,0,10.3.61,17.3,1.84l3.31.64-1.01,10.03c-8.65-.98-14.75-1.47-18.31-1.47Z"/><path class="cls-1" d="m1065.08,455.15v-62.56h12.7v62.56h-12.7Z"/><path class="cls-1" d="m1087.62,403.82v-11.22h46v11.22h-16.56v51.34h-12.7v-51.34h-16.74Z"/><path class="cls-1" d="m1168.67,455.15h-12.7v-25.3l-19.32-37.26h14.08l11.5,24.93,11.5-24.93h14.08l-19.14,37.26v25.3Z"/></g><g><path class="cls-1" d="m29.39,526.98c-3.53.77-6.72,1.15-9.55,1.15s-5.1-.35-6.8-1.05c-1.7-.7-3.03-1.82-4-3.35-.97-1.53-1.63-3.33-2-5.4-.37-2.07-.55-4.67-.55-7.8,0-6.57.92-11.14,2.77-13.72s5.26-3.88,10.23-3.88c2.87,0,6.18.45,9.95,1.35l-.2,5.5c-3.3-.5-6.04-.75-8.23-.75s-3.74.29-4.67.88c-.93.58-1.62,1.69-2.08,3.33-.45,1.63-.67,4.42-.67,8.35s.46,6.66,1.38,8.17c.92,1.52,2.75,2.28,5.5,2.28s5.67-.23,8.77-.7l.15,5.65Z"/><path class="cls-1" d="m57.72,523.91c-2.12,2.82-5.76,4.22-10.93,4.22s-8.81-1.41-10.92-4.22c-2.12-2.82-3.17-7.22-3.17-13.22s1.06-10.46,3.17-13.38c2.12-2.92,5.76-4.38,10.92-4.38s8.81,1.46,10.93,4.38c2.12,2.92,3.17,7.38,3.17,13.38s-1.06,10.41-3.17,13.22Zm-16.45-4.4c.98,1.75,2.83,2.62,5.52,2.62s4.54-.88,5.53-2.62c.98-1.75,1.47-4.68,1.47-8.8s-.5-7.11-1.5-8.97c-1-1.87-2.83-2.8-5.5-2.8s-4.5.93-5.5,2.8c-1,1.87-1.5,4.86-1.5,8.97s.49,7.05,1.48,8.8Z"/><path class="cls-1" d="m66.29,527.53v-34h11.75l6,24.8,6-24.8h11.75v34h-6.9v-26.3h-.75l-6.65,24.8h-6.9l-6.65-24.8h-.75v26.3h-6.9Z"/><path class="cls-1" d="m121.19,517.63h-5.6v9.9h-6.9v-34h12.5c8.07,0,12.1,3.93,12.1,11.8,0,3.97-1.02,7.01-3.07,9.12-2.05,2.12-5.06,3.17-9.02,3.17Zm-5.6-5.9h5.55c3.43,0,5.15-2.13,5.15-6.4,0-2.1-.42-3.61-1.25-4.52-.83-.92-2.13-1.38-3.9-1.38h-5.55v12.3Z"/><path class="cls-1" d="m144.24,516.18c0,3.97,2.02,5.95,6.05,5.95s6.05-1.98,6.05-5.95v-22.65h6.9v22.5c0,4.17-1.07,7.22-3.22,9.17-2.15,1.95-5.39,2.92-9.73,2.92s-7.58-.97-9.73-2.92-3.23-5.01-3.23-9.17v-22.5h6.9v22.65Z"/><path class="cls-1" d="m166.79,499.63v-6.1h25v6.1h-9v27.9h-6.9v-27.9h-9.1Z"/><path class="cls-1" d="m195.64,527.53v-34h22v6h-15.1v7.95h12.1v5.9h-12.1v8.15h15.1v6h-22Z"/><path class="cls-1" d="m229.74,516.13v11.4h-6.9v-34h13.2c8,0,12,3.73,12,11.2,0,4.43-1.67,7.7-5,9.8l4.85,13h-7.55l-3.95-11.4h-6.65Zm10.05-7.4c.8-1,1.2-2.32,1.2-3.95s-.43-2.93-1.27-3.9c-.85-.97-2.08-1.45-3.68-1.45h-6.3v10.8h6.4c1.63,0,2.85-.5,3.65-1.5Z"/><path class="cls-1" d="m274.29,498.93c-3.63,0-5.45,1.2-5.45,3.6,0,1.07.45,1.88,1.35,2.45.9.57,3.01,1.38,6.33,2.45,3.32,1.07,5.64,2.27,6.98,3.62,1.33,1.35,2,3.42,2,6.22,0,3.57-1.08,6.27-3.25,8.1-2.17,1.83-5,2.75-8.5,2.75-2.6,0-5.78-.4-9.55-1.2l-1.8-.35.7-5.35c4.47.6,7.88.9,10.25.9,3.53,0,5.3-1.47,5.3-4.4,0-1.07-.41-1.9-1.23-2.5-.82-.6-2.44-1.25-4.88-1.95-3.87-1.1-6.59-2.41-8.17-3.92-1.58-1.52-2.38-3.62-2.38-6.33,0-3.4,1.03-5.93,3.1-7.6,2.07-1.67,4.9-2.5,8.5-2.5,2.47,0,5.6.33,9.4,1l1.8.35-.55,5.45c-4.7-.53-8.02-.8-9.95-.8Z"/><path class="cls-1" d="m312.09,526.98c-3.53.77-6.72,1.15-9.55,1.15s-5.1-.35-6.8-1.05c-1.7-.7-3.03-1.82-4-3.35-.97-1.53-1.63-3.33-2-5.4-.37-2.07-.55-4.67-.55-7.8,0-6.57.92-11.14,2.77-13.72s5.26-3.88,10.23-3.88c2.87,0,6.18.45,9.95,1.35l-.2,5.5c-3.3-.5-6.04-.75-8.23-.75s-3.74.29-4.67.88c-.93.58-1.62,1.69-2.08,3.33-.45,1.63-.67,4.42-.67,8.35s.46,6.66,1.38,8.17c.92,1.52,2.75,2.28,5.5,2.28s5.67-.23,8.77-.7l.15,5.65Z"/><path class="cls-1" d="m317.19,527.53v-34h6.9v34h-6.9Z"/><path class="cls-1" d="m330.99,527.53v-34h22v6h-15.1v7.95h12.1v5.9h-12.1v8.15h15.1v6h-22Z"/><path class="cls-1" d="m358.19,527.53v-34h11.65l8.2,28h.5v-28h6.9v34h-11.35l-8.5-28h-.5v28h-6.9Z"/><path class="cls-1" d="m413.89,526.98c-3.53.77-6.72,1.15-9.55,1.15s-5.1-.35-6.8-1.05c-1.7-.7-3.03-1.82-4-3.35-.97-1.53-1.63-3.33-2-5.4-.37-2.07-.55-4.67-.55-7.8,0-6.57.93-11.14,2.78-13.72s5.26-3.88,10.22-3.88c2.87,0,6.18.45,9.95,1.35l-.2,5.5c-3.3-.5-6.04-.75-8.22-.75s-3.74.29-4.67.88c-.93.58-1.62,1.69-2.08,3.33-.45,1.63-.67,4.42-.67,8.35s.46,6.66,1.38,8.17c.92,1.52,2.75,2.28,5.5,2.28s5.67-.23,8.77-.7l.15,5.65Z"/><path class="cls-1" d="m418.99,527.53v-34h22v6h-15.1v7.95h12.1v5.9h-12.1v8.15h15.1v6h-22Z"/><path class="cls-1" d="m455.79,517.28v-6.1h14.8v6.1h-14.8Z"/><path class="cls-1" d="m487.09,527.53v-34h11.75l6,24.8,6-24.8h11.75v34h-6.9v-26.3h-.75l-6.65,24.8h-6.9l-6.65-24.8h-.75v26.3h-6.9Z"/><path class="cls-1" d="m526.63,527.53l7.65-34h13.1l7.65,34h-6.9l-1.35-6.15h-11.9l-1.35,6.15h-6.9Zm13-28.3l-3.45,16.15h9.3l-3.45-16.15h-2.4Z"/><path class="cls-1" d="m554.19,499.63v-6.1h25v6.1h-9v27.9h-6.9v-27.9h-9.1Z"/><path class="cls-1" d="m602.58,527.53v-14.1h-12.65v14.1h-6.9v-34h6.9v13.9h12.65v-13.9h6.9v34h-6.9Z"/><path class="cls-1" d="m616.38,527.53v-34h22v6h-15.1v7.95h12.1v5.9h-12.1v8.15h15.1v6h-22Z"/><path class="cls-1" d="m643.58,527.53v-34h11.75l6,24.8,6-24.8h11.75v34h-6.9v-26.3h-.75l-6.65,24.8h-6.9l-6.65-24.8h-.75v26.3h-6.9Z"/><path class="cls-1" d="m683.13,527.53l7.65-34h13.1l7.65,34h-6.9l-1.35-6.15h-11.9l-1.35,6.15h-6.9Zm13-28.3l-3.45,16.15h9.3l-3.45-16.15h-2.4Z"/><path class="cls-1" d="m710.68,499.63v-6.1h25v6.1h-9v27.9h-6.9v-27.9h-9.1Z"/><path class="cls-1" d="m739.53,527.53v-34h6.9v34h-6.9Z"/><path class="cls-1" d="m774.88,526.98c-3.53.77-6.72,1.15-9.55,1.15s-5.1-.35-6.8-1.05c-1.7-.7-3.03-1.82-4-3.35-.97-1.53-1.63-3.33-2-5.4-.37-2.07-.55-4.67-.55-7.8,0-6.57.93-11.14,2.78-13.72s5.26-3.88,10.22-3.88c2.87,0,6.18.45,9.95,1.35l-.2,5.5c-3.3-.5-6.04-.75-8.22-.75s-3.74.29-4.67.88c-.93.58-1.62,1.69-2.08,3.33-.45,1.63-.67,4.42-.67,8.35s.46,6.66,1.38,8.17c.92,1.52,2.75,2.28,5.5,2.28s5.67-.23,8.77-.7l.15,5.65Z"/><path class="cls-1" d="m790.43,498.93c-3.63,0-5.45,1.2-5.45,3.6,0,1.07.45,1.88,1.35,2.45.9.57,3.01,1.38,6.33,2.45,3.32,1.07,5.64,2.27,6.97,3.62,1.33,1.35,2,3.42,2,6.22,0,3.57-1.08,6.27-3.25,8.1-2.17,1.83-5,2.75-8.5,2.75-2.6,0-5.78-.4-9.55-1.2l-1.8-.35.7-5.35c4.47.6,7.88.9,10.25.9,3.53,0,5.3-1.47,5.3-4.4,0-1.07-.41-1.9-1.22-2.5-.82-.6-2.44-1.25-4.88-1.95-3.87-1.1-6.59-2.41-8.18-3.92s-2.38-3.62-2.38-6.33c0-3.4,1.03-5.93,3.1-7.6,2.07-1.67,4.9-2.5,8.5-2.5,2.47,0,5.6.33,9.4,1l1.8.35-.55,5.45c-4.7-.53-8.02-.8-9.95-.8Z"/><path class="cls-1" d="m816.28,517.28v-6.1h14.8v6.1h-14.8Z"/><path class="cls-1" d="m858.03,498.93c-3.63,0-5.45,1.2-5.45,3.6,0,1.07.45,1.88,1.35,2.45.9.57,3.01,1.38,6.33,2.45,3.32,1.07,5.64,2.27,6.97,3.62,1.33,1.35,2,3.42,2,6.22,0,3.57-1.08,6.27-3.25,8.1-2.17,1.83-5,2.75-8.5,2.75-2.6,0-5.78-.4-9.55-1.2l-1.8-.35.7-5.35c4.47.6,7.88.9,10.25.9,3.53,0,5.3-1.47,5.3-4.4,0-1.07-.41-1.9-1.22-2.5-.82-.6-2.44-1.25-4.88-1.95-3.87-1.1-6.59-2.41-8.18-3.92s-2.38-3.62-2.38-6.33c0-3.4,1.03-5.93,3.1-7.6,2.07-1.67,4.9-2.5,8.5-2.5,2.47,0,5.6.33,9.4,1l1.8.35-.55,5.45c-4.7-.53-8.02-.8-9.95-.8Z"/><path class="cls-1" d="m871.23,499.63v-6.1h25v6.1h-9v27.9h-6.9v-27.9h-9.1Z"/><path class="cls-1" d="m895.38,527.53l7.65-34h13.1l7.65,34h-6.9l-1.35-6.15h-11.9l-1.35,6.15h-6.9Zm13-28.3l-3.45,16.15h9.3l-3.45-16.15h-2.4Z"/><path class="cls-1" d="m922.93,499.63v-6.1h25v6.1h-9v27.9h-6.9v-27.9h-9.1Z"/><path class="cls-1" d="m951.78,527.53v-34h6.9v34h-6.9Z"/><path class="cls-1" d="m976.03,498.93c-3.63,0-5.45,1.2-5.45,3.6,0,1.07.45,1.88,1.35,2.45.9.57,3.01,1.38,6.33,2.45,3.32,1.07,5.64,2.27,6.97,3.62,1.33,1.35,2,3.42,2,6.22,0,3.57-1.08,6.27-3.25,8.1-2.17,1.83-5,2.75-8.5,2.75-2.6,0-5.78-.4-9.55-1.2l-1.8-.35.7-5.35c4.47.6,7.88.9,10.25.9,3.53,0,5.3-1.47,5.3-4.4,0-1.07-.41-1.9-1.22-2.5-.82-.6-2.44-1.25-4.88-1.95-3.87-1.1-6.59-2.41-8.18-3.92s-2.38-3.62-2.38-6.33c0-3.4,1.03-5.93,3.1-7.6,2.07-1.67,4.9-2.5,8.5-2.5,2.47,0,5.6.33,9.4,1l1.8.35-.55,5.45c-4.7-.53-8.02-.8-9.95-.8Z"/><path class="cls-1" d="m989.23,499.63v-6.1h25v6.1h-9v27.9h-6.9v-27.9h-9.1Z"/><path class="cls-1" d="m1018.08,527.53v-34h6.9v34h-6.9Z"/><path class="cls-1" d="m1053.43,526.98c-3.53.77-6.72,1.15-9.55,1.15s-5.1-.35-6.8-1.05c-1.7-.7-3.03-1.82-4-3.35-.97-1.53-1.63-3.33-2-5.4-.37-2.07-.55-4.67-.55-7.8,0-6.57.93-11.14,2.78-13.72s5.26-3.88,10.22-3.88c2.87,0,6.18.45,9.95,1.35l-.2,5.5c-3.3-.5-6.04-.75-8.22-.75s-3.74.29-4.67.88c-.93.58-1.62,1.69-2.08,3.33-.45,1.63-.67,4.42-.67,8.35s.46,6.66,1.38,8.17c.92,1.52,2.75,2.28,5.5,2.28s5.67-.23,8.77-.7l.15,5.65Z"/><path class="cls-1" d="m1055.68,527.53l7.65-34h13.1l7.65,34h-6.9l-1.35-6.15h-11.9l-1.35,6.15h-6.9Zm13-28.3l-3.45,16.15h9.3l-3.45-16.15h-2.4Z"/><path class="cls-1" d="m1107.48,527.53h-19.35v-34h6.9v27.9h12.45v6.1Z"/><path class="cls-1" d="m1133.18,527.53h-11.45v-34h11.45c2.93,0,5.35.31,7.25.92,1.9.62,3.38,1.63,4.42,3.05,1.05,1.42,1.77,3.08,2.17,5,.4,1.92.6,4.41.6,7.48s-.18,5.61-.55,7.62c-.37,2.02-1.06,3.82-2.08,5.4-1.02,1.58-2.49,2.73-4.42,3.45-1.93.72-4.4,1.08-7.4,1.08Zm7.25-13.5c.07-1.07.1-2.54.1-4.42s-.07-3.39-.2-4.53c-.13-1.13-.45-2.17-.95-3.1-.5-.93-1.24-1.58-2.22-1.92-.98-.35-2.31-.53-3.97-.53h-4.55v22h4.55c2.5,0,4.32-.63,5.45-1.9.97-1.03,1.57-2.9,1.8-5.6Z"/><path class="cls-1" d="m1149.77,527.53l7.65-34h13.1l7.65,34h-6.9l-1.35-6.15h-11.9l-1.35,6.15h-6.9Zm13-28.3l-3.45,16.15h9.3l-3.45-16.15h-2.4Z"/><path class="cls-1" d="m1177.33,499.63v-6.1h25v6.1h-9v27.9h-6.9v-27.9h-9.1Z"/><path class="cls-1" d="m1201.47,527.53l7.65-34h13.1l7.65,34h-6.9l-1.35-6.15h-11.9l-1.35,6.15h-6.9Zm13-28.3l-3.45,16.15h9.3l-3.45-16.15h-2.4Z"/><path class="cls-1" d="m1241.57,527.53l7.65-34h13.1l7.65,34h-6.9l-1.35-6.15h-11.9l-1.35,6.15h-6.9Zm13-28.3l-3.45,16.15h9.3l-3.45-16.15h-2.4Z"/><path class="cls-1" d="m1274.02,527.53v-34h11.65l8.2,28h.5v-28h6.9v34h-11.35l-8.5-28h-.5v28h-6.9Z"/><path class="cls-1" d="m1305.32,527.53l7.65-34h13.1l7.65,34h-6.9l-1.35-6.15h-11.9l-1.35,6.15h-6.9Zm13-28.3l-3.45,16.15h9.3l-3.45-16.15h-2.4Z"/><path class="cls-1" d="m1357.12,527.53h-19.35v-34h6.9v27.9h12.45v6.1Z"/><path class="cls-1" d="m1370.32,527.53h-6.9v-13.75l-10.5-20.25h7.65l6.25,13.55,6.25-13.55h7.65l-10.4,20.25v13.75Z"/><path class="cls-1" d="m1393.52,498.93c-3.63,0-5.45,1.2-5.45,3.6,0,1.07.45,1.88,1.35,2.45.9.57,3.01,1.38,6.33,2.45,3.32,1.07,5.64,2.27,6.97,3.62,1.33,1.35,2,3.42,2,6.22,0,3.57-1.08,6.27-3.25,8.1-2.17,1.83-5,2.75-8.5,2.75-2.6,0-5.78-.4-9.55-1.2l-1.8-.35.7-5.35c4.47.6,7.88.9,10.25.9,3.53,0,5.3-1.47,5.3-4.4,0-1.07-.41-1.9-1.22-2.5-.82-.6-2.44-1.25-4.88-1.95-3.87-1.1-6.59-2.41-8.18-3.92s-2.38-3.62-2.38-6.33c0-3.4,1.03-5.93,3.1-7.6,2.07-1.67,4.9-2.5,8.5-2.5,2.47,0,5.6.33,9.4,1l1.8.35-.55,5.45c-4.7-.53-8.02-.8-9.95-.8Z"/><path class="cls-1" d="m1409.77,527.53v-34h6.9v34h-6.9Z"/><path class="cls-1" d="m1434.02,498.93c-3.63,0-5.45,1.2-5.45,3.6,0,1.07.45,1.88,1.35,2.45.9.57,3.01,1.38,6.33,2.45,3.32,1.07,5.64,2.27,6.97,3.62,1.33,1.35,2,3.42,2,6.22,0,3.57-1.08,6.27-3.25,8.1-2.17,1.83-5,2.75-8.5,2.75-2.6,0-5.78-.4-9.55-1.2l-1.8-.35.7-5.35c4.47.6,7.88.9,10.25.9,3.53,0,5.3-1.47,5.3-4.4,0-1.07-.41-1.9-1.22-2.5-.82-.6-2.44-1.25-4.88-1.95-3.87-1.1-6.59-2.41-8.18-3.92s-2.38-3.62-2.38-6.33c0-3.4,1.03-5.93,3.1-7.6,2.07-1.67,4.9-2.5,8.5-2.5,2.47,0,5.6.33,9.4,1l1.8.35-.55,5.45c-4.7-.53-8.02-.8-9.95-.8Z"/></g></svg>