<?xml version="1.0" encoding="UTF-8"?><svg xmlns="http://www.w3.org/2000/svg" viewBox="0 0 410.67 350.15"><defs><style>.cls-1,.cls-2{fill:#fff;}.cls-2,.cls-3{opacity:.3;}.cls-4{opacity:.2;}.cls-5{fill:#efeff6;}.cls-6{fill:#1f2937;}.cls-7,.cls-3{fill:#787eba;}</style></defs><g id="Background_Complete"><g><path class="cls-5" d="m174.51,123.47l.45-13.14-8.07-2.64c-.33-4.49-1.08-8.92-2.15-13.2l6.84-5.04-4.64-12.34-8.46.68c-2.02-3.99-4.39-7.79-7.04-11.35l4.38-7.31-9.01-9.61-7.56,3.87c-3.41-2.89-7-5.52-10.84-7.83l1.22-8.39-12-5.45-5.5,6.44c-4.19-1.36-8.53-2.38-13.02-3.05l-2.04-8.23-13.18-.45-2.6,8.07c-4.53.37-8.92,1.08-13.2,2.15l-5.08-6.8-12.34,4.61.68,8.46c-3.99,2.05-7.79,4.42-11.35,7.07l-7.28-4.38-9.65,8.97,3.87,7.6c-2.89,3.37-5.52,7-7.8,10.84l-8.39-1.26-5.48,12,6.48,5.5c-1.36,4.19-2.41,8.56-3.05,13.02l-8.26,2.08-.45,13.14,8.1,2.64c.33,4.52,1.08,8.92,2.15,13.19l-6.84,5.04,4.64,12.34,8.46-.68c2.02,3.99,4.39,7.79,7.04,11.35l-4.38,7.31,9.01,9.61,7.56-3.87c3.37,2.89,7,5.52,10.84,7.84l-1.26,8.39,12,5.45,5.53-6.44c4.19,1.36,8.53,2.38,13.02,3.05l2.04,8.23,13.18.45,2.6-8.07c4.52-.37,8.92-1.08,13.19-2.15l5.04,6.8,12.34-4.61-.65-8.46c3.99-2.05,7.75-4.42,11.35-7.08l7.28,4.38,9.65-8.97-3.87-7.6c2.89-3.37,5.52-7,7.8-10.84l8.39,1.26,5.48-12-6.48-5.5c1.36-4.19,2.41-8.53,3.05-13.02l8.23-2.08Zm-88.8,42.57c-28.78-.99-51.31-25.12-50.33-53.9.99-28.81,25.12-51.35,53.9-50.36,28.78.99,51.31,25.12,50.33,53.93-.99,28.78-25.12,51.31-53.9,50.33Z"/><path class="cls-5" d="m399.39,80.01l3.31-3.09-1.32-2.61c1.01-1.18,1.91-2.44,2.69-3.74l2.9.44,1.88-4.14-2.23-1.9c.48-1.46.83-2.97,1.05-4.48l2.85-.71.15-4.54-2.79-.9c-.12-1.54-.36-3.05-.73-4.55l2.35-1.75-1.6-4.25-2.91.23c-.69-1.35-1.5-2.66-2.43-3.92l1.51-2.5-3.1-3.32-2.6,1.33c-1.19-1.01-2.44-1.91-3.74-2.69l.42-2.9-4.13-1.89-1.9,2.23c-1.47-.47-2.98-.82-4.49-1.04l-.71-2.84-4.54-.16-.91,2.8c-1.53.12-3.05.36-4.55.74l-1.74-2.35-4.26,1.59.24,2.92c-1.35.69-2.68,1.5-3.92,2.43l-2.52-1.51-3.31,3.09,1.33,2.62c-1.02,1.18-1.91,2.44-2.69,3.74l-2.9-.44-1.88,4.14,2.23,1.9c-.48,1.46-.83,2.97-1.05,4.48l-2.85.71-.15,4.54,2.79.9c.12,1.53.36,3.05.73,4.55l-2.35,1.74,1.6,4.25,2.92-.22c.69,1.35,1.5,2.66,2.43,3.92l-1.51,2.5,3.1,3.32,2.6-1.33c1.19,1.01,2.44,1.91,3.74,2.69l-.43,2.89,4.13,1.89,1.9-2.22c1.47.47,2.97.81,4.49,1.04l.71,2.84,4.54.16.91-2.8c1.53-.12,3.05-.36,4.55-.74l1.74,2.35,4.26-1.59-.24-2.92c1.35-.69,2.67-1.49,3.92-2.43l2.51,1.5Zm-23.62-19.13c-2.44-2.61-2.3-6.71.31-9.14,2.61-2.44,6.71-2.3,9.15.31,2.44,2.61,2.3,6.71-.32,9.15-2.61,2.44-6.71,2.3-9.14-.31Z"/><path class="cls-5" d="m278.42,214.93l-10.34-7.14s0-.02,0-.02c-1.02-3.76-2.43-7.37-4.16-10.77l2.65-10.4-15-16.06-10.56,1.93c-3.27-1.95-6.78-3.61-10.45-4.88,0,0-.02,0-.03,0l-6.42-10.81-21.96-.75-7.14,10.34s-.03,0-.04,0c-3.75,1.02-7.37,2.43-10.76,4.15l-10.39-2.65-16.06,15,1.93,10.54s0,0,0,0c-1.99,3.31-3.61,6.82-4.88,10.49l-10.81,6.42-.75,21.97,10.35,7.15c1.02,3.78,2.39,7.39,4.15,10.82t0,0l-2.64,10.37,15,16.06,10.49-1.92c3.31,1.96,6.83,3.61,10.55,4.89,0,0,0,0,0,0l6.41,10.79,21.96.75,7.14-10.33c3.8-1.02,7.42-2.43,10.85-4.16,0,0,0,0,0,0l10.35,2.64,16.06-15-1.93-10.54c1.99-3.31,3.61-6.82,4.88-10.5,0,0,0,0,0,0l10.81-6.42.75-21.97Zm-68.45,33.39c-13.65-.47-24.32-11.93-23.85-25.55.47-13.65,11.89-24.32,25.55-23.85,13.65.47,24.32,11.89,23.85,25.55-.47,13.61-11.89,24.32-25.55,23.85Z"/><path class="cls-5" d="m301.98,152.55s-.05,0-.07,0l-17.32-.59c-.72-.02-1.38-.41-1.74-1.03l-4.66-7.85c-2.48-.9-4.92-2.03-7.28-3.38l-7.51,1.37c-.71.13-1.43-.11-1.92-.64l-11.83-12.66c-.49-.53-.68-1.27-.5-1.96l1.89-7.41c-1.15-2.35-2.11-4.85-2.86-7.47l-7.53-5.2c-.59-.41-.94-1.09-.91-1.81l.59-17.32c.02-.72.41-1.38,1.03-1.74l7.87-4.67c.93-2.55,2.06-4.99,3.37-7.25l-1.38-7.53c-.13-.71.11-1.43.64-1.92l12.67-11.83c.53-.49,1.27-.68,1.96-.5l7.43,1.9c2.41-1.17,4.9-2.13,7.45-2.87l5.2-7.53c.41-.59,1.08-.96,1.81-.91l17.32.59c.72.02,1.38.41,1.74,1.03l4.67,7.87c2.48.91,4.91,2.04,7.23,3.37l7.55-1.38c.71-.13,1.43.11,1.92.64l11.83,12.67c.49.53.68,1.27.5,1.96l-1.9,7.44c1.17,2.41,2.13,4.9,2.87,7.45l7.52,5.2c.59.41.93,1.09.91,1.81l-.59,17.32c-.02.72-.41,1.38-1.03,1.74l-7.87,4.67c-.93,2.55-2.06,4.98-3.37,7.24l1.38,7.54c.13.71-.11,1.43-.64,1.92l-12.66,11.82c-.53.49-1.26.68-1.96.5l-7.4-1.89c-2.44,1.18-4.95,2.14-7.49,2.87l-5.19,7.52c-.4.57-1.04.91-1.74.91Zm-16.09-4.78l15.01.51,4.97-7.2c.28-.41.71-.71,1.19-.84,2.76-.74,5.51-1.79,8.15-3.13,0,0,0,0,.01,0,.44-.22.96-.28,1.46-.15l7.04,1.79,10.98-10.25-1.31-7.17c-.09-.51,0-1.03.27-1.47,1.45-2.4,2.68-5.04,3.65-7.83.16-.5.5-.91.94-1.17l7.52-4.47.51-15.01-7.2-4.97c-.38-.26-.66-.64-.8-1.07-.02-.05-.03-.11-.05-.17-.75-2.76-1.8-5.47-3.11-8.05-.23-.46-.29-.98-.16-1.48l1.8-7.08-10.25-10.98-7.19,1.32c-.5.09-1.02,0-1.46-.26-2.5-1.49-5.14-2.72-7.85-3.67-.15-.05-.31-.12-.44-.21-.29-.18-.53-.43-.71-.72l-4.47-7.53-15.01-.51-4.97,7.2c-.3.43-.74.73-1.24.85-2.78.76-5.48,1.8-8.05,3.11-.46.23-.98.29-1.48.16l-7.08-1.8-10.98,10.25,1.31,7.17c.08.45.02.92-.19,1.32-.03.06-.06.11-.1.17-1.45,2.41-2.68,5.06-3.65,7.86-.16.47-.49.87-.92,1.12l-7.53,4.47-.51,15.01,7.21,4.98c.41.28.71.7.84,1.19.78,2.88,1.82,5.61,3.11,8.12.07.14.13.3.17.45.08.34.08.69,0,1.03l-1.8,7.05,10.25,10.98,7.14-1.31c.5-.09,1.02,0,1.45.26,2.55,1.5,5.2,2.74,7.89,3.67.49.15.91.48,1.17.93l4.46,7.52Zm24.78-94.81h0,0Zm-15.51,75.85c-.37,0-.74,0-1.11-.02-17.45-.6-31.15-15.28-30.56-32.72.6-17.45,15.3-31.15,32.72-30.56,17.45.6,31.15,15.28,30.56,32.72-.29,8.44-3.85,16.27-10.03,22.04-5.91,5.53-13.54,8.53-21.59,8.53Zm-.04-59.09c-14.7,0-26.9,11.7-27.41,26.5-.52,15.12,11.36,27.84,26.48,28.36,7.33.25,14.31-2.37,19.67-7.38,5.35-5,8.44-11.79,8.69-19.1.52-15.12-11.36-27.84-26.48-28.36-.32-.01-.64-.02-.95-.02Z"/><g><polygon class="cls-5" points="341.87 27.92 334.7 25.99 332.77 18.82 335.58 16.01 338.54 22.14 344.68 25.11 341.87 27.92"/><path class="cls-5" d="m342.32,23.11c1.31-1.31,1.31-3.44,0-4.74-1.31-1.31-3.43-1.3-4.73,0l3.57-5.35,4.79,2.42,1.05,5.03-4.67,2.64Z"/><path class="cls-5" d="m335.02,16.57l5.26-5.26,7.17,1.93,1.93,7.17-5.26,5.26-7.17-1.93-1.93-7.17Zm9.55,4.3c1.31-1.31,1.31-3.44,0-4.74-1.31-1.31-3.43-1.3-4.73,0-1.31,1.31-1.31,3.42,0,4.72,1.31,1.31,3.43,1.32,4.73,0Z"/></g><g><polygon class="cls-5" points="48.65 219.3 52.5 218.27 53.54 214.42 52.03 212.91 50.44 216.2 47.15 217.79 48.65 219.3"/><path class="cls-5" d="m48.42,216.72c-.7-.7-.7-1.84,0-2.55s1.84-.7,2.54,0l-1.91-2.87-2.57,1.3-.56,2.7,2.5,1.42Z"/><path class="cls-5" d="m52.33,213.21l-2.82-2.82-3.85,1.03-1.03,3.85,2.82,2.82,3.85-1.03,1.03-3.85Zm-5.12,2.31c-.7-.7-.7-1.84,0-2.55s1.84-.7,2.54,0,.7,1.83,0,2.54-1.84.71-2.54,0Z"/></g><g><path class="cls-5" d="m34.8,8.25l3.19,3.19c.83.83,2.19.83,3.02,0h0c.83-.83.83-2.19,0-3.02l-3.19-3.19c-.83-.83-2.19-.83-3.02,0h0c-.83.83-.83,2.19,0,3.02Z"/><path class="cls-5" d="m32.55.3c2.46-.88,5.13.27,5.96,2.58.83,2.31-.49,4.9-2.95,5.79-2.46.88-5.13-.27-5.96-2.58-.83-2.31.49-4.9,2.95-5.79Z"/><rect class="cls-5" x="33.36" y="-.57" width="1.37" height="10.1" transform="translate(41.34 38.04) rotate(-109.76)"/></g></g></g><g id="Shadow"><ellipse id="_Path_" class="cls-5" cx="208.43" cy="338.83" rx="193.89" ry="11.32"/></g><g id="Oops_"><g><path class="cls-6" d="m59.89,40.9c-.37,1.21-1.11,2.28-2.21,3.2-1.1.93-2.57,1.58-4.42,1.97l-3.41.72,1.71,8.09-5.49,1.16-4.76-22.55,8.9-1.88c1.8-.38,3.38-.39,4.76-.03,1.37.36,2.48,1.02,3.34,1.98.85.96,1.43,2.15,1.72,3.56.28,1.31.23,2.56-.14,3.77Zm-5.78-.34c.41-.6.52-1.35.33-2.25-.19-.9-.59-1.54-1.21-1.92-.62-.38-1.45-.47-2.5-.25l-2.99.63,1.19,5.65,2.99-.63c1.05-.22,1.78-.63,2.19-1.23Z"/><path class="cls-6" d="m81.31,40.63l-12.43,2.62c.32,1.1.86,1.87,1.61,2.33.76.46,1.59.58,2.52.39,1.37-.29,2.2-1.07,2.49-2.34l5.85-1.23c-.05,1.24-.37,2.42-.95,3.52-.58,1.11-1.41,2.05-2.47,2.84-1.06.78-2.33,1.33-3.78,1.64-1.76.37-3.4.33-4.93-.14-1.53-.46-2.83-1.3-3.89-2.53-1.06-1.23-1.79-2.78-2.19-4.64-.39-1.86-.36-3.57.11-5.12.47-1.55,1.31-2.85,2.52-3.89,1.21-1.04,2.71-1.75,4.48-2.12,1.73-.37,3.35-.33,4.86.12,1.5.44,2.78,1.26,3.82,2.45,1.04,1.19,1.76,2.68,2.14,4.48.11.51.19,1.06.24,1.63Zm-6.17-1.89c-.2-.94-.68-1.62-1.44-2.04-.76-.42-1.62-.53-2.59-.33-.92.19-1.64.62-2.16,1.29-.52.67-.75,1.51-.69,2.53l6.87-1.45Z"/><path class="cls-6" d="m90.17,28.71c.84-.77,1.85-1.28,3.03-1.53l1.23,5.81-1.51.32c-1.37.29-2.34.8-2.9,1.53-.56.73-.69,1.84-.37,3.32l1.75,8.32-5.49,1.16-3.78-17.92,5.49-1.16.63,2.99c.43-1.12,1.07-2.07,1.92-2.84Z"/><path class="cls-6" d="m110.61,42.44l-7.05-6.36,1.59,7.52-5.49,1.16-5.01-23.77,5.49-1.16,2.77,13.14,3.89-8.44,6.78-1.43-5.56,10.57,9.4,7.34-6.81,1.44Z"/><path class="cls-6" d="m134.7,29.37l-12.43,2.62c.32,1.1.86,1.87,1.61,2.33.76.46,1.59.59,2.52.39,1.37-.29,2.2-1.07,2.49-2.34l5.85-1.23c-.05,1.24-.37,2.42-.95,3.52-.58,1.11-1.41,2.05-2.47,2.84-1.06.79-2.33,1.33-3.78,1.64-1.76.37-3.4.33-4.93-.14-1.53-.46-2.83-1.3-3.89-2.54-1.06-1.23-1.79-2.78-2.19-4.64-.39-1.86-.36-3.57.11-5.12.47-1.55,1.31-2.85,2.52-3.89,1.21-1.04,2.71-1.75,4.48-2.12,1.73-.37,3.35-.33,4.86.12,1.5.44,2.78,1.26,3.82,2.45,1.04,1.19,1.76,2.68,2.14,4.48.11.51.19,1.06.24,1.63Zm-6.17-1.89c-.2-.94-.68-1.62-1.44-2.04-.76-.42-1.62-.53-2.59-.33-.92.19-1.64.62-2.16,1.29-.52.67-.75,1.51-.69,2.53l6.87-1.45Z"/><path class="cls-6" d="m139.77,11.46l5.01,23.77-5.49,1.16-5.01-23.77,5.49-1.16Z"/><path class="cls-6" d="m163.96,23.2l-12.43,2.62c.32,1.1.86,1.87,1.61,2.33.76.46,1.59.58,2.52.39,1.37-.29,2.2-1.07,2.49-2.34l5.85-1.23c-.05,1.24-.37,2.42-.95,3.52-.58,1.11-1.41,2.05-2.47,2.84-1.07.78-2.33,1.33-3.78,1.64-1.76.37-3.4.33-4.93-.14-1.53-.46-2.83-1.3-3.89-2.53-1.06-1.23-1.79-2.78-2.19-4.64-.39-1.86-.36-3.57.11-5.12.47-1.55,1.31-2.85,2.52-3.89,1.21-1.04,2.71-1.75,4.48-2.12,1.73-.37,3.35-.33,4.86.12,1.5.44,2.78,1.26,3.82,2.45,1.04,1.19,1.76,2.68,2.14,4.48.11.51.19,1.06.24,1.63Zm-6.17-1.89c-.2-.94-.68-1.62-1.44-2.04-.76-.42-1.62-.53-2.59-.33-.92.19-1.64.62-2.16,1.29-.52.67-.75,1.51-.69,2.53l6.87-1.45Z"/><path class="cls-6" d="m170.86,5.34l2.6,15.52-4.66.98-3.89-15.25,5.94-1.25Zm-.45,23.87c-.73-.44-1.18-1.08-1.36-1.91-.18-.86-.03-1.64.46-2.34.49-.71,1.21-1.16,2.18-1.37.94-.2,1.78-.07,2.51.38.73.45,1.19,1.1,1.37,1.96.18.83.02,1.6-.47,2.3-.49.7-1.21,1.14-2.15,1.34-.96.2-1.81.08-2.54-.35Z"/></g></g><g id="_404"><g><g><path class="cls-6" d="m87.11,94.17c-.06,0-.12-.01-.18-.03-4.5-1.74-7.19-3.45-8.59-5.49-1.02.2-2.15.07-3.23-.44-1.05-.5-2.06-1.37-2.78-2.62-.68.52-1.51.66-2.43.38-1.02-.32-2.07-1.17-2.95-2.41-.56.4-1.13.46-1.55.43-2.97-.24-7-6.16-7.29-12.47-.01-.28.2-.51.48-.52.27-.02.51.2.52.48.27,5.99,4.11,11.33,6.37,11.51.37.04.67-.08.93-.28-1.36-2.38-2.06-5.78-1.02-9.41.86-3,1.62-4.18,2.53-3.96,1.72.43,1.5,6.97.58,11.29-.21.98-.51,1.68-.85,2.18.79,1.17,1.72,1.95,2.54,2.21.73.23,1.27.04,1.67-.35-.79-1.94-.95-4.57.12-7.94,1.4-4.43,1.97-4.55,2.31-4.62.24-.05.48.03.64.22.92,1.04-.18,7.92-1.34,11.32-.15.44-.34.83-.56,1.16.62,1.22,1.54,2.05,2.49,2.5.77.37,1.56.5,2.27.43-.09-.19-.17-.38-.24-.58-.79-2.15-.41-4.63,1.18-7.58,1.06-1.96,1.92-2.87,2.71-2.87h0c.24,0,.67.09.99.66.87,1.61.24,6.92-1.48,9.55-.41.62-.97,1.09-1.62,1.4,1.34,1.76,3.88,3.31,7.95,4.89.26.1.39.39.29.65-.08.2-.27.32-.47.32Zm-5.65-16.47s-.57,0-1.83,2.35c-1.45,2.68-1.81,4.89-1.13,6.76.08.23.18.45.3.67.53-.23.99-.6,1.32-1.1,1.4-2.14,2.07-6.54,1.55-8.26-.11-.35-.22-.41-.22-.41Zm-7.17-4.21c-.26.49-.69,1.48-1.34,3.53-.86,2.71-.86,4.88-.38,6.55.03-.08.06-.17.09-.25,1.18-3.44,1.75-8.17,1.63-9.83Zm-6.59-3.15c-.17.16-.65.79-1.35,3.22-.92,3.21-.35,6.14.73,8.25.21-.43.35-.93.45-1.4,1.04-4.91.74-9.35.17-10.06Z"/><path class="cls-6" d="m125.13,146.59c-1.52,0-3.13-.35-4.56-1.19-.24-.14-.32-.45-.18-.68.14-.24.45-.32.68-.18,3.57,2.09,8.18.63,9.13-.89.11-.18.21-.41.15-.67-1.41.15-3.15-.22-5.13-1.47-2.54-1.59-2.74-2.06-2.73-2.44,0-.22.14-.42.34-.52,1-.5,5.51,1.57,7.39,2.81.25.16.45.34.62.52.83-.2,1.48-.63,1.9-1.15.29-.35.49-.74.59-1.12-.07,0-.13.02-.2.02-1.6.16-3.2-.53-4.91-2.1-1.17-1.09-1.63-1.83-1.48-2.43.05-.19.21-.53.72-.65,1.38-.34,4.8,1.11,6.19,2.64.31.34.53.75.64,1.18,1.3-.61,2.69-1.99,4.32-4.27.16-.22.47-.28.7-.12.22.16.28.47.12.7-1.89,2.64-3.46,4.14-5.05,4.75-.06.7-.35,1.42-.87,2.04-.51.61-1.25,1.13-2.18,1.41.1.45,0,.93-.28,1.39-.84,1.36-3.26,2.42-5.92,2.42Zm-.89-6.94c.34.25.82.58,1.51,1.01,1.36.85,2.57,1.24,3.6,1.32-1.66-1.03-3.82-1.94-5.11-2.33Zm3.49-4.25c.06.16.28.57,1.17,1.39,1.49,1.37,2.84,1.99,4.13,1.84.11-.01.21-.03.32-.05-.07-.3-.22-.58-.43-.83-1.41-1.54-4.5-2.52-5.18-2.36Z"/><path class="cls-7" d="m138.38,145.22l-15.58,2.83-14.15-77.21-30.06,5.46-48.99,87,5.26,28.71,62.84-11.41,4.3,23.48,30.06-5.46-4.3-23.48,15.58-2.83-4.96-27.08Zm-78.85,14.32l25.96-45.57,7.24,39.54-33.2,6.03Z"/></g><g><path class="cls-7" d="m263.86,65.58c-.58-5.33-1.65-10.07-3.2-14.22-1.55-4.14-3.88-8.21-6.99-12.19-3.11-3.98-7.35-7.44-12.7-10.37-5.36-2.93-12.43-4.97-21.22-6.11-18.29-2.38-32.55.86-42.78,9.74-10.23,8.88-16.96,25.88-20.2,51.01-1.32,10.22-1.64,19.67-.98,28.34.66,8.68,2.26,15.65,4.78,20.93,3.45,7.42,8.33,13.34,14.65,17.77,6.31,4.43,14.96,7.36,25.95,8.79,19.6,2.55,34.12-1.21,43.57-11.29,9.45-10.08,15.72-27.11,18.81-51.1,1.38-10.7,1.48-21.14.32-31.32Z"/><path class="cls-6" d="m210.2,149.02c-2.4-.08-4.96-.3-7.61-.64-9.15-1.19-16.24-3.51-21.05-6.89-4.75-3.33-8.35-7.72-10.99-13.41l-.05-.1c-1.92-4.02-3.18-9.75-3.73-17.03-.61-7.89-.3-16.67.92-26.1,3.57-27.72,10.94-39.29,16.5-44.11,6.48-5.62,15.22-8.16,26.73-7.77,2.36.08,4.86.29,7.42.63,7.39.96,13.23,2.6,17.37,4.86,4.01,2.19,7.14,4.71,9.31,7.49,2.4,3.08,4.2,6.19,5.35,9.27,1.22,3.27,2.09,7.16,2.57,11.56,1.07,9.31.96,18.95-.29,28.72-2.77,21.54-8.13,36.67-15.92,44.98-5.78,6.17-14.45,8.96-26.51,8.55,0,0,0,0,0,0Z"/><path class="cls-7" d="m229.77,65.88l.13-3.79-2.33-.76c-.1-1.29-.31-2.57-.62-3.8l1.97-1.45-1.34-3.56-2.44.2c-.58-1.15-1.26-2.24-2.03-3.27l1.26-2.11-2.6-2.77-2.18,1.12c-.98-.83-2.02-1.59-3.12-2.26l.35-2.42-3.46-1.57-1.58,1.86c-1.21-.39-2.46-.68-3.75-.88l-.59-2.37-3.8-.13-.75,2.33c-1.3.11-2.57.31-3.8.62l-1.46-1.96-3.56,1.33.2,2.44c-1.15.59-2.24,1.27-3.27,2.04l-2.1-1.26-2.78,2.59,1.12,2.19c-.83.97-1.59,2.02-2.25,3.12l-2.42-.36-1.58,3.46,1.87,1.58c-.39,1.21-.7,2.47-.88,3.75l-2.38.6-.13,3.79,2.34.76c.1,1.3.31,2.57.62,3.8l-1.97,1.45,1.34,3.56,2.44-.2c.58,1.15,1.26,2.24,2.03,3.27l-1.26,2.11,2.6,2.77,2.18-1.12c.97.83,2.02,1.59,3.12,2.26l-.36,2.42,3.46,1.57,1.59-1.86c1.21.39,2.46.68,3.75.88l.59,2.37,3.8.13.75-2.33c1.3-.11,2.57-.31,3.8-.62l1.45,1.96,3.56-1.33-.19-2.44c1.15-.59,2.24-1.27,3.27-2.04l2.1,1.26,2.78-2.59-1.12-2.19c.83-.97,1.59-2.02,2.25-3.12l2.42.36,1.58-3.46-1.87-1.58c.39-1.21.69-2.46.88-3.75l2.37-.6Zm-25.6,12.27c-8.3-.28-14.79-7.24-14.51-15.54.28-8.31,7.24-14.8,15.54-14.52,8.3.28,14.79,7.24,14.51,15.55-.28,8.3-7.24,14.79-15.54,14.51Z"/><path class="cls-3" d="m245.56,135.46l.27-2.55-1.53-.63c0-.88-.08-1.75-.23-2.59l1.4-.89-.71-2.47h-1.66c-.34-.79-.73-1.57-1.2-2.3l.95-1.36-1.61-2-1.53.64c-.61-.61-1.27-1.17-1.99-1.67l.37-1.63-2.25-1.24-1.18,1.19c-.81-.34-1.64-.59-2.48-.79l-.28-1.64-2.55-.29-.63,1.53c-.88,0-1.74.09-2.59.24l-.89-1.41-2.47.72v1.66c-.78.34-1.56.73-2.3,1.2l-1.36-.96-2,1.61.64,1.53c-.59.61-1.17,1.27-1.67,1.99l-1.61-.36-1.24,2.25,1.18,1.16c-.33.82-.59,1.64-.79,2.49l-1.64.27-.27,2.55,1.53.64c0,.87.08,1.73.23,2.58l-1.41.89.72,2.47h1.66c.34.79.73,1.57,1.2,2.3l-.96,1.36,1.6,2.01,1.54-.65c.61.61,1.27,1.17,1.99,1.67l-.37,1.63,2.25,1.24,1.18-1.18c.81.33,1.64.58,2.48.78l.28,1.64,2.55.29.63-1.54c.87,0,1.74-.09,2.59-.24l.89,1.41,2.46-.72v-1.66c.79-.34,1.57-.73,2.31-1.2l1.35.96,2.01-1.6-.65-1.53c.61-.61,1.17-1.27,1.68-1.99l1.61.36,1.24-2.25-1.18-1.16c.33-.82.58-1.64.78-2.48l1.65-.28Zm-12.87-.99c-1.19,2.16-3.9,2.96-6.06,1.77-2.16-1.19-2.94-3.9-1.76-6.06,1.19-2.16,3.89-2.94,6.05-1.76,2.16,1.19,2.96,3.89,1.77,6.05Z"/><path class="cls-1" d="m259.72,92.24l-2.98-2.06s0,0,0,0c-.29-1.08-.7-2.13-1.2-3.1l.76-3-4.32-4.63-3.04.56c-.94-.56-1.95-1.04-3.01-1.41,0,0,0,0,0,0l-1.85-3.12-6.33-.22-2.06,2.98s0,0-.01,0c-1.08.29-2.12.7-3.1,1.2l-3-.76-4.63,4.32.56,3.04s0,0,0,0c-.57.95-1.04,1.97-1.41,3.02l-3.12,1.85-.22,6.33,2.98,2.06c.29,1.09.69,2.13,1.2,3.12t0,0l-.76,2.99,4.32,4.63,3.02-.55c.95.56,1.97,1.04,3.04,1.41,0,0,0,0,0,0l1.85,3.11,6.33.22,2.06-2.98c1.09-.29,2.14-.7,3.13-1.2,0,0,0,0,0,0l2.98.76,4.63-4.32-.56-3.04c.57-.95,1.04-1.97,1.41-3.03,0,0,0,0,0,0l3.12-1.85.22-6.33Zm-19.73,9.62c-3.94-.13-7.01-3.44-6.88-7.36.13-3.94,3.43-7.01,7.36-6.88,3.94.13,7.01,3.43,6.88,7.36-.13,3.92-3.43,7.01-7.36,6.88Z"/><path class="cls-7" d="m281.48,41.72l.52-1.26s0,0,0,0c.37-.19.73-.43,1.05-.68l1.16.04,1.36-1.95-.44-1.07c.13-.39.23-.8.28-1.22,0,0,0,0,0,0l1-.92-.42-2.34-1.26-.52s0,0,0,0c-.19-.37-.42-.72-.68-1.04l.04-1.16-1.95-1.36-1.07.44s0,0,0,0c-.4-.14-.8-.23-1.22-.28l-.92-1-2.34.42-.52,1.26c-.38.19-.73.42-1.05.68t0,0l-1.16-.04-1.36,1.95.44,1.07c-.13.39-.23.8-.28,1.23,0,0,0,0,0,0l-1,.92.42,2.34,1.26.52c.19.38.43.73.69,1.05,0,0,0,0,0,0l-.04,1.15,1.95,1.36,1.07-.44c.4.14.8.23,1.22.28,0,0,0,0,0,0l.93,1,2.34-.42Zm-5.09-6.49c-.26-1.46.71-2.84,2.16-3.1,1.46-.26,2.84.71,3.1,2.16s-.71,2.84-2.16,3.1c-1.45.26-2.84-.71-3.1-2.16Z"/><path class="cls-7" d="m254.04,35.08l-.76-.64c1.33-1.57,3.21-3.56,6.01-5.03l.46.89c-2.98,1.56-4.89,3.82-5.71,4.79Z"/><path class="cls-7" d="m262.02,29.39l-.39-.92c3.78-1.62,7.73-2.25,11.74-1.88l-.09,1c-3.84-.37-7.62.25-11.25,1.8Z"/><path class="cls-7" d="m260.14,36.31l-.83-.56c2.05-3.02,6.11-5.64,9.87-6.39l.19.98c-3.52.7-7.32,3.15-9.24,5.97Z"/><path class="cls-1" d="m193.78,132.55c-.13,0-.26-.05-.36-.15l-2.1-2.16c-1.07-.1-2.12-.3-3.15-.59l-3.27,1.44c-.16.07-.34.05-.48-.04l-5.48-3.63c-.14-.09-.23-.25-.22-.42l.05-3.56c-.67-.83-1.26-1.73-1.77-2.68l-2.81-1.09c-.16-.06-.28-.2-.31-.37l-1.31-6.44c-.03-.17.02-.34.14-.46l2.16-2.1c.1-1.06.3-2.12.58-3.15l-1.44-3.26c-.07-.16-.05-.34.04-.48l3.63-5.48c.09-.14.23-.23.42-.22l3.56.05c.84-.67,1.74-1.26,2.68-1.76l1.09-2.81c.06-.16.2-.28.37-.31l6.44-1.31c.17-.03.34.02.46.14l2.09,2.16c1.06.1,2.12.3,3.15.58l3.26-1.44c.16-.07.34-.05.48.04l5.48,3.63c.14.09.23.25.22.42l-.05,3.57c.67.83,1.26,1.73,1.76,2.67l2.81,1.09c.16.06.28.2.31.37l1.31,6.44c.03.17-.02.34-.14.46l-2.16,2.1c-.1,1.05-.3,2.11-.59,3.14l1.44,3.27c.07.16.05.34-.04.48l-3.63,5.47c-.09.14-.24.21-.42.22l-3.56-.05c-.83.66-1.73,1.25-2.68,1.76l-1.09,2.81c-.06.16-.2.28-.37.31l-6.44,1.31s-.07,0-.1,0Zm-5.64-3.93s.09,0,.14.02c1.07.31,2.18.52,3.31.62.12,0,.23.06.32.15l2.04,2.1,5.9-1.2,1.06-2.73c.04-.11.13-.21.24-.26,1-.52,1.95-1.14,2.82-1.85.09-.07.19-.12.32-.11l3.47.05,3.33-5.02-1.4-3.18c-.05-.11-.05-.23-.02-.34.32-1.09.52-2.21.62-3.31,0-.12.06-.23.15-.32l2.1-2.04-1.2-5.9-2.73-1.06c-.12-.04-.21-.13-.27-.24-.52-1-1.14-1.94-1.85-2.81-.08-.09-.12-.21-.11-.33l.05-3.47-5.02-3.33-3.18,1.4c-.11.05-.23.05-.34.02-1.08-.32-2.2-.52-3.32-.62-.12,0-.23-.06-.32-.15l-2.03-2.1-5.9,1.2-1.06,2.73c-.04.11-.13.21-.24.26-1,.52-1.94,1.14-2.82,1.85-.09.07-.21.13-.33.11l-3.47-.05-3.33,5.02,1.4,3.18c.06.14.06.29-.01.43-.28,1-.49,2.11-.58,3.23,0,.12-.06.23-.15.32l-2.1,2.04,1.2,5.9,2.73,1.06c.12.05.22.14.27.26.52.99,1.14,1.93,1.84,2.79.08.09.12.21.12.33l-.05,3.47,5.02,3.33,3.18-1.4c.06-.03.13-.04.2-.04Zm4.92-3.24c-2.53,0-5.08-.72-7.34-2.21-2.97-1.97-4.99-4.97-5.7-8.46-.71-3.49-.02-7.04,1.95-10.01h0c4.07-6.12,12.35-7.81,18.47-3.75,6.12,4.06,7.8,12.35,3.74,18.47-2.56,3.86-6.8,5.96-11.12,5.96Zm-10.26-20.13c-1.82,2.74-2.46,6.03-1.8,9.26.66,3.23,2.53,6,5.27,7.82,5.67,3.75,13.33,2.2,17.08-3.46,3.75-5.66,2.2-13.33-3.46-17.09-5.66-3.75-13.33-2.2-17.09,3.47h0Z"/></g><g><path class="cls-7" d="m384.26,154.24l-15.69-2.12,10.38-77.81-30.28-4.09-73.45,67.63-3.86,28.93,63.29,8.54-3.16,23.66,30.28,4.09,3.16-23.66,15.69,2.12,3.64-27.29Zm-79.42-10.72l38.76-35.33-5.32,39.84-33.44-4.51Z"/><path class="cls-6" d="m352.57,202.33s-.06,0-.09,0c-.27-.05-.45-.31-.4-.58l23.33-127.93c.05-.27.31-.44.58-.4.27.05.45.31.4.58l-23.33,127.93c-.04.24-.25.41-.49.41Z"/><g><path class="cls-6" d="m373.26,75.96c-.02.45-.39.81-.85.79s-.81-.39-.79-.85.39-.81.85-.79c.45.02.81.39.79.85Z"/><path class="cls-6" d="m369.93,93.26c-.02.45-.39.81-.85.79s-.81-.39-.79-.85.39-.81.85-.79c.45.02.81.39.79.85Z"/><path class="cls-6" d="m366.6,110.56c-.02.45-.39.81-.85.79s-.81-.39-.79-.85.39-.81.85-.79c.45.02.81.39.79.85Z"/><path class="cls-6" d="m360.05,128.57c-.02.45-.39.81-.85.79s-.81-.39-.79-.85.39-.81.85-.79.81.39.79.85Z"/><path class="cls-6" d="m359.93,145.16c-.02.45-.39.81-.85.79s-.81-.39-.79-.85.39-.81.85-.79.81.39.79.85Z"/><path class="cls-6" d="m356.6,162.47c-.02.45-.39.81-.85.79s-.81-.39-.79-.85c.02-.45.39-.81.85-.79s.81.39.79.85Z"/><path class="cls-6" d="m353.27,179.77c-.02.45-.39.81-.85.79s-.81-.39-.79-.85.39-.81.85-.79.81.39.79.85Z"/><path class="cls-6" d="m349.94,197.07c-.02.45-.39.81-.85.79s-.81-.39-.79-.85.39-.81.85-.79.81.39.79.85Z"/></g><path class="cls-6" d="m359.23,129.05c-.23,0-.44-.16-.49-.4-.06-.27.11-.54.38-.59l2.48-.53c.27-.05.54.11.59.38.06.27-.11.54-.38.59l-2.48.53s-.07.01-.11.01Z"/><g><path class="cls-6" d="m367.52,119.83s-2.24,5.83-2.99,9.36c-.75,3.53-.8,11.42-.8,11.42"/><path class="cls-6" d="m363.73,141.12h0c-.28,0-.5-.23-.5-.5,0-.32.05-7.98.81-11.53.75-3.53,2.92-9.2,3.01-9.44.1-.26.39-.38.65-.29.26.1.39.39.29.65-.02.06-2.23,5.83-2.97,9.29-.73,3.44-.79,11.25-.79,11.32,0,.28-.23.5-.5.5Z"/></g></g></g></g><g id="Character"><g><path class="cls-6" d="m180.89,227.43c1.39-22.4-1.17-63.13,40.94-57.74,45.14,5.78,32.22,58.56,32.22,58.56l-73.17-.82Z"/><g><circle class="cls-1" cx="209.95" cy="195.59" r="18.38"/><path class="cls-6" d="m212.36,177.25c-8.7-1.49-18.01,4.93-18.93,11.43l34.51,3.17c-1.22-7.41-8.67-13.42-15.58-14.6Z"/><path class="cls-6" d="m224.01,195.13c-.25,4.8-2.86,8.57-5.85,8.42s-5.2-4.17-4.95-8.98c.25-4.8,2.86-8.57,5.85-8.42s5.2,4.17,4.95,8.98Z"/><path class="cls-7" d="m209.95,214.97c-10.68,0-19.38-8.69-19.38-19.38s8.69-19.38,19.38-19.38,19.38,8.69,19.38,19.38-8.69,19.38-19.38,19.38Zm0-36.75c-9.58,0-17.38,7.79-17.38,17.38s7.79,17.38,17.38,17.38,17.38-7.79,17.38-17.38-7.79-17.38-17.38-17.38Z"/></g><path class="cls-2" d="m248.92,226.87s-.08,0-.12-.01c-.27-.06-.43-.33-.37-.6.03-.13,3.22-13.69-.09-27.4-.06-.27.1-.54.37-.6.26-.06.54.1.6.37,3.37,13.95.12,27.73.09,27.87-.06.23-.26.38-.49.38Z"/><path class="cls-2" d="m246.13,191.35c-.19,0-.37-.11-.45-.29-1.29-2.81-2.88-5.38-4.74-7.66-.17-.21-.14-.53.07-.7.21-.18.53-.14.7.07,1.91,2.34,3.56,4.99,4.88,7.87.12.25,0,.55-.25.66-.07.03-.14.05-.21.05Z"/><path class="cls-6" d="m87.17,332.51c-.12,0-.25,0-.37,0-2.76-.08-4.94-2.38-4.86-5.14.08-2.76,2.35-4.89,5.14-4.86.03,0,.06,0,.1,0,2.89,0,9.84-3.51,24.38-26.43.78-1.23,2.06-2.06,3.5-2.27,1.44-.21,2.91.22,4,1.18,17.94,15.64,36.95,25.38,37.14,25.48,2.46,1.25,3.44,4.26,2.19,6.72-1.25,2.46-4.26,3.45-6.72,2.2-.76-.38-17.37-8.88-34.8-23.15-12.19,18.32-21.23,26.27-29.7,26.27Z"/><path class="cls-6" d="m118.1,294.09c-.14,0-.28,0-.43-.03-1.64-.23-2.78-1.75-2.55-3.39.71-4.98-.17-23.63-6.47-38.13-.57-1.32-.13-2.86,1.06-3.68,13.7-9.33,42.88-10.45,44.11-10.49,1.65-.04,3.04,1.24,3.1,2.89.06,1.66-1.24,3.04-2.89,3.1-.27,0-25.78.99-38.89,8.2,5.58,14.44,6.85,32.44,5.92,38.95-.21,1.5-1.5,2.58-2.97,2.58Z"/><path class="cls-7" d="m123.14,290.21c-2-4.71-10.99-4.17-16.27-.14-2.82,2.16-6.64,8.64-7.04,10.99-.4,2.35,1.23,4.48,4.02,4.24,3.45-.3,8.18-5.31,8.18-5.31-3.15,3.09.91,5.27,6.98.8,3.36-2.48,6.36-5.31,4.13-10.58Z"/><path class="cls-6" d="m295.14,228.75s-.09,0-.14-.02c-.27-.08-.42-.35-.34-.62,1.33-4.64,2.79-7.47,4.7-9.05-.29-1-.26-2.14.15-3.26.4-1.09,1.18-2.17,2.36-3-.58-.63-.79-1.45-.59-2.38.23-1.04.98-2.17,2.14-3.16-.45-.52-.56-1.09-.57-1.51-.03-2.98,5.51-7.53,11.76-8.38.27-.05.53.15.56.43.04.27-.15.53-.43.56-5.94.81-10.92,5.11-10.9,7.38,0,.37.14.66.36.9,2.25-1.57,5.57-2.58,9.28-1.86,3.07.59,4.32,1.24,4.17,2.17-.27,1.75-6.81,2.12-11.19,1.59-.99-.12-1.72-.35-2.25-.65-1.09.89-1.79,1.89-1.97,2.73-.16.75.08,1.27.5,1.64,1.86-.96,4.47-1.36,7.92-.59,4.54,1,4.71,1.55,4.81,1.88.07.24.01.48-.16.66-.96,1.01-7.91.53-11.4-.32-.45-.11-.86-.26-1.2-.45-1.16.73-1.9,1.71-2.27,2.71-.29.8-.36,1.59-.23,2.3.18-.11.36-.21.55-.29,2.07-.98,4.57-.82,7.65.5,2.04.88,3.03,1.65,3.1,2.44.02.23-.02.68-.57,1.04-1.52,1.01-6.87.86-9.65-.62-.66-.35-1.17-.87-1.54-1.49-1.63,1.49-2.95,4.17-4.16,8.36-.06.22-.26.36-.48.36Zm5.43-9.33c.28.51.69.93,1.22,1.22,2.26,1.2,6.7,1.48,8.36.8.34-.14.39-.25.39-.25,0,0-.05-.56-2.5-1.61-2.8-1.2-5.04-1.37-6.83-.52-.22.1-.43.22-.64.36Zm3.33-6.57c.09.03.17.05.26.07,3.53.86,8.3,1.01,9.93.74-.51-.21-1.54-.56-3.64-1.02-2.77-.61-4.94-.42-6.56.2Zm1.26-5.62c.45.17.96.27,1.44.32,4.98.59,9.38-.11,10.04-.73-.17-.15-.84-.58-3.33-1.06-3.28-.62-6.15.2-8.15,1.46Z"/><path class="cls-6" d="m164.96,330.84c.66-.21.44-.85-.3-.85h-13.54c-25.78-2.73-43.79.93-32.44,1.79,11.35.86-.8.68-9.09,3.82-8.29,3.14,61.65,3.93,68.02,0,5.87-3.62-21.78-1.83-12.65-4.76Z"/><polygon class="cls-7" points="261.9 334.83 144.1 330.93 139.21 216.7 278.32 219.81 261.9 334.83"/><path class="cls-6" d="m180.89,332.64c-.26,0-.48-.2-.5-.46l-9.44-114.72c-.02-.28.18-.52.46-.54.28-.02.52.18.54.46l9.44,114.72c.02.28-.18.52-.46.54-.01,0-.03,0-.04,0Z"/><g><polygon class="cls-7" points="261.9 334.83 293.56 330.01 303.54 223.8 278.32 219.81 261.9 334.83"/><polygon class="cls-4" points="261.9 334.83 293.56 330.01 303.54 223.8 278.32 219.81 261.9 334.83"/></g><path class="cls-6" d="m154.17,308.91l-2.9-67.86c-.3-7.08,5.44-12.95,12.53-12.79l88.06,1.97c7.35.16,12.91,6.72,11.87,14l-9.76,68.39c-.88,6.2-6.29,10.74-12.55,10.53l-75.39-2.5c-6.41-.21-11.58-5.33-11.85-11.74Z"/><path class="cls-1" d="m242.43,295.75c-.36,0-.71-.14-.97-.43l-8.56-9.37-9.24,8.44c-.54.49-1.37.45-1.85-.08l-8.56-9.37-9.24,8.44c-.54.49-1.37.45-1.85-.08l-8.56-9.37-9.24,8.44c-.26.24-.6.36-.94.34-.35-.02-.68-.17-.91-.43l-8.56-9.37-9.24,8.44c-.53.49-1.37.45-1.85-.08-.49-.54-.45-1.37.08-1.85l10.21-9.33c.53-.49,1.37-.45,1.85.08l8.56,9.37,9.24-8.44c.26-.24.6-.36.94-.34.35.02.68.17.91.43l8.56,9.37,9.24-8.44c.53-.49,1.37-.45,1.85.08l8.56,9.37,9.24-8.44c.53-.49,1.36-.45,1.85.08l9.45,10.34c.49.54.45,1.37-.08,1.85-.25.23-.57.34-.88.34Z"/><g><polygon class="cls-7" points="84.18 337.26 77.93 334.27 72.34 307.11 75.37 303.77 84.18 337.26"/><g><polygon class="cls-7" points="84.18 337.26 92.49 332.41 85.37 310.02 75.37 303.77 84.18 337.26"/><polygon class="cls-4" points="84.18 337.26 92.49 332.41 85.37 310.02 75.37 303.77 84.18 337.26"/></g></g><path class="cls-6" d="m220.38,342.2c-.24,0-.47,0-.69,0-2.76-.08-4.94-2.38-4.86-5.14.08-2.76,2.36-4.93,5.14-4.86,7.7.25,24.01-4.48,33.32-13.52.58-.56,1.28-.97,2.05-1.2,15.79-4.74,21.66,4.83,21.91,5.24l-8.61,5.09s.03.07.12.18c-.1-.13-2.33-3.04-9.45-1.24-11.69,10.67-29.63,15.45-38.91,15.45Z"/><g><polygon class="cls-7" points="219.83 348.84 201.62 347.7 200.18 314.12 224.66 315.03 219.83 348.84"/><g><polygon class="cls-7" points="219.83 348.84 224.09 344.61 226.72 323.67 224.66 315.03 219.83 348.84"/><polygon class="cls-4" points="219.83 348.84 224.09 344.61 226.72 323.67 224.66 315.03 219.83 348.84"/></g></g><path class="cls-6" d="m325.34,336.13c-.63,0-1.27-.2-1.81-.61-10.39-7.9-24.45-21.93-29.84-35.46-.08-.2-.14-.4-.17-.61-2.63-15.63-5.14-48.54-5.25-49.93-.13-1.65,1.11-3.09,2.76-3.22,1.65-.12,3.09,1.11,3.22,2.76.03.34,2.56,33.57,5.13,49.07,5.38,13.16,19.96,26.67,27.78,32.61,1.32,1,1.58,2.88.57,4.2-.59.78-1.49,1.18-2.39,1.18Z"/><path class="cls-6" d="m339.21,337.64c-2.32,0-4.95-1.05-7.81-3.12-1.34-.97-1.64-2.85-.67-4.19.97-1.34,2.85-1.64,4.19-.67,2.48,1.79,3.83,1.99,4.3,1.99,1.66,0,3,1.34,3,3s-1.34,3-3,3Z"/><path class="cls-7" d="m332.24,334.43c3.21-9.54,16.37-7.65,20.9-6.24,4.53,1.42,8.61,3.2,11.07,4.8,2.45,1.6,2.49,4.29-.78,5.82-4.04,1.89-14.16.21-14.16.21,5.24,2.29-.01,5.97-9.21,2.36-2.99-1.18-8.96-3.46-7.83-6.96Z"/><path class="cls-6" d="m300.3,253.63c-1.19,8.1-7.9,14.08-13.36,13.27-5.46-.8-5.68-8.04-4.49-16.14,1.19-8.1,3.35-14,8.81-13.2,5.46.8,10.24,7.96,9.04,16.06Z"/><circle class="cls-6" cx="168.31" cy="220.47" r=".82"/><path class="cls-6" d="m176.64,226.37c0,.45-.37.82-.82.82s-.82-.37-.82-.82.37-.82.82-.82.82.37.82.82Z"/><path class="cls-6" d="m177.56,323.27c0,.45-.37.82-.82.82s-.82-.37-.82-.82.37-.82.82-.82.82.37.82.82Z"/><path class="cls-6" d="m185.07,329.18c0,.45-.37.82-.82.82s-.82-.37-.82-.82.37-.82.82-.82.82.37.82.82Z"/><g><path class="cls-1" d="m188.72,250.29l-6.53,16.64-5.13-.17-5.41-17.04,4.37.15,3.75,12.85,4.62-12.57,4.34.14Z"/><path class="cls-1" d="m194.52,250.48l-.56,16.84-4.1-.14.56-16.84,4.1.14Z"/><path class="cls-1" d="m205.52,267.7l-3.29-6.47-.98-.03-.21,6.36-4.1-.14.56-16.84,6.88.23c1.33.04,2.45.31,3.37.81s1.6,1.15,2.04,1.98c.44.82.64,1.73.61,2.72-.04,1.12-.39,2.11-1.05,2.97-.66.86-1.61,1.45-2.86,1.78l3.66,6.8-4.63-.15Zm-4.18-9.41l2.54.08c.75.03,1.32-.14,1.71-.5.39-.35.59-.87.62-1.54.02-.64-.15-1.15-.51-1.53s-.92-.58-1.67-.61l-2.54-.08-.14,4.17Z"/><path class="cls-1" d="m227.72,251.59l-.56,16.84-4.1-.14.23-6.93-6.38-.21-.23,6.93-4.1-.14.56-16.84,4.1.14-.22,6.6,6.38.21.22-6.6,4.1.14Z"/><path class="cls-1" d="m234.66,255.11l-.11,3.41,5.49.18-.11,3.17-5.49-.18-.12,3.69,6.21.21-.11,3.29-10.31-.34.56-16.84,10.31.34-.11,3.29-6.21-.21Z"/></g></g></g><g id="Robot_Parts"><g><path class="cls-6" d="m40.94,339.01c-2.38,0-5.6-1.44-7.33-3.95-.16-.23-.1-.54.13-.7.23-.16.54-.1.7.13,1.87,2.69,5.98,4.13,7.81,3.28.19-.09.35-.2.47-.34-1.63-.75-3.12-2.23-3.53-4.48-.23-1.27-.41-2.98.64-3.22,1.43-.32,3.31,3.15,4.03,5.78.13.49.18.94.13,1.34.63.17,1.25.22,1.79.14.43-.06,1.05-.24,1.37-.75-1.21-.82-2.03-2.27-2.3-4.19-.39-2.73-.1-3.21.21-3.44.2-.15.45-.18.69-.08,1.07.46,2.37,4.33,2.61,6.53.03.24.03.47,0,.69.41.16.86.25,1.35.26.87.05,1.72-.23,2.41-.63-.14-.09-.28-.19-.4-.3-1.04-.89-1.46-2.3-1.28-4.33.14-1.57.49-2.42,1.12-2.69.22-.1.67-.19,1.21.24,1.08.86,2.09,3.6,1.73,5.56-.08.41-.25.79-.5,1.15,1.83.32,4.42-.2,6.64-.75.27-.07.54.1.61.37s-.1.54-.37.61c-2.71.67-5.63,1.21-7.69.62-.92.73-2.21,1.17-3.5,1.16-.59-.01-1.14-.12-1.64-.31-.39.67-1.13,1.12-2.12,1.27-.66.1-1.45.04-2.24-.19-.23.38-.56.68-1.01.89-.48.22-1.07.33-1.72.33Zm-.86-8.28c-.06.15-.16.66.08,2.04.33,1.84,1.52,3.06,2.84,3.71,0-.21-.05-.45-.12-.71-.79-2.86-2.28-4.83-2.81-5.04Zm5.57-.87c0,.38.03,1.01.18,2.06.2,1.43.73,2.52,1.52,3.22-.23-2.01-1.12-4.33-1.7-5.28Zm6.29-.87h0s-.38.19-.52,1.86c-.15,1.68.16,2.82.93,3.48.18.15.38.28.6.38.28-.31.48-.66.54-1.03.27-1.45-.42-3.57-1.2-4.43-.2-.22-.33-.27-.36-.27Z"/><g><polygon class="cls-6" points="187.31 346.57 190.02 341.87 187.31 337.17 184.41 337.17 186.04 341.87 184.41 346.57 187.31 346.57"/><path class="cls-6" d="m184.6,344.32c-1.35,0-2.45-1.1-2.45-2.45s1.1-2.44,2.45-2.44l-4.61-.92-1.22,3.72,2.06,3.14,3.77-1.05Z"/><path class="cls-7" d="m184.99,337.17h-5.43l-2.71,4.7,2.71,4.7h5.43l2.71-4.7-2.71-4.7Zm-2.71,7.15c-1.35,0-2.45-1.1-2.45-2.45s1.1-2.44,2.45-2.44,2.44,1.09,2.44,2.44-1.09,2.45-2.44,2.45Z"/></g><g><polygon class="cls-7" points="376.32 336.86 374.31 333.37 376.32 329.88 378.48 329.88 377.26 333.37 378.48 336.86 376.32 336.86"/><path class="cls-7" d="m378.34,335.19c1,0,1.82-.82,1.82-1.82s-.82-1.81-1.82-1.81l3.42-.68.91,2.76-1.53,2.33-2.8-.78Z"/><path class="cls-6" d="m378.04,329.88h4.03l2.01,3.49-2.01,3.49h-4.03l-2.01-3.49,2.01-3.49Zm2.01,5.31c1,0,1.82-.82,1.82-1.82s-.82-1.81-1.82-1.81-1.81.81-1.81,1.81.81,1.82,1.81,1.82Z"/></g><g><path class="cls-6" d="m301.38,341.49h4.52c1.18,0,2.14-.96,2.14-2.14h0c0-1.18-.96-2.14-2.14-2.14h-4.52c-1.18,0-2.14.96-2.14,2.14h0c0,1.18.96,2.14,2.14,2.14Z"/><path class="cls-7" d="m294.16,337.45c1.12-2.37,3.82-3.44,6.04-2.39,2.22,1.05,3.12,3.81,2,6.18s-3.82,3.44-6.04,2.39c-2.22-1.05-3.12-3.81-2-6.18Z"/><rect class="cls-6" x="297.5" y="334.3" width="1.37" height="10.1" transform="translate(423.18 773.46) rotate(-154.76)"/></g></g></g></svg>