<?xml version="1.0" encoding="UTF-8"?><svg id="Layer_1" xmlns="http://www.w3.org/2000/svg" viewBox="0 0 410.7 350.1"><defs><style>.cls-1,.cls-2{fill:#fff;}.cls-3,.cls-2{opacity:.3;}.cls-3,.cls-2,.cls-4{isolation:isolate;}.cls-3,.cls-5{fill:#787eba;}.cls-6{fill:#efeff6;}.cls-7{fill:#1f2937;}.cls-4{opacity:.2;}</style></defs><g id="Background_Complete"><g><path class="cls-6" d="m174.5,123.5l.4-13.1-8.1-2.6c-.3-4.5-1.1-8.9-2.1-13.2l6.8-5-4.6-12.3-8.5.7c-2-4-4.4-7.8-7-11.3l4.4-7.3-9-9.6-7.6,3.9c-3.4-2.9-7-5.5-10.8-7.8l1.2-8.4-12-5.5-5.5,6.4c-4.2-1.4-8.5-2.4-13-3l-2-8.2-13.2-.5-2.6,8.1c-4.5.4-8.9,1.1-13.2,2.2l-5.1-7.2-12.3,4.6.7,8.5c-4,2-7.8,4.4-11.4,7.1l-7.3-4.4-9.6,9,3.9,7.6c-2.9,3.4-5.5,7-7.8,10.8l-8.4-1.3-5.5,12,6.5,5.5c-1.4,4.2-2.4,8.6-3.1,13l-8.3,2.1-.4,13.2,8.1,2.6c.3,4.5,1.1,8.9,2.2,13.2l-6.8,5,4.5,12.4,8.5-.7c2,4,4.4,7.8,7,11.4l-4.4,7.3,9,9.6,7.6-3.9c3.4,2.9,7,5.5,10.8,7.8l-1.3,8.4,12,5.4,5.5-6.4c4.2,1.4,8.5,2.4,13,3.1l2,8.2,13.2.4,2.6-8.1c4.5-.4,8.9-1.1,13.2-2.1l5,6.8,12.3-4.6-.7-8.5c4-2.1,7.8-4.4,11.3-7.1l7.3,4.4,9.6-9-3.9-7.6c2.9-3.4,5.5-7,7.8-10.8l8.4,1.3,5.5-12-6.5-5.5c1.4-4.2,2.4-8.5,3.1-13l8.6-2h0Zm-88.8,42.5c-28.8-1-51.3-25.1-50.3-53.9s25.1-51.3,53.9-50.4c28.8,1,51.3,25.1,50.3,53.9-1,28.9-25.1,51.4-53.9,50.4Z"/><path class="cls-6" d="m399.4,80l3.3-3.1-1.3-2.6c1-1.2,1.9-2.4,2.7-3.7l2.9.4,1.9-4.1-2.2-1.9c.5-1.5.8-3,1-4.5l2.9-.7.1-4.5-2.8-.9c-.1-1.5-.4-3-.7-4.5l2.4-1.8-1.6-4.2-3,.1c-.7-1.3-1.5-2.7-2.4-3.9l1.5-2.5-3.1-3.3-2.6,1.3c-1.2-1-2.4-1.9-3.7-2.7l.3-2.9-4.1-1.9-1.9,2.2c-1.5-.5-3-.8-4.5-1l-.7-2.8-4.5-.2-.9,2.8c-1.5.1-3,.4-4.5.7l-1.7-2.4-4.3,1.6.2,2.9c-1.4.7-2.7,1.5-3.9,2.4l-2.5-1.5-3.3,3.1,1.3,2.6c-1,1.2-1.9,2.4-2.7,3.7l-3-.2-1.9,4.1,2.2,1.9c-.5,1.5-.8,3-1,4.5l-2.9.7-.1,4.5,2.8.9c.1,1.5.4,3,.7,4.5l-2.4,1.7,1.6,4.2,2.9-.2c.7,1.3,1.5,2.7,2.4,3.9l-1.5,2.5,3.1,3.3,2.6-1.3c1.2,1,2.4,1.9,3.7,2.7l-.4,2.9,4.1,1.9,1.9-2.2c1.5.5,3,.8,4.5,1l.7,2.8,4.5.2.9-2.8c1.5-.1,3-.4,4.5-.7l1.7,2.3,4.3-1.6-.2-2.9c1.4-.7,2.7-1.5,3.9-2.4l2.8,1.6h0Zm-23.6-19.1c-2.4-2.6-2.3-6.7.3-9.1,2.6-2.4,6.7-2.3,9.1.3s2.3,6.7-.3,9.1c-2.6,2.4-6.7,2.3-9.1-.3h0Z"/><path class="cls-6" d="m278.4,214.9l-10.3-7.1h0c-1-3.8-2.4-7.4-4.2-10.8l2.6-10.4-15-16.1-10.6,1.9c-3.3-1.9-6.8-3.6-10.4-4.9h0l-6.4-10.8-22-.8-7.1,10.3h0c-3.8,1-7.4,2.4-10.8,4.1l-10.4-2.6-16.1,15,1.9,10.5h0c-2,3.3-3.6,6.8-4.9,10.5l-10.8,6.4-.8,22,10.4,7.1c1,3.8,2.4,7.4,4.1,10.8q1.2,2.3,0,0l-2.6,10.4,15,16.1,10.5-1.9c3.3,2,6.8,3.6,10.6,4.9h0l6.4,10.8,22,.8,7.1-10.3c3.8-1,7.4-2.4,10.9-4.2h0l10.4,2.6,16.1-15-1.9-10.5c2-3.3,3.6-6.8,4.9-10.5h0l10.8-6.4.6-21.9h0Zm-68.4,33.4c-13.6-.5-24.3-11.9-23.9-25.6.5-13.6,11.9-24.3,25.6-23.9,13.6.5,24.3,11.9,23.9,25.6-.5,13.7-12,24.4-25.6,23.9Z"/><path class="cls-6" d="m302,152.6s-.1,0,0,0l-17.4-.6c-.7,0-1.4-.4-1.7-1l-4.7-7.9c-2.5-.9-4.9-2-7.3-3.4l-7.5,1.4c-.7.1-1.4-.1-1.9-.6l-11.8-12.7c-.5-.5-.7-1.3-.5-2l1.9-7.4c-1.1-2.3-2.1-4.8-2.9-7.5l-7.5-5.2c-.6-.4-.9-1.1-.9-1.8l.6-17.3c0-.7.4-1.4,1-1.7l7.9-4.7c.9-2.6,2.1-5,3.4-7.2l-1.4-7.5c-.1-.7.1-1.4.6-1.9l12.7-11.8c.5-.5,1.3-.7,2-.5l7.4,1.9c2.4-1.2,4.9-2.1,7.5-2.9l5.2-7.5c.4-.6,1.1-1,1.8-.9l17.3.6c.7,0,1.4.4,1.7,1l4.7,7.9c2.5.9,4.9,2,7.2,3.4l7.5-1.4c.7-.1,1.4.1,1.9.6l11.8,12.7c.5.5.7,1.3.5,2l-1.9,7.4c1.2,2.4,2.1,4.9,2.9,7.4l7.5,5.2c.6.4.9,1.1.9,1.8l-.6,17.3c0,.7-.4,1.4-1,1.7l-7.9,4.7c-.9,2.6-2.1,5-3.4,7.2l1.4,7.5c.1.7-.1,1.4-.6,1.9l-12.7,11.8c-.5.5-1.3.7-2,.5l-7.4-1.9c-2.4,1.2-5,2.1-7.5,2.9l-5.2,7.5c-.3.6-.9,1-1.6,1h0Zm-16.1-4.8l15,.5,5-7.2c.3-.4.7-.7,1.2-.8,2.8-.7,5.5-1.8,8.1-3.1h0c.4-.2,1-.3,1.5-.1l7,1.8,11-10.2-1.3-7.2c-.1-.5,0-1,.3-1.5,1.5-2.4,2.7-5,3.6-7.8.2-.5.5-.9.9-1.2l7.5-4.5.5-15-7.2-5c-.4-.3-.7-.6-.8-1.1v-.2c-.8-2.8-1.8-5.5-3.1-8.1-.2-.5-.3-1-.2-1.5l1.8-7.1-10.2-11-7.2,1.3c-.5.1-1,0-1.5-.3-2.5-1.5-5.1-2.7-7.9-3.7-.1,0-.3-.1-.4-.2-.3-.2-.5-.4-.7-.7l-4.5-7.5-15-.5-5,7.2c-.3.4-.7.7-1.2.8-2.8.8-5.5,1.8-8,3.1-.5.2-1,.3-1.5.2l-7.1-1.8-11,10.2,1.3,7.2c.1.4,0,.9-.2,1.3,0,.1-.1.1-.1.2-1.4,2.4-2.7,5.1-3.6,7.9-.2.5-.5.9-.9,1.1l-7.5,4.5-.5,15,7.2,5c.4.3.7.7.8,1.2.8,2.9,1.8,5.6,3.1,8.1.1.1.1.3.2.4.1.3.1.7,0,1l-1.8,7.1,10.2,11,7.1-1.3c.5-.1,1,0,1.5.3,2.5,1.5,5.2,2.7,7.9,3.7.5.1.9.5,1.2.9l4.5,7.6h0Zm24.8-94.8h0Zm-15.5,75.8h-1.1c-17.5-.6-31.1-15.3-30.6-32.7.6-17.4,15.3-31.2,32.7-30.6,17.5.6,31.1,15.3,30.6,32.7-.3,8.4-3.9,16.3-10,22-6,5.6-13.6,8.6-21.6,8.6h0Zm-.1-59.1c-14.7,0-26.9,11.7-27.4,26.5-.5,15.1,11.4,27.8,26.5,28.4,7.3.2,14.3-2.4,19.7-7.4,5.4-5,8.4-11.8,8.7-19.1.5-15.1-11.4-27.8-26.5-28.4h-1Z"/><g><polygon class="cls-6" points="341.9 27.9 334.7 26 332.8 18.8 335.6 16 338.5 22.1 344.7 25.1 341.9 27.9"/><path class="cls-6" d="m342.3,23.1c1.3-1.3,1.3-3.4,0-4.7s-3.4-1.3-4.7,0l3.6-5.4,4.8,2.4,1,5-4.7,2.7h0Z"/><path class="cls-6" d="m335,16.6l5.3-5.3,7.2,1.9,1.9,7.2-5.3,5.3-7.2-1.9-1.9-7.2Zm9.6,4.3c1.3-1.3,1.3-3.4,0-4.7-1.3-1.3-3.4-1.3-4.7,0-1.3,1.3-1.3,3.4,0,4.7,1.2,1.3,3.4,1.3,4.7,0h0Z"/></g><g><polygon class="cls-6" points="48.7 219.3 52.5 218.3 53.5 214.4 52 212.9 50.4 216.2 47.2 217.8 48.7 219.3"/><path class="cls-6" d="m48.4,216.7c-.7-.7-.7-1.8,0-2.6s1.8-.7,2.5,0l-1.9-2.9-2.6,1.3-.6,2.7,2.6,1.5Z"/><path class="cls-6" d="m52.3,213.2l-2.8-2.8-3.8,1-1,3.9,2.8,2.8,3.8-1,1-3.9Zm-5.1,2.3c-.7-.7-.7-1.8,0-2.6s1.8-.7,2.5,0,.7,1.8,0,2.5-1.8.8-2.5.1h0Z"/></g><g><path class="cls-6" d="m34.8,8.2l3.2,3.2c.8.8,2.2.8,3,0h0c.8-.8.8-2.2,0-3l-3.2-3.2c-.8-.8-2.2-.8-3,0h0c-.8.9-.8,2.2,0,3Z"/><path class="cls-6" d="m32.5.3c2.5-.9,5.1.3,6,2.6.8,2.3-.5,4.9-3,5.8s-5.1-.3-6-2.6c-.7-2.3.6-4.9,3-5.8Z"/><rect class="cls-6" x="29" y="3.8" width="10.1" height="1.4" transform="translate(.48 11.78) rotate(-19.76)"/></g></g></g><g id="Shadow"><ellipse id="_Path_" class="cls-6" cx="208.4" cy="338.8" rx="193.9" ry="11.3"/></g><g id="_404"><g><path class="cls-5" d="m263.9,65.6c-.6-5.3-1.6-10.1-3.2-14.2-1.5-4.1-3.9-8.2-7-12.2s-7.4-7.4-12.7-10.4c-5.4-2.9-12.4-5-21.2-6.1-18.3-2.4-32.6.9-42.8,9.7-10.2,8.8-17,25.9-20.2,51-1.3,10.2-1.6,19.7-1,28.3.7,8.7,2.3,15.7,4.8,20.9,3.4,7.4,8.3,13.3,14.6,17.8,6.3,4.4,15,7.4,25.9,8.8,19.6,2.6,34.1-1.2,43.6-11.3,9.4-10.1,15.7-27.1,18.8-51.1,1.4-10.6,1.5-21.1.4-31.2h0Z"/><path class="cls-7" d="m210.2,149c-2.4-.1-5-.3-7.6-.6-9.1-1.2-16.2-3.5-21.1-6.9-4.8-3.3-8.4-7.7-11-13.4l-.1-.1c-1.9-4-3.2-9.8-3.7-17-.6-7.9-.3-16.7.9-26.1,3.6-27.7,10.9-39.3,16.5-44.1,6.5-5.6,15.2-8.2,26.7-7.8,2.4.1,4.9.3,7.4.6,7.4,1,13.2,2.6,17.4,4.9,4,2.2,7.1,4.7,9.3,7.5,2.4,3.1,4.2,6.2,5.4,9.3,1.2,3.3,2.1,7.2,2.6,11.6,1.1,9.3,1,19-.3,28.7-2.8,21.5-8.1,36.7-15.9,45-5.8,6.1-14.4,8.8-26.5,8.4h0Z"/><path class="cls-5" d="m229.8,65.9l.1-3.8-2.3-.8c-.1-1.3-.3-2.6-.6-3.8l2-1.5-1.3-3.6-2.4.2c-.6-1.2-1.3-2.2-2-3.3l1.3-2.1-2.6-2.8-2.2,1.1c-1-.8-2-1.6-3.1-2.3l.4-2.4-3.5-1.6-1.6,1.9c-1.2-.4-2.5-.7-3.8-.9l-.6-2.4-3.8-.1-.8,2.3c-1.3.1-2.6.3-3.8.6l-1.5-2-3.6,1.3.2,2.4c-1.1.6-2.2,1.3-3.3,2l-2.1-1.3-2.8,2.6,1.1,2.2c-.8,1-1.6,2-2.2,3.1l-2.4-.4-1.6,3.5,1.9,1.6c-.4,1.2-.7,2.5-.9,3.8l-2.4.6-.1,3.8,2.3.8c.1,1.3.3,2.6.6,3.8l-2,1.4,1.3,3.6,2.4-.2c.6,1.2,1.3,2.2,2,3.3l-1.3,2.1,2.6,2.8,2.2-1.1c1,.8,2,1.6,3.1,2.3l-.4,2.4,3.5,1.6,1.6-1.9c1.2.4,2.5.7,3.8.9l.6,2.4,3.8.1.8-2.3c1.3-.1,2.6-.3,3.8-.6l1.4,2,3.6-1.3-.2-2.4c1.1-.6,2.2-1.3,3.3-2l2.1,1.3,2.8-2.6-1.1-2.2c.8-1,1.6-2,2.2-3.1l2.4.4,1.6-3.5-1.9-1.6c.4-1.2.7-2.5.9-3.8l2.5-.5h0Zm-25.6,12.2c-8.3-.3-14.8-7.2-14.5-15.5.3-8.3,7.2-14.8,15.5-14.5s14.8,7.2,14.5,15.5c-.3,8.3-7.2,14.8-15.5,14.5Z"/><path class="cls-3" d="m245.6,135.5l.3-2.6-1.5-.6c0-.9-.1-1.8-.2-2.6l1.4-.9-.7-2.5h-1.7c-.3-.8-.7-1.6-1.2-2.3l.9-1.4-1.6-2-1.5.6c-.6-.6-1.3-1.2-2-1.7l.4-1.6-2.2-1.2-1.2,1.2c-.8-.3-1.6-.6-2.5-.8l-.3-1.6-2.6-.3-.6,1.5c-.9,0-1.7.1-2.6.2l-.9-1.4-2.5.7v1.7c-.8.3-1.6.7-2.3,1.2l-1.4-1-2,1.6.6,1.5c-.6.6-1.2,1.3-1.7,2l-1.6-.4-1.2,2.2,1.2,1.2c-.3.8-.6,1.6-.8,2.5l-1.6.3-.3,2.6,1.5.6c0,.9.1,1.7.2,2.6l-1.4.9.7,2.5h1.7c.3.8.7,1.6,1.2,2.3l-1,1.4,1.6,2,1.5-.6c.6.6,1.3,1.2,2,1.7l-.4,1.6,2.2,1.2,1.2-1.2c.8.3,1.6.6,2.5.8l.3,1.6,2.6.3.6-1.5c.9,0,1.7-.1,2.6-.2l.9,1.4,2.5-.7v-1.7c.8-.3,1.6-.7,2.3-1.2l1.4,1,2-1.6-.6-1.5c.6-.6,1.2-1.3,1.7-2l1.6.4,1.2-2.2-1.2-1.2c.3-.8.6-1.6.8-2.5l1.7-.3h0Zm-12.9-1c-1.2,2.2-3.9,3-6.1,1.8s-2.9-3.9-1.8-6.1c1.2-2.2,3.9-2.9,6.1-1.8,2.2,1.2,3,3.9,1.8,6.1h0Z"/><path class="cls-1" d="m259.7,92.2l-3-2.1h0c-.3-1.1-.7-2.1-1.2-3.1l.8-3-4.3-4.6-3,.6c-.9-.6-1.9-1-3-1.4h0l-1.9-3.1-6.3-.2-2.1,3h0c-1.1.3-2.1.7-3.1,1.2l-3-.8-4.6,4.3.6,3h0c-.6.9-1,2-1.4,3l-3.1,1.8-.2,6.3,3,2.1c.3,1.1.7,2.1,1.2,3.1q.3.7,0,0l-.8,3,4.3,4.6,3-.6c.9.6,2,1,3,1.4h0l1.9,3.1,6.3.2,2.1-3c1.1-.3,2.1-.7,3.1-1.2h0l3,.8,4.6-4.3-.6-3c.6-.9,1-2,1.4-3h0l3.1-1.8.2-6.3h0Zm-19.7,9.7c-3.9-.1-7-3.4-6.9-7.4.1-3.9,3.4-7,7.4-6.9,3.9.1,7,3.4,6.9,7.4-.2,3.9-3.5,7-7.4,6.9Z"/><path class="cls-5" d="m281.5,41.7l.5-1.3h0c.4-.2.7-.4,1-.7h1.2l1.4-2-.4-1.1c.1-.4.2-.8.3-1.2h0l1-.9-.4-2.3-1.3-.5h0c-.2-.4-.4-.7-.7-1v-1.2l-2-1.4-1.1.4h0c-.4-.1-.8-.2-1.2-.3l-.9-1-2.3.4-.5,1.3c-.4.2-.7.4-1,.7q-.2.2,0,0h-1.2l-1.4,2,.4,1.1c-.1.4-.2.8-.3,1.2h0l-1,.9.4,2.3,1.3.5c.2.4.4.7.7,1h0v1.2l2,1.4,1.1-.4c.4.1.8.2,1.2.3h0l.9,1,2.3-.4h0Zm-5.1-6.5c-.3-1.5.7-2.8,2.2-3.1s2.8.7,3.1,2.2-.7,2.8-2.2,3.1-2.8-.7-3.1-2.2Z"/><path class="cls-5" d="m254,35.1l-.8-.6c1.3-1.6,3.2-3.6,6-5l.5.9c-2.9,1.5-4.8,3.7-5.7,4.7h0Z"/><path class="cls-5" d="m262,29.4l-.4-.9c3.8-1.6,7.7-2.2,11.7-1.9l-.1,1c-3.8-.4-7.5.2-11.2,1.8h0Z"/><path class="cls-5" d="m260.1,36.3l-.8-.6c2-3,6.1-5.6,9.9-6.4l.2,1c-3.5.7-7.3,3.2-9.3,6h0Z"/><path class="cls-1" d="m193.8,132.6c-.1,0-.3-.1-.4-.1l-2.1-2.2c-1.1-.1-2.1-.3-3.1-.6l-3.3,1.4c-.2.1-.3.1-.5,0l-5.5-3.6c-.1-.1-.2-.2-.2-.4l.1-3.6c-.7-.8-1.3-1.7-1.8-2.7l-2.8-1.1c-.2-.1-.3-.2-.3-.4l-1.3-6.4c0-.2,0-.3.1-.5l2.2-2.1c.1-1.1.3-2.1.6-3.2l-1.4-3.3c-.1-.2-.1-.3,0-.5l3.6-5.5c.1-.1.2-.2.4-.2l3.6.1c.8-.7,1.7-1.3,2.7-1.8l1.1-2.8c.1-.2.2-.3.4-.3l6.4-1.3c.2,0,.3,0,.5.1l2.1,2.2c1.1.1,2.1.3,3.1.6l3.3-1.4c.2-.1.3-.1.5,0l5.5,3.6c.1.1.2.2.2.4l-.1,3.6c.7.8,1.3,1.7,1.8,2.7l2.8,1.1c.2.1.3.2.3.4l1.3,6.4c0,.2,0,.3-.1.5l-2.2,2.1c-.1,1.1-.3,2.1-.6,3.1l1.4,3.3c.1.2.1.3,0,.5l-3.6,5.5c-.1.1-.2.2-.4.2l-3.6-.1c-.8.7-1.7,1.2-2.7,1.8l-1.1,2.8c-.1.2-.2.3-.4.3l-6.5,1.4q0-.1,0,0h0Zm-5.7-4h.1c1.1.3,2.2.5,3.3.6.1,0,.2.1.3.1l2,2.1,5.9-1.2,1.1-2.7c0-.1.1-.2.2-.3,1-.5,1.9-1.1,2.8-1.8.1-.1.2-.1.3-.1l3.5.1,3.3-5-1.4-3.2c-.1-.1-.1-.2,0-.3.3-1.1.5-2.2.6-3.3,0-.1.1-.2.1-.3l2.1-2-1.2-5.9-2.7-1.1c-.1,0-.2-.1-.3-.2-.5-1-1.1-1.9-1.9-2.8-.1-.1-.1-.2-.1-.3l.1-3.5-5-3.3-3.2,1.4c-.1.1-.2.1-.3,0-1.1-.3-2.2-.5-3.3-.6-.1,0-.2-.1-.3-.2l-2-2.1-5.9,1.2-1.1,2.7c0,.1-.1.2-.2.3-1,.5-1.9,1.1-2.8,1.8-.1.1-.2.1-.3.1l-3.5-.1-3.3,5,1.4,3.2c.1.1.1.3,0,.4-.3,1-.5,2.1-.6,3.2,0,.1-.1.2-.1.3l-2.1,2,1.2,5.9,2.7,1.1c.1.1.2.1.3.3.5,1,1.1,1.9,1.8,2.8.1.1.1.2.1.3l-.1,3.5,5,3.3,3.2-1.4c.2,0,.3,0,.3,0h0Zm5-3.2c-2.5,0-5.1-.7-7.3-2.2-3-2-5-5-5.7-8.5s0-7,1.9-10h0c4.1-6.1,12.4-7.8,18.5-3.8s7.8,12.3,3.7,18.5c-2.6,3.9-6.8,6-11.1,6h0Zm-10.3-20.1c-1.8,2.7-2.5,6-1.8,9.3s2.5,6,5.3,7.8c5.7,3.8,13.3,2.2,17.1-3.5s2.2-13.3-3.5-17.1c-5.7-3.8-13.3-2.2-17.1,3.5h0Z"/></g></g><g id="Character"><g><path class="cls-7" d="m180.9,227.4c1.4-22.4-1.2-63.1,40.9-57.7,45.1,5.8,32.2,58.6,32.2,58.6l-73.1-.9h0Z"/><g><circle class="cls-1" cx="209.9" cy="195.6" r="18.4"/><path class="cls-7" d="m212.4,177.2c-8.7-1.5-18,4.9-18.9,11.4l34.5,3.2c-1.3-7.4-8.7-13.4-15.6-14.6h0Z"/><path class="cls-7" d="m224,195.1c-.2,4.8-2.9,8.6-5.9,8.4s-5.2-4.2-4.9-9c.2-4.8,2.9-8.6,5.9-8.4s5.2,4.2,4.9,9Z"/><path class="cls-5" d="m209.9,215c-10.7,0-19.4-8.7-19.4-19.4s8.7-19.4,19.4-19.4,19.4,8.7,19.4,19.4-8.7,19.4-19.4,19.4Zm0-36.8c-9.6,0-17.4,7.8-17.4,17.4s7.8,17.4,17.4,17.4,17.4-7.8,17.4-17.4-7.8-17.4-17.4-17.4Z"/></g><path class="cls-2" d="m248.9,226.9h-.1c-.3-.1-.4-.3-.4-.6,0-.1,3.2-13.7-.1-27.4-.1-.3.1-.5.4-.6.3-.1.5.1.6.4,3.4,13.9.1,27.7.1,27.9-.1.1-.3.3-.5.3h0Z"/><path class="cls-2" d="m246.1,191.4c-.2,0-.4-.1-.4-.3-1.3-2.8-2.9-5.4-4.7-7.7-.2-.2-.1-.5.1-.7.2-.2.5-.1.7.1,1.9,2.3,3.6,5,4.9,7.9.1.2,0,.6-.2.7-.2-.1-.3,0-.4,0h0Z"/><path class="cls-7" d="m87.2,332.5h-.4c-2.8-.1-4.9-2.4-4.9-5.1s2.3-4.9,5.1-4.9h.1c2.9,0,9.8-3.5,24.4-26.4.8-1.2,2.1-2.1,3.5-2.3s2.9.2,4,1.2c17.9,15.6,37,25.4,37.1,25.5,2.5,1.2,3.4,4.3,2.2,6.7s-4.3,3.5-6.7,2.2c-.8-.4-17.4-8.9-34.8-23.1-12.1,18.3-21.2,26.2-29.6,26.2h0Z"/><path class="cls-7" d="m118.1,294.1h-.4c-1.6-.2-2.8-1.8-2.6-3.4.7-5-.2-23.6-6.5-38.1-.6-1.3-.1-2.9,1.1-3.7,13.7-9.3,42.9-10.4,44.1-10.5,1.6,0,3,1.2,3.1,2.9s-1.2,3-2.9,3.1c-.3,0-25.8,1-38.9,8.2,5.6,14.4,6.8,32.4,5.9,38.9-.2,1.5-1.4,2.6-2.9,2.6h0Z"/><path class="cls-5" d="m123.1,290.2c-2-4.7-11-4.2-16.3-.1-2.8,2.2-6.6,8.6-7,11s1.2,4.5,4,4.2c3.4-.3,8.2-5.3,8.2-5.3-3.2,3.1.9,5.3,7,.8,3.4-2.5,6.4-5.3,4.1-10.6h0Z"/><path class="cls-7" d="m295.1,228.8h-.1c-.3-.1-.4-.4-.3-.6,1.3-4.6,2.8-7.5,4.7-9.1-.3-1-.3-2.1.1-3.3.4-1.1,1.2-2.2,2.4-3-.6-.6-.8-1.4-.6-2.4.2-1,1-2.2,2.1-3.2-.5-.5-.6-1.1-.6-1.5,0-3,5.5-7.5,11.8-8.4.3-.1.5.1.6.4,0,.3-.1.5-.4.6-5.9.8-10.9,5.1-10.9,7.4,0,.4.1.7.4.9,2.2-1.6,5.6-2.6,9.3-1.9,3.1.6,4.3,1.2,4.2,2.2-.3,1.8-6.8,2.1-11.2,1.6-1-.1-1.7-.4-2.2-.6-1.1.9-1.8,1.9-2,2.7s.1,1.3.5,1.6c1.9-1,4.5-1.4,7.9-.6,4.5,1,4.7,1.6,4.8,1.9.1.2,0,.5-.2.7-1,1-7.9.5-11.4-.3-.5-.1-.9-.3-1.2-.4-1.2.7-1.9,1.7-2.3,2.7-.3.8-.4,1.6-.2,2.3.2-.1.4-.2.5-.3,2.1-1,4.6-.8,7.6.5,2,.9,3,1.6,3.1,2.4,0,.2,0,.7-.6,1-1.5,1-6.9.9-9.6-.6-.7-.4-1.2-.9-1.5-1.5-1.6,1.5-3,4.2-4.2,8.4-.1.2-.3.4-.5.4h0Zm5.5-9.4c.3.5.7.9,1.2,1.2,2.3,1.2,6.7,1.5,8.4.8.3-.1.4-.2.4-.2,0,0,0-.6-2.5-1.6-2.8-1.2-5-1.4-6.8-.5-.3.1-.5.2-.7.3Zm3.3-6.6c.1,0,.2.1.3.1,3.5.9,8.3,1,9.9.7-.5-.2-1.5-.6-3.6-1-2.8-.6-5-.4-6.6.2h0Zm1.3-5.6c.5.2,1,.3,1.4.3,5,.6,9.4-.1,10-.7-.2-.1-.8-.6-3.3-1.1-3.3-.6-6.1.3-8.1,1.5h0Z"/><path class="cls-7" d="m165,330.8c.7-.2.4-.9-.3-.9h-13.5c-25.8-2.7-43.8.9-32.4,1.8s-.8.7-9.1,3.8,61.7,3.9,68,0c5.8-3.5-21.9-1.7-12.7-4.7h0Z"/><polygon class="cls-5" points="261.9 334.8 144.1 330.9 139.2 216.7 278.3 219.8 261.9 334.8"/><path class="cls-7" d="m180.9,332.6c-.3,0-.5-.2-.5-.5l-9.4-114.7c0-.3.2-.5.5-.5s.5.2.5.5l9.4,114.7c0,.3-.2.5-.5.5h0Z"/><g><polygon class="cls-5" points="261.9 334.8 293.6 330 303.5 223.8 278.3 219.8 261.9 334.8"/><polygon class="cls-4" points="261.9 334.8 293.6 330 303.5 223.8 278.3 219.8 261.9 334.8"/></g><path class="cls-7" d="m154.2,308.9l-2.9-67.9c-.3-7.1,5.4-12.9,12.5-12.8l88.1,2c7.3.2,12.9,6.7,11.9,14l-9.8,68.4c-.9,6.2-6.3,10.7-12.6,10.5l-75.4-2.5c-6.4-.2-11.5-5.3-11.8-11.7h0Z"/><path class="cls-1" d="m242.4,295.8c-.4,0-.7-.1-1-.4l-8.6-9.4-9.2,8.4c-.5.5-1.4.5-1.9-.1l-8.6-9.4-9.2,8.4c-.5.5-1.4.5-1.9-.1l-8.6-9.4-9.2,8.4c-.3.2-.6.4-.9.3-.4,0-.7-.2-.9-.4l-8.6-9.4-9.2,8.4c-.5.5-1.4.5-1.9-.1-.5-.5-.4-1.4.1-1.9l10.2-9.3c.5-.5,1.4-.5,1.9.1l8.6,9.4,9.2-8.4c.3-.2.6-.4.9-.3.4,0,.7.2.9.4l8.6,9.4,9.2-8.4c.5-.5,1.4-.5,1.9.1l8.6,9.4,9.2-8.4c.5-.5,1.4-.5,1.9.1l9.4,10.3c.5.5.4,1.4-.1,1.9-.1.2-.5.3-.8.4h0Z"/><g><polygon class="cls-5" points="84.2 337.3 77.9 334.3 72.3 307.1 75.4 303.8 84.2 337.3"/><g><polygon class="cls-5" points="84.2 337.3 92.5 332.4 85.4 310 75.4 303.8 84.2 337.3"/><polygon class="cls-4" points="84.2 337.3 92.5 332.4 85.4 310 75.4 303.8 84.2 337.3"/></g></g><path class="cls-7" d="m220.4,342.2h-.7c-2.8-.1-4.9-2.4-4.9-5.1s2.4-4.9,5.1-4.9c7.7.2,24-4.5,33.3-13.5.6-.6,1.3-1,2.1-1.2,15.8-4.7,21.7,4.8,21.9,5.2l-8.6,5.1s0,.1.1.2c-.1-.1-2.3-3-9.5-1.2-11.6,10.6-29.5,15.4-38.8,15.4h0Z"/><g><polygon class="cls-5" points="219.8 348.8 201.6 347.7 200.2 314.1 224.7 315 219.8 348.8"/><g><polygon class="cls-5" points="219.8 348.8 224.1 344.6 226.7 323.7 224.7 315 219.8 348.8"/><polygon class="cls-4" points="219.8 348.8 224.1 344.6 226.7 323.7 224.7 315 219.8 348.8"/></g></g><path class="cls-7" d="m325.3,336.1c-.6,0-1.3-.2-1.8-.6-10.4-7.9-24.5-21.9-29.8-35.5-.1-.2-.1-.4-.2-.6-2.6-15.6-5.1-48.5-5.2-49.9-.1-1.6,1.1-3.1,2.8-3.2,1.6-.1,3.1,1.1,3.2,2.8,0,.3,2.6,33.6,5.1,49.1,5.4,13.2,20,26.7,27.8,32.6,1.3,1,1.6,2.9.6,4.2-.7.7-1.6,1.1-2.5,1.1h0Z"/><path class="cls-7" d="m339.2,337.6c-2.3,0-5-1-7.8-3.1-1.3-1-1.6-2.9-.7-4.2s2.9-1.6,4.2-.7c2.5,1.8,3.8,2,4.3,2,1.7,0,3,1.3,3,3s-1.3,3-3,3h0Z"/><path class="cls-5" d="m332.2,334.4c3.2-9.5,16.4-7.6,20.9-6.2s8.6,3.2,11.1,4.8c2.5,1.6,2.5,4.3-.8,5.8-4,1.9-14.2.2-14.2.2,5.2,2.3,0,6-9.2,2.4-2.9-1.2-8.9-3.5-7.8-7h0Z"/><path class="cls-7" d="m300.3,253.6c-1.2,8.1-7.9,14.1-13.4,13.3-5.5-.8-5.7-8-4.5-16.1s3.4-14,8.8-13.2,10.3,7.9,9.1,16h0Z"/><circle class="cls-7" cx="168.3" cy="220.5" r=".8"/><path class="cls-7" d="m176.6,226.4c0,.4-.4.8-.8.8s-.8-.4-.8-.8.4-.8.8-.8.8.3.8.8Z"/><path class="cls-7" d="m177.6,323.3c0,.5-.4.8-.8.8s-.8-.4-.8-.8.4-.8.8-.8.8.3.8.8Z"/><path class="cls-7" d="m185.1,329.2c0,.5-.4.8-.8.8s-.8-.4-.8-.8.4-.8.8-.8.8.3.8.8Z"/><g><path class="cls-1" d="m188.7,250.3l-6.5,16.6-5.1-.2-5.4-17,4.4.1,3.8,12.9,4.6-12.6,4.2.2h0Z"/><path class="cls-1" d="m194.5,250.5l-.6,16.8-4.1-.1.6-16.8,4.1.1Z"/><path class="cls-1" d="m205.5,267.7l-3.3-6.5h-1l-.2,6.4-4.1-.1.6-16.8,6.9.2c1.3,0,2.4.3,3.4.8s1.6,1.1,2,2c.4.8.6,1.7.6,2.7,0,1.1-.4,2.1-1.1,3-.7.9-1.6,1.5-2.9,1.8l3.7,6.8-4.6-.3h0Zm-4.2-9.4l2.5.1c.8,0,1.3-.1,1.7-.5s.6-.9.6-1.5-.1-1.1-.5-1.5-.9-.6-1.7-.6l-2.5-.1-.1,4.1h0Z"/><path class="cls-1" d="m227.7,251.6l-.6,16.8-4.1-.1.2-6.9-6.4-.2-.2,6.9-4.1-.1.6-16.8,4.1.1-.2,6.6,6.4.2.2-6.6,4.1.1h0Z"/><path class="cls-1" d="m234.7,255.1l-.1,3.4,5.5.2-.1,3.2-5.5-.2-.1,3.7,6.2.2-.1,3.3-10.3-.3.6-16.8,10.2.2-.1,3.3-6.2-.2h0Z"/></g></g></g><g id="Robot_Parts"><g><path class="cls-7" d="m40.9,339c-2.4,0-5.6-1.4-7.3-4-.2-.2-.1-.5.1-.7s.5-.1.7.1c1.9,2.7,6,4.1,7.8,3.3.2-.1.3-.2.5-.3-1.6-.8-3.1-2.2-3.5-4.5-.2-1.3-.4-3,.6-3.2,1.4-.3,3.3,3.1,4,5.8.1.5.2.9.1,1.3.6.2,1.2.2,1.8.1.4-.1,1-.2,1.4-.8-1.2-.8-2-2.3-2.3-4.2-.4-2.7-.1-3.2.2-3.4.2-.1.5-.2.7-.1,1.1.5,2.4,4.3,2.6,6.5v.7c.4.2.9.2,1.3.3.9,0,1.7-.2,2.4-.6-.1-.1-.3-.2-.4-.3-1-.9-1.5-2.3-1.3-4.3.1-1.6.5-2.4,1.1-2.7.2-.1.7-.2,1.2.2,1.1.9,2.1,3.6,1.7,5.6-.1.4-.2.8-.5,1.1,1.8.3,4.4-.2,6.6-.8.3-.1.5.1.6.4s-.1.5-.4.6c-2.7.7-5.6,1.2-7.7.6-.9.7-2.2,1.2-3.5,1.2-.6,0-1.1-.1-1.6-.3-.4.7-1.1,1.1-2.1,1.3-.7.1-1.5,0-2.2-.2-.2.4-.6.7-1,.9-.3.3-.9.4-1.6.4h0Zm-.8-8.3c-.1.1-.2.7.1,2,.3,1.8,1.5,3.1,2.8,3.7,0-.2,0-.5-.1-.7-.8-2.8-2.3-4.8-2.8-5h0Zm5.5-.8c0,.4,0,1,.2,2.1.2,1.4.7,2.5,1.5,3.2-.2-2.1-1.1-4.4-1.7-5.3Zm6.3-.9h0s-.4.2-.5,1.9c-.2,1.7.2,2.8.9,3.5.2.1.4.3.6.4.3-.3.5-.7.5-1,.3-1.5-.4-3.6-1.2-4.4-.1-.4-.2-.4-.3-.4h0Z"/><g><polygon class="cls-7" points="187.3 346.6 190 341.9 187.3 337.2 184.4 337.2 186 341.9 184.4 346.6 187.3 346.6"/><path class="cls-7" d="m184.6,344.3c-1.4,0-2.4-1.1-2.4-2.5s1.1-2.4,2.4-2.4l-4.6-.9-1.2,3.7,2.1,3.1,3.7-1Z"/><path class="cls-5" d="m185,337.2h-5.4l-2.7,4.7,2.7,4.7h5.4l2.7-4.7-2.7-4.7Zm-2.7,7.1c-1.4,0-2.4-1.1-2.4-2.5s1.1-2.4,2.4-2.4,2.4,1.1,2.4,2.4-1.1,2.5-2.4,2.5Z"/></g><g><polygon class="cls-5" points="376.3 336.9 374.3 333.4 376.3 329.9 378.5 329.9 377.3 333.4 378.5 336.9 376.3 336.9"/><path class="cls-5" d="m378.3,335.2c1,0,1.8-.8,1.8-1.8s-.8-1.8-1.8-1.8l3.4-.7.9,2.8-1.5,2.3-2.8-.8h0Z"/><path class="cls-7" d="m378,329.9h4l2,3.5-2,3.5h-4l-2-3.5,2-3.5Zm2.1,5.3c1,0,1.8-.8,1.8-1.8s-.8-1.8-1.8-1.8-1.8.8-1.8,1.8.8,1.8,1.8,1.8Z"/></g><g><path class="cls-7" d="m301.4,341.5h4.5c1.2,0,2.1-1,2.1-2.1h0c0-1.2-1-2.1-2.1-2.1h-4.5c-1.2,0-2.1,1-2.1,2.1h0c-.1,1.1.9,2.1,2.1,2.1Z"/><path class="cls-5" d="m294.2,337.5c1.1-2.4,3.8-3.4,6-2.4s3.1,3.8,2,6.2-3.8,3.4-6,2.4-3.2-3.9-2-6.2Z"/><rect class="cls-7" x="293.13" y="338.7" width="10.1" height="1.4" transform="translate(-135.96 464.39) rotate(-64.76)"/></g></g></g><path class="cls-5" d="m118.66,85.38l-53.96,12.2,5.4,23.87c1.73-3.06,4.49-5.86,8.28-8.42,3.79-2.55,8.1-4.38,12.94-5.47,8.65-1.96,16.27-1.62,22.86,1.01,6.59,2.63,11.92,6.76,15.98,12.38,4.06,5.63,6.91,12.07,8.55,19.34,3.05,13.49,1.66,25.05-4.16,34.66-5.82,9.62-15.65,15.99-29.49,19.12-9.23,2.09-17.6,2.31-25.12.68-7.52-1.63-13.76-4.86-18.73-9.67-4.97-4.81-8.46-10.87-10.47-18.18l28.88-6.53c1.5,3.42,3.84,6.01,7.03,7.77,3.19,1.77,7.08,2.13,11.7,1.08,5.42-1.22,9.06-3.87,10.93-7.93,1.87-4.06,2.15-8.97.85-14.74-1.28-5.65-3.64-9.66-7.08-12.03-3.44-2.37-7.82-2.96-13.12-1.76-3.92.89-6.94,2.57-9.04,5.04-2.11,2.48-3.21,5.36-3.31,8.66l-28.54,6.45-17.01-75.24,80.77-18.26,5.87,25.94Z"/><path class="cls-5" d="m303.13,53.09c10.54-11.91,25.58-16.56,45.14-13.94,19.56,2.61,32.86,11.05,39.9,25.31,7.04,14.26,9.04,32.75,6,55.48-3.07,23-9.88,40.45-20.41,52.36-10.54,11.91-25.59,16.56-45.14,13.95-19.56-2.61-32.86-11.05-39.9-25.31-7.04-14.26-9.02-32.88-5.95-55.88,3.04-22.73,9.82-40.05,20.36-51.96Zm57.5,30.99c-1.95-7.59-7.48-12-16.6-13.21-9.12-1.22-15.62,1.58-19.48,8.39-3.87,6.82-6.7,16.9-8.48,30.24-1.2,8.99-1.67,16.49-1.39,22.51.27,6.02,1.78,11.07,4.54,15.13,2.75,4.07,7.3,6.52,13.64,7.37,6.34.85,11.37-.33,15.1-3.53,3.72-3.2,6.5-7.67,8.35-13.41,1.84-5.74,3.36-13.1,4.57-22.09,1.78-13.35,1.7-23.82-.24-31.41Z"/><g><path class="cls-7" d="m36.01,15.59l-2.91,15.84-4.58.34-3.23-10.04-1.82,10.41-4.58.34-5.08-15.25,4.05-.3,3.07,11.15,1.94-11.51,4.16-.31,3.49,11.12,1.43-11.48,4.07-.3Z"/><path class="cls-7" d="m41.92,18.21l.23,3.14,5.07-.37.21,2.92-5.07.37.25,3.41,5.73-.42.22,3.03-9.52.7-1.14-15.54,9.52-.7.22,3.03-5.73.42Z"/><path class="cls-7" d="m62.12,22.63c.6.66.93,1.44,1,2.34.1,1.3-.28,2.36-1.13,3.19-.85.83-2.09,1.3-3.71,1.42l-7.24.53-1.14-15.54,6.99-.51c1.58-.12,2.84.16,3.79.81.95.66,1.46,1.61,1.55,2.85.07.92-.12,1.69-.55,2.33-.44.64-1.04,1.11-1.82,1.4.91.13,1.67.52,2.27,1.18Zm-7.98-2.05l2.48-.18c.62-.05,1.08-.22,1.4-.51.31-.3.45-.71.41-1.24s-.23-.92-.59-1.18-.84-.36-1.46-.32l-2.48.18.24,3.25Zm4.68,5.45c.33-.31.47-.74.43-1.29s-.25-.96-.64-1.24c-.38-.28-.89-.4-1.53-.35l-2.75.2.25,3.43,2.79-.2c.63-.05,1.11-.23,1.44-.54Z"/><path class="cls-7" d="m75.09,25.59l-5.8.43-.73,2.81-3.96.29,4.48-15.95,4.38-.32,6.76,15.13-4.01.29-1.13-2.68Zm-1.19-2.85l-2.34-5.55-1.49,5.83,3.83-.28Z"/><path class="cls-7" d="m90.19,24.3l4.96-.36.21,2.92-8.74.64-1.14-15.54,3.79-.28.93,12.62Z"/><path class="cls-7" d="m106.65,23.27l-5.8.43-.73,2.81-3.96.29,4.48-15.95,4.38-.32,6.76,15.13-4.01.29-1.13-2.68Zm-1.19-2.85l-2.34-5.55-1.49,5.83,3.83-.28Z"/><path class="cls-7" d="m125.81,9l1.14,15.54-3.79.28-.47-6.4-5.89.43.47,6.4-3.79.28-1.14-15.54,3.79-.28.45,6.09,5.89-.43-.45-6.09,3.79-.28Z"/><path class="cls-7" d="m132.94,23.24c-1.27-.59-2.3-1.47-3.11-2.63-.81-1.17-1.26-2.51-1.38-4.03-.11-1.52.15-2.91.77-4.17.63-1.26,1.52-2.28,2.69-3.05,1.17-.77,2.48-1.21,3.94-1.31s2.82.13,4.09.72c1.27.59,2.3,1.46,3.09,2.62.79,1.16,1.24,2.5,1.35,4.02s-.14,2.91-.76,4.18c-.62,1.27-1.51,2.29-2.67,3.06-1.16.77-2.47,1.21-3.93,1.31s-2.83-.13-4.09-.72Zm6.72-4.19c.68-.88.98-2,.88-3.36-.1-1.37-.55-2.44-1.36-3.21-.81-.76-1.83-1.1-3.07-1.01-1.25.09-2.22.57-2.91,1.44-.69.87-.98,1.99-.88,3.38.1,1.37.55,2.44,1.36,3.21s1.83,1.1,3.09,1.01c1.24-.09,2.2-.58,2.89-1.46Z"/><path class="cls-7" d="m156.54,19.61l-5.8.43-.73,2.81-3.96.29,4.48-15.95,4.38-.32,6.76,15.13-4.01.29-1.13-2.68Zm-1.19-2.85l-2.34-5.55-1.49,5.83,3.83-.28Z"/><path class="cls-7" d="m172.86,18.42l-5.8.43-.73,2.81-3.96.29,4.48-15.95,4.38-.32,6.76,15.13-4.01.29-1.13-2.68Zm-1.19-2.85l-2.34-5.55-1.49,5.83,3.83-.28Z"/><path class="cls-7" d="m26.73,58.6l-5.73-6.48.5,6.86-3.79.28-1.14-15.54,3.79-.28.5,6.82,4.68-7.2,4.45-.33-5.46,8.06,6.82,7.47-4.63.34Z"/><path class="cls-7" d="m42.62,54.68l-5.8.43-.73,2.81-3.96.29,4.48-15.95,4.38-.32,6.76,15.13-4.01.29-1.13-2.68Zm-7.34-14.22c-.33-.29-.51-.66-.55-1.12-.03-.46.09-.86.38-1.2.29-.34.66-.53,1.12-.56.47-.03.88.09,1.21.38.33.29.52.67.55,1.14.03.46-.1.85-.39,1.19-.29.33-.67.52-1.13.55-.46.03-.85-.09-1.19-.38Zm6.15,11.37l-2.34-5.55-1.49,5.83,3.83-.28Zm-1.73-11.69c-.33-.29-.52-.66-.55-1.12-.03-.46.09-.86.38-1.2.29-.34.66-.53,1.12-.56.47-.03.88.09,1.21.38.33.29.52.67.55,1.14.03.46-.1.85-.39,1.19-.29.33-.67.52-1.13.55-.46.03-.85-.09-1.19-.38Z"/><path class="cls-7" d="m52,56.35c-.93-.3-1.69-.8-2.28-1.48-.59-.68-.94-1.53-1.04-2.55l4.03-.3c.1.57.33,1,.69,1.27.36.28.82.4,1.36.36.56-.04,1-.2,1.3-.49.3-.28.44-.65.41-1.11-.03-.38-.18-.69-.46-.92-.28-.23-.61-.41-1-.55-.39-.13-.94-.28-1.65-.44-1.03-.24-1.87-.49-2.52-.75-.66-.26-1.24-.68-1.74-1.25-.5-.57-.79-1.34-.86-2.32-.11-1.45.33-2.62,1.32-3.51.99-.9,2.32-1.41,4-1.53,1.71-.13,3.12.18,4.23.92s1.75,1.84,1.93,3.3l-4.09.3c-.07-.5-.28-.88-.64-1.14-.36-.26-.81-.37-1.34-.34-.46.03-.82.18-1.08.45-.26.26-.38.62-.34,1.08.04.5.3.88.79,1.12s1.25.49,2.28.75c1.03.27,1.87.53,2.52.79.65.26,1.22.67,1.73,1.23.5.56.79,1.3.85,2.23.07.89-.1,1.71-.5,2.46-.4.76-1.01,1.38-1.83,1.87-.83.49-1.82.78-2.99.86-1.14.08-2.17-.03-3.1-.33Z"/><path class="cls-7" d="m65.72,40.12l1.14,15.54-3.79.28-1.14-15.54,3.79-.28Z"/><path class="cls-7" d="m72.25,39.64l1.14,15.54-3.79.28-1.14-15.54,3.79-.28Z"/><path class="cls-7" d="m78.78,39.16l1.14,15.54-3.79.28-1.14-15.54,3.79-.28Z"/><path class="cls-7" d="m96.56,53.48l-3.79.28-7.03-9.12.7,9.58-3.79.28-1.14-15.54,3.79-.28,7.04,9.16-.71-9.63,3.79-.28,1.14,15.54Z"/><path class="cls-7" d="m103.11,36.82l.33,10.64-3.21.24-1.22-10.57,4.1-.3Zm-2.47,15.95c-.45-.36-.7-.83-.74-1.4-.04-.59.13-1.1.52-1.53.39-.43.92-.67,1.58-.72.65-.05,1.2.11,1.65.48.45.37.7.85.74,1.44.04.58-.13,1.07-.52,1.5-.39.42-.91.66-1.56.71-.66.05-1.22-.11-1.67-.47Z"/><path class="cls-7" d="m112.13,42.87c-.45-.36-.7-.83-.74-1.4-.04-.59.13-1.1.52-1.53.39-.43.92-.67,1.58-.72.65-.05,1.2.11,1.65.48.45.37.7.85.74,1.44.04.58-.13,1.07-.52,1.5-.39.42-.91.66-1.56.7-.66.05-1.22-.11-1.67-.47Zm.66,9.01c-.45-.36-.7-.83-.74-1.4-.04-.59.13-1.1.52-1.53.39-.43.92-.67,1.58-.72.65-.05,1.2.11,1.65.48.45.37.7.85.74,1.44.04.58-.13,1.07-.52,1.5-.39.42-.91.66-1.56.7-.67.05-1.22-.11-1.67-.47Z"/><path class="cls-7" d="m128.01,36.53c1.27.56,2.29,1.4,3.05,2.52.76,1.12,1.19,2.45,1.3,3.99.11,1.52-.12,2.9-.71,4.12-.58,1.23-1.47,2.21-2.65,2.95-1.18.74-2.59,1.17-4.21,1.29l-5.82.43-1.14-15.54,5.82-.43c1.64-.12,3.09.1,4.37.66Zm-.45,10.2c.74-.84,1.06-1.98.95-3.41-.11-1.43-.58-2.52-1.44-3.25-.86-.74-2-1.06-3.43-.95l-1.79.13.66,9.03,1.79-.13c1.43-.1,2.52-.58,3.26-1.42Z"/></g></svg>