<?xml version="1.0" encoding="UTF-8"?><svg id="Layer_2" xmlns="http://www.w3.org/2000/svg" viewBox="0 0 1821.1 1548.97"><defs><style>.cls-1{fill:#eff8fd;}.cls-2{fill:#fce5d9;}.cls-3{fill:#e0e0e0;}.cls-4{fill:#1f2937;}.cls-5{fill:#f9b48b;}.cls-6{fill:#bec0da;}.cls-7{fill:#787ebb;}</style></defs><g><path class="cls-2" d="m1494.86,572.31c-1.78-5.56-4.23-11.24-7.31-16.5-6.34,11.57-14.06,34.22-1.67,64.07,13.16-11.04,14.76-29.56,8.98-47.57Z"/><g><path class="cls-2" d="m986.73,514.38l-28.8-65.35c-8.84,11.27-6.42,30.95,4.52,52.05,3.52,6.79,6.6,14.84,9.2,23.68,11.62-2.95,15.08-10.38,15.08-10.38Z"/><path class="cls-5" d="m1102.9,568.11l-63.87-76.61s-41.95-57.26-67.01-51.08c-6.26,1.55-10.91,4.53-14.1,8.6l28.8,65.35s-3.46,7.43-15.08,10.38c8.43,28.57,11.87,65.46,8.89,95.13-7.99,79.55-49.21,102.87-64,316.5-4.31,62.31-23.33,85.13-29.63,216.97l251.12,8.51v-68.1s24.74-9.58,32.59-51.08c7.85-41.5-67.7-474.58-67.7-474.58Z"/><rect class="cls-3" x="855.42" y="1142.17" width="315.18" height="99.7"/><rect class="cls-4" x="831.83" y="1211.86" width="362.35" height="337.7"/><path class="cls-4" d="m1167.39,1309.42c0,12.43-10.08,22.51-22.51,22.51s-22.51-10.08-22.51-22.51,10.08-22.51,22.51-22.51,22.51,10.08,22.51,22.51Z"/><path class="cls-4" d="m1167.39,1403.22c0,12.43-10.08,22.51-22.51,22.51s-22.51-10.08-22.51-22.51,10.08-22.51,22.51-22.51,22.51,10.08,22.51,22.51Z"/><path class="cls-4" d="m1049.67,366.34h377.64c5.87,0,10.64,4.77,10.64,10.64v680.82c0,5.87-4.77,10.64-10.64,10.64h-377.64c-5.87,0-10.64-4.77-10.64-10.64V376.97c0-5.87,4.77-10.64,10.64-10.64Z"/><rect class="cls-7" x="1056.81" y="408.87" width="363.35" height="581.12"/><path class="cls-4" d="m1259.54,1027.89c0,11.63-9.43,21.06-21.05,21.06s-21.06-9.43-21.06-21.06,9.43-21.05,21.06-21.05,21.05,9.43,21.05,21.05Z"/><path class="cls-4" d="m1247.21,386.46c0,4.82-3.9,8.72-8.72,8.72s-8.72-3.91-8.72-8.72,3.91-8.72,8.72-8.72,8.72,3.91,8.72,8.72Z"/><path class="cls-5" d="m1448.34,832.84s16.68,21.71,15.88,38.65c-.79,16.94-21.97,35.47-45,43.95-23.03,8.47-36,.53-40.24-12.18-4.24-12.71-4.24-29.65,18.27-40.5,22.5-10.85,51.09-29.92,51.09-29.92Z"/><path class="cls-2" d="m1411.39,910.76c-3.98,2.11-8.74.93-10.63-2.63l-7.24-13.67c-1.89-3.56-.19-8.16,3.8-10.27l13.68-7.25c3.98-2.11,8.74-.93,10.63,2.63l7.24,13.67c1.89,3.56.19,8.16-3.79,10.27l-13.68,7.25Z"/><path class="cls-5" d="m1487.55,555.81c-10.23-17.53-27.35-30.46-49.61-18.93,0,0-6.22,22.71-6.22,45.42s8.18,52.69,36.79,45.88c7.2-1.72,12.94-4.58,17.37-8.3-12.39-29.85-4.66-52.5,1.67-64.07Z"/><path class="cls-5" d="m1453.08,743.92s24.31,31.64,23.15,56.33c-1.16,24.69-32.03,51.7-65.59,64.05-33.57,12.35-52.47.77-58.65-17.75-6.17-18.52-6.17-43.22,26.62-59.04,32.8-15.82,74.47-43.6,74.47-43.6Z"/><path class="cls-5" d="m1437.95,634v26.24s-18.52,3.75-38.34,28.38c-19.81,24.63-35.35,61.59-13.39,81.4,21.96,19.81,37.49,14.46,63.19-6.43,25.71-20.89,54.97-47.27,39.25-88.73-5.6-14.78-29.51-40.87-50.71-40.87Z"/><path class="cls-2" d="m1433.68,765.89c-5.23,3.97-12.35,3.4-15.9-1.28l-13.63-17.95c-3.55-4.68-2.19-11.69,3.04-15.66l17.97-13.64c5.23-3.97,12.36-3.4,15.91,1.28l13.63,17.95c3.55,4.68,2.19,11.69-3.04,15.67l-17.97,13.64Z"/><path class="cls-2" d="m1399.22,857.48c-5.8,3.07-12.74,1.36-15.49-3.83l-10.55-19.92c-2.75-5.19-.28-11.89,5.53-14.97l19.94-10.56c5.8-3.08,12.74-1.36,15.49,3.83l10.55,19.92c2.75,5.19.27,11.89-5.53,14.97l-19.94,10.56Z"/><g><path class="cls-6" d="m1187.87,713.92l16.76,55.42,10.13,6.01,11.65-17.77,46.06-47.31,55.58-85.12s-6.51-2-14.77,2c-8.26,4.01-89.62,46.31-89.62,46.31l-34.55,25.97-1.24,14.49Z"/><polygon class="cls-6" points="1214.77 726.24 1214.77 775.35 1255.45 739.05 1214.77 726.24"/><path class="cls-1" d="m1214.77,726.24s64.85,49.51,71.38,54.04c6.54,4.53,17.59,10.31,23.12-14.33,5.53-24.63,26.89-120.14,28.9-131.2,2.01-11.06,3.02-26.64-20.11-17.34-23.12,9.3-145.19,54.52-162.71,61-20.12,7.44-22.84,19.3-8.47,24.13,21.18,7.12,40.99,11.39,40.99,11.39l114.61-71.38-87.72,83.7Z"/></g></g><g><path class="cls-6" d="m634.51,1550.97c-2.35,0-4.25-1.9-4.25-4.25s1.9-4.25,4.25-4.25c8.96,0,18.45-.15,28.21-.45,2.33-.08,4.31,1.77,4.38,4.12.07,2.35-1.77,4.31-4.12,4.38-9.85.3-19.43.45-28.47.45Z"/><path class="cls-6" d="m717.81,1547.55c-2.2,0-4.07-1.7-4.24-3.93-.18-2.34,1.58-4.38,3.92-4.56,17.84-1.35,36.25-3.1,54.7-5.19,2.33-.27,4.44,1.41,4.7,3.75.27,2.33-1.41,4.44-3.74,4.7-18.56,2.11-37.07,3.87-55.02,5.23-.11,0-.22.01-.33.01Zm109.49-12.4c-2.07,0-3.88-1.51-4.2-3.62-.35-2.32,1.25-4.49,3.58-4.83,18.2-2.72,36.43-5.79,54.18-9.1,2.3-.43,4.53,1.09,4.96,3.4.43,2.31-1.09,4.53-3.4,4.96-17.86,3.34-36.19,6.42-54.49,9.15-.21.03-.42.05-.63.05Zm108.3-20.29c-1.94,0-3.69-1.34-4.14-3.31-.52-2.29.91-4.57,3.2-5.09,18.22-4.15,36.14-8.65,53.25-13.36,2.27-.62,4.61.71,5.23,2.97.62,2.26-.71,4.6-2.97,5.23-17.24,4.75-35.28,9.27-53.62,13.45-.32.07-.64.11-.95.11Zm106.15-29.41c-1.78,0-3.44-1.12-4.03-2.91-.74-2.23.46-4.64,2.69-5.38,17.99-6.01,35.27-12.41,51.38-19.03,2.17-.89,4.66.14,5.55,2.32.89,2.17-.14,4.66-2.32,5.55-16.28,6.69-33.75,13.16-51.92,19.23-.45.15-.9.22-1.35.22Zm101.65-42.21c-1.54,0-3.02-.83-3.78-2.29-1.08-2.08-.27-4.65,1.81-5.73,17.11-8.9,32.83-18.32,46.74-27.99,1.93-1.34,4.58-.86,5.92,1.06,1.34,1.93.86,4.58-1.06,5.92-14.21,9.88-30.25,19.49-47.67,28.55-.63.33-1.3.48-1.96.48Zm89.31-63.57c-1.07,0-2.13-.4-2.96-1.2-1.69-1.63-1.73-4.33-.1-6.01,13.34-13.79,23.91-28.33,31.42-43.23,1.06-2.1,3.61-2.94,5.71-1.88,2.1,1.06,2.94,3.61,1.88,5.71-7.89,15.66-18.96,30.91-32.9,45.31-.83.86-1.94,1.3-3.06,1.3Zm46.77-96.71c-.1,0-.2,0-.3,0-2.34-.16-4.11-2.19-3.95-4.54.21-3.04.32-6.15.32-9.23,0-14.08-2.24-28.75-6.65-43.61-.67-2.25.62-4.62,2.87-5.29,2.25-.67,4.62.62,5.29,2.87,4.64,15.65,7,31.13,7,46.03,0,3.27-.11,6.58-.34,9.81-.16,2.24-2.02,3.96-4.24,3.96Zm-28.74-104.54c-1.46,0-2.89-.76-3.68-2.11-8.44-14.49-18.9-29.49-31.08-44.57-1.48-1.83-1.19-4.5.64-5.98,1.83-1.48,4.5-1.19,5.98.64,12.45,15.42,23.16,30.77,31.81,45.63,1.18,2.03.5,4.63-1.53,5.81-.67.39-1.41.58-2.14.58Z"/><path class="cls-6" d="m1182.43,1092.4c-1.09,0-2.19-.42-3.02-1.26-6.41-6.47-13.22-13.06-20.24-19.6-1.72-1.6-1.81-4.29-.21-6.01,1.6-1.72,4.29-1.81,6.01-.21,7.11,6.62,14,13.3,20.48,19.84,1.65,1.67,1.64,4.36-.03,6.01-.83.82-1.91,1.23-2.99,1.23Z"/></g><path class="cls-6" d="m922.64,873.68c-1.04,0-2.09-.38-2.91-1.15-.68-.63-16.8-15.88-38.11-43-1.45-1.85-1.13-4.52.72-5.97,1.85-1.45,4.52-1.13,5.97.72,20.87,26.57,37.08,41.91,37.25,42.06,1.71,1.61,1.79,4.3.18,6.01-.84.89-1.97,1.34-3.1,1.34Zm-70.31-88.93c-1.42,0-2.8-.71-3.61-2-10.29-16.43-19.57-33.29-27.57-50.11-1.01-2.12-.11-4.66,2.01-5.67,2.12-1.01,4.66-.11,5.67,2.01,7.86,16.52,16.98,33.09,27.1,49.25,1.25,1.99.64,4.61-1.35,5.86-.7.44-1.48.65-2.25.65Zm-48.34-102.32c-1.8,0-3.47-1.15-4.05-2.95-5.97-18.53-10.51-37.26-13.48-55.68-.37-2.32,1.2-4.5,3.52-4.87,2.32-.38,4.5,1.2,4.87,3.52,2.9,17.99,7.33,36.3,13.17,54.42.72,2.23-.51,4.63-2.74,5.35-.43.14-.87.21-1.31.21Zm-17.64-111.5h-.04c-2.35-.02-4.23-1.94-4.21-4.29.18-19.13,2.08-38.33,5.62-57.06.44-2.31,2.67-3.82,4.97-3.39,2.31.44,3.82,2.66,3.39,4.97-3.45,18.24-5.3,36.94-5.48,55.56-.02,2.33-1.92,4.21-4.25,4.21Zm20.87-110.77c-.5,0-1-.09-1.49-.27-2.2-.83-3.31-3.28-2.49-5.48,6.55-17.44,14.73-34.87,24.31-51.83,1.16-2.04,3.75-2.76,5.79-1.61,2.04,1.16,2.77,3.75,1.61,5.79-9.36,16.57-17.36,33.61-23.75,50.63-.64,1.71-2.26,2.76-3.98,2.76Zm55.16-98.5c-.89,0-1.79-.28-2.56-.86-1.87-1.42-2.25-4.08-.83-5.96,11.07-14.66,23.5-29.3,36.93-43.53,1.61-1.71,4.3-1.78,6.01-.17,1.71,1.61,1.78,4.3.17,6.01-13.23,14-25.45,28.41-36.33,42.82-.84,1.11-2.11,1.69-3.4,1.69Zm77.41-82.48c-1.18,0-2.35-.49-3.19-1.44-1.55-1.76-1.39-4.45.37-6,13.74-12.13,28.58-24.25,44.13-36.02,1.87-1.42,4.54-1.05,5.96.82,1.42,1.87,1.05,4.54-.82,5.96-15.37,11.65-30.05,23.63-43.63,35.62-.81.71-1.81,1.06-2.81,1.06Zm90.11-68.57c-1.38,0-2.73-.67-3.55-1.9-1.3-1.96-.77-4.6,1.19-5.89,15.29-10.15,31.51-20.3,48.22-30.17,2.02-1.19,4.63-.52,5.82,1.5,1.19,2.02.52,4.63-1.5,5.82-16.58,9.79-32.67,19.86-47.84,29.93-.72.48-1.54.71-2.35.71Zm97.45-57.75c-1.52,0-2.99-.82-3.76-2.26-1.1-2.07-.32-4.65,1.76-5.75,16.24-8.64,33.29-17.29,50.68-25.7,2.12-1.02,4.66-.14,5.68,1.98,1.02,2.11.14,4.66-1.98,5.68-17.29,8.36-34.24,16.96-50.39,25.55-.64.34-1.32.5-1.99.5Zm101.96-49.42c-1.63,0-3.19-.94-3.89-2.53-.95-2.15.02-4.66,2.16-5.61,16.86-7.47,34.45-14.95,52.26-22.22,2.17-.89,4.66.15,5.54,2.33.89,2.17-.16,4.66-2.33,5.54-17.74,7.24-35.24,14.69-52.03,22.13-.56.25-1.15.37-1.72.37Z"/><g><path class="cls-6" d="m1145.54,66.9l-9.36,74.82,8.88,12.51,23.26-14.99,79.84-31.95,111.14-71.91s-6.69-5.82-18.64-5.43c-11.95.4-131.14,7.73-131.14,7.73l-54.84,12.63-9.14,16.59Z"/><polygon class="cls-6" points="1171.03 95.78 1145.06 154.22 1212.67 132.54 1171.03 95.78"/><path class="cls-1" d="m1171.03,95.78s50.99,93.21,56.37,102.05c5.38,8.84,15.49,21.57,35.09-4.82,19.61-26.39,95.53-128.75,103.77-140.85,8.24-12.1,17.67-30.11-14.76-31.27-32.43-1.16-201.62-11.89-225.89-13.44-27.88-1.78-37.38,10.89-22.84,24.23,21.44,19.67,42.76,35.23,42.76,35.23l174.14-24.34-148.64,53.22Z"/></g><g><path class="cls-6" d="m786.75,1013.46h-13.06c0-32.54-26.47-59.01-59.01-59.01s-59.01,26.47-59.01,59.01h-13.06c0-39.74,32.33-72.07,72.08-72.07s72.07,32.33,72.07,72.07Z"/><g><path class="cls-6" d="m780.74,1014.02v52.51c14.5,0,26.26-11.76,26.26-26.26s-11.76-26.26-26.26-26.26Z"/><path class="cls-6" d="m783.97,1063.8c0,4.68-3.79,8.48-8.48,8.48h0c-4.68,0-8.48-3.8-8.48-8.48v-47.05c0-4.68,3.8-8.48,8.48-8.48h0c4.68,0,8.48,3.8,8.48,8.48v47.05Z"/><path class="cls-6" d="m648.62,1014.02v52.51c-14.5,0-26.26-11.76-26.26-26.26s11.76-26.26,26.26-26.26Z"/><path class="cls-6" d="m645.39,1063.8c0,4.68,3.8,8.48,8.48,8.48h0c4.68,0,8.48-3.8,8.48-8.48v-47.05c0-4.68-3.8-8.48-8.48-8.48h0c-4.68,0-8.48,3.8-8.48,8.48v47.05Z"/></g></g><path class="cls-6" d="m1769.7,1161.87c-24.21,0-43.83,19.62-43.83,43.83s43.83,93.37,43.83,93.37c0,0,43.83-69.16,43.83-93.37s-19.62-43.83-43.83-43.83Zm0,74.3c-16.83,0-30.47-13.64-30.47-30.47s13.64-30.47,30.47-30.47,30.47,13.64,30.47,30.47-13.64,30.47-30.47,30.47Z"/><path class="cls-6" d="m1783.27,1205.7c0,7.49-6.07,13.56-13.56,13.56s-13.56-6.07-13.56-13.56,6.07-13.56,13.56-13.56,13.56,6.07,13.56,13.56Z"/><polygon class="cls-6" points="810.23 72.7 864.13 126.17 963.56 27.57 935.57 0 862.87 71.44 836.97 45.96 810.23 72.7"/><path class="cls-6" d="m208.2,783.68c-2.69,0-5.31.3-7.83.86-4.06-22.09-23.41-38.84-46.67-38.84s-42.14,16.32-46.53,38c-.32,0-.63-.02-.95-.02-20,0-36.22,16.22-36.22,36.22s16.22,36.22,36.22,36.22h101.98c20,0,36.22-16.22,36.22-36.22s-16.22-36.22-36.22-36.22Z"/><path class="cls-6" d="m252.88,783.68c-2.69,0-5.31.3-7.83.86-4.06-22.09-23.41-38.84-46.67-38.84s-42.14,16.32-46.53,38c-.32,0-.63-.02-.95-.02-20,0-36.22,16.22-36.22,36.22s16.22,36.22,36.22,36.22h101.98c20,0,36.22-16.22,36.22-36.22s-16.22-36.22-36.22-36.22Z"/><path class="cls-6" d="m1601.32,1459.6c-8.76-14.96,2.59-35.29-19.42-44.04-21.16-8.41-34.09,16.17-34.09,16.17l-14.62,7.46,9.87,11.31s-2.83,42.44,36.98,47.9c44.08,6.04,52.56-43.85,52.56-43.85,0,0-22.52,19.99-31.28,5.04Z"/><g><polygon class="cls-6" points="49.57 522.28 107.64 555.81 49.57 589.34 49.57 522.28"/><path class="cls-6" d="m133.92,618.95H23.29c-12.84,0-23.29-10.45-23.29-23.29v-79.7c0-12.84,10.45-23.29,23.29-23.29h110.63c12.84,0,23.29,10.45,23.29,23.29v79.7c0,12.84-10.45,23.29-23.29,23.29Zm-110.63-111.34c-4.6,0-8.35,3.74-8.35,8.34v79.7c0,4.6,3.74,8.35,8.35,8.35h110.63c4.6,0,8.35-3.74,8.35-8.35v-79.7c0-4.6-3.74-8.34-8.35-8.34H23.29Z"/></g><polygon class="cls-6" points="1658.11 999.85 1658.11 923.34 1607.1 923.34 1607.1 999.85 1577.03 999.85 1632.61 1056.26 1688.18 999.85 1658.11 999.85"/><polygon class="cls-6" points="1686.06 1062.73 1686.06 1076.36 1579.15 1076.36 1579.15 1062.73 1567.97 1062.73 1567.97 1076.36 1567.97 1090.33 1579.15 1090.33 1686.06 1090.33 1697.23 1090.33 1697.23 1076.36 1697.23 1062.73 1686.06 1062.73"/><path class="cls-6" d="m957.15,264.35h-56.69c-2.35,0-4.25-1.9-4.25-4.25s1.9-4.25,4.25-4.25h56.69c2.35,0,4.25,1.9,4.25,4.25s-1.9,4.25-4.25,4.25Zm-113.39,0h-56.69c-2.35,0-4.25-1.9-4.25-4.25s1.9-4.25,4.25-4.25h56.69c2.35,0,4.25,1.9,4.25,4.25s-1.9,4.25-4.25,4.25Zm-113.39,0h-56.69c-2.35,0-4.25-1.9-4.25-4.25s1.9-4.25,4.25-4.25h56.69c2.35,0,4.25,1.9,4.25,4.25s-1.9,4.25-4.25,4.25Zm-113.39,0h-56.69c-2.35,0-4.25-1.9-4.25-4.25s1.9-4.25,4.25-4.25h56.69c2.35,0,4.25,1.9,4.25,4.25s-1.9,4.25-4.25,4.25Z"/><path class="cls-6" d="m786.34,560.06h-56.69c-2.35,0-4.25-1.9-4.25-4.25s1.9-4.25,4.25-4.25h56.69c2.35,0,4.25,1.9,4.25,4.25s-1.9,4.25-4.25,4.25Zm-113.39,0h-56.69c-2.35,0-4.25-1.9-4.25-4.25s1.9-4.25,4.25-4.25h56.69c2.35,0,4.25,1.9,4.25,4.25s-1.9,4.25-4.25,4.25Zm-113.39,0h-56.69c-2.35,0-4.25-1.9-4.25-4.25s1.9-4.25,4.25-4.25h56.69c2.35,0,4.25,1.9,4.25,4.25s-1.9,4.25-4.25,4.25Zm-113.39,0h-56.69c-2.35,0-4.25-1.9-4.25-4.25s1.9-4.25,4.25-4.25h56.69c2.35,0,4.25,1.9,4.25,4.25s-1.9,4.25-4.25,4.25Zm-113.39,0h-56.69c-2.35,0-4.25-1.9-4.25-4.25s1.9-4.25,4.25-4.25h56.69c2.35,0,4.25,1.9,4.25,4.25s-1.9,4.25-4.25,4.25Zm-113.39,0h-3.84c-2.35,0-4.25-1.9-4.25-4.25s1.9-4.25,4.25-4.25h3.84c2.35,0,4.25,1.9,4.25,4.25s-1.9,4.25-4.25,4.25Z"/><path class="cls-6" d="m467.61,197.6h-112.29c-6.63,0-12,5.37-12,12v65.23c0,6.63,5.37,12,12,12h10.2v35.76l38.92-35.76h63.17c6.63,0,12-5.37,12-12v-65.23c0-6.63-5.37-12-12-12Zm-33.93,66.94h-63.2c-2.45,0-4.44-1.99-4.44-4.44s1.99-4.44,4.44-4.44h63.2c2.46,0,4.44,1.99,4.44,4.44s-1.99,4.44-4.44,4.44Zm18.76-33.57h-81.96c-2.45,0-4.44-1.99-4.44-4.44s1.99-4.44,4.44-4.44h81.96c2.46,0,4.44,1.99,4.44,4.44s-1.99,4.44-4.44,4.44Z"/><path class="cls-6" d="m1676.65,1248.11h-56.69c-2.35,0-4.25-1.9-4.25-4.25s1.9-4.25,4.25-4.25h56.69c2.35,0,4.25,1.9,4.25,4.25s-1.9,4.25-4.25,4.25Zm-113.39,0h-56.69c-2.35,0-4.25-1.9-4.25-4.25s1.9-4.25,4.25-4.25h56.69c2.35,0,4.25,1.9,4.25,4.25s-1.9,4.25-4.25,4.25Zm-113.39,0h-56.69c-2.35,0-4.25-1.9-4.25-4.25s1.9-4.25,4.25-4.25h56.69c2.35,0,4.25,1.9,4.25,4.25s-1.9,4.25-4.25,4.25Zm-113.39,0h-56.69c-2.35,0-4.25-1.9-4.25-4.25s1.9-4.25,4.25-4.25h56.69c2.35,0,4.25,1.9,4.25,4.25s-1.9,4.25-4.25,4.25Z"/><path class="cls-6" d="m1483.3,1469.13h-56.69c-2.35,0-4.25-1.9-4.25-4.25s1.9-4.25,4.25-4.25h56.69c2.35,0,4.25,1.9,4.25,4.25s-1.9,4.25-4.25,4.25Zm-113.39,0h-56.69c-2.35,0-4.25-1.9-4.25-4.25s1.9-4.25,4.25-4.25h56.69c2.35,0,4.25,1.9,4.25,4.25s-1.9,4.25-4.25,4.25Zm-113.39,0h-56.69c-2.35,0-4.25-1.9-4.25-4.25s1.9-4.25,4.25-4.25h56.69c2.35,0,4.25,1.9,4.25,4.25s-1.9,4.25-4.25,4.25Zm-113.39,0h-56.69c-2.35,0-4.25-1.9-4.25-4.25s1.9-4.25,4.25-4.25h56.69c2.35,0,4.25,1.9,4.25,4.25s-1.9,4.25-4.25,4.25Z"/><path class="cls-6" d="m869.83,810.93h-56.69c-2.35,0-4.25-1.9-4.25-4.25s1.9-4.25,4.25-4.25h56.69c2.35,0,4.25,1.9,4.25,4.25s-1.9,4.25-4.25,4.25Zm-113.39,0h-56.69c-2.35,0-4.25-1.9-4.25-4.25s1.9-4.25,4.25-4.25h56.69c2.35,0,4.25,1.9,4.25,4.25s-1.9,4.25-4.25,4.25Zm-113.39,0h-56.69c-2.35,0-4.25-1.9-4.25-4.25s1.9-4.25,4.25-4.25h56.69c2.35,0,4.25,1.9,4.25,4.25s-1.9,4.25-4.25,4.25Zm-113.39,0h-56.69c-2.35,0-4.25-1.9-4.25-4.25s1.9-4.25,4.25-4.25h56.69c2.35,0,4.25,1.9,4.25,4.25s-1.9,4.25-4.25,4.25Zm-113.39,0h-56.69c-2.35,0-4.25-1.9-4.25-4.25s1.9-4.25,4.25-4.25h56.69c2.35,0,4.25,1.9,4.25,4.25s-1.9,4.25-4.25,4.25Z"/></g><g><path class="cls-6" d="m550.77,1387.53c1.47,0,2.66-1.19,2.66-2.66v-31.05h31.05c1.47,0,2.66-1.19,2.66-2.66s-1.19-2.66-2.66-2.66h-31.05v-31.05c0-1.47-1.19-2.66-2.66-2.66s-2.66,1.19-2.66,2.66v31.05h-31.06c-1.47,0-2.66,1.19-2.66,2.66s1.19,2.66,2.66,2.66h31.06v31.05c0,1.47,1.19,2.66,2.66,2.66Z"/><path class="cls-6" d="m129.44,1031.44c1.47,0,2.66-1.19,2.66-2.66v-31.05h31.05c1.47,0,2.66-1.19,2.66-2.66s-1.19-2.66-2.66-2.66h-31.05v-31.05c0-1.47-1.19-2.66-2.66-2.66s-2.66,1.19-2.66,2.66v31.05h-31.05c-1.47,0-2.66,1.19-2.66,2.66s1.19,2.66,2.66,2.66h31.05v31.05c0,1.47,1.19,2.66,2.66,2.66Z"/><path class="cls-6" d="m702.46,1211.1c10.23,0,18.55-8.32,18.55-18.54s-8.32-18.55-18.55-18.55-18.54,8.32-18.54,18.55,8.32,18.54,18.54,18.54Zm0-30.34c6.51,0,11.8,5.29,11.8,11.8s-5.3,11.8-11.8,11.8-11.8-5.29-11.8-11.8,5.3-11.8,11.8-11.8Z"/><path class="cls-6" d="m380.45,1237.71c10.22,0,18.54-8.32,18.54-18.54s-8.32-18.55-18.54-18.55-18.55,8.32-18.55,18.55,8.32,18.54,18.55,18.54Zm0-30.34c6.51,0,11.8,5.29,11.8,11.8s-5.29,11.79-11.8,11.79-11.8-5.29-11.8-11.79,5.3-11.8,11.8-11.8Z"/></g><g><path class="cls-6" d="m1609.73,659.26c1.47,0,2.66,1.19,2.66,2.66v31.05h31.05c1.47,0,2.65,1.19,2.65,2.66s-1.19,2.66-2.65,2.66h-31.05v31.05c0,1.47-1.19,2.66-2.66,2.66s-2.66-1.19-2.66-2.66v-31.05h-31.05c-1.47,0-2.66-1.19-2.66-2.66s1.19-2.66,2.66-2.66h31.05v-31.05c0-1.47,1.19-2.66,2.66-2.66Z"/><path class="cls-6" d="m1615.71,436.17c0,10.23,8.32,18.55,18.54,18.55s18.54-8.32,18.54-18.55-8.32-18.54-18.54-18.54-18.54,8.32-18.54,18.54Zm6.74,0c0-6.51,5.29-11.79,11.8-11.79s11.8,5.29,11.8,11.79-5.3,11.8-11.8,11.8-11.8-5.3-11.8-11.8Z"/><path class="cls-6" d="m1784,271.88c0,10.23,8.32,18.55,18.55,18.55s18.55-8.32,18.55-18.55-8.32-18.54-18.55-18.54-18.55,8.32-18.55,18.54Zm6.74,0c0-6.5,5.3-11.8,11.8-11.8s11.8,5.29,11.8,11.8-5.3,11.8-11.8,11.8-11.8-5.3-11.8-11.8Z"/></g></svg>